  0
SECTION
  2
BLOCKS
  0
ENDSEC
  0
SECTION
  2
ENTITIES
  0
LINE
  8
0
 10
182
 20
0
 11
182
 21
30
  0
LINE
  8
0
 10
182
 20
30
 11
0
 21
30
  0
LINE
  8
0
 10
0
 20
30
 11
0
 21
6
  0
LINE
  8
0
 10
0
 20
6
 11
6
 21
0
  0
LINE
  8
0
 10
6
 20
0
 11
182
 21
0
  0
LINE
  8
0
 10
161.8
 20
9.29999
 11
161.8
 21
23.7
  0
LINE
  8
0
 10
161.8
 20
23.7
 11
176.2
 21
23.7
  0
LINE
  8
0
 10
176.2
 20
23.7
 11
176.2
 21
9.29999
  0
LINE
  8
0
 10
176.2
 20
9.29999
 11
161.8
 21
9.29999
  0
LINE
  8
0
 10
135.85
 20
9.34999
 11
135.85
 21
23.65
  0
LINE
  8
0
 10
135.85
 20
23.65
 11
150.15
 21
23.65
  0
LINE
  8
0
 10
150.15
 20
23.65
 11
150.15
 21
9.34999
  0
LINE
  8
0
 10
150.15
 20
9.34999
 11
135.85
 21
9.34999
  0
LINE
  8
0
 10
109.9
 20
9.39999
 11
109.9
 21
23.6
  0
LINE
  8
0
 10
109.9
 20
23.6
 11
124.1
 21
23.6
  0
LINE
  8
0
 10
124.1
 20
23.6
 11
124.1
 21
9.39999
  0
LINE
  8
0
 10
124.1
 20
9.39999
 11
109.9
 21
9.39999
  0
LINE
  8
0
 10
83.95
 20
9.45
 11
83.95
 21
23.55
  0
LINE
  8
0
 10
83.95
 20
23.55
 11
98.05
 21
23.55
  0
LINE
  8
0
 10
98.05
 20
23.55
 11
98.05
 21
9.45
  0
LINE
  8
0
 10
98.05
 20
9.45
 11
83.95
 21
9.45
  0
LINE
  8
0
 10
58
 20
9.5
 11
58
 21
23.5
  0
LINE
  8
0
 10
58
 20
23.5
 11
72
 21
23.5
  0
LINE
  8
0
 10
72
 20
23.5
 11
72
 21
9.5
  0
LINE
  8
0
 10
72
 20
9.5
 11
58
 21
9.5
  0
LINE
  8
0
 10
32.05
 20
9.54999
 11
32.05
 21
23.45
  0
LINE
  8
0
 10
32.05
 20
23.45
 11
45.95
 21
23.45
  0
LINE
  8
0
 10
45.95
 20
23.45
 11
45.95
 21
9.54999
  0
LINE
  8
0
 10
45.95
 20
9.54999
 11
32.05
 21
9.54999
  0
LINE
  8
0
 10
6.09999
 20
9.59999
 11
6.09999
 21
23.4
  0
LINE
  8
0
 10
6.09999
 20
23.4
 11
19.9
 21
23.4
  0
LINE
  8
0
 10
19.9
 20
23.4
 11
19.9
 21
9.59999
  0
LINE
  8
0
 10
19.9
 20
9.59999
 11
6.09999
 21
9.59999
  0
LINE
  8
0
 10
42.7602
 20
4.4471
 11
42.6373
 21
4.45921
  0
LINE
  8
0
 10
42.6373
 20
4.45921
 11
42.5221
 21
4.47942
  0
LINE
  8
0
 10
42.5221
 20
4.47942
 11
42.4145
 21
4.50768
  0
LINE
  8
0
 10
42.4145
 20
4.50768
 11
42.3145
 21
4.54404
  0
LINE
  8
0
 10
42.3145
 20
4.54404
 11
42.2221
 21
4.58847
  0
LINE
  8
0
 10
42.2221
 20
4.58847
 11
42.1373
 21
4.64099
  0
LINE
  8
0
 10
42.1373
 20
4.64099
 11
42.0596
 21
4.70251
  0
LINE
  8
0
 10
42.0596
 20
4.70251
 11
41.9885
 21
4.77397
  0
LINE
  8
0
 10
41.9885
 20
4.77397
 11
41.924
 21
4.85538
  0
LINE
  8
0
 10
41.924
 20
4.85538
 11
41.866
 21
4.94673
  0
LINE
  8
0
 10
41.866
 20
4.94673
 11
41.8146
 21
5.048
  0
LINE
  8
0
 10
41.8146
 20
5.048
 11
41.7697
 21
5.15923
  0
LINE
  8
0
 10
41.7697
 20
5.15923
 11
41.7315
 21
5.2804
  0
LINE
  8
0
 10
41.7315
 20
5.2804
 11
42.2213
 21
5.3573
  0
LINE
  8
0
 10
42.2213
 20
5.3573
 11
42.2728
 21
5.2243
  0
LINE
  8
0
 10
42.2728
 20
5.2243
 11
42.3394
 21
5.11177
  0
LINE
  8
0
 10
42.3394
 20
5.11177
 11
42.4212
 21
5.0197
  0
LINE
  8
0
 10
42.4212
 20
5.0197
 11
42.518
 21
4.94809
  0
LINE
  8
0
 10
42.518
 20
4.94809
 11
42.6299
 21
4.89694
  0
LINE
  8
0
 10
42.6299
 20
4.89694
 11
42.757
 21
4.86626
  0
LINE
  8
0
 10
42.757
 20
4.86626
 11
42.8992
 21
4.85603
  0
LINE
  8
0
 10
42.8992
 20
4.85603
 11
43.0213
 21
4.8644
  0
LINE
  8
0
 10
43.0213
 20
4.8644
 11
43.1352
 21
4.88951
  0
LINE
  8
0
 10
43.1352
 20
4.88951
 11
43.241
 21
4.93135
  0
LINE
  8
0
 10
43.241
 20
4.93135
 11
43.3386
 21
4.98994
  0
LINE
  8
0
 10
43.3386
 20
4.98994
 11
43.4281
 21
5.06528
  0
LINE
  8
0
 10
43.4281
 20
5.06528
 11
43.5095
 21
5.15735
  0
LINE
  8
0
 10
43.5095
 20
5.15735
 11
43.5827
 21
5.26616
  0
LINE
  8
0
 10
43.5827
 20
5.26616
 11
43.6472
 21
5.39049
  0
LINE
  8
0
 10
43.6472
 20
5.39049
 11
43.7022
 21
5.52911
  0
LINE
  8
0
 10
43.7022
 20
5.52911
 11
43.7479
 21
5.68204
  0
LINE
  8
0
 10
43.7479
 20
5.68204
 11
43.7841
 21
5.84927
  0
LINE
  8
0
 10
43.7841
 20
5.84927
 11
43.8109
 21
6.03079
  0
LINE
  8
0
 10
43.8109
 20
6.03079
 11
43.8282
 21
6.22661
  0
LINE
  8
0
 10
43.8282
 20
6.22661
 11
43.8362
 21
6.43674
  0
LINE
  8
0
 10
43.8362
 20
6.43674
 11
43.8004
 21
6.36555
  0
LINE
  8
0
 10
43.8004
 20
6.36555
 11
43.7579
 21
6.29849
  0
LINE
  8
0
 10
43.7579
 20
6.29849
 11
43.7088
 21
6.23557
  0
LINE
  8
0
 10
43.7088
 20
6.23557
 11
43.653
 21
6.17677
  0
LINE
  8
0
 10
43.653
 20
6.17677
 11
43.5907
 21
6.1221
  0
LINE
  8
0
 10
43.5907
 20
6.1221
 11
43.5217
 21
6.07155
  0
LINE
  8
0
 10
43.5217
 20
6.07155
 11
43.446
 21
6.02513
  0
LINE
  8
0
 10
43.446
 20
6.02513
 11
43.366
 21
5.98396
  0
LINE
  8
0
 10
43.366
 20
5.98396
 11
43.2837
 21
5.94913
  0
LINE
  8
0
 10
43.2837
 20
5.94913
 11
43.1993
 21
5.92062
  0
LINE
  8
0
 10
43.1993
 20
5.92062
 11
43.1126
 21
5.89845
  0
LINE
  8
0
 10
43.1126
 20
5.89845
 11
43.0238
 21
5.88261
  0
LINE
  8
0
 10
43.0238
 20
5.88261
 11
42.9327
 21
5.87311
  0
LINE
  8
0
 10
42.9327
 20
5.87311
 11
42.8394
 21
5.86995
  0
LINE
  8
0
 10
42.8394
 20
5.86995
 11
42.6892
 21
5.8775
  0
LINE
  8
0
 10
42.6892
 20
5.8775
 11
42.5478
 21
5.90018
  0
LINE
  8
0
 10
42.5478
 20
5.90018
 11
42.4153
 21
5.93794
  0
LINE
  8
0
 10
42.4153
 20
5.93794
 11
42.2916
 21
5.99084
  0
LINE
  8
0
 10
42.2916
 20
5.99084
 11
42.1767
 21
6.05884
  0
LINE
  8
0
 10
42.1767
 20
6.05884
 11
42.0707
 21
6.14195
  0
LINE
  8
0
 10
42.0707
 20
6.14195
 11
41.9735
 21
6.24017
  0
LINE
  8
0
 10
41.9735
 20
6.24017
 11
41.8874
 21
6.35091
  0
LINE
  8
0
 10
41.8874
 20
6.35091
 11
41.8145
 21
6.47153
  0
LINE
  8
0
 10
41.8145
 20
6.47153
 11
41.7549
 21
6.60202
  0
LINE
  8
0
 10
41.7549
 20
6.60202
 11
41.7085
 21
6.7424
  0
LINE
  8
0
 10
41.7085
 20
6.7424
 11
41.6754
 21
6.89265
  0
LINE
  8
0
 10
41.6754
 20
6.89265
 11
41.6555
 21
7.0528
  0
LINE
  8
0
 10
41.6555
 20
7.0528
 11
41.6488
 21
7.22281
  0
LINE
  8
0
 10
41.6488
 20
7.22281
 11
41.6561
 21
7.39716
  0
LINE
  8
0
 10
41.6561
 20
7.39716
 11
41.6777
 21
7.5605
  0
LINE
  8
0
 10
41.6777
 20
7.5605
 11
41.7137
 21
7.71288
  0
LINE
  8
0
 10
41.7137
 20
7.71288
 11
41.7642
 21
7.85426
  0
LINE
  8
0
 10
41.7642
 20
7.85426
 11
41.829
 21
7.98465
  0
LINE
  8
0
 10
41.829
 20
7.98465
 11
41.9083
 21
8.10406
  0
LINE
  8
0
 10
41.9083
 20
8.10406
 11
42.002
 21
8.21249
  0
LINE
  8
0
 10
42.002
 20
8.21249
 11
42.1086
 21
8.30809
  0
LINE
  8
0
 10
42.1086
 20
8.30809
 11
42.2264
 21
8.38898
  0
LINE
  8
0
 10
42.2264
 20
8.38898
 11
42.3555
 21
8.45515
  0
LINE
  8
0
 10
42.3555
 20
8.45515
 11
42.4959
 21
8.50664
  0
LINE
  8
0
 10
42.4959
 20
8.50664
 11
42.6475
 21
8.5434
  0
LINE
  8
0
 10
42.6475
 20
8.5434
 11
42.8104
 21
8.56546
  0
LINE
  8
0
 10
42.8104
 20
8.56546
 11
42.9846
 21
8.57281
  0
LINE
  8
0
 10
42.9846
 20
8.57281
 11
43.1692
 21
8.5627
  0
LINE
  8
0
 10
43.1692
 20
8.5627
 11
43.3406
 21
8.53236
  0
LINE
  8
0
 10
43.3406
 20
8.53236
 11
43.4987
 21
8.48178
  0
LINE
  8
0
 10
43.4987
 20
8.48178
 11
43.6435
 21
8.41098
  0
LINE
  8
0
 10
43.6435
 20
8.41098
 11
43.7751
 21
8.31996
  0
LINE
  8
0
 10
43.7751
 20
8.31996
 11
43.8935
 21
8.20869
  0
LINE
  8
0
 10
43.8935
 20
8.20869
 11
43.9986
 21
8.07721
  0
LINE
  8
0
 10
43.9986
 20
8.07721
 11
44.09
 21
7.92546
  0
LINE
  8
0
 10
44.09
 20
7.92546
 11
44.1674
 21
7.75336
  0
LINE
  8
0
 10
44.1674
 20
7.75336
 11
44.2307
 21
7.56091
  0
LINE
  8
0
 10
44.2307
 20
7.56091
 11
44.2799
 21
7.34811
  0
LINE
  8
0
 10
44.2799
 20
7.34811
 11
44.3151
 21
7.11499
  0
LINE
  8
0
 10
44.3151
 20
7.11499
 11
44.3362
 21
6.86151
  0
LINE
  8
0
 10
44.3362
 20
6.86151
 11
44.3432
 21
6.58769
  0
LINE
  8
0
 10
44.3432
 20
6.58769
 11
44.3355
 21
6.30206
  0
LINE
  8
0
 10
44.3355
 20
6.30206
 11
44.3124
 21
6.03596
  0
LINE
  8
0
 10
44.3124
 20
6.03596
 11
44.2739
 21
5.7894
  0
LINE
  8
0
 10
44.2739
 20
5.7894
 11
44.22
 21
5.56235
  0
LINE
  8
0
 10
44.22
 20
5.56235
 11
44.1506
 21
5.35484
  0
LINE
  8
0
 10
44.1506
 20
5.35484
 11
44.0659
 21
5.16685
  0
LINE
  8
0
 10
44.0659
 20
5.16685
 11
43.9658
 21
4.99841
  0
LINE
  8
0
 10
43.9658
 20
4.99841
 11
43.8514
 21
4.85106
  0
LINE
  8
0
 10
43.8514
 20
4.85106
 11
43.724
 21
4.72639
  0
LINE
  8
0
 10
43.724
 20
4.72639
 11
43.5835
 21
4.62439
  0
LINE
  8
0
 10
43.5835
 20
4.62439
 11
43.4299
 21
4.54504
  0
LINE
  8
0
 10
43.4299
 20
4.54504
 11
43.2632
 21
4.48839
  0
LINE
  8
0
 10
43.2632
 20
4.48839
 11
43.0835
 21
4.45439
  0
LINE
  8
0
 10
43.0835
 20
4.45439
 11
42.8906
 21
4.44305
  0
LINE
  8
0
 10
42.8906
 20
4.44305
 11
42.7602
 21
4.4471
  0
LINE
  8
0
 10
43.0247
 20
6.27643
 11
43.0862
 21
6.28262
  0
LINE
  8
0
 10
43.0862
 20
6.28262
 11
43.1465
 21
6.29294
  0
LINE
  8
0
 10
43.1465
 20
6.29294
 11
43.2055
 21
6.30737
  0
LINE
  8
0
 10
43.2055
 20
6.30737
 11
43.2632
 21
6.32594
  0
LINE
  8
0
 10
43.2632
 20
6.32594
 11
43.3196
 21
6.34863
  0
LINE
  8
0
 10
43.3196
 20
6.34863
 11
43.3748
 21
6.37546
  0
LINE
  8
0
 10
43.3748
 20
6.37546
 11
43.4277
 21
6.40607
  0
LINE
  8
0
 10
43.4277
 20
6.40607
 11
43.4772
 21
6.44011
  0
LINE
  8
0
 10
43.4772
 20
6.44011
 11
43.5235
 21
6.47757
  0
LINE
  8
0
 10
43.5235
 20
6.47757
 11
43.5664
 21
6.51848
  0
LINE
  8
0
 10
43.5664
 20
6.51848
 11
43.606
 21
6.56279
  0
LINE
  8
0
 10
43.606
 20
6.56279
 11
43.6423
 21
6.61055
  0
LINE
  8
0
 10
43.6423
 20
6.61055
 11
43.6753
 21
6.66173
  0
LINE
  8
0
 10
43.6753
 20
6.66173
 11
43.7044
 21
6.71567
  0
LINE
  8
0
 10
43.7044
 20
6.71567
 11
43.729
 21
6.77171
  0
LINE
  8
0
 10
43.729
 20
6.77171
 11
43.7491
 21
6.82983
  0
LINE
  8
0
 10
43.7491
 20
6.82983
 11
43.7648
 21
6.89005
  0
LINE
  8
0
 10
43.7648
 20
6.89005
 11
43.776
 21
6.95236
  0
LINE
  8
0
 10
43.776
 20
6.95236
 11
43.7827
 21
7.01675
  0
LINE
  8
0
 10
43.7827
 20
7.01675
 11
43.7849
 21
7.08325
  0
LINE
  8
0
 10
43.7849
 20
7.08325
 11
43.7804
 21
7.21771
  0
LINE
  8
0
 10
43.7804
 20
7.21771
 11
43.7668
 21
7.34445
  0
LINE
  8
0
 10
43.7668
 20
7.34445
 11
43.7441
 21
7.46346
  0
LINE
  8
0
 10
43.7441
 20
7.46346
 11
43.7124
 21
7.57474
  0
LINE
  8
0
 10
43.7124
 20
7.57474
 11
43.6716
 21
7.67828
  0
LINE
  8
0
 10
43.6716
 20
7.67828
 11
43.6217
 21
7.77409
  0
LINE
  8
0
 10
43.6217
 20
7.77409
 11
43.5628
 21
7.86218
  0
LINE
  8
0
 10
43.5628
 20
7.86218
 11
43.4962
 21
7.94038
  0
LINE
  8
0
 10
43.4962
 20
7.94038
 11
43.4235
 21
8.00656
  0
LINE
  8
0
 10
43.4235
 20
8.00656
 11
43.3447
 21
8.06071
  0
LINE
  8
0
 10
43.3447
 20
8.06071
 11
43.2596
 21
8.10283
  0
LINE
  8
0
 10
43.2596
 20
8.10283
 11
43.1684
 21
8.1329
  0
LINE
  8
0
 10
43.1684
 20
8.1329
 11
43.0711
 21
8.15096
  0
LINE
  8
0
 10
43.0711
 20
8.15096
 11
42.9675
 21
8.15697
  0
LINE
  8
0
 10
42.9675
 20
8.15697
 11
42.8649
 21
8.15182
  0
LINE
  8
0
 10
42.8649
 20
8.15182
 11
42.7688
 21
8.1364
  0
LINE
  8
0
 10
42.7688
 20
8.1364
 11
42.679
 21
8.11067
  0
LINE
  8
0
 10
42.679
 20
8.11067
 11
42.5956
 21
8.07466
  0
LINE
  8
0
 10
42.5956
 20
8.07466
 11
42.5185
 21
8.02837
  0
LINE
  8
0
 10
42.5185
 20
8.02837
 11
42.4479
 21
7.97177
  0
LINE
  8
0
 10
42.4479
 20
7.97177
 11
42.3837
 21
7.90489
  0
LINE
  8
0
 10
42.3837
 20
7.90489
 11
42.327
 21
7.82924
  0
LINE
  8
0
 10
42.327
 20
7.82924
 11
42.2791
 21
7.74634
  0
LINE
  8
0
 10
42.2791
 20
7.74634
 11
42.2398
 21
7.65616
  0
LINE
  8
0
 10
42.2398
 20
7.65616
 11
42.2093
 21
7.55872
  0
LINE
  8
0
 10
42.2093
 20
7.55872
 11
42.1875
 21
7.45401
  0
LINE
  8
0
 10
42.1875
 20
7.45401
 11
42.1744
 21
7.34204
  0
LINE
  8
0
 10
42.1744
 20
7.34204
 11
42.1701
 21
7.22281
  0
LINE
  8
0
 10
42.1701
 20
7.22281
 11
42.1744
 21
7.10124
  0
LINE
  8
0
 10
42.1744
 20
7.10124
 11
42.1875
 21
6.98717
  0
LINE
  8
0
 10
42.1875
 20
6.98717
 11
42.2093
 21
6.8806
  0
LINE
  8
0
 10
42.2093
 20
6.8806
 11
42.2398
 21
6.78152
  0
LINE
  8
0
 10
42.2398
 20
6.78152
 11
42.2791
 21
6.68994
  0
LINE
  8
0
 10
42.2791
 20
6.68994
 11
42.327
 21
6.60585
  0
LINE
  8
0
 10
42.327
 20
6.60585
 11
42.3837
 21
6.52927
  0
LINE
  8
0
 10
42.3837
 20
6.52927
 11
42.4478
 21
6.46164
  0
LINE
  8
0
 10
42.4478
 20
6.46164
 11
42.5181
 21
6.40442
  0
LINE
  8
0
 10
42.5181
 20
6.40442
 11
42.5945
 21
6.3576
  0
LINE
  8
0
 10
42.5945
 20
6.3576
 11
42.6771
 21
6.32118
  0
LINE
  8
0
 10
42.6771
 20
6.32118
 11
42.7659
 21
6.29518
  0
LINE
  8
0
 10
42.7659
 20
6.29518
 11
42.8608
 21
6.27957
  0
LINE
  8
0
 10
42.8608
 20
6.27957
 11
42.9619
 21
6.27437
  0
LINE
  8
0
 10
42.9619
 20
6.27437
 11
43.0247
 21
6.27643
  0
LINE
  8
0
 10
38.0817
 20
4.44867
 11
37.9227
 21
4.46548
  0
LINE
  8
0
 10
37.9227
 20
4.46548
 11
37.7737
 21
4.49355
  0
LINE
  8
0
 10
37.7737
 20
4.49355
 11
37.6347
 21
4.53279
  0
LINE
  8
0
 10
37.6347
 20
4.53279
 11
37.5058
 21
4.58327
  0
LINE
  8
0
 10
37.5058
 20
4.58327
 11
37.387
 21
4.64497
  0
LINE
  8
0
 10
37.387
 20
4.64497
 11
37.2782
 21
4.7179
  0
LINE
  8
0
 10
37.2782
 20
4.7179
 11
37.1805
 21
4.80179
  0
LINE
  8
0
 10
37.1805
 20
4.80179
 11
37.0948
 21
4.89645
  0
LINE
  8
0
 10
37.0948
 20
4.89645
 11
37.0211
 21
5.00186
  0
LINE
  8
0
 10
37.0211
 20
5.00186
 11
36.9595
 21
5.11801
  0
LINE
  8
0
 10
36.9595
 20
5.11801
 11
36.9098
 21
5.24493
  0
LINE
  8
0
 10
36.9098
 20
5.24493
 11
36.8723
 21
5.3826
  0
LINE
  8
0
 10
36.8723
 20
5.3826
 11
36.8467
 21
5.53101
  0
LINE
  8
0
 10
36.8467
 20
5.53101
 11
37.3765
 21
5.57944
  0
LINE
  8
0
 10
37.3765
 20
5.57944
 11
37.4194
 21
5.39053
  0
LINE
  8
0
 10
37.4194
 20
5.39053
 11
37.4897
 21
5.23068
  0
LINE
  8
0
 10
37.4897
 20
5.23068
 11
37.5873
 21
5.0999
  0
LINE
  8
0
 10
37.5873
 20
5.0999
 11
37.7122
 21
4.99818
  0
LINE
  8
0
 10
37.7122
 20
4.99818
 11
37.8644
 21
4.92554
  0
LINE
  8
0
 10
37.8644
 20
4.92554
 11
38.044
 21
4.88194
  0
LINE
  8
0
 10
38.044
 20
4.88194
 11
38.2509
 21
4.8674
  0
LINE
  8
0
 10
38.2509
 20
4.8674
 11
38.3581
 21
4.87131
  0
LINE
  8
0
 10
38.3581
 20
4.87131
 11
38.4586
 21
4.88298
  0
LINE
  8
0
 10
38.4586
 20
4.88298
 11
38.5522
 21
4.90245
  0
LINE
  8
0
 10
38.5522
 20
4.90245
 11
38.6391
 21
4.92972
  0
LINE
  8
0
 10
38.6391
 20
4.92972
 11
38.7192
 21
4.96475
  0
LINE
  8
0
 10
38.7192
 20
4.96475
 11
38.7924
 21
5.0076
  0
LINE
  8
0
 10
38.7924
 20
5.0076
 11
38.8589
 21
5.05821
  0
LINE
  8
0
 10
38.8589
 20
5.05821
 11
38.9174
 21
5.11652
  0
LINE
  8
0
 10
38.9174
 20
5.11652
 11
38.967
 21
5.18237
  0
LINE
  8
0
 10
38.967
 20
5.18237
 11
39.0075
 21
5.2558
  0
LINE
  8
0
 10
39.0075
 20
5.2558
 11
39.0391
 21
5.33676
  0
LINE
  8
0
 10
39.0391
 20
5.33676
 11
39.0616
 21
5.42529
  0
LINE
  8
0
 10
39.0616
 20
5.42529
 11
39.0751
 21
5.52136
  0
LINE
  8
0
 10
39.0751
 20
5.52136
 11
39.0796
 21
5.625
  0
LINE
  8
0
 10
39.0796
 20
5.625
 11
39.0745
 21
5.71565
  0
LINE
  8
0
 10
39.0745
 20
5.71565
 11
39.0591
 21
5.80042
  0
LINE
  8
0
 10
39.0591
 20
5.80042
 11
39.0333
 21
5.87932
  0
LINE
  8
0
 10
39.0333
 20
5.87932
 11
38.9973
 21
5.95235
  0
LINE
  8
0
 10
38.9973
 20
5.95235
 11
38.951
 21
6.01952
  0
LINE
  8
0
 10
38.951
 20
6.01952
 11
38.8945
 21
6.08081
  0
LINE
  8
0
 10
38.8945
 20
6.08081
 11
38.8276
 21
6.13623
  0
LINE
  8
0
 10
38.8276
 20
6.13623
 11
38.751
 21
6.18497
  0
LINE
  8
0
 10
38.751
 20
6.18497
 11
38.6653
 21
6.22621
  0
LINE
  8
0
 10
38.6653
 20
6.22621
 11
38.5705
 21
6.25995
  0
LINE
  8
0
 10
38.5705
 20
6.25995
 11
38.4665
 21
6.28619
  0
LINE
  8
0
 10
38.4665
 20
6.28619
 11
38.3535
 21
6.30495
  0
LINE
  8
0
 10
38.3535
 20
6.30495
 11
38.2312
 21
6.31619
  0
LINE
  8
0
 10
38.2312
 20
6.31619
 11
38.0999
 21
6.31993
  0
LINE
  8
0
 10
38.0999
 20
6.31993
 11
37.8094
 21
6.31993
  0
LINE
  8
0
 10
37.8094
 20
6.31993
 11
37.8094
 21
6.76425
  0
LINE
  8
0
 10
37.8094
 20
6.76425
 11
38.0885
 21
6.76425
  0
LINE
  8
0
 10
38.0885
 20
6.76425
 11
38.2051
 21
6.76801
  0
LINE
  8
0
 10
38.2051
 20
6.76801
 11
38.3139
 21
6.77925
  0
LINE
  8
0
 10
38.3139
 20
6.77925
 11
38.415
 21
6.798
  0
LINE
  8
0
 10
38.415
 20
6.798
 11
38.5084
 21
6.82423
  0
LINE
  8
0
 10
38.5084
 20
6.82423
 11
38.594
 21
6.85799
  0
LINE
  8
0
 10
38.594
 20
6.85799
 11
38.672
 21
6.89923
  0
LINE
  8
0
 10
38.672
 20
6.89923
 11
38.7421
 21
6.94797
  0
LINE
  8
0
 10
38.7421
 20
6.94797
 11
38.8037
 21
7.00333
  0
LINE
  8
0
 10
38.8037
 20
7.00333
 11
38.8558
 21
7.06444
  0
LINE
  8
0
 10
38.8558
 20
7.06444
 11
38.8985
 21
7.13132
  0
LINE
  8
0
 10
38.8985
 20
7.13132
 11
38.9316
 21
7.20393
  0
LINE
  8
0
 10
38.9316
 20
7.20393
 11
38.9553
 21
7.28232
  0
LINE
  8
0
 10
38.9553
 20
7.28232
 11
38.9695
 21
7.36644
  0
LINE
  8
0
 10
38.9695
 20
7.36644
 11
38.9743
 21
7.45633
  0
LINE
  8
0
 10
38.9743
 20
7.45633
 11
38.9704
 21
7.54553
  0
LINE
  8
0
 10
38.9704
 20
7.54553
 11
38.9588
 21
7.6292
  0
LINE
  8
0
 10
38.9588
 20
7.6292
 11
38.9395
 21
7.70735
  0
LINE
  8
0
 10
38.9395
 20
7.70735
 11
38.9124
 21
7.77998
  0
LINE
  8
0
 10
38.9124
 20
7.77998
 11
38.8776
 21
7.84709
  0
LINE
  8
0
 10
38.8776
 20
7.84709
 11
38.8351
 21
7.90868
  0
LINE
  8
0
 10
38.8351
 20
7.90868
 11
38.7848
 21
7.96474
  0
LINE
  8
0
 10
38.7848
 20
7.96474
 11
38.727
 21
8.01424
  0
LINE
  8
0
 10
38.727
 20
8.01424
 11
38.6616
 21
8.05612
  0
LINE
  8
0
 10
38.6616
 20
8.05612
 11
38.5888
 21
8.09039
  0
LINE
  8
0
 10
38.5888
 20
8.09039
 11
38.5084
 21
8.11703
  0
LINE
  8
0
 10
38.5084
 20
8.11703
 11
38.4206
 21
8.13608
  0
LINE
  8
0
 10
38.4206
 20
8.13608
 11
38.3252
 21
8.14749
  0
LINE
  8
0
 10
38.3252
 20
8.14749
 11
38.2224
 21
8.15131
  0
LINE
  8
0
 10
38.2224
 20
8.15131
 11
38.1282
 21
8.14775
  0
LINE
  8
0
 10
38.1282
 20
8.14775
 11
38.0393
 21
8.13712
  0
LINE
  8
0
 10
38.0393
 20
8.13712
 11
37.9557
 21
8.11938
  0
LINE
  8
0
 10
37.9557
 20
8.11938
 11
37.8773
 21
8.09457
  0
LINE
  8
0
 10
37.8773
 20
8.09457
 11
37.8043
 21
8.06265
  0
LINE
  8
0
 10
37.8043
 20
8.06265
 11
37.7366
 21
8.02365
  0
LINE
  8
0
 10
37.7366
 20
8.02365
 11
37.6741
 21
7.97755
  0
LINE
  8
0
 10
37.6741
 20
7.97755
 11
37.6179
 21
7.92502
  0
LINE
  8
0
 10
37.6179
 20
7.92502
 11
37.5688
 21
7.86665
  0
LINE
  8
0
 10
37.5688
 20
7.86665
 11
37.5269
 21
7.80249
  0
LINE
  8
0
 10
37.5269
 20
7.80249
 11
37.4921
 21
7.7325
  0
LINE
  8
0
 10
37.4921
 20
7.7325
 11
37.4644
 21
7.65671
  0
LINE
  8
0
 10
37.4644
 20
7.65671
 11
37.4439
 21
7.57509
  0
LINE
  8
0
 10
37.4439
 20
7.57509
 11
37.4306
 21
7.48766
  0
LINE
  8
0
 10
37.4306
 20
7.48766
 11
36.9151
 21
7.52756
  0
LINE
  8
0
 10
36.9151
 20
7.52756
 11
36.9374
 21
7.66391
  0
LINE
  8
0
 10
36.9374
 20
7.66391
 11
36.9717
 21
7.79144
  0
LINE
  8
0
 10
36.9717
 20
7.79144
 11
37.0181
 21
7.91013
  0
LINE
  8
0
 10
37.0181
 20
7.91013
 11
37.0764
 21
8.01997
  0
LINE
  8
0
 10
37.0764
 20
8.01997
 11
37.1469
 21
8.121
  0
LINE
  8
0
 10
37.1469
 20
8.121
 11
37.2293
 21
8.21318
  0
LINE
  8
0
 10
37.2293
 20
8.21318
 11
37.3238
 21
8.29654
  0
LINE
  8
0
 10
37.3238
 20
8.29654
 11
37.4284
 21
8.36984
  0
LINE
  8
0
 10
37.4284
 20
8.36984
 11
37.5412
 21
8.43185
  0
LINE
  8
0
 10
37.5412
 20
8.43185
 11
37.6622
 21
8.4826
  0
LINE
  8
0
 10
37.6622
 20
8.4826
 11
37.7913
 21
8.52206
  0
LINE
  8
0
 10
37.7913
 20
8.52206
 11
37.9287
 21
8.55026
  0
LINE
  8
0
 10
37.9287
 20
8.55026
 11
38.0743
 21
8.56718
  0
LINE
  8
0
 10
38.0743
 20
8.56718
 11
38.228
 21
8.57281
  0
LINE
  8
0
 10
38.228
 20
8.57281
 11
38.3951
 21
8.56709
  0
LINE
  8
0
 10
38.3951
 20
8.56709
 11
38.5511
 21
8.54991
  0
LINE
  8
0
 10
38.5511
 20
8.54991
 11
38.6962
 21
8.52129
  0
LINE
  8
0
 10
38.6962
 20
8.52129
 11
38.8302
 21
8.4812
  0
LINE
  8
0
 10
38.8302
 20
8.4812
 11
38.9533
 21
8.42967
  0
LINE
  8
0
 10
38.9533
 20
8.42967
 11
39.0654
 21
8.36668
  0
LINE
  8
0
 10
39.0654
 20
8.36668
 11
39.1665
 21
8.29225
  0
LINE
  8
0
 10
39.1665
 20
8.29225
 11
39.2553
 21
8.2076
  0
LINE
  8
0
 10
39.2553
 20
8.2076
 11
39.3304
 21
8.11394
  0
LINE
  8
0
 10
39.3304
 20
8.11394
 11
39.3919
 21
8.01126
  0
LINE
  8
0
 10
39.3919
 20
8.01126
 11
39.4397
 21
7.89958
  0
LINE
  8
0
 10
39.4397
 20
7.89958
 11
39.4739
 21
7.77888
  0
LINE
  8
0
 10
39.4739
 20
7.77888
 11
39.4943
 21
7.64919
  0
LINE
  8
0
 10
39.4943
 20
7.64919
 11
39.5012
 21
7.51047
  0
LINE
  8
0
 10
39.5012
 20
7.51047
 11
39.4968
 21
7.40355
  0
LINE
  8
0
 10
39.4968
 20
7.40355
 11
39.4836
 21
7.30249
  0
LINE
  8
0
 10
39.4836
 20
7.30249
 11
39.4617
 21
7.20731
  0
LINE
  8
0
 10
39.4617
 20
7.20731
 11
39.431
 21
7.118
  0
LINE
  8
0
 10
39.431
 20
7.118
 11
39.3915
 21
7.03456
  0
LINE
  8
0
 10
39.3915
 20
7.03456
 11
39.3432
 21
6.957
  0
LINE
  8
0
 10
39.3432
 20
6.957
 11
39.2861
 21
6.8853
  0
LINE
  8
0
 10
39.2861
 20
6.8853
 11
39.2207
 21
6.8197
  0
LINE
  8
0
 10
39.2207
 20
6.8197
 11
39.1473
 21
6.76045
  0
LINE
  8
0
 10
39.1473
 20
6.76045
 11
39.066
 21
6.70752
  0
LINE
  8
0
 10
39.066
 20
6.70752
 11
38.9767
 21
6.66093
  0
LINE
  8
0
 10
38.9767
 20
6.66093
 11
38.8794
 21
6.62068
  0
LINE
  8
0
 10
38.8794
 20
6.62068
 11
38.7742
 21
6.58676
  0
LINE
  8
0
 10
38.7742
 20
6.58676
 11
38.661
 21
6.55917
  0
LINE
  8
0
 10
38.661
 20
6.55917
 11
38.661
 21
6.54779
  0
LINE
  8
0
 10
38.661
 20
6.54779
 11
38.7855
 21
6.52977
  0
LINE
  8
0
 10
38.7855
 20
6.52977
 11
38.9018
 21
6.50337
  0
LINE
  8
0
 10
38.9018
 20
6.50337
 11
39.0101
 21
6.46861
  0
LINE
  8
0
 10
39.0101
 20
6.46861
 11
39.1101
 21
6.42549
  0
LINE
  8
0
 10
39.1101
 20
6.42549
 11
39.2021
 21
6.37399
  0
LINE
  8
0
 10
39.2021
 20
6.37399
 11
39.2859
 21
6.31413
  0
LINE
  8
0
 10
39.2859
 20
6.31413
 11
39.3616
 21
6.2459
  0
LINE
  8
0
 10
39.3616
 20
6.2459
 11
39.4281
 21
6.17079
  0
LINE
  8
0
 10
39.4281
 20
6.17079
 11
39.4843
 21
6.09035
  0
LINE
  8
0
 10
39.4843
 20
6.09035
 11
39.5304
 21
6.00456
  0
LINE
  8
0
 10
39.5304
 20
6.00456
 11
39.5662
 21
5.91342
  0
LINE
  8
0
 10
39.5662
 20
5.91342
 11
39.5918
 21
5.81694
  0
LINE
  8
0
 10
39.5918
 20
5.81694
 11
39.6071
 21
5.7151
  0
LINE
  8
0
 10
39.6071
 20
5.7151
 11
39.6122
 21
5.60791
  0
LINE
  8
0
 10
39.6122
 20
5.60791
 11
39.605
 21
5.45435
  0
LINE
  8
0
 10
39.605
 20
5.45435
 11
39.5834
 21
5.31102
  0
LINE
  8
0
 10
39.5834
 20
5.31102
 11
39.5473
 21
5.17792
  0
LINE
  8
0
 10
39.5473
 20
5.17792
 11
39.4969
 21
5.05504
  0
LINE
  8
0
 10
39.4969
 20
5.05504
 11
39.432
 21
4.9424
  0
LINE
  8
0
 10
39.432
 20
4.9424
 11
39.3527
 21
4.83998
  0
LINE
  8
0
 10
39.3527
 20
4.83998
 11
39.259
 21
4.74779
  0
LINE
  8
0
 10
39.259
 20
4.74779
 11
39.152
 21
4.66695
  0
LINE
  8
0
 10
39.152
 20
4.66695
 11
39.0326
 21
4.59853
  0
LINE
  8
0
 10
39.0326
 20
4.59853
 11
38.9009
 21
4.54256
  0
LINE
  8
0
 10
38.9009
 20
4.54256
 11
38.7569
 21
4.49902
  0
LINE
  8
0
 10
38.7569
 20
4.49902
 11
38.6005
 21
4.46793
  0
LINE
  8
0
 10
38.6005
 20
4.46793
 11
38.4319
 21
4.44928
  0
LINE
  8
0
 10
38.4319
 20
4.44928
 11
38.2509
 21
4.44305
  0
LINE
  8
0
 10
38.2509
 20
4.44305
 11
38.0817
 21
4.44867
  0
LINE
  8
0
 10
68.7996
 20
4.45381
 11
68.623
 21
4.48607
  0
LINE
  8
0
 10
68.623
 20
4.48607
 11
68.4604
 21
4.53981
  0
LINE
  8
0
 10
68.4604
 20
4.53981
 11
68.3119
 21
4.61508
  0
LINE
  8
0
 10
68.3119
 20
4.61508
 11
68.1774
 21
4.71187
  0
LINE
  8
0
 10
68.1774
 20
4.71187
 11
68.0571
 21
4.83014
  0
LINE
  8
0
 10
68.0571
 20
4.83014
 11
67.9507
 21
4.96992
  0
LINE
  8
0
 10
67.9507
 20
4.96992
 11
67.8586
 21
5.13036
  0
LINE
  8
0
 10
67.8586
 20
5.13036
 11
67.7806
 21
5.31053
  0
LINE
  8
0
 10
67.7806
 20
5.31053
 11
67.7167
 21
5.51048
  0
LINE
  8
0
 10
67.7167
 20
5.51048
 11
67.6671
 21
5.73021
  0
LINE
  8
0
 10
67.6671
 20
5.73021
 11
67.6317
 21
5.96968
  0
LINE
  8
0
 10
67.6317
 20
5.96968
 11
67.6104
 21
6.22893
  0
LINE
  8
0
 10
67.6104
 20
6.22893
 11
67.6033
 21
6.50793
  0
LINE
  8
0
 10
67.6033
 20
6.50793
 11
67.6102
 21
6.79274
  0
LINE
  8
0
 10
67.6102
 20
6.79274
 11
67.6308
 21
7.0564
  0
LINE
  8
0
 10
67.6308
 20
7.0564
 11
67.6653
 21
7.29889
  0
LINE
  8
0
 10
67.6653
 20
7.29889
 11
67.7135
 21
7.52023
  0
LINE
  8
0
 10
67.7135
 20
7.52023
 11
67.7755
 21
7.72041
  0
LINE
  8
0
 10
67.7755
 20
7.72041
 11
67.8513
 21
7.89944
  0
LINE
  8
0
 10
67.8513
 20
7.89944
 11
67.9408
 21
8.05731
  0
LINE
  8
0
 10
67.9408
 20
8.05731
 11
68.0452
 21
8.19408
  0
LINE
  8
0
 10
68.0452
 20
8.19408
 11
68.1656
 21
8.3098
  0
LINE
  8
0
 10
68.1656
 20
8.3098
 11
68.302
 21
8.40448
  0
LINE
  8
0
 10
68.302
 20
8.40448
 11
68.4544
 21
8.47813
  0
LINE
  8
0
 10
68.4544
 20
8.47813
 11
68.6228
 21
8.53073
  0
LINE
  8
0
 10
68.6228
 20
8.53073
 11
68.8071
 21
8.5623
  0
LINE
  8
0
 10
68.8071
 20
8.5623
 11
69.0074
 21
8.57281
  0
LINE
  8
0
 10
69.0074
 20
8.57281
 11
69.2025
 21
8.56218
  0
LINE
  8
0
 10
69.2025
 20
8.56218
 11
69.3823
 21
8.53027
  0
LINE
  8
0
 10
69.3823
 20
8.53027
 11
69.547
 21
8.47708
  0
LINE
  8
0
 10
69.547
 20
8.47708
 11
69.6965
 21
8.40262
  0
LINE
  8
0
 10
69.6965
 20
8.40262
 11
69.8309
 21
8.30688
  0
LINE
  8
0
 10
69.8309
 20
8.30688
 11
69.9501
 21
8.18988
  0
LINE
  8
0
 10
69.9501
 20
8.18988
 11
70.0541
 21
8.05159
  0
LINE
  8
0
 10
70.0541
 20
8.05159
 11
70.1436
 21
7.89246
  0
LINE
  8
0
 10
70.1436
 20
7.89246
 11
70.2194
 21
7.71286
  0
LINE
  8
0
 10
70.2194
 20
7.71286
 11
70.2814
 21
7.5128
  0
LINE
  8
0
 10
70.2814
 20
7.5128
 11
70.3296
 21
7.29227
  0
LINE
  8
0
 10
70.3296
 20
7.29227
 11
70.364
 21
7.05128
  0
LINE
  8
0
 10
70.364
 20
7.05128
 11
70.3847
 21
6.78984
  0
LINE
  8
0
 10
70.3847
 20
6.78984
 11
70.3916
 21
6.50793
  0
LINE
  8
0
 10
70.3916
 20
6.50793
 11
70.3843
 21
6.23038
  0
LINE
  8
0
 10
70.3843
 20
6.23038
 11
70.3626
 21
5.97224
  0
LINE
  8
0
 10
70.3626
 20
5.97224
 11
70.3264
 21
5.73352
  0
LINE
  8
0
 10
70.3264
 20
5.73352
 11
70.2758
 21
5.51422
  0
LINE
  8
0
 10
70.2758
 20
5.51422
 11
70.2107
 21
5.31433
  0
LINE
  8
0
 10
70.2107
 20
5.31433
 11
70.1311
 21
5.13385
  0
LINE
  8
0
 10
70.1311
 20
5.13385
 11
70.037
 21
4.97279
  0
LINE
  8
0
 10
70.037
 20
4.97279
 11
69.9288
 21
4.83224
  0
LINE
  8
0
 10
69.9288
 20
4.83224
 11
69.8068
 21
4.71332
  0
LINE
  8
0
 10
69.8068
 20
4.71332
 11
69.6711
 21
4.61601
  0
LINE
  8
0
 10
69.6711
 20
4.61601
 11
69.5215
 21
4.54034
  0
LINE
  8
0
 10
69.5215
 20
4.54034
 11
69.3582
 21
4.4863
  0
LINE
  8
0
 10
69.3582
 20
4.4863
 11
69.1812
 21
4.45387
  0
LINE
  8
0
 10
69.1812
 20
4.45387
 11
68.9903
 21
4.44305
  0
LINE
  8
0
 10
68.9903
 20
4.44305
 11
68.7996
 21
4.45381
  0
LINE
  8
0
 10
69.1205
 20
4.86995
 11
69.235
 21
4.89471
  0
LINE
  8
0
 10
69.235
 20
4.89471
 11
69.3397
 21
4.93597
  0
LINE
  8
0
 10
69.3397
 20
4.93597
 11
69.4345
 21
4.99374
  0
LINE
  8
0
 10
69.4345
 20
4.99374
 11
69.5194
 21
5.06804
  0
LINE
  8
0
 10
69.5194
 20
5.06804
 11
69.5945
 21
5.15881
  0
LINE
  8
0
 10
69.5945
 20
5.15881
 11
69.6596
 21
5.26611
  0
LINE
  8
0
 10
69.6596
 20
5.26611
 11
69.7156
 21
5.3905
  0
LINE
  8
0
 10
69.7156
 20
5.3905
 11
69.7629
 21
5.53258
  0
LINE
  8
0
 10
69.7629
 20
5.53258
 11
69.8016
 21
5.69231
  0
LINE
  8
0
 10
69.8016
 20
5.69231
 11
69.8317
 21
5.86971
  0
LINE
  8
0
 10
69.8317
 20
5.86971
 11
69.8532
 21
6.06477
  0
LINE
  8
0
 10
69.8532
 20
6.06477
 11
69.8661
 21
6.27751
  0
LINE
  8
0
 10
69.8661
 20
6.27751
 11
69.8704
 21
6.50793
  0
LINE
  8
0
 10
69.8704
 20
6.50793
 11
69.8663
 21
6.74635
  0
LINE
  8
0
 10
69.8663
 20
6.74635
 11
69.854
 21
6.96526
  0
LINE
  8
0
 10
69.854
 20
6.96526
 11
69.8335
 21
7.16463
  0
LINE
  8
0
 10
69.8335
 20
7.16463
 11
69.8048
 21
7.34447
  0
LINE
  8
0
 10
69.8048
 20
7.34447
 11
69.7679
 21
7.50478
  0
LINE
  8
0
 10
69.7679
 20
7.50478
 11
69.7229
 21
7.64555
  0
LINE
  8
0
 10
69.7229
 20
7.64555
 11
69.6696
 21
7.7668
  0
LINE
  8
0
 10
69.6696
 20
7.7668
 11
69.6069
 21
7.87032
  0
LINE
  8
0
 10
69.6069
 20
7.87032
 11
69.5336
 21
7.9579
  0
LINE
  8
0
 10
69.5336
 20
7.9579
 11
69.4496
 21
8.02957
  0
LINE
  8
0
 10
69.4496
 20
8.02957
 11
69.355
 21
8.08531
  0
LINE
  8
0
 10
69.355
 20
8.08531
 11
69.2498
 21
8.12512
  0
LINE
  8
0
 10
69.2498
 20
8.12512
 11
69.1339
 21
8.14902
  0
LINE
  8
0
 10
69.1339
 20
8.14902
 11
69.0074
 21
8.15697
  0
LINE
  8
0
 10
69.0074
 20
8.15697
 11
68.8778
 21
8.14912
  0
LINE
  8
0
 10
68.8778
 20
8.14912
 11
68.759
 21
8.12558
  0
LINE
  8
0
 10
68.759
 20
8.12558
 11
68.6511
 21
8.08635
  0
LINE
  8
0
 10
68.6511
 20
8.08635
 11
68.554
 21
8.03142
  0
LINE
  8
0
 10
68.554
 20
8.03142
 11
68.4679
 21
7.9608
  0
LINE
  8
0
 10
68.4679
 20
7.9608
 11
68.3926
 21
7.87448
  0
LINE
  8
0
 10
68.3926
 20
7.87448
 11
68.3281
 21
7.77246
  0
LINE
  8
0
 10
68.3281
 20
7.77246
 11
68.2733
 21
7.6525
  0
LINE
  8
0
 10
68.2733
 20
7.6525
 11
68.227
 21
7.51231
  0
LINE
  8
0
 10
68.227
 20
7.51231
 11
68.1891
 21
7.3519
  0
LINE
  8
0
 10
68.1891
 20
7.3519
 11
68.1596
 21
7.17125
  0
LINE
  8
0
 10
68.1596
 20
7.17125
 11
68.1385
 21
6.97037
  0
LINE
  8
0
 10
68.1385
 20
6.97037
 11
68.1259
 21
6.74927
  0
LINE
  8
0
 10
68.1259
 20
6.74927
 11
68.1216
 21
6.50793
  0
LINE
  8
0
 10
68.1216
 20
6.50793
 11
68.1259
 21
6.27316
  0
LINE
  8
0
 10
68.1259
 20
6.27316
 11
68.1387
 21
6.0571
  0
LINE
  8
0
 10
68.1387
 20
6.0571
 11
68.1601
 21
5.85977
  0
LINE
  8
0
 10
68.1601
 20
5.85977
 11
68.19
 21
5.68115
  0
LINE
  8
0
 10
68.19
 20
5.68115
 11
68.2284
 21
5.52124
  0
LINE
  8
0
 10
68.2284
 20
5.52124
 11
68.2754
 21
5.38007
  0
LINE
  8
0
 10
68.2754
 20
5.38007
 11
68.331
 21
5.25758
  0
LINE
  8
0
 10
68.331
 20
5.25758
 11
68.3958
 21
5.15256
  0
LINE
  8
0
 10
68.3958
 20
5.15256
 11
68.4707
 21
5.06367
  0
LINE
  8
0
 10
68.4707
 20
5.06367
 11
68.5556
 21
4.99097
  0
LINE
  8
0
 10
68.5556
 20
4.99097
 11
68.6507
 21
4.93442
  0
LINE
  8
0
 10
68.6507
 20
4.93442
 11
68.7557
 21
4.89401
  0
LINE
  8
0
 10
68.7557
 20
4.89401
 11
68.8708
 21
4.86978
  0
LINE
  8
0
 10
68.8708
 20
4.86978
 11
68.996
 21
4.86169
  0
LINE
  8
0
 10
68.996
 20
4.86169
 11
69.1205
 21
4.86995
  0
LINE
  8
0
 10
12.0817
 20
4.44867
 11
11.9227
 21
4.46548
  0
LINE
  8
0
 10
11.9227
 20
4.46548
 11
11.7737
 21
4.49355
  0
LINE
  8
0
 10
11.7737
 20
4.49355
 11
11.6347
 21
4.53279
  0
LINE
  8
0
 10
11.6347
 20
4.53279
 11
11.5058
 21
4.58327
  0
LINE
  8
0
 10
11.5058
 20
4.58327
 11
11.387
 21
4.64497
  0
LINE
  8
0
 10
11.387
 20
4.64497
 11
11.2782
 21
4.7179
  0
LINE
  8
0
 10
11.2782
 20
4.7179
 11
11.1805
 21
4.80179
  0
LINE
  8
0
 10
11.1805
 20
4.80179
 11
11.0948
 21
4.89645
  0
LINE
  8
0
 10
11.0948
 20
4.89645
 11
11.0211
 21
5.00186
  0
LINE
  8
0
 10
11.0211
 20
5.00186
 11
10.9595
 21
5.11801
  0
LINE
  8
0
 10
10.9595
 20
5.11801
 11
10.9098
 21
5.24493
  0
LINE
  8
0
 10
10.9098
 20
5.24493
 11
10.8723
 21
5.3826
  0
LINE
  8
0
 10
10.8723
 20
5.3826
 11
10.8467
 21
5.53101
  0
LINE
  8
0
 10
10.8467
 20
5.53101
 11
11.3765
 21
5.57944
  0
LINE
  8
0
 10
11.3765
 20
5.57944
 11
11.4194
 21
5.39053
  0
LINE
  8
0
 10
11.4194
 20
5.39053
 11
11.4897
 21
5.23068
  0
LINE
  8
0
 10
11.4897
 20
5.23068
 11
11.5873
 21
5.0999
  0
LINE
  8
0
 10
11.5873
 20
5.0999
 11
11.7122
 21
4.99818
  0
LINE
  8
0
 10
11.7122
 20
4.99818
 11
11.8644
 21
4.92554
  0
LINE
  8
0
 10
11.8644
 20
4.92554
 11
12.044
 21
4.88194
  0
LINE
  8
0
 10
12.044
 20
4.88194
 11
12.2509
 21
4.8674
  0
LINE
  8
0
 10
12.2509
 20
4.8674
 11
12.3581
 21
4.87131
  0
LINE
  8
0
 10
12.3581
 20
4.87131
 11
12.4586
 21
4.88298
  0
LINE
  8
0
 10
12.4586
 20
4.88298
 11
12.5522
 21
4.90245
  0
LINE
  8
0
 10
12.5522
 20
4.90245
 11
12.6391
 21
4.92972
  0
LINE
  8
0
 10
12.6391
 20
4.92972
 11
12.7192
 21
4.96475
  0
LINE
  8
0
 10
12.7192
 20
4.96475
 11
12.7924
 21
5.0076
  0
LINE
  8
0
 10
12.7924
 20
5.0076
 11
12.8589
 21
5.05821
  0
LINE
  8
0
 10
12.8589
 20
5.05821
 11
12.9174
 21
5.11652
  0
LINE
  8
0
 10
12.9174
 20
5.11652
 11
12.967
 21
5.18237
  0
LINE
  8
0
 10
12.967
 20
5.18237
 11
13.0075
 21
5.2558
  0
LINE
  8
0
 10
13.0075
 20
5.2558
 11
13.0391
 21
5.33676
  0
LINE
  8
0
 10
13.0391
 20
5.33676
 11
13.0616
 21
5.42529
  0
LINE
  8
0
 10
13.0616
 20
5.42529
 11
13.0751
 21
5.52136
  0
LINE
  8
0
 10
13.0751
 20
5.52136
 11
13.0796
 21
5.625
  0
LINE
  8
0
 10
13.0796
 20
5.625
 11
13.0745
 21
5.71565
  0
LINE
  8
0
 10
13.0745
 20
5.71565
 11
13.0591
 21
5.80042
  0
LINE
  8
0
 10
13.0591
 20
5.80042
 11
13.0333
 21
5.87932
  0
LINE
  8
0
 10
13.0333
 20
5.87932
 11
12.9973
 21
5.95235
  0
LINE
  8
0
 10
12.9973
 20
5.95235
 11
12.951
 21
6.01952
  0
LINE
  8
0
 10
12.951
 20
6.01952
 11
12.8945
 21
6.08081
  0
LINE
  8
0
 10
12.8945
 20
6.08081
 11
12.8276
 21
6.13623
  0
LINE
  8
0
 10
12.8276
 20
6.13623
 11
12.751
 21
6.18497
  0
LINE
  8
0
 10
12.751
 20
6.18497
 11
12.6653
 21
6.22621
  0
LINE
  8
0
 10
12.6653
 20
6.22621
 11
12.5705
 21
6.25995
  0
LINE
  8
0
 10
12.5705
 20
6.25995
 11
12.4665
 21
6.28619
  0
LINE
  8
0
 10
12.4665
 20
6.28619
 11
12.3535
 21
6.30495
  0
LINE
  8
0
 10
12.3535
 20
6.30495
 11
12.2312
 21
6.31619
  0
LINE
  8
0
 10
12.2312
 20
6.31619
 11
12.0999
 21
6.31993
  0
LINE
  8
0
 10
12.0999
 20
6.31993
 11
11.8094
 21
6.31993
  0
LINE
  8
0
 10
11.8094
 20
6.31993
 11
11.8094
 21
6.76425
  0
LINE
  8
0
 10
11.8094
 20
6.76425
 11
12.0885
 21
6.76425
  0
LINE
  8
0
 10
12.0885
 20
6.76425
 11
12.2051
 21
6.76801
  0
LINE
  8
0
 10
12.2051
 20
6.76801
 11
12.3139
 21
6.77925
  0
LINE
  8
0
 10
12.3139
 20
6.77925
 11
12.415
 21
6.798
  0
LINE
  8
0
 10
12.415
 20
6.798
 11
12.5084
 21
6.82423
  0
LINE
  8
0
 10
12.5084
 20
6.82423
 11
12.594
 21
6.85799
  0
LINE
  8
0
 10
12.594
 20
6.85799
 11
12.672
 21
6.89923
  0
LINE
  8
0
 10
12.672
 20
6.89923
 11
12.7421
 21
6.94797
  0
LINE
  8
0
 10
12.7421
 20
6.94797
 11
12.8037
 21
7.00333
  0
LINE
  8
0
 10
12.8037
 20
7.00333
 11
12.8558
 21
7.06444
  0
LINE
  8
0
 10
12.8558
 20
7.06444
 11
12.8985
 21
7.13132
  0
LINE
  8
0
 10
12.8985
 20
7.13132
 11
12.9316
 21
7.20393
  0
LINE
  8
0
 10
12.9316
 20
7.20393
 11
12.9553
 21
7.28232
  0
LINE
  8
0
 10
12.9553
 20
7.28232
 11
12.9695
 21
7.36644
  0
LINE
  8
0
 10
12.9695
 20
7.36644
 11
12.9743
 21
7.45633
  0
LINE
  8
0
 10
12.9743
 20
7.45633
 11
12.9704
 21
7.54553
  0
LINE
  8
0
 10
12.9704
 20
7.54553
 11
12.9588
 21
7.6292
  0
LINE
  8
0
 10
12.9588
 20
7.6292
 11
12.9395
 21
7.70735
  0
LINE
  8
0
 10
12.9395
 20
7.70735
 11
12.9124
 21
7.77998
  0
LINE
  8
0
 10
12.9124
 20
7.77998
 11
12.8776
 21
7.84709
  0
LINE
  8
0
 10
12.8776
 20
7.84709
 11
12.8351
 21
7.90868
  0
LINE
  8
0
 10
12.8351
 20
7.90868
 11
12.7848
 21
7.96474
  0
LINE
  8
0
 10
12.7848
 20
7.96474
 11
12.727
 21
8.01424
  0
LINE
  8
0
 10
12.727
 20
8.01424
 11
12.6616
 21
8.05612
  0
LINE
  8
0
 10
12.6616
 20
8.05612
 11
12.5888
 21
8.09039
  0
LINE
  8
0
 10
12.5888
 20
8.09039
 11
12.5084
 21
8.11703
  0
LINE
  8
0
 10
12.5084
 20
8.11703
 11
12.4206
 21
8.13608
  0
LINE
  8
0
 10
12.4206
 20
8.13608
 11
12.3252
 21
8.14749
  0
LINE
  8
0
 10
12.3252
 20
8.14749
 11
12.2224
 21
8.15131
  0
LINE
  8
0
 10
12.2224
 20
8.15131
 11
12.1282
 21
8.14775
  0
LINE
  8
0
 10
12.1282
 20
8.14775
 11
12.0393
 21
8.13712
  0
LINE
  8
0
 10
12.0393
 20
8.13712
 11
11.9557
 21
8.11938
  0
LINE
  8
0
 10
11.9557
 20
8.11938
 11
11.8773
 21
8.09457
  0
LINE
  8
0
 10
11.8773
 20
8.09457
 11
11.8043
 21
8.06265
  0
LINE
  8
0
 10
11.8043
 20
8.06265
 11
11.7366
 21
8.02365
  0
LINE
  8
0
 10
11.7366
 20
8.02365
 11
11.6741
 21
7.97755
  0
LINE
  8
0
 10
11.6741
 20
7.97755
 11
11.6179
 21
7.92502
  0
LINE
  8
0
 10
11.6179
 20
7.92502
 11
11.5688
 21
7.86665
  0
LINE
  8
0
 10
11.5688
 20
7.86665
 11
11.5269
 21
7.80249
  0
LINE
  8
0
 10
11.5269
 20
7.80249
 11
11.4921
 21
7.7325
  0
LINE
  8
0
 10
11.4921
 20
7.7325
 11
11.4644
 21
7.65671
  0
LINE
  8
0
 10
11.4644
 20
7.65671
 11
11.4439
 21
7.57509
  0
LINE
  8
0
 10
11.4439
 20
7.57509
 11
11.4306
 21
7.48766
  0
LINE
  8
0
 10
11.4306
 20
7.48766
 11
10.9151
 21
7.52756
  0
LINE
  8
0
 10
10.9151
 20
7.52756
 11
10.9374
 21
7.66391
  0
LINE
  8
0
 10
10.9374
 20
7.66391
 11
10.9717
 21
7.79144
  0
LINE
  8
0
 10
10.9717
 20
7.79144
 11
11.0181
 21
7.91013
  0
LINE
  8
0
 10
11.0181
 20
7.91013
 11
11.0764
 21
8.01997
  0
LINE
  8
0
 10
11.0764
 20
8.01997
 11
11.1469
 21
8.121
  0
LINE
  8
0
 10
11.1469
 20
8.121
 11
11.2293
 21
8.21318
  0
LINE
  8
0
 10
11.2293
 20
8.21318
 11
11.3238
 21
8.29654
  0
LINE
  8
0
 10
11.3238
 20
8.29654
 11
11.4284
 21
8.36984
  0
LINE
  8
0
 10
11.4284
 20
8.36984
 11
11.5412
 21
8.43185
  0
LINE
  8
0
 10
11.5412
 20
8.43185
 11
11.6622
 21
8.4826
  0
LINE
  8
0
 10
11.6622
 20
8.4826
 11
11.7913
 21
8.52206
  0
LINE
  8
0
 10
11.7913
 20
8.52206
 11
11.9287
 21
8.55026
  0
LINE
  8
0
 10
11.9287
 20
8.55026
 11
12.0743
 21
8.56718
  0
LINE
  8
0
 10
12.0743
 20
8.56718
 11
12.228
 21
8.57281
  0
LINE
  8
0
 10
12.228
 20
8.57281
 11
12.3951
 21
8.56709
  0
LINE
  8
0
 10
12.3951
 20
8.56709
 11
12.5511
 21
8.54991
  0
LINE
  8
0
 10
12.5511
 20
8.54991
 11
12.6962
 21
8.52129
  0
LINE
  8
0
 10
12.6962
 20
8.52129
 11
12.8302
 21
8.4812
  0
LINE
  8
0
 10
12.8302
 20
8.4812
 11
12.9533
 21
8.42967
  0
LINE
  8
0
 10
12.9533
 20
8.42967
 11
13.0654
 21
8.36668
  0
LINE
  8
0
 10
13.0654
 20
8.36668
 11
13.1665
 21
8.29225
  0
LINE
  8
0
 10
13.1665
 20
8.29225
 11
13.2553
 21
8.2076
  0
LINE
  8
0
 10
13.2553
 20
8.2076
 11
13.3304
 21
8.11394
  0
LINE
  8
0
 10
13.3304
 20
8.11394
 11
13.3919
 21
8.01126
  0
LINE
  8
0
 10
13.3919
 20
8.01126
 11
13.4397
 21
7.89958
  0
LINE
  8
0
 10
13.4397
 20
7.89958
 11
13.4739
 21
7.77888
  0
LINE
  8
0
 10
13.4739
 20
7.77888
 11
13.4943
 21
7.64919
  0
LINE
  8
0
 10
13.4943
 20
7.64919
 11
13.5012
 21
7.51047
  0
LINE
  8
0
 10
13.5012
 20
7.51047
 11
13.4968
 21
7.40355
  0
LINE
  8
0
 10
13.4968
 20
7.40355
 11
13.4836
 21
7.30249
  0
LINE
  8
0
 10
13.4836
 20
7.30249
 11
13.4617
 21
7.20731
  0
LINE
  8
0
 10
13.4617
 20
7.20731
 11
13.431
 21
7.118
  0
LINE
  8
0
 10
13.431
 20
7.118
 11
13.3915
 21
7.03456
  0
LINE
  8
0
 10
13.3915
 20
7.03456
 11
13.3432
 21
6.957
  0
LINE
  8
0
 10
13.3432
 20
6.957
 11
13.2861
 21
6.8853
  0
LINE
  8
0
 10
13.2861
 20
6.8853
 11
13.2207
 21
6.8197
  0
LINE
  8
0
 10
13.2207
 20
6.8197
 11
13.1473
 21
6.76045
  0
LINE
  8
0
 10
13.1473
 20
6.76045
 11
13.066
 21
6.70752
  0
LINE
  8
0
 10
13.066
 20
6.70752
 11
12.9767
 21
6.66093
  0
LINE
  8
0
 10
12.9767
 20
6.66093
 11
12.8794
 21
6.62068
  0
LINE
  8
0
 10
12.8794
 20
6.62068
 11
12.7742
 21
6.58676
  0
LINE
  8
0
 10
12.7742
 20
6.58676
 11
12.661
 21
6.55917
  0
LINE
  8
0
 10
12.661
 20
6.55917
 11
12.661
 21
6.54779
  0
LINE
  8
0
 10
12.661
 20
6.54779
 11
12.7855
 21
6.52977
  0
LINE
  8
0
 10
12.7855
 20
6.52977
 11
12.9018
 21
6.50337
  0
LINE
  8
0
 10
12.9018
 20
6.50337
 11
13.0101
 21
6.46861
  0
LINE
  8
0
 10
13.0101
 20
6.46861
 11
13.1101
 21
6.42549
  0
LINE
  8
0
 10
13.1101
 20
6.42549
 11
13.2021
 21
6.37399
  0
LINE
  8
0
 10
13.2021
 20
6.37399
 11
13.2859
 21
6.31413
  0
LINE
  8
0
 10
13.2859
 20
6.31413
 11
13.3616
 21
6.2459
  0
LINE
  8
0
 10
13.3616
 20
6.2459
 11
13.4281
 21
6.17079
  0
LINE
  8
0
 10
13.4281
 20
6.17079
 11
13.4843
 21
6.09035
  0
LINE
  8
0
 10
13.4843
 20
6.09035
 11
13.5304
 21
6.00456
  0
LINE
  8
0
 10
13.5304
 20
6.00456
 11
13.5662
 21
5.91342
  0
LINE
  8
0
 10
13.5662
 20
5.91342
 11
13.5918
 21
5.81694
  0
LINE
  8
0
 10
13.5918
 20
5.81694
 11
13.6071
 21
5.7151
  0
LINE
  8
0
 10
13.6071
 20
5.7151
 11
13.6122
 21
5.60791
  0
LINE
  8
0
 10
13.6122
 20
5.60791
 11
13.605
 21
5.45435
  0
LINE
  8
0
 10
13.605
 20
5.45435
 11
13.5834
 21
5.31102
  0
LINE
  8
0
 10
13.5834
 20
5.31102
 11
13.5473
 21
5.17792
  0
LINE
  8
0
 10
13.5473
 20
5.17792
 11
13.4969
 21
5.05504
  0
LINE
  8
0
 10
13.4969
 20
5.05504
 11
13.432
 21
4.9424
  0
LINE
  8
0
 10
13.432
 20
4.9424
 11
13.3527
 21
4.83998
  0
LINE
  8
0
 10
13.3527
 20
4.83998
 11
13.259
 21
4.74779
  0
LINE
  8
0
 10
13.259
 20
4.74779
 11
13.152
 21
4.66695
  0
LINE
  8
0
 10
13.152
 20
4.66695
 11
13.0326
 21
4.59853
  0
LINE
  8
0
 10
13.0326
 20
4.59853
 11
12.9009
 21
4.54256
  0
LINE
  8
0
 10
12.9009
 20
4.54256
 11
12.7569
 21
4.49902
  0
LINE
  8
0
 10
12.7569
 20
4.49902
 11
12.6005
 21
4.46793
  0
LINE
  8
0
 10
12.6005
 20
4.46793
 11
12.4319
 21
4.44928
  0
LINE
  8
0
 10
12.4319
 20
4.44928
 11
12.2509
 21
4.44305
  0
LINE
  8
0
 10
12.2509
 20
4.44305
 11
12.0817
 21
4.44867
  0
LINE
  8
0
 10
146.833
 20
4.44867
 11
146.674
 21
4.46548
  0
LINE
  8
0
 10
146.674
 20
4.46548
 11
146.525
 21
4.49355
  0
LINE
  8
0
 10
146.525
 20
4.49355
 11
146.386
 21
4.53279
  0
LINE
  8
0
 10
146.386
 20
4.53279
 11
146.257
 21
4.58327
  0
LINE
  8
0
 10
146.257
 20
4.58327
 11
146.138
 21
4.64497
  0
LINE
  8
0
 10
146.138
 20
4.64497
 11
146.029
 21
4.7179
  0
LINE
  8
0
 10
146.029
 20
4.7179
 11
145.931
 21
4.80179
  0
LINE
  8
0
 10
145.931
 20
4.80179
 11
145.846
 21
4.89645
  0
LINE
  8
0
 10
145.846
 20
4.89645
 11
145.772
 21
5.00186
  0
LINE
  8
0
 10
145.772
 20
5.00186
 11
145.71
 21
5.11801
  0
LINE
  8
0
 10
145.71
 20
5.11801
 11
145.661
 21
5.24493
  0
LINE
  8
0
 10
145.661
 20
5.24493
 11
145.623
 21
5.3826
  0
LINE
  8
0
 10
145.623
 20
5.3826
 11
145.598
 21
5.53101
  0
LINE
  8
0
 10
145.598
 20
5.53101
 11
146.127
 21
5.57944
  0
LINE
  8
0
 10
146.127
 20
5.57944
 11
146.17
 21
5.39053
  0
LINE
  8
0
 10
146.17
 20
5.39053
 11
146.241
 21
5.23068
  0
LINE
  8
0
 10
146.241
 20
5.23068
 11
146.338
 21
5.0999
  0
LINE
  8
0
 10
146.338
 20
5.0999
 11
146.463
 21
4.99818
  0
LINE
  8
0
 10
146.463
 20
4.99818
 11
146.615
 21
4.92554
  0
LINE
  8
0
 10
146.615
 20
4.92554
 11
146.795
 21
4.88194
  0
LINE
  8
0
 10
146.795
 20
4.88194
 11
147.002
 21
4.8674
  0
LINE
  8
0
 10
147.002
 20
4.8674
 11
147.109
 21
4.87131
  0
LINE
  8
0
 10
147.109
 20
4.87131
 11
147.209
 21
4.88298
  0
LINE
  8
0
 10
147.209
 20
4.88298
 11
147.303
 21
4.90245
  0
LINE
  8
0
 10
147.303
 20
4.90245
 11
147.39
 21
4.92972
  0
LINE
  8
0
 10
147.39
 20
4.92972
 11
147.47
 21
4.96475
  0
LINE
  8
0
 10
147.47
 20
4.96475
 11
147.543
 21
5.0076
  0
LINE
  8
0
 10
147.543
 20
5.0076
 11
147.61
 21
5.05821
  0
LINE
  8
0
 10
147.61
 20
5.05821
 11
147.668
 21
5.11652
  0
LINE
  8
0
 10
147.668
 20
5.11652
 11
147.718
 21
5.18237
  0
LINE
  8
0
 10
147.718
 20
5.18237
 11
147.758
 21
5.2558
  0
LINE
  8
0
 10
147.758
 20
5.2558
 11
147.79
 21
5.33676
  0
LINE
  8
0
 10
147.79
 20
5.33676
 11
147.812
 21
5.42529
  0
LINE
  8
0
 10
147.812
 20
5.42529
 11
147.826
 21
5.52136
  0
LINE
  8
0
 10
147.826
 20
5.52136
 11
147.831
 21
5.625
  0
LINE
  8
0
 10
147.831
 20
5.625
 11
147.825
 21
5.71565
  0
LINE
  8
0
 10
147.825
 20
5.71565
 11
147.81
 21
5.80042
  0
LINE
  8
0
 10
147.81
 20
5.80042
 11
147.784
 21
5.87932
  0
LINE
  8
0
 10
147.784
 20
5.87932
 11
147.748
 21
5.95235
  0
LINE
  8
0
 10
147.748
 20
5.95235
 11
147.702
 21
6.01952
  0
LINE
  8
0
 10
147.702
 20
6.01952
 11
147.645
 21
6.08081
  0
LINE
  8
0
 10
147.645
 20
6.08081
 11
147.578
 21
6.13623
  0
LINE
  8
0
 10
147.578
 20
6.13623
 11
147.502
 21
6.18497
  0
LINE
  8
0
 10
147.502
 20
6.18497
 11
147.416
 21
6.22621
  0
LINE
  8
0
 10
147.416
 20
6.22621
 11
147.321
 21
6.25995
  0
LINE
  8
0
 10
147.321
 20
6.25995
 11
147.217
 21
6.28619
  0
LINE
  8
0
 10
147.217
 20
6.28619
 11
147.104
 21
6.30495
  0
LINE
  8
0
 10
147.104
 20
6.30495
 11
146.982
 21
6.31619
  0
LINE
  8
0
 10
146.982
 20
6.31619
 11
146.851
 21
6.31993
  0
LINE
  8
0
 10
146.851
 20
6.31993
 11
146.56
 21
6.31993
  0
LINE
  8
0
 10
146.56
 20
6.31993
 11
146.56
 21
6.76425
  0
LINE
  8
0
 10
146.56
 20
6.76425
 11
146.839
 21
6.76425
  0
LINE
  8
0
 10
146.839
 20
6.76425
 11
146.956
 21
6.76801
  0
LINE
  8
0
 10
146.956
 20
6.76801
 11
147.065
 21
6.77925
  0
LINE
  8
0
 10
147.065
 20
6.77925
 11
147.166
 21
6.798
  0
LINE
  8
0
 10
147.166
 20
6.798
 11
147.259
 21
6.82423
  0
LINE
  8
0
 10
147.259
 20
6.82423
 11
147.345
 21
6.85799
  0
LINE
  8
0
 10
147.345
 20
6.85799
 11
147.423
 21
6.89923
  0
LINE
  8
0
 10
147.423
 20
6.89923
 11
147.493
 21
6.94797
  0
LINE
  8
0
 10
147.493
 20
6.94797
 11
147.555
 21
7.00333
  0
LINE
  8
0
 10
147.555
 20
7.00333
 11
147.607
 21
7.06444
  0
LINE
  8
0
 10
147.607
 20
7.06444
 11
147.649
 21
7.13132
  0
LINE
  8
0
 10
147.649
 20
7.13132
 11
147.682
 21
7.20393
  0
LINE
  8
0
 10
147.682
 20
7.20393
 11
147.706
 21
7.28232
  0
LINE
  8
0
 10
147.706
 20
7.28232
 11
147.72
 21
7.36644
  0
LINE
  8
0
 10
147.72
 20
7.36644
 11
147.725
 21
7.45633
  0
LINE
  8
0
 10
147.725
 20
7.45633
 11
147.721
 21
7.54553
  0
LINE
  8
0
 10
147.721
 20
7.54553
 11
147.71
 21
7.6292
  0
LINE
  8
0
 10
147.71
 20
7.6292
 11
147.69
 21
7.70735
  0
LINE
  8
0
 10
147.69
 20
7.70735
 11
147.663
 21
7.77998
  0
LINE
  8
0
 10
147.663
 20
7.77998
 11
147.628
 21
7.84709
  0
LINE
  8
0
 10
147.628
 20
7.84709
 11
147.586
 21
7.90868
  0
LINE
  8
0
 10
147.586
 20
7.90868
 11
147.536
 21
7.96474
  0
LINE
  8
0
 10
147.536
 20
7.96474
 11
147.478
 21
8.01424
  0
LINE
  8
0
 10
147.478
 20
8.01424
 11
147.412
 21
8.05612
  0
LINE
  8
0
 10
147.412
 20
8.05612
 11
147.34
 21
8.09039
  0
LINE
  8
0
 10
147.34
 20
8.09039
 11
147.259
 21
8.11703
  0
LINE
  8
0
 10
147.259
 20
8.11703
 11
147.171
 21
8.13608
  0
LINE
  8
0
 10
147.171
 20
8.13608
 11
147.076
 21
8.14749
  0
LINE
  8
0
 10
147.076
 20
8.14749
 11
146.973
 21
8.15131
  0
LINE
  8
0
 10
146.973
 20
8.15131
 11
146.879
 21
8.14775
  0
LINE
  8
0
 10
146.879
 20
8.14775
 11
146.79
 21
8.13712
  0
LINE
  8
0
 10
146.79
 20
8.13712
 11
146.707
 21
8.11938
  0
LINE
  8
0
 10
146.707
 20
8.11938
 11
146.628
 21
8.09457
  0
LINE
  8
0
 10
146.628
 20
8.09457
 11
146.555
 21
8.06265
  0
LINE
  8
0
 10
146.555
 20
8.06265
 11
146.487
 21
8.02365
  0
LINE
  8
0
 10
146.487
 20
8.02365
 11
146.425
 21
7.97755
  0
LINE
  8
0
 10
146.425
 20
7.97755
 11
146.369
 21
7.92502
  0
LINE
  8
0
 10
146.369
 20
7.92502
 11
146.32
 21
7.86665
  0
LINE
  8
0
 10
146.32
 20
7.86665
 11
146.278
 21
7.80249
  0
LINE
  8
0
 10
146.278
 20
7.80249
 11
146.243
 21
7.7325
  0
LINE
  8
0
 10
146.243
 20
7.7325
 11
146.215
 21
7.65671
  0
LINE
  8
0
 10
146.215
 20
7.65671
 11
146.195
 21
7.57509
  0
LINE
  8
0
 10
146.195
 20
7.57509
 11
146.181
 21
7.48766
  0
LINE
  8
0
 10
146.181
 20
7.48766
 11
145.666
 21
7.52756
  0
LINE
  8
0
 10
145.666
 20
7.52756
 11
145.688
 21
7.66391
  0
LINE
  8
0
 10
145.688
 20
7.66391
 11
145.723
 21
7.79144
  0
LINE
  8
0
 10
145.723
 20
7.79144
 11
145.769
 21
7.91013
  0
LINE
  8
0
 10
145.769
 20
7.91013
 11
145.827
 21
8.01997
  0
LINE
  8
0
 10
145.827
 20
8.01997
 11
145.898
 21
8.121
  0
LINE
  8
0
 10
145.898
 20
8.121
 11
145.98
 21
8.21318
  0
LINE
  8
0
 10
145.98
 20
8.21318
 11
146.075
 21
8.29654
  0
LINE
  8
0
 10
146.075
 20
8.29654
 11
146.179
 21
8.36984
  0
LINE
  8
0
 10
146.179
 20
8.36984
 11
146.292
 21
8.43185
  0
LINE
  8
0
 10
146.292
 20
8.43185
 11
146.413
 21
8.4826
  0
LINE
  8
0
 10
146.413
 20
8.4826
 11
146.542
 21
8.52206
  0
LINE
  8
0
 10
146.542
 20
8.52206
 11
146.68
 21
8.55026
  0
LINE
  8
0
 10
146.68
 20
8.55026
 11
146.825
 21
8.56718
  0
LINE
  8
0
 10
146.825
 20
8.56718
 11
146.979
 21
8.57281
  0
LINE
  8
0
 10
146.979
 20
8.57281
 11
147.146
 21
8.56709
  0
LINE
  8
0
 10
147.146
 20
8.56709
 11
147.302
 21
8.54991
  0
LINE
  8
0
 10
147.302
 20
8.54991
 11
147.447
 21
8.52129
  0
LINE
  8
0
 10
147.447
 20
8.52129
 11
147.581
 21
8.4812
  0
LINE
  8
0
 10
147.581
 20
8.4812
 11
147.704
 21
8.42967
  0
LINE
  8
0
 10
147.704
 20
8.42967
 11
147.816
 21
8.36668
  0
LINE
  8
0
 10
147.816
 20
8.36668
 11
147.917
 21
8.29225
  0
LINE
  8
0
 10
147.917
 20
8.29225
 11
148.006
 21
8.2076
  0
LINE
  8
0
 10
148.006
 20
8.2076
 11
148.081
 21
8.11394
  0
LINE
  8
0
 10
148.081
 20
8.11394
 11
148.143
 21
8.01126
  0
LINE
  8
0
 10
148.143
 20
8.01126
 11
148.191
 21
7.89958
  0
LINE
  8
0
 10
148.191
 20
7.89958
 11
148.225
 21
7.77888
  0
LINE
  8
0
 10
148.225
 20
7.77888
 11
148.245
 21
7.64919
  0
LINE
  8
0
 10
148.245
 20
7.64919
 11
148.252
 21
7.51047
  0
LINE
  8
0
 10
148.252
 20
7.51047
 11
148.248
 21
7.40355
  0
LINE
  8
0
 10
148.248
 20
7.40355
 11
148.234
 21
7.30249
  0
LINE
  8
0
 10
148.234
 20
7.30249
 11
148.213
 21
7.20731
  0
LINE
  8
0
 10
148.213
 20
7.20731
 11
148.182
 21
7.118
  0
LINE
  8
0
 10
148.182
 20
7.118
 11
148.142
 21
7.03456
  0
LINE
  8
0
 10
148.142
 20
7.03456
 11
148.094
 21
6.957
  0
LINE
  8
0
 10
148.094
 20
6.957
 11
148.037
 21
6.8853
  0
LINE
  8
0
 10
148.037
 20
6.8853
 11
147.972
 21
6.8197
  0
LINE
  8
0
 10
147.972
 20
6.8197
 11
147.898
 21
6.76045
  0
LINE
  8
0
 10
147.898
 20
6.76045
 11
147.817
 21
6.70752
  0
LINE
  8
0
 10
147.817
 20
6.70752
 11
147.728
 21
6.66093
  0
LINE
  8
0
 10
147.728
 20
6.66093
 11
147.63
 21
6.62068
  0
LINE
  8
0
 10
147.63
 20
6.62068
 11
147.525
 21
6.58676
  0
LINE
  8
0
 10
147.525
 20
6.58676
 11
147.412
 21
6.55917
  0
LINE
  8
0
 10
147.412
 20
6.55917
 11
147.412
 21
6.54779
  0
LINE
  8
0
 10
147.412
 20
6.54779
 11
147.536
 21
6.52977
  0
LINE
  8
0
 10
147.536
 20
6.52977
 11
147.653
 21
6.50337
  0
LINE
  8
0
 10
147.653
 20
6.50337
 11
147.761
 21
6.46861
  0
LINE
  8
0
 10
147.761
 20
6.46861
 11
147.861
 21
6.42549
  0
LINE
  8
0
 10
147.861
 20
6.42549
 11
147.953
 21
6.37399
  0
LINE
  8
0
 10
147.953
 20
6.37399
 11
148.037
 21
6.31413
  0
LINE
  8
0
 10
148.037
 20
6.31413
 11
148.112
 21
6.2459
  0
LINE
  8
0
 10
148.112
 20
6.2459
 11
148.179
 21
6.17079
  0
LINE
  8
0
 10
148.179
 20
6.17079
 11
148.235
 21
6.09035
  0
LINE
  8
0
 10
148.235
 20
6.09035
 11
148.281
 21
6.00456
  0
LINE
  8
0
 10
148.281
 20
6.00456
 11
148.317
 21
5.91342
  0
LINE
  8
0
 10
148.317
 20
5.91342
 11
148.343
 21
5.81694
  0
LINE
  8
0
 10
148.343
 20
5.81694
 11
148.358
 21
5.7151
  0
LINE
  8
0
 10
148.358
 20
5.7151
 11
148.363
 21
5.60791
  0
LINE
  8
0
 10
148.363
 20
5.60791
 11
148.356
 21
5.45435
  0
LINE
  8
0
 10
148.356
 20
5.45435
 11
148.334
 21
5.31102
  0
LINE
  8
0
 10
148.334
 20
5.31102
 11
148.298
 21
5.17792
  0
LINE
  8
0
 10
148.298
 20
5.17792
 11
148.248
 21
5.05504
  0
LINE
  8
0
 10
148.248
 20
5.05504
 11
148.183
 21
4.9424
  0
LINE
  8
0
 10
148.183
 20
4.9424
 11
148.104
 21
4.83998
  0
LINE
  8
0
 10
148.104
 20
4.83998
 11
148.01
 21
4.74779
  0
LINE
  8
0
 10
148.01
 20
4.74779
 11
147.903
 21
4.66695
  0
LINE
  8
0
 10
147.903
 20
4.66695
 11
147.783
 21
4.59853
  0
LINE
  8
0
 10
147.783
 20
4.59853
 11
147.652
 21
4.54256
  0
LINE
  8
0
 10
147.652
 20
4.54256
 11
147.508
 21
4.49902
  0
LINE
  8
0
 10
147.508
 20
4.49902
 11
147.351
 21
4.46793
  0
LINE
  8
0
 10
147.351
 20
4.46793
 11
147.183
 21
4.44928
  0
LINE
  8
0
 10
147.183
 20
4.44928
 11
147.002
 21
4.44305
  0
LINE
  8
0
 10
147.002
 20
4.44305
 11
146.833
 21
4.44867
  0
LINE
  8
0
 10
16.8207
 20
4.44928
 11
16.654
 21
4.46793
  0
LINE
  8
0
 10
16.654
 20
4.46793
 11
16.4987
 21
4.49902
  0
LINE
  8
0
 10
16.4987
 20
4.49902
 11
16.3548
 21
4.54256
  0
LINE
  8
0
 10
16.3548
 20
4.54256
 11
16.2225
 21
4.59853
  0
LINE
  8
0
 10
16.2225
 20
4.59853
 11
16.1015
 21
4.66695
  0
LINE
  8
0
 10
16.1015
 20
4.66695
 11
15.992
 21
4.74779
  0
LINE
  8
0
 10
15.992
 20
4.74779
 11
15.8957
 21
4.84009
  0
LINE
  8
0
 10
15.8957
 20
4.84009
 11
15.8142
 21
4.94286
  0
LINE
  8
0
 10
15.8142
 20
4.94286
 11
15.7475
 21
5.05609
  0
LINE
  8
0
 10
15.7475
 20
5.05609
 11
15.6956
 21
5.17978
  0
LINE
  8
0
 10
15.6956
 20
5.17978
 11
15.6585
 21
5.31393
  0
LINE
  8
0
 10
15.6585
 20
5.31393
 11
15.6363
 21
5.45854
  0
LINE
  8
0
 10
15.6363
 20
5.45854
 11
15.6289
 21
5.61362
  0
LINE
  8
0
 10
15.6289
 20
5.61362
 11
15.6335
 21
5.72336
  0
LINE
  8
0
 10
15.6335
 20
5.72336
 11
15.6473
 21
5.82799
  0
LINE
  8
0
 10
15.6473
 20
5.82799
 11
15.6702
 21
5.92749
  0
LINE
  8
0
 10
15.6702
 20
5.92749
 11
15.7024
 21
6.02188
  0
LINE
  8
0
 10
15.7024
 20
6.02188
 11
15.7437
 21
6.11116
  0
LINE
  8
0
 10
15.7437
 20
6.11116
 11
15.7942
 21
6.19533
  0
LINE
  8
0
 10
15.7942
 20
6.19533
 11
15.8539
 21
6.27437
  0
LINE
  8
0
 10
15.8539
 20
6.27437
 11
15.9207
 21
6.34656
  0
LINE
  8
0
 10
15.9207
 20
6.34656
 11
15.9927
 21
6.41016
  0
LINE
  8
0
 10
15.9927
 20
6.41016
 11
16.0698
 21
6.46515
  0
LINE
  8
0
 10
16.0698
 20
6.46515
 11
16.152
 21
6.51154
  0
LINE
  8
0
 10
16.152
 20
6.51154
 11
16.2393
 21
6.54932
  0
LINE
  8
0
 10
16.2393
 20
6.54932
 11
16.3317
 21
6.57849
  0
LINE
  8
0
 10
16.3317
 20
6.57849
 11
16.4293
 21
6.59908
  0
LINE
  8
0
 10
16.4293
 20
6.59908
 11
16.4293
 21
6.61044
  0
LINE
  8
0
 10
16.4293
 20
6.61044
 11
16.3385
 21
6.63608
  0
LINE
  8
0
 10
16.3385
 20
6.63608
 11
16.2534
 21
6.66904
  0
LINE
  8
0
 10
16.2534
 20
6.66904
 11
16.1739
 21
6.70932
  0
LINE
  8
0
 10
16.1739
 20
6.70932
 11
16.1
 21
6.75693
  0
LINE
  8
0
 10
16.1
 20
6.75693
 11
16.0318
 21
6.81186
  0
LINE
  8
0
 10
16.0318
 20
6.81186
 11
15.9692
 21
6.8741
  0
LINE
  8
0
 10
15.9692
 20
6.8741
 11
15.9123
 21
6.94368
  0
LINE
  8
0
 10
15.9123
 20
6.94368
 11
15.862
 21
7.01872
  0
LINE
  8
0
 10
15.862
 20
7.01872
 11
15.8195
 21
7.09737
  0
LINE
  8
0
 10
15.8195
 20
7.09737
 11
15.7847
 21
7.17961
  0
LINE
  8
0
 10
15.7847
 20
7.17961
 11
15.7577
 21
7.26546
  0
LINE
  8
0
 10
15.7577
 20
7.26546
 11
15.7384
 21
7.35492
  0
LINE
  8
0
 10
15.7384
 20
7.35492
 11
15.7268
 21
7.44798
  0
LINE
  8
0
 10
15.7268
 20
7.44798
 11
15.7229
 21
7.54466
  0
LINE
  8
0
 10
15.7229
 20
7.54466
 11
15.7299
 21
7.67212
  0
LINE
  8
0
 10
15.7299
 20
7.67212
 11
15.7509
 21
7.79248
  0
LINE
  8
0
 10
15.7509
 20
7.79248
 11
15.7859
 21
7.90576
  0
LINE
  8
0
 10
15.7859
 20
7.90576
 11
15.835
 21
8.01195
  0
LINE
  8
0
 10
15.835
 20
8.01195
 11
15.898
 21
8.11105
  0
LINE
  8
0
 10
15.898
 20
8.11105
 11
15.975
 21
8.20305
  0
LINE
  8
0
 10
15.975
 20
8.20305
 11
16.0661
 21
8.28798
  0
LINE
  8
0
 10
16.0661
 20
8.28798
 11
16.1689
 21
8.36354
  0
LINE
  8
0
 10
16.1689
 20
8.36354
 11
16.2814
 21
8.42749
  0
LINE
  8
0
 10
16.2814
 20
8.42749
 11
16.4034
 21
8.47981
  0
LINE
  8
0
 10
16.4034
 20
8.47981
 11
16.535
 21
8.52049
  0
LINE
  8
0
 10
16.535
 20
8.52049
 11
16.6763
 21
8.54956
  0
LINE
  8
0
 10
16.6763
 20
8.54956
 11
16.8271
 21
8.567
  0
LINE
  8
0
 10
16.8271
 20
8.567
 11
16.9875
 21
8.57281
  0
LINE
  8
0
 10
16.9875
 20
8.57281
 11
17.1517
 21
8.56712
  0
LINE
  8
0
 10
17.1517
 20
8.56712
 11
17.3056
 21
8.55003
  0
LINE
  8
0
 10
17.3056
 20
8.55003
 11
17.4495
 21
8.52155
  0
LINE
  8
0
 10
17.4495
 20
8.52155
 11
17.5831
 21
8.48167
  0
LINE
  8
0
 10
17.5831
 20
8.48167
 11
17.7066
 21
8.4304
  0
LINE
  8
0
 10
17.7066
 20
8.4304
 11
17.8199
 21
8.36774
  0
LINE
  8
0
 10
17.8199
 20
8.36774
 11
17.9231
 21
8.29369
  0
LINE
  8
0
 10
17.9231
 20
8.29369
 11
18.0141
 21
8.20993
  0
LINE
  8
0
 10
18.0141
 20
8.20993
 11
18.0912
 21
8.11816
  0
LINE
  8
0
 10
18.0912
 20
8.11816
 11
18.1542
 21
8.01836
  0
LINE
  8
0
 10
18.1542
 20
8.01836
 11
18.2032
 21
7.91054
  0
LINE
  8
0
 10
18.2032
 20
7.91054
 11
18.2383
 21
7.79469
  0
LINE
  8
0
 10
18.2383
 20
7.79469
 11
18.2593
 21
7.67084
  0
LINE
  8
0
 10
18.2593
 20
7.67084
 11
18.2663
 21
7.53894
  0
LINE
  8
0
 10
18.2663
 20
7.53894
 11
18.2624
 21
7.44229
  0
LINE
  8
0
 10
18.2624
 20
7.44229
 11
18.2507
 21
7.34923
  0
LINE
  8
0
 10
18.2507
 20
7.34923
 11
18.2312
 21
7.25977
  0
LINE
  8
0
 10
18.2312
 20
7.25977
 11
18.204
 21
7.17392
  0
LINE
  8
0
 10
18.204
 20
7.17392
 11
18.1689
 21
7.09166
  0
LINE
  8
0
 10
18.1689
 20
7.09166
 11
18.1261
 21
7.01302
  0
LINE
  8
0
 10
18.1261
 20
7.01302
 11
18.0754
 21
6.93797
  0
LINE
  8
0
 10
18.0754
 20
6.93797
 11
18.0181
 21
6.86862
  0
LINE
  8
0
 10
18.0181
 20
6.86862
 11
17.955
 21
6.80707
  0
LINE
  8
0
 10
17.955
 20
6.80707
 11
17.8863
 21
6.75331
  0
LINE
  8
0
 10
17.8863
 20
6.75331
 11
17.8118
 21
6.70734
  0
LINE
  8
0
 10
17.8118
 20
6.70734
 11
17.7317
 21
6.66916
  0
LINE
  8
0
 10
17.7317
 20
6.66916
 11
17.6458
 21
6.63876
  0
LINE
  8
0
 10
17.6458
 20
6.63876
 11
17.5543
 21
6.61617
  0
LINE
  8
0
 10
17.5543
 20
6.61617
 11
17.5543
 21
6.60474
  0
LINE
  8
0
 10
17.5543
 20
6.60474
 11
17.6606
 21
6.58275
  0
LINE
  8
0
 10
17.6606
 20
6.58275
 11
17.76
 21
6.55257
  0
LINE
  8
0
 10
17.76
 20
6.55257
 11
17.8524
 21
6.51418
  0
LINE
  8
0
 10
17.8524
 20
6.51418
 11
17.9379
 21
6.46759
  0
LINE
  8
0
 10
17.9379
 20
6.46759
 11
18.0163
 21
6.41281
  0
LINE
  8
0
 10
18.0163
 20
6.41281
 11
18.0878
 21
6.34982
  0
LINE
  8
0
 10
18.0878
 20
6.34982
 11
18.1523
 21
6.27866
  0
LINE
  8
0
 10
18.1523
 20
6.27866
 11
18.209
 21
6.20067
  0
LINE
  8
0
 10
18.209
 20
6.20067
 11
18.257
 21
6.11729
  0
LINE
  8
0
 10
18.257
 20
6.11729
 11
18.2962
 21
6.0285
  0
LINE
  8
0
 10
18.2962
 20
6.0285
 11
18.3267
 21
5.93431
  0
LINE
  8
0
 10
18.3267
 20
5.93431
 11
18.3485
 21
5.8347
  0
LINE
  8
0
 10
18.3485
 20
5.8347
 11
18.3616
 21
5.72971
  0
LINE
  8
0
 10
18.3616
 20
5.72971
 11
18.366
 21
5.61929
  0
LINE
  8
0
 10
18.366
 20
5.61929
 11
18.3587
 21
5.46562
  0
LINE
  8
0
 10
18.3587
 20
5.46562
 11
18.3371
 21
5.32193
  0
LINE
  8
0
 10
18.3371
 20
5.32193
 11
18.3011
 21
5.18825
  0
LINE
  8
0
 10
18.3011
 20
5.18825
 11
18.2506
 21
5.06456
  0
LINE
  8
0
 10
18.2506
 20
5.06456
 11
18.1858
 21
4.95087
  0
LINE
  8
0
 10
18.1858
 20
4.95087
 11
18.1065
 21
4.84717
  0
LINE
  8
0
 10
18.1065
 20
4.84717
 11
18.0128
 21
4.75346
  0
LINE
  8
0
 10
18.0128
 20
4.75346
 11
17.9056
 21
4.67111
  0
LINE
  8
0
 10
17.9056
 20
4.67111
 11
17.7859
 21
4.60143
  0
LINE
  8
0
 10
17.7859
 20
4.60143
 11
17.6536
 21
4.5444
  0
LINE
  8
0
 10
17.6536
 20
4.5444
 11
17.5087
 21
4.50006
  0
LINE
  8
0
 10
17.5087
 20
4.50006
 11
17.3513
 21
4.4684
  0
LINE
  8
0
 10
17.3513
 20
4.4684
 11
17.1814
 21
4.44939
  0
LINE
  8
0
 10
17.1814
 20
4.44939
 11
16.9989
 21
4.44305
  0
LINE
  8
0
 10
16.9989
 20
4.44305
 11
16.8207
 21
4.44928
  0
LINE
  8
0
 10
17.093
 20
6.80751
 11
17.1858
 21
6.81772
  0
LINE
  8
0
 10
17.1858
 20
6.81772
 11
17.2716
 21
6.83472
  0
LINE
  8
0
 10
17.2716
 20
6.83472
 11
17.3503
 21
6.85852
  0
LINE
  8
0
 10
17.3503
 20
6.85852
 11
17.422
 21
6.88911
  0
LINE
  8
0
 10
17.422
 20
6.88911
 11
17.4866
 21
6.92653
  0
LINE
  8
0
 10
17.4866
 20
6.92653
 11
17.5443
 21
6.97073
  0
LINE
  8
0
 10
17.5443
 20
6.97073
 11
17.5945
 21
7.02255
  0
LINE
  8
0
 10
17.5945
 20
7.02255
 11
17.6371
 21
7.08279
  0
LINE
  8
0
 10
17.6371
 20
7.08279
 11
17.6718
 21
7.15147
  0
LINE
  8
0
 10
17.6718
 20
7.15147
 11
17.6989
 21
7.22858
  0
LINE
  8
0
 10
17.6989
 20
7.22858
 11
17.7182
 21
7.31412
  0
LINE
  8
0
 10
17.7182
 20
7.31412
 11
17.7298
 21
7.40808
  0
LINE
  8
0
 10
17.7298
 20
7.40808
 11
17.7337
 21
7.51047
  0
LINE
  8
0
 10
17.7337
 20
7.51047
 11
17.7185
 21
7.69106
  0
LINE
  8
0
 10
17.7185
 20
7.69106
 11
17.6728
 21
7.84387
  0
LINE
  8
0
 10
17.6728
 20
7.84387
 11
17.5966
 21
7.96889
  0
LINE
  8
0
 10
17.5966
 20
7.96889
 11
17.49
 21
8.06613
  0
LINE
  8
0
 10
17.49
 20
8.06613
 11
17.353
 21
8.13559
  0
LINE
  8
0
 10
17.353
 20
8.13559
 11
17.1855
 21
8.17728
  0
LINE
  8
0
 10
17.1855
 20
8.17728
 11
16.9875
 21
8.19116
  0
LINE
  8
0
 10
16.9875
 20
8.19116
 11
16.8876
 21
8.18767
  0
LINE
  8
0
 10
16.8876
 20
8.18767
 11
16.7948
 21
8.17722
  0
LINE
  8
0
 10
16.7948
 20
8.17722
 11
16.7091
 21
8.15977
  0
LINE
  8
0
 10
16.7091
 20
8.15977
 11
16.6304
 21
8.13536
  0
LINE
  8
0
 10
16.6304
 20
8.13536
 11
16.5587
 21
8.10397
  0
LINE
  8
0
 10
16.5587
 20
8.10397
 11
16.494
 21
8.0656
  0
LINE
  8
0
 10
16.494
 20
8.0656
 11
16.4364
 21
8.02026
  0
LINE
  8
0
 10
16.4364
 20
8.02026
 11
16.3861
 21
7.96802
  0
LINE
  8
0
 10
16.3861
 20
7.96802
 11
16.3436
 21
7.90891
  0
LINE
  8
0
 10
16.3436
 20
7.90891
 11
16.3088
 21
7.84294
  0
LINE
  8
0
 10
16.3088
 20
7.84294
 11
16.2818
 21
7.77011
  0
LINE
  8
0
 10
16.2818
 20
7.77011
 11
16.2624
 21
7.69043
  0
LINE
  8
0
 10
16.2624
 20
7.69043
 11
16.2508
 21
7.60388
  0
LINE
  8
0
 10
16.2508
 20
7.60388
 11
16.247
 21
7.51047
  0
LINE
  8
0
 10
16.247
 20
7.51047
 11
16.251
 21
7.41534
  0
LINE
  8
0
 10
16.251
 20
7.41534
 11
16.2629
 21
7.32692
  0
LINE
  8
0
 10
16.2629
 20
7.32692
 11
16.2828
 21
7.24516
  0
LINE
  8
0
 10
16.2828
 20
7.24516
 11
16.3107
 21
7.17009
  0
LINE
  8
0
 10
16.3107
 20
7.17009
 11
16.3465
 21
7.1017
  0
LINE
  8
0
 10
16.3465
 20
7.1017
 11
16.3903
 21
7.03999
  0
LINE
  8
0
 10
16.3903
 20
7.03999
 11
16.4421
 21
6.98497
  0
LINE
  8
0
 10
16.4421
 20
6.98497
 11
16.5011
 21
6.93698
  0
LINE
  8
0
 10
16.5011
 20
6.93698
 11
16.5667
 21
6.89638
  0
LINE
  8
0
 10
16.5667
 20
6.89638
 11
16.6388
 21
6.86316
  0
LINE
  8
0
 10
16.6388
 20
6.86316
 11
16.7176
 21
6.83733
  0
LINE
  8
0
 10
16.7176
 20
6.83733
 11
16.8029
 21
6.81888
  0
LINE
  8
0
 10
16.8029
 20
6.81888
 11
16.8947
 21
6.8078
  0
LINE
  8
0
 10
16.8947
 20
6.8078
 11
16.9932
 21
6.80411
  0
LINE
  8
0
 10
16.9932
 20
6.80411
 11
17.093
 21
6.80751
  0
LINE
  8
0
 10
17.1198
 20
4.8316
 11
17.2264
 21
4.8439
  0
LINE
  8
0
 10
17.2264
 20
4.8439
 11
17.3242
 21
4.8644
  0
LINE
  8
0
 10
17.3242
 20
4.8644
 11
17.4133
 21
4.89308
  0
LINE
  8
0
 10
17.4133
 20
4.89308
 11
17.4937
 21
4.92996
  0
LINE
  8
0
 10
17.4937
 20
4.92996
 11
17.5653
 21
4.97504
  0
LINE
  8
0
 10
17.5653
 20
4.97504
 11
17.6283
 21
5.02831
  0
LINE
  8
0
 10
17.6283
 20
5.02831
 11
17.6827
 21
5.09053
  0
LINE
  8
0
 10
17.6827
 20
5.09053
 11
17.7287
 21
5.16246
  0
LINE
  8
0
 10
17.7287
 20
5.16246
 11
17.7664
 21
5.24411
  0
LINE
  8
0
 10
17.7664
 20
5.24411
 11
17.7957
 21
5.33545
  0
LINE
  8
0
 10
17.7957
 20
5.33545
 11
17.8166
 21
5.43649
  0
LINE
  8
0
 10
17.8166
 20
5.43649
 11
17.8292
 21
5.54726
  0
LINE
  8
0
 10
17.8292
 20
5.54726
 11
17.8334
 21
5.66772
  0
LINE
  8
0
 10
17.8334
 20
5.66772
 11
17.8288
 21
5.77057
  0
LINE
  8
0
 10
17.8288
 20
5.77057
 11
17.8152
 21
5.86594
  0
LINE
  8
0
 10
17.8152
 20
5.86594
 11
17.7925
 21
5.9538
  0
LINE
  8
0
 10
17.7925
 20
5.9538
 11
17.7608
 21
6.03415
  0
LINE
  8
0
 10
17.7608
 20
6.03415
 11
17.72
 21
6.10701
  0
LINE
  8
0
 10
17.72
 20
6.10701
 11
17.6701
 21
6.17236
  0
LINE
  8
0
 10
17.6701
 20
6.17236
 11
17.6112
 21
6.23022
  0
LINE
  8
0
 10
17.6112
 20
6.23022
 11
17.5441
 21
6.28047
  0
LINE
  8
0
 10
17.5441
 20
6.28047
 11
17.4696
 21
6.323
  0
LINE
  8
0
 10
17.4696
 20
6.323
 11
17.3878
 21
6.35779
  0
LINE
  8
0
 10
17.3878
 20
6.35779
 11
17.2987
 21
6.38486
  0
LINE
  8
0
 10
17.2987
 20
6.38486
 11
17.2023
 21
6.40417
  0
LINE
  8
0
 10
17.2023
 20
6.40417
 11
17.0985
 21
6.41577
  0
LINE
  8
0
 10
17.0985
 20
6.41577
 11
16.9875
 21
6.41965
  0
LINE
  8
0
 10
16.9875
 20
6.41965
 11
16.8795
 21
6.41548
  0
LINE
  8
0
 10
16.8795
 20
6.41548
 11
16.7785
 21
6.40302
  0
LINE
  8
0
 10
16.7785
 20
6.40302
 11
16.6844
 21
6.38223
  0
LINE
  8
0
 10
16.6844
 20
6.38223
 11
16.5974
 21
6.35315
  0
LINE
  8
0
 10
16.5974
 20
6.35315
 11
16.5172
 21
6.31573
  0
LINE
  8
0
 10
16.5172
 20
6.31573
 11
16.4441
 21
6.27002
  0
LINE
  8
0
 10
16.4441
 20
6.27002
 11
16.378
 21
6.21599
  0
LINE
  8
0
 10
16.378
 20
6.21599
 11
16.3198
 21
6.15469
  0
LINE
  8
0
 10
16.3198
 20
6.15469
 11
16.2706
 21
6.08717
  0
LINE
  8
0
 10
16.2706
 20
6.08717
 11
16.2303
 21
6.01344
  0
LINE
  8
0
 10
16.2303
 20
6.01344
 11
16.1989
 21
5.93349
  0
LINE
  8
0
 10
16.1989
 20
5.93349
 11
16.1766
 21
5.84732
  0
LINE
  8
0
 10
16.1766
 20
5.84732
 11
16.1631
 21
5.75494
  0
LINE
  8
0
 10
16.1631
 20
5.75494
 11
16.1586
 21
5.65634
  0
LINE
  8
0
 10
16.1586
 20
5.65634
 11
16.1759
 21
5.43645
  0
LINE
  8
0
 10
16.1759
 20
5.43645
 11
16.2277
 21
5.25038
  0
LINE
  8
0
 10
16.2277
 20
5.25038
 11
16.314
 21
5.09814
  0
LINE
  8
0
 10
16.314
 20
5.09814
 11
16.4349
 21
4.97974
  0
LINE
  8
0
 10
16.4349
 20
4.97974
 11
16.5902
 21
4.89517
  0
LINE
  8
0
 10
16.5902
 20
4.89517
 11
16.7801
 21
4.84442
  0
LINE
  8
0
 10
16.7801
 20
4.84442
 11
17.0046
 21
4.82751
  0
LINE
  8
0
 10
17.0046
 20
4.82751
 11
17.1198
 21
4.8316
  0
LINE
  8
0
 10
119.669
 20
4.5
 11
119.669
 21
4.86169
  0
LINE
  8
0
 10
119.669
 20
4.86169
 11
119.712
 21
4.95531
  0
LINE
  8
0
 10
119.712
 20
4.95531
 11
119.757
 21
5.04572
  0
LINE
  8
0
 10
119.757
 20
5.04572
 11
119.805
 21
5.13293
  0
LINE
  8
0
 10
119.805
 20
5.13293
 11
119.856
 21
5.21695
  0
LINE
  8
0
 10
119.856
 20
5.21695
 11
119.909
 21
5.29778
  0
LINE
  8
0
 10
119.909
 20
5.29778
 11
119.965
 21
5.3754
  0
LINE
  8
0
 10
119.965
 20
5.3754
 11
120.023
 21
5.44983
  0
LINE
  8
0
 10
120.023
 20
5.44983
 11
120.084
 21
5.52167
  0
LINE
  8
0
 10
120.084
 20
5.52167
 11
120.145
 21
5.59155
  0
LINE
  8
0
 10
120.145
 20
5.59155
 11
120.207
 21
5.65944
  0
LINE
  8
0
 10
120.207
 20
5.65944
 11
120.27
 21
5.72536
  0
LINE
  8
0
 10
120.27
 20
5.72536
 11
120.333
 21
5.78929
  0
LINE
  8
0
 10
120.333
 20
5.78929
 11
120.398
 21
5.85126
  0
LINE
  8
0
 10
120.398
 20
5.85126
 11
120.463
 21
5.91124
  0
LINE
  8
0
 10
120.463
 20
5.91124
 11
120.529
 21
5.96962
  0
LINE
  8
0
 10
120.529
 20
5.96962
 11
120.595
 21
6.02679
  0
LINE
  8
0
 10
120.595
 20
6.02679
 11
120.66
 21
6.08275
  0
LINE
  8
0
 10
120.66
 20
6.08275
 11
120.726
 21
6.13747
  0
LINE
  8
0
 10
120.726
 20
6.13747
 11
120.791
 21
6.19098
  0
LINE
  8
0
 10
120.791
 20
6.19098
 11
120.856
 21
6.24326
  0
LINE
  8
0
 10
120.856
 20
6.24326
 11
120.921
 21
6.29431
  0
LINE
  8
0
 10
120.921
 20
6.29431
 11
120.984
 21
6.34476
  0
LINE
  8
0
 10
120.984
 20
6.34476
 11
121.046
 21
6.39522
  0
LINE
  8
0
 10
121.046
 20
6.39522
 11
121.106
 21
6.44566
  0
LINE
  8
0
 10
121.106
 20
6.44566
 11
121.165
 21
6.49611
  0
LINE
  8
0
 10
121.165
 20
6.49611
 11
121.221
 21
6.54655
  0
LINE
  8
0
 10
121.221
 20
6.54655
 11
121.276
 21
6.597
  0
LINE
  8
0
 10
121.276
 20
6.597
 11
121.329
 21
6.64745
  0
LINE
  8
0
 10
121.329
 20
6.64745
 11
121.38
 21
6.69826
  0
LINE
  8
0
 10
121.38
 20
6.69826
 11
121.428
 21
6.74977
  0
LINE
  8
0
 10
121.428
 20
6.74977
 11
121.473
 21
6.80197
  0
LINE
  8
0
 10
121.473
 20
6.80197
 11
121.515
 21
6.85486
  0
LINE
  8
0
 10
121.515
 20
6.85486
 11
121.554
 21
6.90845
  0
LINE
  8
0
 10
121.554
 20
6.90845
 11
121.59
 21
6.96274
  0
LINE
  8
0
 10
121.59
 20
6.96274
 11
121.624
 21
7.01773
  0
LINE
  8
0
 10
121.624
 20
7.01773
 11
121.654
 21
7.07411
  0
LINE
  8
0
 10
121.654
 20
7.07411
 11
121.679
 21
7.1326
  0
LINE
  8
0
 10
121.679
 20
7.1326
 11
121.7
 21
7.19316
  0
LINE
  8
0
 10
121.7
 20
7.19316
 11
121.716
 21
7.25581
  0
LINE
  8
0
 10
121.716
 20
7.25581
 11
121.727
 21
7.32057
  0
LINE
  8
0
 10
121.727
 20
7.32057
 11
121.734
 21
7.38741
  0
LINE
  8
0
 10
121.734
 20
7.38741
 11
121.737
 21
7.45633
  0
LINE
  8
0
 10
121.737
 20
7.45633
 11
121.733
 21
7.54771
  0
LINE
  8
0
 10
121.733
 20
7.54771
 11
121.721
 21
7.63304
  0
LINE
  8
0
 10
121.721
 20
7.63304
 11
121.701
 21
7.71234
  0
LINE
  8
0
 10
121.701
 20
7.71234
 11
121.673
 21
7.78558
  0
LINE
  8
0
 10
121.673
 20
7.78558
 11
121.638
 21
7.85277
  0
LINE
  8
0
 10
121.638
 20
7.85277
 11
121.594
 21
7.91393
  0
LINE
  8
0
 10
121.594
 20
7.91393
 11
121.543
 21
7.96902
  0
LINE
  8
0
 10
121.543
 20
7.96902
 11
121.484
 21
8.01738
  0
LINE
  8
0
 10
121.484
 20
8.01738
 11
121.42
 21
8.0583
  0
LINE
  8
0
 10
121.42
 20
8.0583
 11
121.349
 21
8.09178
  0
LINE
  8
0
 10
121.349
 20
8.09178
 11
121.272
 21
8.11783
  0
LINE
  8
0
 10
121.272
 20
8.11783
 11
121.189
 21
8.13643
  0
LINE
  8
0
 10
121.189
 20
8.13643
 11
121.1
 21
8.14758
  0
LINE
  8
0
 10
121.1
 20
8.14758
 11
121.005
 21
8.15131
  0
LINE
  8
0
 10
121.005
 20
8.15131
 11
120.913
 21
8.14767
  0
LINE
  8
0
 10
120.913
 20
8.14767
 11
120.827
 21
8.13676
  0
LINE
  8
0
 10
120.827
 20
8.13676
 11
120.745
 21
8.11861
  0
LINE
  8
0
 10
120.745
 20
8.11861
 11
120.668
 21
8.09317
  0
LINE
  8
0
 10
120.668
 20
8.09317
 11
120.595
 21
8.06047
  0
LINE
  8
0
 10
120.595
 20
8.06047
 11
120.528
 21
8.02051
  0
LINE
  8
0
 10
120.528
 20
8.02051
 11
120.465
 21
7.97327
  0
LINE
  8
0
 10
120.465
 20
7.97327
 11
120.408
 21
7.91948
  0
LINE
  8
0
 10
120.408
 20
7.91948
 11
120.358
 21
7.85982
  0
LINE
  8
0
 10
120.358
 20
7.85982
 11
120.315
 21
7.79428
  0
LINE
  8
0
 10
120.315
 20
7.79428
 11
120.28
 21
7.72287
  0
LINE
  8
0
 10
120.28
 20
7.72287
 11
120.251
 21
7.6456
  0
LINE
  8
0
 10
120.251
 20
7.6456
 11
120.23
 21
7.56244
  0
LINE
  8
0
 10
120.23
 20
7.56244
 11
120.216
 21
7.47342
  0
LINE
  8
0
 10
120.216
 20
7.47342
 11
119.692
 21
7.52185
  0
LINE
  8
0
 10
119.692
 20
7.52185
 11
119.714
 21
7.65536
  0
LINE
  8
0
 10
119.714
 20
7.65536
 11
119.748
 21
7.78085
  0
LINE
  8
0
 10
119.748
 20
7.78085
 11
119.795
 21
7.89832
  0
LINE
  8
0
 10
119.795
 20
7.89832
 11
119.853
 21
8.00777
  0
LINE
  8
0
 10
119.853
 20
8.00777
 11
119.923
 21
8.10919
  0
LINE
  8
0
 10
119.923
 20
8.10919
 11
120.006
 21
8.20259
  0
LINE
  8
0
 10
120.006
 20
8.20259
 11
120.1
 21
8.28798
  0
LINE
  8
0
 10
120.1
 20
8.28798
 11
120.205
 21
8.36354
  0
LINE
  8
0
 10
120.205
 20
8.36354
 11
120.318
 21
8.42749
  0
LINE
  8
0
 10
120.318
 20
8.42749
 11
120.439
 21
8.47981
  0
LINE
  8
0
 10
120.439
 20
8.47981
 11
120.568
 21
8.52049
  0
LINE
  8
0
 10
120.568
 20
8.52049
 11
120.705
 21
8.54956
  0
LINE
  8
0
 10
120.705
 20
8.54956
 11
120.851
 21
8.567
  0
LINE
  8
0
 10
120.851
 20
8.567
 11
121.005
 21
8.57281
  0
LINE
  8
0
 10
121.005
 20
8.57281
 11
121.172
 21
8.56697
  0
LINE
  8
0
 10
121.172
 20
8.56697
 11
121.328
 21
8.54945
  0
LINE
  8
0
 10
121.328
 20
8.54945
 11
121.473
 21
8.52025
  0
LINE
  8
0
 10
121.473
 20
8.52025
 11
121.606
 21
8.47935
  0
LINE
  8
0
 10
121.606
 20
8.47935
 11
121.728
 21
8.42677
  0
LINE
  8
0
 10
121.728
 20
8.42677
 11
121.838
 21
8.36252
  0
LINE
  8
0
 10
121.838
 20
8.36252
 11
121.937
 21
8.28659
  0
LINE
  8
0
 10
121.937
 20
8.28659
 11
122.024
 21
8.19989
  0
LINE
  8
0
 10
122.024
 20
8.19989
 11
122.097
 21
8.10338
  0
LINE
  8
0
 10
122.097
 20
8.10338
 11
122.157
 21
7.99704
  0
LINE
  8
0
 10
122.157
 20
7.99704
 11
122.204
 21
7.88087
  0
LINE
  8
0
 10
122.204
 20
7.88087
 11
122.237
 21
7.75488
  0
LINE
  8
0
 10
122.237
 20
7.75488
 11
122.257
 21
7.61906
  0
LINE
  8
0
 10
122.257
 20
7.61906
 11
122.263
 21
7.47342
  0
LINE
  8
0
 10
122.263
 20
7.47342
 11
122.261
 21
7.40677
  0
LINE
  8
0
 10
122.261
 20
7.40677
 11
122.255
 21
7.34021
  0
LINE
  8
0
 10
122.255
 20
7.34021
 11
122.244
 21
7.27379
  0
LINE
  8
0
 10
122.244
 20
7.27379
 11
122.229
 21
7.20746
  0
LINE
  8
0
 10
122.229
 20
7.20746
 11
122.209
 21
7.14127
  0
LINE
  8
0
 10
122.209
 20
7.14127
 11
122.185
 21
7.07516
  0
LINE
  8
0
 10
122.185
 20
7.07516
 11
122.157
 21
7.0092
  0
LINE
  8
0
 10
122.157
 20
7.0092
 11
122.124
 21
6.94328
  0
LINE
  8
0
 10
122.124
 20
6.94328
 11
122.087
 21
6.87737
  0
LINE
  8
0
 10
122.087
 20
6.87737
 11
122.046
 21
6.81145
  0
LINE
  8
0
 10
122.046
 20
6.81145
 11
122.001
 21
6.74553
  0
LINE
  8
0
 10
122.001
 20
6.74553
 11
121.951
 21
6.67961
  0
LINE
  8
0
 10
121.951
 20
6.67961
 11
121.897
 21
6.61371
  0
LINE
  8
0
 10
121.897
 20
6.61371
 11
121.839
 21
6.54779
  0
LINE
  8
0
 10
121.839
 20
6.54779
 11
121.771
 21
6.4767
  0
LINE
  8
0
 10
121.771
 20
6.4767
 11
121.687
 21
6.39526
  0
LINE
  8
0
 10
121.687
 20
6.39526
 11
121.588
 21
6.30348
  0
LINE
  8
0
 10
121.588
 20
6.30348
 11
121.473
 21
6.20135
  0
LINE
  8
0
 10
121.473
 20
6.20135
 11
121.342
 21
6.08888
  0
LINE
  8
0
 10
121.342
 20
6.08888
 11
121.195
 21
5.96606
  0
LINE
  8
0
 10
121.195
 20
5.96606
 11
121.033
 21
5.8329
  0
LINE
  8
0
 10
121.033
 20
5.8329
 11
120.942
 21
5.75749
  0
LINE
  8
0
 10
120.942
 20
5.75749
 11
120.857
 21
5.68423
  0
LINE
  8
0
 10
120.857
 20
5.68423
 11
120.777
 21
5.61311
  0
LINE
  8
0
 10
120.777
 20
5.61311
 11
120.702
 21
5.54414
  0
LINE
  8
0
 10
120.702
 20
5.54414
 11
120.633
 21
5.47734
  0
LINE
  8
0
 10
120.633
 20
5.47734
 11
120.57
 21
5.41267
  0
LINE
  8
0
 10
120.57
 20
5.41267
 11
120.512
 21
5.35016
  0
LINE
  8
0
 10
120.512
 20
5.35016
 11
120.459
 21
5.28903
  0
LINE
  8
0
 10
120.459
 20
5.28903
 11
120.41
 21
5.22856
  0
LINE
  8
0
 10
120.41
 20
5.22856
 11
120.366
 21
5.16872
  0
LINE
  8
0
 10
120.366
 20
5.16872
 11
120.326
 21
5.10951
  0
LINE
  8
0
 10
120.326
 20
5.10951
 11
120.29
 21
5.05095
  0
LINE
  8
0
 10
120.29
 20
5.05095
 11
120.259
 21
4.99303
  0
LINE
  8
0
 10
120.259
 20
4.99303
 11
120.233
 21
4.93575
  0
LINE
  8
0
 10
120.233
 20
4.93575
 11
122.326
 21
4.93575
  0
LINE
  8
0
 10
122.326
 20
4.93575
 11
122.326
 21
4.5
  0
LINE
  8
0
 10
122.326
 20
4.5
 11
119.669
 21
4.5
  0
LINE
  8
0
 10
85.9007
 20
4.5
 11
85.9007
 21
4.93575
  0
LINE
  8
0
 10
85.9007
 20
4.93575
 11
86.9232
 21
4.93575
  0
LINE
  8
0
 10
86.9232
 20
4.93575
 11
86.9232
 21
8.02312
  0
LINE
  8
0
 10
86.9232
 20
8.02312
 11
86.0175
 21
7.37662
  0
LINE
  8
0
 10
86.0175
 20
7.37662
 11
86.0175
 21
7.86079
  0
LINE
  8
0
 10
86.0175
 20
7.86079
 11
86.9659
 21
8.51302
  0
LINE
  8
0
 10
86.9659
 20
8.51302
 11
87.4387
 21
8.51302
  0
LINE
  8
0
 10
87.4387
 20
8.51302
 11
87.4387
 21
4.93575
  0
LINE
  8
0
 10
87.4387
 20
4.93575
 11
88.4156
 21
4.93575
  0
LINE
  8
0
 10
88.4156
 20
4.93575
 11
88.4156
 21
4.5
  0
LINE
  8
0
 10
88.4156
 20
4.5
 11
85.9007
 21
4.5
  0
LINE
  8
0
 10
90.6496
 20
4.5
 11
90.6496
 21
5.40854
  0
LINE
  8
0
 10
90.6496
 20
5.40854
 11
88.7584
 21
5.40854
  0
LINE
  8
0
 10
88.7584
 20
5.40854
 11
88.7584
 21
5.80728
  0
LINE
  8
0
 10
88.7584
 20
5.80728
 11
90.5955
 21
8.51302
  0
LINE
  8
0
 10
90.5955
 20
8.51302
 11
91.1338
 21
8.51302
  0
LINE
  8
0
 10
91.1338
 20
8.51302
 11
91.1338
 21
5.813
  0
LINE
  8
0
 10
91.1338
 20
5.813
 11
91.6977
 21
5.813
  0
LINE
  8
0
 10
91.6977
 20
5.813
 11
91.6977
 21
5.40854
  0
LINE
  8
0
 10
91.6977
 20
5.40854
 11
91.1338
 21
5.40854
  0
LINE
  8
0
 10
91.1338
 20
5.40854
 11
91.1338
 21
4.5
  0
LINE
  8
0
 10
91.1338
 20
4.5
 11
90.6496
 21
4.5
  0
LINE
  8
0
 10
90.6496
 20
7.93483
 11
90.6466
 21
7.92757
  0
LINE
  8
0
 10
90.6466
 20
7.92757
 11
90.6408
 21
7.91554
  0
LINE
  8
0
 10
90.6408
 20
7.91554
 11
90.6322
 21
7.89874
  0
LINE
  8
0
 10
90.6322
 20
7.89874
 11
90.6208
 21
7.87718
  0
LINE
  8
0
 10
90.6208
 20
7.87718
 11
90.6066
 21
7.85085
  0
LINE
  8
0
 10
90.6066
 20
7.85085
 11
90.5896
 21
7.81975
  0
LINE
  8
0
 10
90.5896
 20
7.81975
 11
90.5698
 21
7.78389
  0
LINE
  8
0
 10
90.5698
 20
7.78389
 11
90.5494
 21
7.74727
  0
LINE
  8
0
 10
90.5494
 20
7.74727
 11
90.5305
 21
7.71391
  0
LINE
  8
0
 10
90.5305
 20
7.71391
 11
90.5132
 21
7.68379
  0
LINE
  8
0
 10
90.5132
 20
7.68379
 11
90.4973
 21
7.65694
  0
LINE
  8
0
 10
90.4973
 20
7.65694
 11
90.4829
 21
7.63335
  0
LINE
  8
0
 10
90.4829
 20
7.63335
 11
90.4701
 21
7.61299
  0
LINE
  8
0
 10
90.4701
 20
7.61299
 11
90.4588
 21
7.5959
  0
LINE
  8
0
 10
90.4588
 20
7.5959
 11
89.4306
 21
6.0807
  0
LINE
  8
0
 10
89.4306
 20
6.0807
 11
89.2768
 21
5.86995
  0
LINE
  8
0
 10
89.2768
 20
5.86995
 11
89.2312
 21
5.813
  0
LINE
  8
0
 10
89.2312
 20
5.813
 11
90.6496
 21
5.813
  0
LINE
  8
0
 10
90.6496
 20
5.813
 11
90.6496
 21
7.93483
  0
LINE
  8
0
 10
111.901
 20
4.5
 11
111.901
 21
4.93575
  0
LINE
  8
0
 10
111.901
 20
4.93575
 11
112.923
 21
4.93575
  0
LINE
  8
0
 10
112.923
 20
4.93575
 11
112.923
 21
8.02312
  0
LINE
  8
0
 10
112.923
 20
8.02312
 11
112.017
 21
7.37662
  0
LINE
  8
0
 10
112.017
 20
7.37662
 11
112.017
 21
7.86079
  0
LINE
  8
0
 10
112.017
 20
7.86079
 11
112.966
 21
8.51302
  0
LINE
  8
0
 10
112.966
 20
8.51302
 11
113.439
 21
8.51302
  0
LINE
  8
0
 10
113.439
 20
8.51302
 11
113.439
 21
4.93575
  0
LINE
  8
0
 10
113.439
 20
4.93575
 11
114.416
 21
4.93575
  0
LINE
  8
0
 10
114.416
 20
4.93575
 11
114.416
 21
4.5
  0
LINE
  8
0
 10
114.416
 20
4.5
 11
111.901
 21
4.5
  0
LINE
  8
0
 10
64.6496
 20
4.5
 11
64.6496
 21
5.40854
  0
LINE
  8
0
 10
64.6496
 20
5.40854
 11
62.7584
 21
5.40854
  0
LINE
  8
0
 10
62.7584
 20
5.40854
 11
62.7584
 21
5.80728
  0
LINE
  8
0
 10
62.7584
 20
5.80728
 11
64.5955
 21
8.51302
  0
LINE
  8
0
 10
64.5955
 20
8.51302
 11
65.1338
 21
8.51302
  0
LINE
  8
0
 10
65.1338
 20
8.51302
 11
65.1338
 21
5.813
  0
LINE
  8
0
 10
65.1338
 20
5.813
 11
65.6977
 21
5.813
  0
LINE
  8
0
 10
65.6977
 20
5.813
 11
65.6977
 21
5.40854
  0
LINE
  8
0
 10
65.6977
 20
5.40854
 11
65.1338
 21
5.40854
  0
LINE
  8
0
 10
65.1338
 20
5.40854
 11
65.1338
 21
4.5
  0
LINE
  8
0
 10
65.1338
 20
4.5
 11
64.6496
 21
4.5
  0
LINE
  8
0
 10
64.6496
 20
7.93483
 11
64.6466
 21
7.92757
  0
LINE
  8
0
 10
64.6466
 20
7.92757
 11
64.6408
 21
7.91554
  0
LINE
  8
0
 10
64.6408
 20
7.91554
 11
64.6322
 21
7.89874
  0
LINE
  8
0
 10
64.6322
 20
7.89874
 11
64.6208
 21
7.87718
  0
LINE
  8
0
 10
64.6208
 20
7.87718
 11
64.6066
 21
7.85085
  0
LINE
  8
0
 10
64.6066
 20
7.85085
 11
64.5896
 21
7.81975
  0
LINE
  8
0
 10
64.5896
 20
7.81975
 11
64.5698
 21
7.78389
  0
LINE
  8
0
 10
64.5698
 20
7.78389
 11
64.5494
 21
7.74727
  0
LINE
  8
0
 10
64.5494
 20
7.74727
 11
64.5305
 21
7.71391
  0
LINE
  8
0
 10
64.5305
 20
7.71391
 11
64.5132
 21
7.68379
  0
LINE
  8
0
 10
64.5132
 20
7.68379
 11
64.4973
 21
7.65694
  0
LINE
  8
0
 10
64.4973
 20
7.65694
 11
64.4829
 21
7.63335
  0
LINE
  8
0
 10
64.4829
 20
7.63335
 11
64.4701
 21
7.61299
  0
LINE
  8
0
 10
64.4701
 20
7.61299
 11
64.4588
 21
7.5959
  0
LINE
  8
0
 10
64.4588
 20
7.5959
 11
63.4306
 21
6.0807
  0
LINE
  8
0
 10
63.4306
 20
6.0807
 11
63.2768
 21
5.86995
  0
LINE
  8
0
 10
63.2768
 20
5.86995
 11
63.2312
 21
5.813
  0
LINE
  8
0
 10
63.2312
 20
5.813
 11
64.6496
 21
5.813
  0
LINE
  8
0
 10
64.6496
 20
5.813
 11
64.6496
 21
7.93483
  0
LINE
  8
0
 10
93.8197
 20
4.5
 11
93.8197
 21
4.93575
  0
LINE
  8
0
 10
93.8197
 20
4.93575
 11
94.8422
 21
4.93575
  0
LINE
  8
0
 10
94.8422
 20
4.93575
 11
94.8422
 21
8.02312
  0
LINE
  8
0
 10
94.8422
 20
8.02312
 11
93.9365
 21
7.37662
  0
LINE
  8
0
 10
93.9365
 20
7.37662
 11
93.9365
 21
7.86079
  0
LINE
  8
0
 10
93.9365
 20
7.86079
 11
94.8849
 21
8.51302
  0
LINE
  8
0
 10
94.8849
 20
8.51302
 11
95.3577
 21
8.51302
  0
LINE
  8
0
 10
95.3577
 20
8.51302
 11
95.3577
 21
4.93575
  0
LINE
  8
0
 10
95.3577
 20
4.93575
 11
96.3346
 21
4.93575
  0
LINE
  8
0
 10
96.3346
 20
4.93575
 11
96.3346
 21
4.5
  0
LINE
  8
0
 10
96.3346
 20
4.5
 11
93.8197
 21
4.5
  0
LINE
  8
0
 10
116.65
 20
4.5
 11
116.65
 21
5.40854
  0
LINE
  8
0
 10
116.65
 20
5.40854
 11
114.758
 21
5.40854
  0
LINE
  8
0
 10
114.758
 20
5.40854
 11
114.758
 21
5.80728
  0
LINE
  8
0
 10
114.758
 20
5.80728
 11
116.595
 21
8.51302
  0
LINE
  8
0
 10
116.595
 20
8.51302
 11
117.134
 21
8.51302
  0
LINE
  8
0
 10
117.134
 20
8.51302
 11
117.134
 21
5.813
  0
LINE
  8
0
 10
117.134
 20
5.813
 11
117.698
 21
5.813
  0
LINE
  8
0
 10
117.698
 20
5.813
 11
117.698
 21
5.40854
  0
LINE
  8
0
 10
117.698
 20
5.40854
 11
117.134
 21
5.40854
  0
LINE
  8
0
 10
117.134
 20
5.40854
 11
117.134
 21
4.5
  0
LINE
  8
0
 10
117.134
 20
4.5
 11
116.65
 21
4.5
  0
LINE
  8
0
 10
116.65
 20
7.93483
 11
116.647
 21
7.92757
  0
LINE
  8
0
 10
116.647
 20
7.92757
 11
116.641
 21
7.91554
  0
LINE
  8
0
 10
116.641
 20
7.91554
 11
116.632
 21
7.89874
  0
LINE
  8
0
 10
116.632
 20
7.89874
 11
116.621
 21
7.87718
  0
LINE
  8
0
 10
116.621
 20
7.87718
 11
116.607
 21
7.85085
  0
LINE
  8
0
 10
116.607
 20
7.85085
 11
116.59
 21
7.81975
  0
LINE
  8
0
 10
116.59
 20
7.81975
 11
116.57
 21
7.78389
  0
LINE
  8
0
 10
116.57
 20
7.78389
 11
116.549
 21
7.74727
  0
LINE
  8
0
 10
116.549
 20
7.74727
 11
116.531
 21
7.71391
  0
LINE
  8
0
 10
116.531
 20
7.71391
 11
116.513
 21
7.68379
  0
LINE
  8
0
 10
116.513
 20
7.68379
 11
116.497
 21
7.65694
  0
LINE
  8
0
 10
116.497
 20
7.65694
 11
116.483
 21
7.63335
  0
LINE
  8
0
 10
116.483
 20
7.63335
 11
116.47
 21
7.61299
  0
LINE
  8
0
 10
116.47
 20
7.61299
 11
116.459
 21
7.5959
  0
LINE
  8
0
 10
116.459
 20
7.5959
 11
115.431
 21
6.0807
  0
LINE
  8
0
 10
115.431
 20
6.0807
 11
115.277
 21
5.86995
  0
LINE
  8
0
 10
115.277
 20
5.86995
 11
115.231
 21
5.813
  0
LINE
  8
0
 10
115.231
 20
5.813
 11
116.65
 21
5.813
  0
LINE
  8
0
 10
116.65
 20
5.813
 11
116.65
 21
7.93483
  0
LINE
  8
0
 10
59.9007
 20
4.5
 11
59.9007
 21
4.93575
  0
LINE
  8
0
 10
59.9007
 20
4.93575
 11
60.9232
 21
4.93575
  0
LINE
  8
0
 10
60.9232
 20
4.93575
 11
60.9232
 21
8.02312
  0
LINE
  8
0
 10
60.9232
 20
8.02312
 11
60.0175
 21
7.37662
  0
LINE
  8
0
 10
60.0175
 20
7.37662
 11
60.0175
 21
7.86079
  0
LINE
  8
0
 10
60.0175
 20
7.86079
 11
60.9659
 21
8.51302
  0
LINE
  8
0
 10
60.9659
 20
8.51302
 11
61.4387
 21
8.51302
  0
LINE
  8
0
 10
61.4387
 20
8.51302
 11
61.4387
 21
4.93575
  0
LINE
  8
0
 10
61.4387
 20
4.93575
 11
62.4156
 21
4.93575
  0
LINE
  8
0
 10
62.4156
 20
4.93575
 11
62.4156
 21
4.5
  0
LINE
  8
0
 10
62.4156
 20
4.5
 11
59.9007
 21
4.5
  0
LINE
  8
0
 10
173.4
 20
4.5
 11
173.4
 21
5.40854
  0
LINE
  8
0
 10
173.4
 20
5.40854
 11
171.509
 21
5.40854
  0
LINE
  8
0
 10
171.509
 20
5.40854
 11
171.509
 21
5.80728
  0
LINE
  8
0
 10
171.509
 20
5.80728
 11
173.346
 21
8.51302
  0
LINE
  8
0
 10
173.346
 20
8.51302
 11
173.885
 21
8.51302
  0
LINE
  8
0
 10
173.885
 20
8.51302
 11
173.885
 21
5.813
  0
LINE
  8
0
 10
173.885
 20
5.813
 11
174.449
 21
5.813
  0
LINE
  8
0
 10
174.449
 20
5.813
 11
174.449
 21
5.40854
  0
LINE
  8
0
 10
174.449
 20
5.40854
 11
173.885
 21
5.40854
  0
LINE
  8
0
 10
173.885
 20
5.40854
 11
173.885
 21
4.5
  0
LINE
  8
0
 10
173.885
 20
4.5
 11
173.4
 21
4.5
  0
LINE
  8
0
 10
173.4
 20
7.93483
 11
173.397
 21
7.92757
  0
LINE
  8
0
 10
173.397
 20
7.92757
 11
173.392
 21
7.91554
  0
LINE
  8
0
 10
173.392
 20
7.91554
 11
173.383
 21
7.89874
  0
LINE
  8
0
 10
173.383
 20
7.89874
 11
173.372
 21
7.87718
  0
LINE
  8
0
 10
173.372
 20
7.87718
 11
173.357
 21
7.85085
  0
LINE
  8
0
 10
173.357
 20
7.85085
 11
173.34
 21
7.81975
  0
LINE
  8
0
 10
173.34
 20
7.81975
 11
173.321
 21
7.78389
  0
LINE
  8
0
 10
173.321
 20
7.78389
 11
173.3
 21
7.74727
  0
LINE
  8
0
 10
173.3
 20
7.74727
 11
173.281
 21
7.71391
  0
LINE
  8
0
 10
173.281
 20
7.71391
 11
173.264
 21
7.68379
  0
LINE
  8
0
 10
173.264
 20
7.68379
 11
173.248
 21
7.65694
  0
LINE
  8
0
 10
173.248
 20
7.65694
 11
173.234
 21
7.63335
  0
LINE
  8
0
 10
173.234
 20
7.63335
 11
173.221
 21
7.61299
  0
LINE
  8
0
 10
173.221
 20
7.61299
 11
173.21
 21
7.5959
  0
LINE
  8
0
 10
173.21
 20
7.5959
 11
172.181
 21
6.0807
  0
LINE
  8
0
 10
172.181
 20
6.0807
 11
172.028
 21
5.86995
  0
LINE
  8
0
 10
172.028
 20
5.86995
 11
171.982
 21
5.813
  0
LINE
  8
0
 10
171.982
 20
5.813
 11
173.4
 21
5.813
  0
LINE
  8
0
 10
173.4
 20
5.813
 11
173.4
 21
7.93483
  0
LINE
  8
0
 10
137.901
 20
4.5
 11
137.901
 21
4.93575
  0
LINE
  8
0
 10
137.901
 20
4.93575
 11
138.923
 21
4.93575
  0
LINE
  8
0
 10
138.923
 20
4.93575
 11
138.923
 21
8.02312
  0
LINE
  8
0
 10
138.923
 20
8.02312
 11
138.017
 21
7.37662
  0
LINE
  8
0
 10
138.017
 20
7.37662
 11
138.017
 21
7.86079
  0
LINE
  8
0
 10
138.017
 20
7.86079
 11
138.966
 21
8.51302
  0
LINE
  8
0
 10
138.966
 20
8.51302
 11
139.439
 21
8.51302
  0
LINE
  8
0
 10
139.439
 20
8.51302
 11
139.439
 21
4.93575
  0
LINE
  8
0
 10
139.439
 20
4.93575
 11
140.416
 21
4.93575
  0
LINE
  8
0
 10
140.416
 20
4.93575
 11
140.416
 21
4.5
  0
LINE
  8
0
 10
140.416
 20
4.5
 11
137.901
 21
4.5
  0
LINE
  8
0
 10
142.65
 20
4.5
 11
142.65
 21
5.40854
  0
LINE
  8
0
 10
142.65
 20
5.40854
 11
140.758
 21
5.40854
  0
LINE
  8
0
 10
140.758
 20
5.40854
 11
140.758
 21
5.80728
  0
LINE
  8
0
 10
140.758
 20
5.80728
 11
142.595
 21
8.51302
  0
LINE
  8
0
 10
142.595
 20
8.51302
 11
143.134
 21
8.51302
  0
LINE
  8
0
 10
143.134
 20
8.51302
 11
143.134
 21
5.813
  0
LINE
  8
0
 10
143.134
 20
5.813
 11
143.698
 21
5.813
  0
LINE
  8
0
 10
143.698
 20
5.813
 11
143.698
 21
5.40854
  0
LINE
  8
0
 10
143.698
 20
5.40854
 11
143.134
 21
5.40854
  0
LINE
  8
0
 10
143.134
 20
5.40854
 11
143.134
 21
4.5
  0
LINE
  8
0
 10
143.134
 20
4.5
 11
142.65
 21
4.5
  0
LINE
  8
0
 10
142.65
 20
7.93483
 11
142.647
 21
7.92757
  0
LINE
  8
0
 10
142.647
 20
7.92757
 11
142.641
 21
7.91554
  0
LINE
  8
0
 10
142.641
 20
7.91554
 11
142.632
 21
7.89874
  0
LINE
  8
0
 10
142.632
 20
7.89874
 11
142.621
 21
7.87718
  0
LINE
  8
0
 10
142.621
 20
7.87718
 11
142.607
 21
7.85085
  0
LINE
  8
0
 10
142.607
 20
7.85085
 11
142.59
 21
7.81975
  0
LINE
  8
0
 10
142.59
 20
7.81975
 11
142.57
 21
7.78389
  0
LINE
  8
0
 10
142.57
 20
7.78389
 11
142.549
 21
7.74727
  0
LINE
  8
0
 10
142.549
 20
7.74727
 11
142.531
 21
7.71391
  0
LINE
  8
0
 10
142.531
 20
7.71391
 11
142.513
 21
7.68379
  0
LINE
  8
0
 10
142.513
 20
7.68379
 11
142.497
 21
7.65694
  0
LINE
  8
0
 10
142.497
 20
7.65694
 11
142.483
 21
7.63335
  0
LINE
  8
0
 10
142.483
 20
7.63335
 11
142.47
 21
7.61299
  0
LINE
  8
0
 10
142.47
 20
7.61299
 11
142.459
 21
7.5959
  0
LINE
  8
0
 10
142.459
 20
7.5959
 11
141.431
 21
6.0807
  0
LINE
  8
0
 10
141.431
 20
6.0807
 11
141.277
 21
5.86995
  0
LINE
  8
0
 10
141.277
 20
5.86995
 11
141.231
 21
5.813
  0
LINE
  8
0
 10
141.231
 20
5.813
 11
142.65
 21
5.813
  0
LINE
  8
0
 10
142.65
 20
5.813
 11
142.65
 21
7.93483
  0
LINE
  8
0
 10
163.901
 20
4.5
 11
163.901
 21
4.93575
  0
LINE
  8
0
 10
163.901
 20
4.93575
 11
164.923
 21
4.93575
  0
LINE
  8
0
 10
164.923
 20
4.93575
 11
164.923
 21
8.02312
  0
LINE
  8
0
 10
164.923
 20
8.02312
 11
164.017
 21
7.37662
  0
LINE
  8
0
 10
164.017
 20
7.37662
 11
164.017
 21
7.86079
  0
LINE
  8
0
 10
164.017
 20
7.86079
 11
164.966
 21
8.51302
  0
LINE
  8
0
 10
164.966
 20
8.51302
 11
165.439
 21
8.51302
  0
LINE
  8
0
 10
165.439
 20
8.51302
 11
165.439
 21
4.93575
  0
LINE
  8
0
 10
165.439
 20
4.93575
 11
166.416
 21
4.93575
  0
LINE
  8
0
 10
166.416
 20
4.93575
 11
166.416
 21
4.5
  0
LINE
  8
0
 10
166.416
 20
4.5
 11
163.901
 21
4.5
  0
LINE
  8
0
 10
168.65
 20
4.5
 11
168.65
 21
5.40854
  0
LINE
  8
0
 10
168.65
 20
5.40854
 11
166.758
 21
5.40854
  0
LINE
  8
0
 10
166.758
 20
5.40854
 11
166.758
 21
5.80728
  0
LINE
  8
0
 10
166.758
 20
5.80728
 11
168.595
 21
8.51302
  0
LINE
  8
0
 10
168.595
 20
8.51302
 11
169.134
 21
8.51302
  0
LINE
  8
0
 10
169.134
 20
8.51302
 11
169.134
 21
5.813
  0
LINE
  8
0
 10
169.134
 20
5.813
 11
169.698
 21
5.813
  0
LINE
  8
0
 10
169.698
 20
5.813
 11
169.698
 21
5.40854
  0
LINE
  8
0
 10
169.698
 20
5.40854
 11
169.134
 21
5.40854
  0
LINE
  8
0
 10
169.134
 20
5.40854
 11
169.134
 21
4.5
  0
LINE
  8
0
 10
169.134
 20
4.5
 11
168.65
 21
4.5
  0
LINE
  8
0
 10
168.65
 20
7.93483
 11
168.647
 21
7.92757
  0
LINE
  8
0
 10
168.647
 20
7.92757
 11
168.641
 21
7.91554
  0
LINE
  8
0
 10
168.641
 20
7.91554
 11
168.632
 21
7.89874
  0
LINE
  8
0
 10
168.632
 20
7.89874
 11
168.621
 21
7.87718
  0
LINE
  8
0
 10
168.621
 20
7.87718
 11
168.607
 21
7.85085
  0
LINE
  8
0
 10
168.607
 20
7.85085
 11
168.59
 21
7.81975
  0
LINE
  8
0
 10
168.59
 20
7.81975
 11
168.57
 21
7.78389
  0
LINE
  8
0
 10
168.57
 20
7.78389
 11
168.549
 21
7.74727
  0
LINE
  8
0
 10
168.549
 20
7.74727
 11
168.531
 21
7.71391
  0
LINE
  8
0
 10
168.531
 20
7.71391
 11
168.513
 21
7.68379
  0
LINE
  8
0
 10
168.513
 20
7.68379
 11
168.497
 21
7.65694
  0
LINE
  8
0
 10
168.497
 20
7.65694
 11
168.483
 21
7.63335
  0
LINE
  8
0
 10
168.483
 20
7.63335
 11
168.47
 21
7.61299
  0
LINE
  8
0
 10
168.47
 20
7.61299
 11
168.459
 21
7.5959
  0
LINE
  8
0
 10
168.459
 20
7.5959
 11
167.431
 21
6.0807
  0
LINE
  8
0
 10
167.431
 20
6.0807
 11
167.277
 21
5.86995
  0
LINE
  8
0
 10
167.277
 20
5.86995
 11
167.231
 21
5.813
  0
LINE
  8
0
 10
167.231
 20
5.813
 11
168.65
 21
5.813
  0
LINE
  8
0
 10
168.65
 20
5.813
 11
168.65
 21
7.93483
  0
LINE
  8
0
 10
7.90071
 20
4.5
 11
7.90071
 21
4.93575
  0
LINE
  8
0
 10
7.90071
 20
4.93575
 11
8.92316
 21
4.93575
  0
LINE
  8
0
 10
8.92316
 20
4.93575
 11
8.92316
 21
8.02312
  0
LINE
  8
0
 10
8.92316
 20
8.02312
 11
8.01747
 21
7.37662
  0
LINE
  8
0
 10
8.01747
 20
7.37662
 11
8.01747
 21
7.86079
  0
LINE
  8
0
 10
8.01747
 20
7.86079
 11
8.96591
 21
8.51302
  0
LINE
  8
0
 10
8.96591
 20
8.51302
 11
9.43872
 21
8.51302
  0
LINE
  8
0
 10
9.43872
 20
8.51302
 11
9.43872
 21
4.93575
  0
LINE
  8
0
 10
9.43872
 20
4.93575
 11
10.4156
 21
4.93575
  0
LINE
  8
0
 10
10.4156
 20
4.93575
 11
10.4156
 21
4.5
  0
LINE
  8
0
 10
10.4156
 20
4.5
 11
7.90071
 21
4.5
  0
LINE
  8
0
 10
33.9007
 20
4.5
 11
33.9007
 21
4.93575
  0
LINE
  8
0
 10
33.9007
 20
4.93575
 11
34.9232
 21
4.93575
  0
LINE
  8
0
 10
34.9232
 20
4.93575
 11
34.9232
 21
8.02312
  0
LINE
  8
0
 10
34.9232
 20
8.02312
 11
34.0175
 21
7.37662
  0
LINE
  8
0
 10
34.0175
 20
7.37662
 11
34.0175
 21
7.86079
  0
LINE
  8
0
 10
34.0175
 20
7.86079
 11
34.9659
 21
8.51302
  0
LINE
  8
0
 10
34.9659
 20
8.51302
 11
35.4387
 21
8.51302
  0
LINE
  8
0
 10
35.4387
 20
8.51302
 11
35.4387
 21
4.93575
  0
LINE
  8
0
 10
35.4387
 20
4.93575
 11
36.4156
 21
4.93575
  0
LINE
  8
0
 10
36.4156
 20
4.93575
 11
36.4156
 21
4.5
  0
LINE
  8
0
 10
36.4156
 20
4.5
 11
33.9007
 21
4.5
  0
LINE
  8
0
 10
14.3253
 20
4.5
 11
14.3253
 21
5.12373
  0
LINE
  8
0
 10
14.3253
 20
5.12373
 11
14.8807
 21
5.12373
  0
LINE
  8
0
 10
14.8807
 20
5.12373
 11
14.8807
 21
4.5
  0
LINE
  8
0
 10
14.8807
 20
4.5
 11
14.3253
 21
4.5
  0
LINE
  8
0
 10
144.325
 20
4.5
 11
144.325
 21
5.12373
  0
LINE
  8
0
 10
144.325
 20
5.12373
 11
144.881
 21
5.12373
  0
LINE
  8
0
 10
144.881
 20
5.12373
 11
144.881
 21
4.5
  0
LINE
  8
0
 10
144.881
 20
4.5
 11
144.325
 21
4.5
  0
LINE
  8
0
 10
92.3253
 20
4.5
 11
92.3253
 21
5.12373
  0
LINE
  8
0
 10
92.3253
 20
5.12373
 11
92.8807
 21
5.12373
  0
LINE
  8
0
 10
92.8807
 20
5.12373
 11
92.8807
 21
4.5
  0
LINE
  8
0
 10
92.8807
 20
4.5
 11
92.3253
 21
4.5
  0
LINE
  8
0
 10
40.3253
 20
4.5
 11
40.3253
 21
5.12373
  0
LINE
  8
0
 10
40.3253
 20
5.12373
 11
40.8807
 21
5.12373
  0
LINE
  8
0
 10
40.8807
 20
5.12373
 11
40.8807
 21
4.5
  0
LINE
  8
0
 10
40.8807
 20
4.5
 11
40.3253
 21
4.5
  0
LINE
  8
0
 10
118.325
 20
4.5
 11
118.325
 21
5.12373
  0
LINE
  8
0
 10
118.325
 20
5.12373
 11
118.881
 21
5.12373
  0
LINE
  8
0
 10
118.881
 20
5.12373
 11
118.881
 21
4.5
  0
LINE
  8
0
 10
118.881
 20
4.5
 11
118.325
 21
4.5
  0
LINE
  8
0
 10
66.3253
 20
4.5
 11
66.3253
 21
5.12373
  0
LINE
  8
0
 10
66.3253
 20
5.12373
 11
66.8807
 21
5.12373
  0
LINE
  8
0
 10
66.8807
 20
5.12373
 11
66.8807
 21
4.5
  0
LINE
  8
0
 10
66.8807
 20
4.5
 11
66.3253
 21
4.5
  0
LINE
  8
0
 10
170.325
 20
4.5
 11
170.325
 21
5.12373
  0
LINE
  8
0
 10
170.325
 20
5.12373
 11
170.881
 21
5.12373
  0
LINE
  8
0
 10
170.881
 20
5.12373
 11
170.881
 21
4.5
  0
LINE
  8
0
 10
170.881
 20
4.5
 11
170.325
 21
4.5
  0
ENDSEC
  0
SECTION
  2
OBJECTS
  0
DICTIONARY
  0
ENDSEC
  0
EOF
