  0
SECTION
  2
BLOCKS
  0
ENDSEC
  0
SECTION
  2
ENTITIES
  0
LINE
  8
0
 10
174
 20
565
 11
8
 21
565
  0
LINE
  8
0
 10
8
 20
565
 11
0
 21
557
  0
LINE
  8
0
 10
0
 20
557
 11
0
 21
0
  0
LINE
  8
0
 10
0
 20
0
 11
174
 21
0
  0
LINE
  8
0
 10
174
 20
0
 11
174
 21
565
  0
LINE
  8
0
 10
46.7781
 20
555.815
 11
46.56
 21
555.858
  0
LINE
  8
0
 10
46.56
 20
555.858
 11
46.3494
 21
555.929
  0
LINE
  8
0
 10
46.3494
 20
555.929
 11
46.15
 21
556.028
  0
LINE
  8
0
 10
46.15
 20
556.028
 11
45.9651
 21
556.151
  0
LINE
  8
0
 10
45.9651
 20
556.151
 11
45.7979
 21
556.298
  0
LINE
  8
0
 10
45.7979
 20
556.298
 11
45.6513
 21
556.465
  0
LINE
  8
0
 10
45.6513
 20
556.465
 11
45.5278
 21
556.65
  0
LINE
  8
0
 10
45.5278
 20
556.65
 11
45.4294
 21
556.849
  0
LINE
  8
0
 10
45.4294
 20
556.849
 11
45.3579
 21
557.06
  0
LINE
  8
0
 10
45.3579
 20
557.06
 11
45.3145
 21
557.278
  0
LINE
  8
0
 10
45.3145
 20
557.278
 11
45.3
 21
557.5
  0
LINE
  8
0
 10
45.3
 20
557.5
 11
45.3145
 21
557.722
  0
LINE
  8
0
 10
45.3145
 20
557.722
 11
45.3579
 21
557.94
  0
LINE
  8
0
 10
45.3579
 20
557.94
 11
45.4294
 21
558.151
  0
LINE
  8
0
 10
45.4294
 20
558.151
 11
45.5278
 21
558.35
  0
LINE
  8
0
 10
45.5278
 20
558.35
 11
45.6513
 21
558.535
  0
LINE
  8
0
 10
45.6513
 20
558.535
 11
45.7979
 21
558.702
  0
LINE
  8
0
 10
45.7979
 20
558.702
 11
45.9651
 21
558.849
  0
LINE
  8
0
 10
45.9651
 20
558.849
 11
46.15
 21
558.972
  0
LINE
  8
0
 10
46.15
 20
558.972
 11
46.3494
 21
559.071
  0
LINE
  8
0
 10
46.3494
 20
559.071
 11
46.56
 21
559.142
  0
LINE
  8
0
 10
46.56
 20
559.142
 11
46.7781
 21
559.185
  0
LINE
  8
0
 10
46.7781
 20
559.185
 11
47
 21
559.2
  0
LINE
  8
0
 10
47
 20
559.2
 11
47.2219
 21
559.185
  0
LINE
  8
0
 10
47.2219
 20
559.185
 11
47.44
 21
559.142
  0
LINE
  8
0
 10
47.44
 20
559.142
 11
47.6506
 21
559.071
  0
LINE
  8
0
 10
47.6506
 20
559.071
 11
47.85
 21
558.972
  0
LINE
  8
0
 10
47.85
 20
558.972
 11
48.0349
 21
558.849
  0
LINE
  8
0
 10
48.0349
 20
558.849
 11
48.2021
 21
558.702
  0
LINE
  8
0
 10
48.2021
 20
558.702
 11
48.3487
 21
558.535
  0
LINE
  8
0
 10
48.3487
 20
558.535
 11
48.4722
 21
558.35
  0
LINE
  8
0
 10
48.4722
 20
558.35
 11
48.5706
 21
558.151
  0
LINE
  8
0
 10
48.5706
 20
558.151
 11
48.6421
 21
557.94
  0
LINE
  8
0
 10
48.6421
 20
557.94
 11
48.6855
 21
557.722
  0
LINE
  8
0
 10
48.6855
 20
557.722
 11
48.7
 21
557.5
  0
LINE
  8
0
 10
48.7
 20
557.5
 11
48.6855
 21
557.278
  0
LINE
  8
0
 10
48.6855
 20
557.278
 11
48.6421
 21
557.06
  0
LINE
  8
0
 10
48.6421
 20
557.06
 11
48.5706
 21
556.849
  0
LINE
  8
0
 10
48.5706
 20
556.849
 11
48.4722
 21
556.65
  0
LINE
  8
0
 10
48.4722
 20
556.65
 11
48.3487
 21
556.465
  0
LINE
  8
0
 10
48.3487
 20
556.465
 11
48.2021
 21
556.298
  0
LINE
  8
0
 10
48.2021
 20
556.298
 11
48.0349
 21
556.151
  0
LINE
  8
0
 10
48.0349
 20
556.151
 11
47.85
 21
556.028
  0
LINE
  8
0
 10
47.85
 20
556.028
 11
47.6506
 21
555.929
  0
LINE
  8
0
 10
47.6506
 20
555.929
 11
47.44
 21
555.858
  0
LINE
  8
0
 10
47.44
 20
555.858
 11
47.2219
 21
555.815
  0
LINE
  8
0
 10
47.2219
 20
555.815
 11
47
 21
555.8
  0
LINE
  8
0
 10
47
 20
555.8
 11
46.7781
 21
555.815
  0
LINE
  8
0
 10
19.7781
 20
555.815
 11
19.56
 21
555.858
  0
LINE
  8
0
 10
19.56
 20
555.858
 11
19.3494
 21
555.929
  0
LINE
  8
0
 10
19.3494
 20
555.929
 11
19.15
 21
556.028
  0
LINE
  8
0
 10
19.15
 20
556.028
 11
18.9651
 21
556.151
  0
LINE
  8
0
 10
18.9651
 20
556.151
 11
18.7979
 21
556.298
  0
LINE
  8
0
 10
18.7979
 20
556.298
 11
18.6513
 21
556.465
  0
LINE
  8
0
 10
18.6513
 20
556.465
 11
18.5278
 21
556.65
  0
LINE
  8
0
 10
18.5278
 20
556.65
 11
18.4294
 21
556.849
  0
LINE
  8
0
 10
18.4294
 20
556.849
 11
18.3579
 21
557.06
  0
LINE
  8
0
 10
18.3579
 20
557.06
 11
18.3145
 21
557.278
  0
LINE
  8
0
 10
18.3145
 20
557.278
 11
18.3
 21
557.5
  0
LINE
  8
0
 10
18.3
 20
557.5
 11
18.3145
 21
557.722
  0
LINE
  8
0
 10
18.3145
 20
557.722
 11
18.3579
 21
557.94
  0
LINE
  8
0
 10
18.3579
 20
557.94
 11
18.4294
 21
558.151
  0
LINE
  8
0
 10
18.4294
 20
558.151
 11
18.5278
 21
558.35
  0
LINE
  8
0
 10
18.5278
 20
558.35
 11
18.6513
 21
558.535
  0
LINE
  8
0
 10
18.6513
 20
558.535
 11
18.7979
 21
558.702
  0
LINE
  8
0
 10
18.7979
 20
558.702
 11
18.9651
 21
558.849
  0
LINE
  8
0
 10
18.9651
 20
558.849
 11
19.15
 21
558.972
  0
LINE
  8
0
 10
19.15
 20
558.972
 11
19.3494
 21
559.071
  0
LINE
  8
0
 10
19.3494
 20
559.071
 11
19.56
 21
559.142
  0
LINE
  8
0
 10
19.56
 20
559.142
 11
19.7781
 21
559.185
  0
LINE
  8
0
 10
19.7781
 20
559.185
 11
20
 21
559.2
  0
LINE
  8
0
 10
20
 20
559.2
 11
20.2219
 21
559.185
  0
LINE
  8
0
 10
20.2219
 20
559.185
 11
20.44
 21
559.142
  0
LINE
  8
0
 10
20.44
 20
559.142
 11
20.6506
 21
559.071
  0
LINE
  8
0
 10
20.6506
 20
559.071
 11
20.85
 21
558.972
  0
LINE
  8
0
 10
20.85
 20
558.972
 11
21.0349
 21
558.849
  0
LINE
  8
0
 10
21.0349
 20
558.849
 11
21.2021
 21
558.702
  0
LINE
  8
0
 10
21.2021
 20
558.702
 11
21.3487
 21
558.535
  0
LINE
  8
0
 10
21.3487
 20
558.535
 11
21.4722
 21
558.35
  0
LINE
  8
0
 10
21.4722
 20
558.35
 11
21.5706
 21
558.151
  0
LINE
  8
0
 10
21.5706
 20
558.151
 11
21.6421
 21
557.94
  0
LINE
  8
0
 10
21.6421
 20
557.94
 11
21.6855
 21
557.722
  0
LINE
  8
0
 10
21.6855
 20
557.722
 11
21.7
 21
557.5
  0
LINE
  8
0
 10
21.7
 20
557.5
 11
21.6855
 21
557.278
  0
LINE
  8
0
 10
21.6855
 20
557.278
 11
21.6421
 21
557.06
  0
LINE
  8
0
 10
21.6421
 20
557.06
 11
21.5706
 21
556.849
  0
LINE
  8
0
 10
21.5706
 20
556.849
 11
21.4722
 21
556.65
  0
LINE
  8
0
 10
21.4722
 20
556.65
 11
21.3487
 21
556.465
  0
LINE
  8
0
 10
21.3487
 20
556.465
 11
21.2021
 21
556.298
  0
LINE
  8
0
 10
21.2021
 20
556.298
 11
21.0349
 21
556.151
  0
LINE
  8
0
 10
21.0349
 20
556.151
 11
20.85
 21
556.028
  0
LINE
  8
0
 10
20.85
 20
556.028
 11
20.6506
 21
555.929
  0
LINE
  8
0
 10
20.6506
 20
555.929
 11
20.44
 21
555.858
  0
LINE
  8
0
 10
20.44
 20
555.858
 11
20.2219
 21
555.815
  0
LINE
  8
0
 10
20.2219
 20
555.815
 11
20
 21
555.8
  0
LINE
  8
0
 10
20
 20
555.8
 11
19.7781
 21
555.815
  0
LINE
  8
0
 10
155.778
 20
555.815
 11
155.56
 21
555.858
  0
LINE
  8
0
 10
155.56
 20
555.858
 11
155.349
 21
555.929
  0
LINE
  8
0
 10
155.349
 20
555.929
 11
155.15
 21
556.028
  0
LINE
  8
0
 10
155.15
 20
556.028
 11
154.965
 21
556.151
  0
LINE
  8
0
 10
154.965
 20
556.151
 11
154.798
 21
556.298
  0
LINE
  8
0
 10
154.798
 20
556.298
 11
154.651
 21
556.465
  0
LINE
  8
0
 10
154.651
 20
556.465
 11
154.528
 21
556.65
  0
LINE
  8
0
 10
154.528
 20
556.65
 11
154.429
 21
556.849
  0
LINE
  8
0
 10
154.429
 20
556.849
 11
154.358
 21
557.06
  0
LINE
  8
0
 10
154.358
 20
557.06
 11
154.315
 21
557.278
  0
LINE
  8
0
 10
154.315
 20
557.278
 11
154.3
 21
557.5
  0
LINE
  8
0
 10
154.3
 20
557.5
 11
154.315
 21
557.722
  0
LINE
  8
0
 10
154.315
 20
557.722
 11
154.358
 21
557.94
  0
LINE
  8
0
 10
154.358
 20
557.94
 11
154.429
 21
558.151
  0
LINE
  8
0
 10
154.429
 20
558.151
 11
154.528
 21
558.35
  0
LINE
  8
0
 10
154.528
 20
558.35
 11
154.651
 21
558.535
  0
LINE
  8
0
 10
154.651
 20
558.535
 11
154.798
 21
558.702
  0
LINE
  8
0
 10
154.798
 20
558.702
 11
154.965
 21
558.849
  0
LINE
  8
0
 10
154.965
 20
558.849
 11
155.15
 21
558.972
  0
LINE
  8
0
 10
155.15
 20
558.972
 11
155.349
 21
559.071
  0
LINE
  8
0
 10
155.349
 20
559.071
 11
155.56
 21
559.142
  0
LINE
  8
0
 10
155.56
 20
559.142
 11
155.778
 21
559.185
  0
LINE
  8
0
 10
155.778
 20
559.185
 11
156
 21
559.2
  0
LINE
  8
0
 10
156
 20
559.2
 11
156.222
 21
559.185
  0
LINE
  8
0
 10
156.222
 20
559.185
 11
156.44
 21
559.142
  0
LINE
  8
0
 10
156.44
 20
559.142
 11
156.651
 21
559.071
  0
LINE
  8
0
 10
156.651
 20
559.071
 11
156.85
 21
558.972
  0
LINE
  8
0
 10
156.85
 20
558.972
 11
157.035
 21
558.849
  0
LINE
  8
0
 10
157.035
 20
558.849
 11
157.202
 21
558.702
  0
LINE
  8
0
 10
157.202
 20
558.702
 11
157.349
 21
558.535
  0
LINE
  8
0
 10
157.349
 20
558.535
 11
157.472
 21
558.35
  0
LINE
  8
0
 10
157.472
 20
558.35
 11
157.571
 21
558.151
  0
LINE
  8
0
 10
157.571
 20
558.151
 11
157.642
 21
557.94
  0
LINE
  8
0
 10
157.642
 20
557.94
 11
157.685
 21
557.722
  0
LINE
  8
0
 10
157.685
 20
557.722
 11
157.7
 21
557.5
  0
LINE
  8
0
 10
157.7
 20
557.5
 11
157.685
 21
557.278
  0
LINE
  8
0
 10
157.685
 20
557.278
 11
157.642
 21
557.06
  0
LINE
  8
0
 10
157.642
 20
557.06
 11
157.571
 21
556.849
  0
LINE
  8
0
 10
157.571
 20
556.849
 11
157.472
 21
556.65
  0
LINE
  8
0
 10
157.472
 20
556.65
 11
157.349
 21
556.465
  0
LINE
  8
0
 10
157.349
 20
556.465
 11
157.202
 21
556.298
  0
LINE
  8
0
 10
157.202
 20
556.298
 11
157.035
 21
556.151
  0
LINE
  8
0
 10
157.035
 20
556.151
 11
156.85
 21
556.028
  0
LINE
  8
0
 10
156.85
 20
556.028
 11
156.651
 21
555.929
  0
LINE
  8
0
 10
156.651
 20
555.929
 11
156.44
 21
555.858
  0
LINE
  8
0
 10
156.44
 20
555.858
 11
156.222
 21
555.815
  0
LINE
  8
0
 10
156.222
 20
555.815
 11
156
 21
555.8
  0
LINE
  8
0
 10
156
 20
555.8
 11
155.778
 21
555.815
  0
LINE
  8
0
 10
145.778
 20
555.815
 11
145.56
 21
555.858
  0
LINE
  8
0
 10
145.56
 20
555.858
 11
145.349
 21
555.929
  0
LINE
  8
0
 10
145.349
 20
555.929
 11
145.15
 21
556.028
  0
LINE
  8
0
 10
145.15
 20
556.028
 11
144.965
 21
556.151
  0
LINE
  8
0
 10
144.965
 20
556.151
 11
144.798
 21
556.298
  0
LINE
  8
0
 10
144.798
 20
556.298
 11
144.651
 21
556.465
  0
LINE
  8
0
 10
144.651
 20
556.465
 11
144.528
 21
556.65
  0
LINE
  8
0
 10
144.528
 20
556.65
 11
144.429
 21
556.849
  0
LINE
  8
0
 10
144.429
 20
556.849
 11
144.358
 21
557.06
  0
LINE
  8
0
 10
144.358
 20
557.06
 11
144.315
 21
557.278
  0
LINE
  8
0
 10
144.315
 20
557.278
 11
144.3
 21
557.5
  0
LINE
  8
0
 10
144.3
 20
557.5
 11
144.315
 21
557.722
  0
LINE
  8
0
 10
144.315
 20
557.722
 11
144.358
 21
557.94
  0
LINE
  8
0
 10
144.358
 20
557.94
 11
144.429
 21
558.151
  0
LINE
  8
0
 10
144.429
 20
558.151
 11
144.528
 21
558.35
  0
LINE
  8
0
 10
144.528
 20
558.35
 11
144.651
 21
558.535
  0
LINE
  8
0
 10
144.651
 20
558.535
 11
144.798
 21
558.702
  0
LINE
  8
0
 10
144.798
 20
558.702
 11
144.965
 21
558.849
  0
LINE
  8
0
 10
144.965
 20
558.849
 11
145.15
 21
558.972
  0
LINE
  8
0
 10
145.15
 20
558.972
 11
145.349
 21
559.071
  0
LINE
  8
0
 10
145.349
 20
559.071
 11
145.56
 21
559.142
  0
LINE
  8
0
 10
145.56
 20
559.142
 11
145.778
 21
559.185
  0
LINE
  8
0
 10
145.778
 20
559.185
 11
146
 21
559.2
  0
LINE
  8
0
 10
146
 20
559.2
 11
146.222
 21
559.185
  0
LINE
  8
0
 10
146.222
 20
559.185
 11
146.44
 21
559.142
  0
LINE
  8
0
 10
146.44
 20
559.142
 11
146.651
 21
559.071
  0
LINE
  8
0
 10
146.651
 20
559.071
 11
146.85
 21
558.972
  0
LINE
  8
0
 10
146.85
 20
558.972
 11
147.035
 21
558.849
  0
LINE
  8
0
 10
147.035
 20
558.849
 11
147.202
 21
558.702
  0
LINE
  8
0
 10
147.202
 20
558.702
 11
147.349
 21
558.535
  0
LINE
  8
0
 10
147.349
 20
558.535
 11
147.472
 21
558.35
  0
LINE
  8
0
 10
147.472
 20
558.35
 11
147.571
 21
558.151
  0
LINE
  8
0
 10
147.571
 20
558.151
 11
147.642
 21
557.94
  0
LINE
  8
0
 10
147.642
 20
557.94
 11
147.685
 21
557.722
  0
LINE
  8
0
 10
147.685
 20
557.722
 11
147.7
 21
557.5
  0
LINE
  8
0
 10
147.7
 20
557.5
 11
147.685
 21
557.278
  0
LINE
  8
0
 10
147.685
 20
557.278
 11
147.642
 21
557.06
  0
LINE
  8
0
 10
147.642
 20
557.06
 11
147.571
 21
556.849
  0
LINE
  8
0
 10
147.571
 20
556.849
 11
147.472
 21
556.65
  0
LINE
  8
0
 10
147.472
 20
556.65
 11
147.349
 21
556.465
  0
LINE
  8
0
 10
147.349
 20
556.465
 11
147.202
 21
556.298
  0
LINE
  8
0
 10
147.202
 20
556.298
 11
147.035
 21
556.151
  0
LINE
  8
0
 10
147.035
 20
556.151
 11
146.85
 21
556.028
  0
LINE
  8
0
 10
146.85
 20
556.028
 11
146.651
 21
555.929
  0
LINE
  8
0
 10
146.651
 20
555.929
 11
146.44
 21
555.858
  0
LINE
  8
0
 10
146.44
 20
555.858
 11
146.222
 21
555.815
  0
LINE
  8
0
 10
146.222
 20
555.815
 11
146
 21
555.8
  0
LINE
  8
0
 10
146
 20
555.8
 11
145.778
 21
555.815
  0
LINE
  8
0
 10
167.778
 20
538.315
 11
167.56
 21
538.358
  0
LINE
  8
0
 10
167.56
 20
538.358
 11
167.349
 21
538.429
  0
LINE
  8
0
 10
167.349
 20
538.429
 11
167.15
 21
538.528
  0
LINE
  8
0
 10
167.15
 20
538.528
 11
166.965
 21
538.651
  0
LINE
  8
0
 10
166.965
 20
538.651
 11
166.798
 21
538.798
  0
LINE
  8
0
 10
166.798
 20
538.798
 11
166.651
 21
538.965
  0
LINE
  8
0
 10
166.651
 20
538.965
 11
166.528
 21
539.15
  0
LINE
  8
0
 10
166.528
 20
539.15
 11
166.429
 21
539.349
  0
LINE
  8
0
 10
166.429
 20
539.349
 11
166.358
 21
539.56
  0
LINE
  8
0
 10
166.358
 20
539.56
 11
166.315
 21
539.778
  0
LINE
  8
0
 10
166.315
 20
539.778
 11
166.3
 21
540
  0
LINE
  8
0
 10
166.3
 20
540
 11
166.315
 21
540.222
  0
LINE
  8
0
 10
166.315
 20
540.222
 11
166.358
 21
540.44
  0
LINE
  8
0
 10
166.358
 20
540.44
 11
166.429
 21
540.651
  0
LINE
  8
0
 10
166.429
 20
540.651
 11
166.528
 21
540.85
  0
LINE
  8
0
 10
166.528
 20
540.85
 11
166.651
 21
541.035
  0
LINE
  8
0
 10
166.651
 20
541.035
 11
166.798
 21
541.202
  0
LINE
  8
0
 10
166.798
 20
541.202
 11
166.965
 21
541.349
  0
LINE
  8
0
 10
166.965
 20
541.349
 11
167.15
 21
541.472
  0
LINE
  8
0
 10
167.15
 20
541.472
 11
167.349
 21
541.571
  0
LINE
  8
0
 10
167.349
 20
541.571
 11
167.56
 21
541.642
  0
LINE
  8
0
 10
167.56
 20
541.642
 11
167.778
 21
541.685
  0
LINE
  8
0
 10
167.778
 20
541.685
 11
168
 21
541.7
  0
LINE
  8
0
 10
168
 20
541.7
 11
168.222
 21
541.685
  0
LINE
  8
0
 10
168.222
 20
541.685
 11
168.44
 21
541.642
  0
LINE
  8
0
 10
168.44
 20
541.642
 11
168.651
 21
541.571
  0
LINE
  8
0
 10
168.651
 20
541.571
 11
168.85
 21
541.472
  0
LINE
  8
0
 10
168.85
 20
541.472
 11
169.035
 21
541.349
  0
LINE
  8
0
 10
169.035
 20
541.349
 11
169.202
 21
541.202
  0
LINE
  8
0
 10
169.202
 20
541.202
 11
169.349
 21
541.035
  0
LINE
  8
0
 10
169.349
 20
541.035
 11
169.472
 21
540.85
  0
LINE
  8
0
 10
169.472
 20
540.85
 11
169.571
 21
540.651
  0
LINE
  8
0
 10
169.571
 20
540.651
 11
169.642
 21
540.44
  0
LINE
  8
0
 10
169.642
 20
540.44
 11
169.685
 21
540.222
  0
LINE
  8
0
 10
169.685
 20
540.222
 11
169.7
 21
540
  0
LINE
  8
0
 10
169.7
 20
540
 11
169.685
 21
539.778
  0
LINE
  8
0
 10
169.685
 20
539.778
 11
169.642
 21
539.56
  0
LINE
  8
0
 10
169.642
 20
539.56
 11
169.571
 21
539.349
  0
LINE
  8
0
 10
169.571
 20
539.349
 11
169.472
 21
539.15
  0
LINE
  8
0
 10
169.472
 20
539.15
 11
169.349
 21
538.965
  0
LINE
  8
0
 10
169.349
 20
538.965
 11
169.202
 21
538.798
  0
LINE
  8
0
 10
169.202
 20
538.798
 11
169.035
 21
538.651
  0
LINE
  8
0
 10
169.035
 20
538.651
 11
168.85
 21
538.528
  0
LINE
  8
0
 10
168.85
 20
538.528
 11
168.651
 21
538.429
  0
LINE
  8
0
 10
168.651
 20
538.429
 11
168.44
 21
538.358
  0
LINE
  8
0
 10
168.44
 20
538.358
 11
168.222
 21
538.315
  0
LINE
  8
0
 10
168.222
 20
538.315
 11
168
 21
538.3
  0
LINE
  8
0
 10
168
 20
538.3
 11
167.778
 21
538.315
  0
LINE
  8
0
 10
13.7781
 20
538.315
 11
13.56
 21
538.358
  0
LINE
  8
0
 10
13.56
 20
538.358
 11
13.3494
 21
538.429
  0
LINE
  8
0
 10
13.3494
 20
538.429
 11
13.15
 21
538.528
  0
LINE
  8
0
 10
13.15
 20
538.528
 11
12.9651
 21
538.651
  0
LINE
  8
0
 10
12.9651
 20
538.651
 11
12.7979
 21
538.798
  0
LINE
  8
0
 10
12.7979
 20
538.798
 11
12.6513
 21
538.965
  0
LINE
  8
0
 10
12.6513
 20
538.965
 11
12.5278
 21
539.15
  0
LINE
  8
0
 10
12.5278
 20
539.15
 11
12.4294
 21
539.349
  0
LINE
  8
0
 10
12.4294
 20
539.349
 11
12.3579
 21
539.56
  0
LINE
  8
0
 10
12.3579
 20
539.56
 11
12.3145
 21
539.778
  0
LINE
  8
0
 10
12.3145
 20
539.778
 11
12.3
 21
540
  0
LINE
  8
0
 10
12.3
 20
540
 11
12.3145
 21
540.222
  0
LINE
  8
0
 10
12.3145
 20
540.222
 11
12.3579
 21
540.44
  0
LINE
  8
0
 10
12.3579
 20
540.44
 11
12.4294
 21
540.651
  0
LINE
  8
0
 10
12.4294
 20
540.651
 11
12.5278
 21
540.85
  0
LINE
  8
0
 10
12.5278
 20
540.85
 11
12.6513
 21
541.035
  0
LINE
  8
0
 10
12.6513
 20
541.035
 11
12.7979
 21
541.202
  0
LINE
  8
0
 10
12.7979
 20
541.202
 11
12.9651
 21
541.349
  0
LINE
  8
0
 10
12.9651
 20
541.349
 11
13.15
 21
541.472
  0
LINE
  8
0
 10
13.15
 20
541.472
 11
13.3494
 21
541.571
  0
LINE
  8
0
 10
13.3494
 20
541.571
 11
13.56
 21
541.642
  0
LINE
  8
0
 10
13.56
 20
541.642
 11
13.7781
 21
541.685
  0
LINE
  8
0
 10
13.7781
 20
541.685
 11
14
 21
541.7
  0
LINE
  8
0
 10
14
 20
541.7
 11
14.2219
 21
541.685
  0
LINE
  8
0
 10
14.2219
 20
541.685
 11
14.44
 21
541.642
  0
LINE
  8
0
 10
14.44
 20
541.642
 11
14.6506
 21
541.571
  0
LINE
  8
0
 10
14.6506
 20
541.571
 11
14.85
 21
541.472
  0
LINE
  8
0
 10
14.85
 20
541.472
 11
15.0349
 21
541.349
  0
LINE
  8
0
 10
15.0349
 20
541.349
 11
15.2021
 21
541.202
  0
LINE
  8
0
 10
15.2021
 20
541.202
 11
15.3487
 21
541.035
  0
LINE
  8
0
 10
15.3487
 20
541.035
 11
15.4722
 21
540.85
  0
LINE
  8
0
 10
15.4722
 20
540.85
 11
15.5706
 21
540.651
  0
LINE
  8
0
 10
15.5706
 20
540.651
 11
15.6421
 21
540.44
  0
LINE
  8
0
 10
15.6421
 20
540.44
 11
15.6855
 21
540.222
  0
LINE
  8
0
 10
15.6855
 20
540.222
 11
15.7
 21
540
  0
LINE
  8
0
 10
15.7
 20
540
 11
15.6855
 21
539.778
  0
LINE
  8
0
 10
15.6855
 20
539.778
 11
15.6421
 21
539.56
  0
LINE
  8
0
 10
15.6421
 20
539.56
 11
15.5706
 21
539.349
  0
LINE
  8
0
 10
15.5706
 20
539.349
 11
15.4722
 21
539.15
  0
LINE
  8
0
 10
15.4722
 20
539.15
 11
15.3487
 21
538.965
  0
LINE
  8
0
 10
15.3487
 20
538.965
 11
15.2021
 21
538.798
  0
LINE
  8
0
 10
15.2021
 20
538.798
 11
15.0349
 21
538.651
  0
LINE
  8
0
 10
15.0349
 20
538.651
 11
14.85
 21
538.528
  0
LINE
  8
0
 10
14.85
 20
538.528
 11
14.6506
 21
538.429
  0
LINE
  8
0
 10
14.6506
 20
538.429
 11
14.44
 21
538.358
  0
LINE
  8
0
 10
14.44
 20
538.358
 11
14.2219
 21
538.315
  0
LINE
  8
0
 10
14.2219
 20
538.315
 11
14
 21
538.3
  0
LINE
  8
0
 10
14
 20
538.3
 11
13.7781
 21
538.315
  0
LINE
  8
0
 10
38.5
 20
524
 11
38.5
 21
541
  0
LINE
  8
0
 10
38.5
 20
541
 11
55.5
 21
541
  0
LINE
  8
0
 10
55.5
 20
541
 11
55.5
 21
524
  0
LINE
  8
0
 10
55.5
 20
524
 11
38.5
 21
524
  0
LINE
  8
0
 10
100.1
 20
499
 11
100.1
 21
516
  0
LINE
  8
0
 10
100.1
 20
516
 11
117.1
 21
516
  0
LINE
  8
0
 10
117.1
 20
516
 11
117.1
 21
499
  0
LINE
  8
0
 10
117.1
 20
499
 11
100.1
 21
499
  0
LINE
  8
0
 10
155.778
 20
505.815
 11
155.56
 21
505.858
  0
LINE
  8
0
 10
155.56
 20
505.858
 11
155.349
 21
505.929
  0
LINE
  8
0
 10
155.349
 20
505.929
 11
155.15
 21
506.028
  0
LINE
  8
0
 10
155.15
 20
506.028
 11
154.965
 21
506.151
  0
LINE
  8
0
 10
154.965
 20
506.151
 11
154.798
 21
506.298
  0
LINE
  8
0
 10
154.798
 20
506.298
 11
154.651
 21
506.465
  0
LINE
  8
0
 10
154.651
 20
506.465
 11
154.528
 21
506.65
  0
LINE
  8
0
 10
154.528
 20
506.65
 11
154.429
 21
506.849
  0
LINE
  8
0
 10
154.429
 20
506.849
 11
154.358
 21
507.06
  0
LINE
  8
0
 10
154.358
 20
507.06
 11
154.315
 21
507.278
  0
LINE
  8
0
 10
154.315
 20
507.278
 11
154.3
 21
507.5
  0
LINE
  8
0
 10
154.3
 20
507.5
 11
154.315
 21
507.722
  0
LINE
  8
0
 10
154.315
 20
507.722
 11
154.358
 21
507.94
  0
LINE
  8
0
 10
154.358
 20
507.94
 11
154.429
 21
508.151
  0
LINE
  8
0
 10
154.429
 20
508.151
 11
154.528
 21
508.35
  0
LINE
  8
0
 10
154.528
 20
508.35
 11
154.651
 21
508.535
  0
LINE
  8
0
 10
154.651
 20
508.535
 11
154.798
 21
508.702
  0
LINE
  8
0
 10
154.798
 20
508.702
 11
154.965
 21
508.849
  0
LINE
  8
0
 10
154.965
 20
508.849
 11
155.15
 21
508.972
  0
LINE
  8
0
 10
155.15
 20
508.972
 11
155.349
 21
509.071
  0
LINE
  8
0
 10
155.349
 20
509.071
 11
155.56
 21
509.142
  0
LINE
  8
0
 10
155.56
 20
509.142
 11
155.778
 21
509.185
  0
LINE
  8
0
 10
155.778
 20
509.185
 11
156
 21
509.2
  0
LINE
  8
0
 10
156
 20
509.2
 11
156.222
 21
509.185
  0
LINE
  8
0
 10
156.222
 20
509.185
 11
156.44
 21
509.142
  0
LINE
  8
0
 10
156.44
 20
509.142
 11
156.651
 21
509.071
  0
LINE
  8
0
 10
156.651
 20
509.071
 11
156.85
 21
508.972
  0
LINE
  8
0
 10
156.85
 20
508.972
 11
157.035
 21
508.849
  0
LINE
  8
0
 10
157.035
 20
508.849
 11
157.202
 21
508.702
  0
LINE
  8
0
 10
157.202
 20
508.702
 11
157.349
 21
508.535
  0
LINE
  8
0
 10
157.349
 20
508.535
 11
157.472
 21
508.35
  0
LINE
  8
0
 10
157.472
 20
508.35
 11
157.571
 21
508.151
  0
LINE
  8
0
 10
157.571
 20
508.151
 11
157.642
 21
507.94
  0
LINE
  8
0
 10
157.642
 20
507.94
 11
157.685
 21
507.722
  0
LINE
  8
0
 10
157.685
 20
507.722
 11
157.7
 21
507.5
  0
LINE
  8
0
 10
157.7
 20
507.5
 11
157.685
 21
507.278
  0
LINE
  8
0
 10
157.685
 20
507.278
 11
157.642
 21
507.06
  0
LINE
  8
0
 10
157.642
 20
507.06
 11
157.571
 21
506.849
  0
LINE
  8
0
 10
157.571
 20
506.849
 11
157.472
 21
506.65
  0
LINE
  8
0
 10
157.472
 20
506.65
 11
157.349
 21
506.465
  0
LINE
  8
0
 10
157.349
 20
506.465
 11
157.202
 21
506.298
  0
LINE
  8
0
 10
157.202
 20
506.298
 11
157.035
 21
506.151
  0
LINE
  8
0
 10
157.035
 20
506.151
 11
156.85
 21
506.028
  0
LINE
  8
0
 10
156.85
 20
506.028
 11
156.651
 21
505.929
  0
LINE
  8
0
 10
156.651
 20
505.929
 11
156.44
 21
505.858
  0
LINE
  8
0
 10
156.44
 20
505.858
 11
156.222
 21
505.815
  0
LINE
  8
0
 10
156.222
 20
505.815
 11
156
 21
505.8
  0
LINE
  8
0
 10
156
 20
505.8
 11
155.778
 21
505.815
  0
LINE
  8
0
 10
145.778
 20
505.815
 11
145.56
 21
505.858
  0
LINE
  8
0
 10
145.56
 20
505.858
 11
145.349
 21
505.929
  0
LINE
  8
0
 10
145.349
 20
505.929
 11
145.15
 21
506.028
  0
LINE
  8
0
 10
145.15
 20
506.028
 11
144.965
 21
506.151
  0
LINE
  8
0
 10
144.965
 20
506.151
 11
144.798
 21
506.298
  0
LINE
  8
0
 10
144.798
 20
506.298
 11
144.651
 21
506.465
  0
LINE
  8
0
 10
144.651
 20
506.465
 11
144.528
 21
506.65
  0
LINE
  8
0
 10
144.528
 20
506.65
 11
144.429
 21
506.849
  0
LINE
  8
0
 10
144.429
 20
506.849
 11
144.358
 21
507.06
  0
LINE
  8
0
 10
144.358
 20
507.06
 11
144.315
 21
507.278
  0
LINE
  8
0
 10
144.315
 20
507.278
 11
144.3
 21
507.5
  0
LINE
  8
0
 10
144.3
 20
507.5
 11
144.315
 21
507.722
  0
LINE
  8
0
 10
144.315
 20
507.722
 11
144.358
 21
507.94
  0
LINE
  8
0
 10
144.358
 20
507.94
 11
144.429
 21
508.151
  0
LINE
  8
0
 10
144.429
 20
508.151
 11
144.528
 21
508.35
  0
LINE
  8
0
 10
144.528
 20
508.35
 11
144.651
 21
508.535
  0
LINE
  8
0
 10
144.651
 20
508.535
 11
144.798
 21
508.702
  0
LINE
  8
0
 10
144.798
 20
508.702
 11
144.965
 21
508.849
  0
LINE
  8
0
 10
144.965
 20
508.849
 11
145.15
 21
508.972
  0
LINE
  8
0
 10
145.15
 20
508.972
 11
145.349
 21
509.071
  0
LINE
  8
0
 10
145.349
 20
509.071
 11
145.56
 21
509.142
  0
LINE
  8
0
 10
145.56
 20
509.142
 11
145.778
 21
509.185
  0
LINE
  8
0
 10
145.778
 20
509.185
 11
146
 21
509.2
  0
LINE
  8
0
 10
146
 20
509.2
 11
146.222
 21
509.185
  0
LINE
  8
0
 10
146.222
 20
509.185
 11
146.44
 21
509.142
  0
LINE
  8
0
 10
146.44
 20
509.142
 11
146.651
 21
509.071
  0
LINE
  8
0
 10
146.651
 20
509.071
 11
146.85
 21
508.972
  0
LINE
  8
0
 10
146.85
 20
508.972
 11
147.035
 21
508.849
  0
LINE
  8
0
 10
147.035
 20
508.849
 11
147.202
 21
508.702
  0
LINE
  8
0
 10
147.202
 20
508.702
 11
147.349
 21
508.535
  0
LINE
  8
0
 10
147.349
 20
508.535
 11
147.472
 21
508.35
  0
LINE
  8
0
 10
147.472
 20
508.35
 11
147.571
 21
508.151
  0
LINE
  8
0
 10
147.571
 20
508.151
 11
147.642
 21
507.94
  0
LINE
  8
0
 10
147.642
 20
507.94
 11
147.685
 21
507.722
  0
LINE
  8
0
 10
147.685
 20
507.722
 11
147.7
 21
507.5
  0
LINE
  8
0
 10
147.7
 20
507.5
 11
147.685
 21
507.278
  0
LINE
  8
0
 10
147.685
 20
507.278
 11
147.642
 21
507.06
  0
LINE
  8
0
 10
147.642
 20
507.06
 11
147.571
 21
506.849
  0
LINE
  8
0
 10
147.571
 20
506.849
 11
147.472
 21
506.65
  0
LINE
  8
0
 10
147.472
 20
506.65
 11
147.349
 21
506.465
  0
LINE
  8
0
 10
147.349
 20
506.465
 11
147.202
 21
506.298
  0
LINE
  8
0
 10
147.202
 20
506.298
 11
147.035
 21
506.151
  0
LINE
  8
0
 10
147.035
 20
506.151
 11
146.85
 21
506.028
  0
LINE
  8
0
 10
146.85
 20
506.028
 11
146.651
 21
505.929
  0
LINE
  8
0
 10
146.651
 20
505.929
 11
146.44
 21
505.858
  0
LINE
  8
0
 10
146.44
 20
505.858
 11
146.222
 21
505.815
  0
LINE
  8
0
 10
146.222
 20
505.815
 11
146
 21
505.8
  0
LINE
  8
0
 10
146
 20
505.8
 11
145.778
 21
505.815
  0
LINE
  8
0
 10
46.7781
 20
505.815
 11
46.56
 21
505.858
  0
LINE
  8
0
 10
46.56
 20
505.858
 11
46.3494
 21
505.929
  0
LINE
  8
0
 10
46.3494
 20
505.929
 11
46.15
 21
506.028
  0
LINE
  8
0
 10
46.15
 20
506.028
 11
45.9651
 21
506.151
  0
LINE
  8
0
 10
45.9651
 20
506.151
 11
45.7979
 21
506.298
  0
LINE
  8
0
 10
45.7979
 20
506.298
 11
45.6513
 21
506.465
  0
LINE
  8
0
 10
45.6513
 20
506.465
 11
45.5278
 21
506.65
  0
LINE
  8
0
 10
45.5278
 20
506.65
 11
45.4294
 21
506.849
  0
LINE
  8
0
 10
45.4294
 20
506.849
 11
45.3579
 21
507.06
  0
LINE
  8
0
 10
45.3579
 20
507.06
 11
45.3145
 21
507.278
  0
LINE
  8
0
 10
45.3145
 20
507.278
 11
45.3
 21
507.5
  0
LINE
  8
0
 10
45.3
 20
507.5
 11
45.3145
 21
507.722
  0
LINE
  8
0
 10
45.3145
 20
507.722
 11
45.3579
 21
507.94
  0
LINE
  8
0
 10
45.3579
 20
507.94
 11
45.4294
 21
508.151
  0
LINE
  8
0
 10
45.4294
 20
508.151
 11
45.5278
 21
508.35
  0
LINE
  8
0
 10
45.5278
 20
508.35
 11
45.6513
 21
508.535
  0
LINE
  8
0
 10
45.6513
 20
508.535
 11
45.7979
 21
508.702
  0
LINE
  8
0
 10
45.7979
 20
508.702
 11
45.9651
 21
508.849
  0
LINE
  8
0
 10
45.9651
 20
508.849
 11
46.15
 21
508.972
  0
LINE
  8
0
 10
46.15
 20
508.972
 11
46.3494
 21
509.071
  0
LINE
  8
0
 10
46.3494
 20
509.071
 11
46.56
 21
509.142
  0
LINE
  8
0
 10
46.56
 20
509.142
 11
46.7781
 21
509.185
  0
LINE
  8
0
 10
46.7781
 20
509.185
 11
47
 21
509.2
  0
LINE
  8
0
 10
47
 20
509.2
 11
47.2219
 21
509.185
  0
LINE
  8
0
 10
47.2219
 20
509.185
 11
47.44
 21
509.142
  0
LINE
  8
0
 10
47.44
 20
509.142
 11
47.6506
 21
509.071
  0
LINE
  8
0
 10
47.6506
 20
509.071
 11
47.85
 21
508.972
  0
LINE
  8
0
 10
47.85
 20
508.972
 11
48.0349
 21
508.849
  0
LINE
  8
0
 10
48.0349
 20
508.849
 11
48.2021
 21
508.702
  0
LINE
  8
0
 10
48.2021
 20
508.702
 11
48.3487
 21
508.535
  0
LINE
  8
0
 10
48.3487
 20
508.535
 11
48.4722
 21
508.35
  0
LINE
  8
0
 10
48.4722
 20
508.35
 11
48.5706
 21
508.151
  0
LINE
  8
0
 10
48.5706
 20
508.151
 11
48.6421
 21
507.94
  0
LINE
  8
0
 10
48.6421
 20
507.94
 11
48.6855
 21
507.722
  0
LINE
  8
0
 10
48.6855
 20
507.722
 11
48.7
 21
507.5
  0
LINE
  8
0
 10
48.7
 20
507.5
 11
48.6855
 21
507.278
  0
LINE
  8
0
 10
48.6855
 20
507.278
 11
48.6421
 21
507.06
  0
LINE
  8
0
 10
48.6421
 20
507.06
 11
48.5706
 21
506.849
  0
LINE
  8
0
 10
48.5706
 20
506.849
 11
48.4722
 21
506.65
  0
LINE
  8
0
 10
48.4722
 20
506.65
 11
48.3487
 21
506.465
  0
LINE
  8
0
 10
48.3487
 20
506.465
 11
48.2021
 21
506.298
  0
LINE
  8
0
 10
48.2021
 20
506.298
 11
48.0349
 21
506.151
  0
LINE
  8
0
 10
48.0349
 20
506.151
 11
47.85
 21
506.028
  0
LINE
  8
0
 10
47.85
 20
506.028
 11
47.6506
 21
505.929
  0
LINE
  8
0
 10
47.6506
 20
505.929
 11
47.44
 21
505.858
  0
LINE
  8
0
 10
47.44
 20
505.858
 11
47.2219
 21
505.815
  0
LINE
  8
0
 10
47.2219
 20
505.815
 11
47
 21
505.8
  0
LINE
  8
0
 10
47
 20
505.8
 11
46.7781
 21
505.815
  0
LINE
  8
0
 10
19.7781
 20
505.815
 11
19.56
 21
505.858
  0
LINE
  8
0
 10
19.56
 20
505.858
 11
19.3494
 21
505.929
  0
LINE
  8
0
 10
19.3494
 20
505.929
 11
19.15
 21
506.028
  0
LINE
  8
0
 10
19.15
 20
506.028
 11
18.9651
 21
506.151
  0
LINE
  8
0
 10
18.9651
 20
506.151
 11
18.7979
 21
506.298
  0
LINE
  8
0
 10
18.7979
 20
506.298
 11
18.6513
 21
506.465
  0
LINE
  8
0
 10
18.6513
 20
506.465
 11
18.5278
 21
506.65
  0
LINE
  8
0
 10
18.5278
 20
506.65
 11
18.4294
 21
506.849
  0
LINE
  8
0
 10
18.4294
 20
506.849
 11
18.3579
 21
507.06
  0
LINE
  8
0
 10
18.3579
 20
507.06
 11
18.3145
 21
507.278
  0
LINE
  8
0
 10
18.3145
 20
507.278
 11
18.3
 21
507.5
  0
LINE
  8
0
 10
18.3
 20
507.5
 11
18.3145
 21
507.722
  0
LINE
  8
0
 10
18.3145
 20
507.722
 11
18.3579
 21
507.94
  0
LINE
  8
0
 10
18.3579
 20
507.94
 11
18.4294
 21
508.151
  0
LINE
  8
0
 10
18.4294
 20
508.151
 11
18.5278
 21
508.35
  0
LINE
  8
0
 10
18.5278
 20
508.35
 11
18.6513
 21
508.535
  0
LINE
  8
0
 10
18.6513
 20
508.535
 11
18.7979
 21
508.702
  0
LINE
  8
0
 10
18.7979
 20
508.702
 11
18.9651
 21
508.849
  0
LINE
  8
0
 10
18.9651
 20
508.849
 11
19.15
 21
508.972
  0
LINE
  8
0
 10
19.15
 20
508.972
 11
19.3494
 21
509.071
  0
LINE
  8
0
 10
19.3494
 20
509.071
 11
19.56
 21
509.142
  0
LINE
  8
0
 10
19.56
 20
509.142
 11
19.7781
 21
509.185
  0
LINE
  8
0
 10
19.7781
 20
509.185
 11
20
 21
509.2
  0
LINE
  8
0
 10
20
 20
509.2
 11
20.2219
 21
509.185
  0
LINE
  8
0
 10
20.2219
 20
509.185
 11
20.44
 21
509.142
  0
LINE
  8
0
 10
20.44
 20
509.142
 11
20.6506
 21
509.071
  0
LINE
  8
0
 10
20.6506
 20
509.071
 11
20.85
 21
508.972
  0
LINE
  8
0
 10
20.85
 20
508.972
 11
21.0349
 21
508.849
  0
LINE
  8
0
 10
21.0349
 20
508.849
 11
21.2021
 21
508.702
  0
LINE
  8
0
 10
21.2021
 20
508.702
 11
21.3487
 21
508.535
  0
LINE
  8
0
 10
21.3487
 20
508.535
 11
21.4722
 21
508.35
  0
LINE
  8
0
 10
21.4722
 20
508.35
 11
21.5706
 21
508.151
  0
LINE
  8
0
 10
21.5706
 20
508.151
 11
21.6421
 21
507.94
  0
LINE
  8
0
 10
21.6421
 20
507.94
 11
21.6855
 21
507.722
  0
LINE
  8
0
 10
21.6855
 20
507.722
 11
21.7
 21
507.5
  0
LINE
  8
0
 10
21.7
 20
507.5
 11
21.6855
 21
507.278
  0
LINE
  8
0
 10
21.6855
 20
507.278
 11
21.6421
 21
507.06
  0
LINE
  8
0
 10
21.6421
 20
507.06
 11
21.5706
 21
506.849
  0
LINE
  8
0
 10
21.5706
 20
506.849
 11
21.4722
 21
506.65
  0
LINE
  8
0
 10
21.4722
 20
506.65
 11
21.3487
 21
506.465
  0
LINE
  8
0
 10
21.3487
 20
506.465
 11
21.2021
 21
506.298
  0
LINE
  8
0
 10
21.2021
 20
506.298
 11
21.0349
 21
506.151
  0
LINE
  8
0
 10
21.0349
 20
506.151
 11
20.85
 21
506.028
  0
LINE
  8
0
 10
20.85
 20
506.028
 11
20.6506
 21
505.929
  0
LINE
  8
0
 10
20.6506
 20
505.929
 11
20.44
 21
505.858
  0
LINE
  8
0
 10
20.44
 20
505.858
 11
20.2219
 21
505.815
  0
LINE
  8
0
 10
20.2219
 20
505.815
 11
20
 21
505.8
  0
LINE
  8
0
 10
20
 20
505.8
 11
19.7781
 21
505.815
  0
LINE
  8
0
 10
38.5
 20
474
 11
38.5
 21
491
  0
LINE
  8
0
 10
38.5
 20
491
 11
55.5
 21
491
  0
LINE
  8
0
 10
55.5
 20
491
 11
55.5
 21
474
  0
LINE
  8
0
 10
55.5
 20
474
 11
38.5
 21
474
  0
LINE
  8
0
 10
145.778
 20
455.815
 11
145.56
 21
455.858
  0
LINE
  8
0
 10
145.56
 20
455.858
 11
145.349
 21
455.929
  0
LINE
  8
0
 10
145.349
 20
455.929
 11
145.15
 21
456.028
  0
LINE
  8
0
 10
145.15
 20
456.028
 11
144.965
 21
456.151
  0
LINE
  8
0
 10
144.965
 20
456.151
 11
144.798
 21
456.298
  0
LINE
  8
0
 10
144.798
 20
456.298
 11
144.651
 21
456.465
  0
LINE
  8
0
 10
144.651
 20
456.465
 11
144.528
 21
456.65
  0
LINE
  8
0
 10
144.528
 20
456.65
 11
144.429
 21
456.849
  0
LINE
  8
0
 10
144.429
 20
456.849
 11
144.358
 21
457.06
  0
LINE
  8
0
 10
144.358
 20
457.06
 11
144.315
 21
457.278
  0
LINE
  8
0
 10
144.315
 20
457.278
 11
144.3
 21
457.5
  0
LINE
  8
0
 10
144.3
 20
457.5
 11
144.315
 21
457.722
  0
LINE
  8
0
 10
144.315
 20
457.722
 11
144.358
 21
457.94
  0
LINE
  8
0
 10
144.358
 20
457.94
 11
144.429
 21
458.151
  0
LINE
  8
0
 10
144.429
 20
458.151
 11
144.528
 21
458.35
  0
LINE
  8
0
 10
144.528
 20
458.35
 11
144.651
 21
458.535
  0
LINE
  8
0
 10
144.651
 20
458.535
 11
144.798
 21
458.702
  0
LINE
  8
0
 10
144.798
 20
458.702
 11
144.965
 21
458.849
  0
LINE
  8
0
 10
144.965
 20
458.849
 11
145.15
 21
458.972
  0
LINE
  8
0
 10
145.15
 20
458.972
 11
145.349
 21
459.071
  0
LINE
  8
0
 10
145.349
 20
459.071
 11
145.56
 21
459.142
  0
LINE
  8
0
 10
145.56
 20
459.142
 11
145.778
 21
459.185
  0
LINE
  8
0
 10
145.778
 20
459.185
 11
146
 21
459.2
  0
LINE
  8
0
 10
146
 20
459.2
 11
146.222
 21
459.185
  0
LINE
  8
0
 10
146.222
 20
459.185
 11
146.44
 21
459.142
  0
LINE
  8
0
 10
146.44
 20
459.142
 11
146.651
 21
459.071
  0
LINE
  8
0
 10
146.651
 20
459.071
 11
146.85
 21
458.972
  0
LINE
  8
0
 10
146.85
 20
458.972
 11
147.035
 21
458.849
  0
LINE
  8
0
 10
147.035
 20
458.849
 11
147.202
 21
458.702
  0
LINE
  8
0
 10
147.202
 20
458.702
 11
147.349
 21
458.535
  0
LINE
  8
0
 10
147.349
 20
458.535
 11
147.472
 21
458.35
  0
LINE
  8
0
 10
147.472
 20
458.35
 11
147.571
 21
458.151
  0
LINE
  8
0
 10
147.571
 20
458.151
 11
147.642
 21
457.94
  0
LINE
  8
0
 10
147.642
 20
457.94
 11
147.685
 21
457.722
  0
LINE
  8
0
 10
147.685
 20
457.722
 11
147.7
 21
457.5
  0
LINE
  8
0
 10
147.7
 20
457.5
 11
147.685
 21
457.278
  0
LINE
  8
0
 10
147.685
 20
457.278
 11
147.642
 21
457.06
  0
LINE
  8
0
 10
147.642
 20
457.06
 11
147.571
 21
456.849
  0
LINE
  8
0
 10
147.571
 20
456.849
 11
147.472
 21
456.65
  0
LINE
  8
0
 10
147.472
 20
456.65
 11
147.349
 21
456.465
  0
LINE
  8
0
 10
147.349
 20
456.465
 11
147.202
 21
456.298
  0
LINE
  8
0
 10
147.202
 20
456.298
 11
147.035
 21
456.151
  0
LINE
  8
0
 10
147.035
 20
456.151
 11
146.85
 21
456.028
  0
LINE
  8
0
 10
146.85
 20
456.028
 11
146.651
 21
455.929
  0
LINE
  8
0
 10
146.651
 20
455.929
 11
146.44
 21
455.858
  0
LINE
  8
0
 10
146.44
 20
455.858
 11
146.222
 21
455.815
  0
LINE
  8
0
 10
146.222
 20
455.815
 11
146
 21
455.8
  0
LINE
  8
0
 10
146
 20
455.8
 11
145.778
 21
455.815
  0
LINE
  8
0
 10
155.778
 20
455.815
 11
155.56
 21
455.858
  0
LINE
  8
0
 10
155.56
 20
455.858
 11
155.349
 21
455.929
  0
LINE
  8
0
 10
155.349
 20
455.929
 11
155.15
 21
456.028
  0
LINE
  8
0
 10
155.15
 20
456.028
 11
154.965
 21
456.151
  0
LINE
  8
0
 10
154.965
 20
456.151
 11
154.798
 21
456.298
  0
LINE
  8
0
 10
154.798
 20
456.298
 11
154.651
 21
456.465
  0
LINE
  8
0
 10
154.651
 20
456.465
 11
154.528
 21
456.65
  0
LINE
  8
0
 10
154.528
 20
456.65
 11
154.429
 21
456.849
  0
LINE
  8
0
 10
154.429
 20
456.849
 11
154.358
 21
457.06
  0
LINE
  8
0
 10
154.358
 20
457.06
 11
154.315
 21
457.278
  0
LINE
  8
0
 10
154.315
 20
457.278
 11
154.3
 21
457.5
  0
LINE
  8
0
 10
154.3
 20
457.5
 11
154.315
 21
457.722
  0
LINE
  8
0
 10
154.315
 20
457.722
 11
154.358
 21
457.94
  0
LINE
  8
0
 10
154.358
 20
457.94
 11
154.429
 21
458.151
  0
LINE
  8
0
 10
154.429
 20
458.151
 11
154.528
 21
458.35
  0
LINE
  8
0
 10
154.528
 20
458.35
 11
154.651
 21
458.535
  0
LINE
  8
0
 10
154.651
 20
458.535
 11
154.798
 21
458.702
  0
LINE
  8
0
 10
154.798
 20
458.702
 11
154.965
 21
458.849
  0
LINE
  8
0
 10
154.965
 20
458.849
 11
155.15
 21
458.972
  0
LINE
  8
0
 10
155.15
 20
458.972
 11
155.349
 21
459.071
  0
LINE
  8
0
 10
155.349
 20
459.071
 11
155.56
 21
459.142
  0
LINE
  8
0
 10
155.56
 20
459.142
 11
155.778
 21
459.185
  0
LINE
  8
0
 10
155.778
 20
459.185
 11
156
 21
459.2
  0
LINE
  8
0
 10
156
 20
459.2
 11
156.222
 21
459.185
  0
LINE
  8
0
 10
156.222
 20
459.185
 11
156.44
 21
459.142
  0
LINE
  8
0
 10
156.44
 20
459.142
 11
156.651
 21
459.071
  0
LINE
  8
0
 10
156.651
 20
459.071
 11
156.85
 21
458.972
  0
LINE
  8
0
 10
156.85
 20
458.972
 11
157.035
 21
458.849
  0
LINE
  8
0
 10
157.035
 20
458.849
 11
157.202
 21
458.702
  0
LINE
  8
0
 10
157.202
 20
458.702
 11
157.349
 21
458.535
  0
LINE
  8
0
 10
157.349
 20
458.535
 11
157.472
 21
458.35
  0
LINE
  8
0
 10
157.472
 20
458.35
 11
157.571
 21
458.151
  0
LINE
  8
0
 10
157.571
 20
458.151
 11
157.642
 21
457.94
  0
LINE
  8
0
 10
157.642
 20
457.94
 11
157.685
 21
457.722
  0
LINE
  8
0
 10
157.685
 20
457.722
 11
157.7
 21
457.5
  0
LINE
  8
0
 10
157.7
 20
457.5
 11
157.685
 21
457.278
  0
LINE
  8
0
 10
157.685
 20
457.278
 11
157.642
 21
457.06
  0
LINE
  8
0
 10
157.642
 20
457.06
 11
157.571
 21
456.849
  0
LINE
  8
0
 10
157.571
 20
456.849
 11
157.472
 21
456.65
  0
LINE
  8
0
 10
157.472
 20
456.65
 11
157.349
 21
456.465
  0
LINE
  8
0
 10
157.349
 20
456.465
 11
157.202
 21
456.298
  0
LINE
  8
0
 10
157.202
 20
456.298
 11
157.035
 21
456.151
  0
LINE
  8
0
 10
157.035
 20
456.151
 11
156.85
 21
456.028
  0
LINE
  8
0
 10
156.85
 20
456.028
 11
156.651
 21
455.929
  0
LINE
  8
0
 10
156.651
 20
455.929
 11
156.44
 21
455.858
  0
LINE
  8
0
 10
156.44
 20
455.858
 11
156.222
 21
455.815
  0
LINE
  8
0
 10
156.222
 20
455.815
 11
156
 21
455.8
  0
LINE
  8
0
 10
156
 20
455.8
 11
155.778
 21
455.815
  0
LINE
  8
0
 10
46.7781
 20
455.815
 11
46.56
 21
455.858
  0
LINE
  8
0
 10
46.56
 20
455.858
 11
46.3494
 21
455.929
  0
LINE
  8
0
 10
46.3494
 20
455.929
 11
46.15
 21
456.028
  0
LINE
  8
0
 10
46.15
 20
456.028
 11
45.9651
 21
456.151
  0
LINE
  8
0
 10
45.9651
 20
456.151
 11
45.7979
 21
456.298
  0
LINE
  8
0
 10
45.7979
 20
456.298
 11
45.6513
 21
456.465
  0
LINE
  8
0
 10
45.6513
 20
456.465
 11
45.5278
 21
456.65
  0
LINE
  8
0
 10
45.5278
 20
456.65
 11
45.4294
 21
456.849
  0
LINE
  8
0
 10
45.4294
 20
456.849
 11
45.3579
 21
457.06
  0
LINE
  8
0
 10
45.3579
 20
457.06
 11
45.3145
 21
457.278
  0
LINE
  8
0
 10
45.3145
 20
457.278
 11
45.3
 21
457.5
  0
LINE
  8
0
 10
45.3
 20
457.5
 11
45.3145
 21
457.722
  0
LINE
  8
0
 10
45.3145
 20
457.722
 11
45.3579
 21
457.94
  0
LINE
  8
0
 10
45.3579
 20
457.94
 11
45.4294
 21
458.151
  0
LINE
  8
0
 10
45.4294
 20
458.151
 11
45.5278
 21
458.35
  0
LINE
  8
0
 10
45.5278
 20
458.35
 11
45.6513
 21
458.535
  0
LINE
  8
0
 10
45.6513
 20
458.535
 11
45.7979
 21
458.702
  0
LINE
  8
0
 10
45.7979
 20
458.702
 11
45.9651
 21
458.849
  0
LINE
  8
0
 10
45.9651
 20
458.849
 11
46.15
 21
458.972
  0
LINE
  8
0
 10
46.15
 20
458.972
 11
46.3494
 21
459.071
  0
LINE
  8
0
 10
46.3494
 20
459.071
 11
46.56
 21
459.142
  0
LINE
  8
0
 10
46.56
 20
459.142
 11
46.7781
 21
459.185
  0
LINE
  8
0
 10
46.7781
 20
459.185
 11
47
 21
459.2
  0
LINE
  8
0
 10
47
 20
459.2
 11
47.2219
 21
459.185
  0
LINE
  8
0
 10
47.2219
 20
459.185
 11
47.44
 21
459.142
  0
LINE
  8
0
 10
47.44
 20
459.142
 11
47.6506
 21
459.071
  0
LINE
  8
0
 10
47.6506
 20
459.071
 11
47.85
 21
458.972
  0
LINE
  8
0
 10
47.85
 20
458.972
 11
48.0349
 21
458.849
  0
LINE
  8
0
 10
48.0349
 20
458.849
 11
48.2021
 21
458.702
  0
LINE
  8
0
 10
48.2021
 20
458.702
 11
48.3487
 21
458.535
  0
LINE
  8
0
 10
48.3487
 20
458.535
 11
48.4722
 21
458.35
  0
LINE
  8
0
 10
48.4722
 20
458.35
 11
48.5706
 21
458.151
  0
LINE
  8
0
 10
48.5706
 20
458.151
 11
48.6421
 21
457.94
  0
LINE
  8
0
 10
48.6421
 20
457.94
 11
48.6855
 21
457.722
  0
LINE
  8
0
 10
48.6855
 20
457.722
 11
48.7
 21
457.5
  0
LINE
  8
0
 10
48.7
 20
457.5
 11
48.6855
 21
457.278
  0
LINE
  8
0
 10
48.6855
 20
457.278
 11
48.6421
 21
457.06
  0
LINE
  8
0
 10
48.6421
 20
457.06
 11
48.5706
 21
456.849
  0
LINE
  8
0
 10
48.5706
 20
456.849
 11
48.4722
 21
456.65
  0
LINE
  8
0
 10
48.4722
 20
456.65
 11
48.3487
 21
456.465
  0
LINE
  8
0
 10
48.3487
 20
456.465
 11
48.2021
 21
456.298
  0
LINE
  8
0
 10
48.2021
 20
456.298
 11
48.0349
 21
456.151
  0
LINE
  8
0
 10
48.0349
 20
456.151
 11
47.85
 21
456.028
  0
LINE
  8
0
 10
47.85
 20
456.028
 11
47.6506
 21
455.929
  0
LINE
  8
0
 10
47.6506
 20
455.929
 11
47.44
 21
455.858
  0
LINE
  8
0
 10
47.44
 20
455.858
 11
47.2219
 21
455.815
  0
LINE
  8
0
 10
47.2219
 20
455.815
 11
47
 21
455.8
  0
LINE
  8
0
 10
47
 20
455.8
 11
46.7781
 21
455.815
  0
LINE
  8
0
 10
19.7781
 20
455.815
 11
19.56
 21
455.858
  0
LINE
  8
0
 10
19.56
 20
455.858
 11
19.3494
 21
455.929
  0
LINE
  8
0
 10
19.3494
 20
455.929
 11
19.15
 21
456.028
  0
LINE
  8
0
 10
19.15
 20
456.028
 11
18.9651
 21
456.151
  0
LINE
  8
0
 10
18.9651
 20
456.151
 11
18.7979
 21
456.298
  0
LINE
  8
0
 10
18.7979
 20
456.298
 11
18.6513
 21
456.465
  0
LINE
  8
0
 10
18.6513
 20
456.465
 11
18.5278
 21
456.65
  0
LINE
  8
0
 10
18.5278
 20
456.65
 11
18.4294
 21
456.849
  0
LINE
  8
0
 10
18.4294
 20
456.849
 11
18.3579
 21
457.06
  0
LINE
  8
0
 10
18.3579
 20
457.06
 11
18.3145
 21
457.278
  0
LINE
  8
0
 10
18.3145
 20
457.278
 11
18.3
 21
457.5
  0
LINE
  8
0
 10
18.3
 20
457.5
 11
18.3145
 21
457.722
  0
LINE
  8
0
 10
18.3145
 20
457.722
 11
18.3579
 21
457.94
  0
LINE
  8
0
 10
18.3579
 20
457.94
 11
18.4294
 21
458.151
  0
LINE
  8
0
 10
18.4294
 20
458.151
 11
18.5278
 21
458.35
  0
LINE
  8
0
 10
18.5278
 20
458.35
 11
18.6513
 21
458.535
  0
LINE
  8
0
 10
18.6513
 20
458.535
 11
18.7979
 21
458.702
  0
LINE
  8
0
 10
18.7979
 20
458.702
 11
18.9651
 21
458.849
  0
LINE
  8
0
 10
18.9651
 20
458.849
 11
19.15
 21
458.972
  0
LINE
  8
0
 10
19.15
 20
458.972
 11
19.3494
 21
459.071
  0
LINE
  8
0
 10
19.3494
 20
459.071
 11
19.56
 21
459.142
  0
LINE
  8
0
 10
19.56
 20
459.142
 11
19.7781
 21
459.185
  0
LINE
  8
0
 10
19.7781
 20
459.185
 11
20
 21
459.2
  0
LINE
  8
0
 10
20
 20
459.2
 11
20.2219
 21
459.185
  0
LINE
  8
0
 10
20.2219
 20
459.185
 11
20.44
 21
459.142
  0
LINE
  8
0
 10
20.44
 20
459.142
 11
20.6506
 21
459.071
  0
LINE
  8
0
 10
20.6506
 20
459.071
 11
20.85
 21
458.972
  0
LINE
  8
0
 10
20.85
 20
458.972
 11
21.0349
 21
458.849
  0
LINE
  8
0
 10
21.0349
 20
458.849
 11
21.2021
 21
458.702
  0
LINE
  8
0
 10
21.2021
 20
458.702
 11
21.3487
 21
458.535
  0
LINE
  8
0
 10
21.3487
 20
458.535
 11
21.4722
 21
458.35
  0
LINE
  8
0
 10
21.4722
 20
458.35
 11
21.5706
 21
458.151
  0
LINE
  8
0
 10
21.5706
 20
458.151
 11
21.6421
 21
457.94
  0
LINE
  8
0
 10
21.6421
 20
457.94
 11
21.6855
 21
457.722
  0
LINE
  8
0
 10
21.6855
 20
457.722
 11
21.7
 21
457.5
  0
LINE
  8
0
 10
21.7
 20
457.5
 11
21.6855
 21
457.278
  0
LINE
  8
0
 10
21.6855
 20
457.278
 11
21.6421
 21
457.06
  0
LINE
  8
0
 10
21.6421
 20
457.06
 11
21.5706
 21
456.849
  0
LINE
  8
0
 10
21.5706
 20
456.849
 11
21.4722
 21
456.65
  0
LINE
  8
0
 10
21.4722
 20
456.65
 11
21.3487
 21
456.465
  0
LINE
  8
0
 10
21.3487
 20
456.465
 11
21.2021
 21
456.298
  0
LINE
  8
0
 10
21.2021
 20
456.298
 11
21.0349
 21
456.151
  0
LINE
  8
0
 10
21.0349
 20
456.151
 11
20.85
 21
456.028
  0
LINE
  8
0
 10
20.85
 20
456.028
 11
20.6506
 21
455.929
  0
LINE
  8
0
 10
20.6506
 20
455.929
 11
20.44
 21
455.858
  0
LINE
  8
0
 10
20.44
 20
455.858
 11
20.2219
 21
455.815
  0
LINE
  8
0
 10
20.2219
 20
455.815
 11
20
 21
455.8
  0
LINE
  8
0
 10
20
 20
455.8
 11
19.7781
 21
455.815
  0
LINE
  8
0
 10
38.5
 20
424
 11
38.5
 21
441
  0
LINE
  8
0
 10
38.5
 20
441
 11
55.5
 21
441
  0
LINE
  8
0
 10
55.5
 20
441
 11
55.5
 21
424
  0
LINE
  8
0
 10
55.5
 20
424
 11
38.5
 21
424
  0
LINE
  8
0
 10
100.1
 20
399
 11
100.1
 21
416
  0
LINE
  8
0
 10
100.1
 20
416
 11
117.1
 21
416
  0
LINE
  8
0
 10
117.1
 20
416
 11
117.1
 21
399
  0
LINE
  8
0
 10
117.1
 20
399
 11
100.1
 21
399
  0
LINE
  8
0
 10
46.7781
 20
405.815
 11
46.56
 21
405.858
  0
LINE
  8
0
 10
46.56
 20
405.858
 11
46.3494
 21
405.929
  0
LINE
  8
0
 10
46.3494
 20
405.929
 11
46.15
 21
406.028
  0
LINE
  8
0
 10
46.15
 20
406.028
 11
45.9651
 21
406.151
  0
LINE
  8
0
 10
45.9651
 20
406.151
 11
45.7979
 21
406.298
  0
LINE
  8
0
 10
45.7979
 20
406.298
 11
45.6513
 21
406.465
  0
LINE
  8
0
 10
45.6513
 20
406.465
 11
45.5278
 21
406.65
  0
LINE
  8
0
 10
45.5278
 20
406.65
 11
45.4294
 21
406.849
  0
LINE
  8
0
 10
45.4294
 20
406.849
 11
45.3579
 21
407.06
  0
LINE
  8
0
 10
45.3579
 20
407.06
 11
45.3145
 21
407.278
  0
LINE
  8
0
 10
45.3145
 20
407.278
 11
45.3
 21
407.5
  0
LINE
  8
0
 10
45.3
 20
407.5
 11
45.3145
 21
407.722
  0
LINE
  8
0
 10
45.3145
 20
407.722
 11
45.3579
 21
407.94
  0
LINE
  8
0
 10
45.3579
 20
407.94
 11
45.4294
 21
408.151
  0
LINE
  8
0
 10
45.4294
 20
408.151
 11
45.5278
 21
408.35
  0
LINE
  8
0
 10
45.5278
 20
408.35
 11
45.6513
 21
408.535
  0
LINE
  8
0
 10
45.6513
 20
408.535
 11
45.7979
 21
408.702
  0
LINE
  8
0
 10
45.7979
 20
408.702
 11
45.9651
 21
408.849
  0
LINE
  8
0
 10
45.9651
 20
408.849
 11
46.15
 21
408.972
  0
LINE
  8
0
 10
46.15
 20
408.972
 11
46.3494
 21
409.071
  0
LINE
  8
0
 10
46.3494
 20
409.071
 11
46.56
 21
409.142
  0
LINE
  8
0
 10
46.56
 20
409.142
 11
46.7781
 21
409.185
  0
LINE
  8
0
 10
46.7781
 20
409.185
 11
47
 21
409.2
  0
LINE
  8
0
 10
47
 20
409.2
 11
47.2219
 21
409.185
  0
LINE
  8
0
 10
47.2219
 20
409.185
 11
47.44
 21
409.142
  0
LINE
  8
0
 10
47.44
 20
409.142
 11
47.6506
 21
409.071
  0
LINE
  8
0
 10
47.6506
 20
409.071
 11
47.85
 21
408.972
  0
LINE
  8
0
 10
47.85
 20
408.972
 11
48.0349
 21
408.849
  0
LINE
  8
0
 10
48.0349
 20
408.849
 11
48.2021
 21
408.702
  0
LINE
  8
0
 10
48.2021
 20
408.702
 11
48.3487
 21
408.535
  0
LINE
  8
0
 10
48.3487
 20
408.535
 11
48.4722
 21
408.35
  0
LINE
  8
0
 10
48.4722
 20
408.35
 11
48.5706
 21
408.151
  0
LINE
  8
0
 10
48.5706
 20
408.151
 11
48.6421
 21
407.94
  0
LINE
  8
0
 10
48.6421
 20
407.94
 11
48.6855
 21
407.722
  0
LINE
  8
0
 10
48.6855
 20
407.722
 11
48.7
 21
407.5
  0
LINE
  8
0
 10
48.7
 20
407.5
 11
48.6855
 21
407.278
  0
LINE
  8
0
 10
48.6855
 20
407.278
 11
48.6421
 21
407.06
  0
LINE
  8
0
 10
48.6421
 20
407.06
 11
48.5706
 21
406.849
  0
LINE
  8
0
 10
48.5706
 20
406.849
 11
48.4722
 21
406.65
  0
LINE
  8
0
 10
48.4722
 20
406.65
 11
48.3487
 21
406.465
  0
LINE
  8
0
 10
48.3487
 20
406.465
 11
48.2021
 21
406.298
  0
LINE
  8
0
 10
48.2021
 20
406.298
 11
48.0349
 21
406.151
  0
LINE
  8
0
 10
48.0349
 20
406.151
 11
47.85
 21
406.028
  0
LINE
  8
0
 10
47.85
 20
406.028
 11
47.6506
 21
405.929
  0
LINE
  8
0
 10
47.6506
 20
405.929
 11
47.44
 21
405.858
  0
LINE
  8
0
 10
47.44
 20
405.858
 11
47.2219
 21
405.815
  0
LINE
  8
0
 10
47.2219
 20
405.815
 11
47
 21
405.8
  0
LINE
  8
0
 10
47
 20
405.8
 11
46.7781
 21
405.815
  0
LINE
  8
0
 10
19.7781
 20
405.815
 11
19.56
 21
405.858
  0
LINE
  8
0
 10
19.56
 20
405.858
 11
19.3494
 21
405.929
  0
LINE
  8
0
 10
19.3494
 20
405.929
 11
19.15
 21
406.028
  0
LINE
  8
0
 10
19.15
 20
406.028
 11
18.9651
 21
406.151
  0
LINE
  8
0
 10
18.9651
 20
406.151
 11
18.7979
 21
406.298
  0
LINE
  8
0
 10
18.7979
 20
406.298
 11
18.6513
 21
406.465
  0
LINE
  8
0
 10
18.6513
 20
406.465
 11
18.5278
 21
406.65
  0
LINE
  8
0
 10
18.5278
 20
406.65
 11
18.4294
 21
406.849
  0
LINE
  8
0
 10
18.4294
 20
406.849
 11
18.3579
 21
407.06
  0
LINE
  8
0
 10
18.3579
 20
407.06
 11
18.3145
 21
407.278
  0
LINE
  8
0
 10
18.3145
 20
407.278
 11
18.3
 21
407.5
  0
LINE
  8
0
 10
18.3
 20
407.5
 11
18.3145
 21
407.722
  0
LINE
  8
0
 10
18.3145
 20
407.722
 11
18.3579
 21
407.94
  0
LINE
  8
0
 10
18.3579
 20
407.94
 11
18.4294
 21
408.151
  0
LINE
  8
0
 10
18.4294
 20
408.151
 11
18.5278
 21
408.35
  0
LINE
  8
0
 10
18.5278
 20
408.35
 11
18.6513
 21
408.535
  0
LINE
  8
0
 10
18.6513
 20
408.535
 11
18.7979
 21
408.702
  0
LINE
  8
0
 10
18.7979
 20
408.702
 11
18.9651
 21
408.849
  0
LINE
  8
0
 10
18.9651
 20
408.849
 11
19.15
 21
408.972
  0
LINE
  8
0
 10
19.15
 20
408.972
 11
19.3494
 21
409.071
  0
LINE
  8
0
 10
19.3494
 20
409.071
 11
19.56
 21
409.142
  0
LINE
  8
0
 10
19.56
 20
409.142
 11
19.7781
 21
409.185
  0
LINE
  8
0
 10
19.7781
 20
409.185
 11
20
 21
409.2
  0
LINE
  8
0
 10
20
 20
409.2
 11
20.2219
 21
409.185
  0
LINE
  8
0
 10
20.2219
 20
409.185
 11
20.44
 21
409.142
  0
LINE
  8
0
 10
20.44
 20
409.142
 11
20.6506
 21
409.071
  0
LINE
  8
0
 10
20.6506
 20
409.071
 11
20.85
 21
408.972
  0
LINE
  8
0
 10
20.85
 20
408.972
 11
21.0349
 21
408.849
  0
LINE
  8
0
 10
21.0349
 20
408.849
 11
21.2021
 21
408.702
  0
LINE
  8
0
 10
21.2021
 20
408.702
 11
21.3487
 21
408.535
  0
LINE
  8
0
 10
21.3487
 20
408.535
 11
21.4722
 21
408.35
  0
LINE
  8
0
 10
21.4722
 20
408.35
 11
21.5706
 21
408.151
  0
LINE
  8
0
 10
21.5706
 20
408.151
 11
21.6421
 21
407.94
  0
LINE
  8
0
 10
21.6421
 20
407.94
 11
21.6855
 21
407.722
  0
LINE
  8
0
 10
21.6855
 20
407.722
 11
21.7
 21
407.5
  0
LINE
  8
0
 10
21.7
 20
407.5
 11
21.6855
 21
407.278
  0
LINE
  8
0
 10
21.6855
 20
407.278
 11
21.6421
 21
407.06
  0
LINE
  8
0
 10
21.6421
 20
407.06
 11
21.5706
 21
406.849
  0
LINE
  8
0
 10
21.5706
 20
406.849
 11
21.4722
 21
406.65
  0
LINE
  8
0
 10
21.4722
 20
406.65
 11
21.3487
 21
406.465
  0
LINE
  8
0
 10
21.3487
 20
406.465
 11
21.2021
 21
406.298
  0
LINE
  8
0
 10
21.2021
 20
406.298
 11
21.0349
 21
406.151
  0
LINE
  8
0
 10
21.0349
 20
406.151
 11
20.85
 21
406.028
  0
LINE
  8
0
 10
20.85
 20
406.028
 11
20.6506
 21
405.929
  0
LINE
  8
0
 10
20.6506
 20
405.929
 11
20.44
 21
405.858
  0
LINE
  8
0
 10
20.44
 20
405.858
 11
20.2219
 21
405.815
  0
LINE
  8
0
 10
20.2219
 20
405.815
 11
20
 21
405.8
  0
LINE
  8
0
 10
20
 20
405.8
 11
19.7781
 21
405.815
  0
LINE
  8
0
 10
145.778
 20
405.815
 11
145.56
 21
405.858
  0
LINE
  8
0
 10
145.56
 20
405.858
 11
145.349
 21
405.929
  0
LINE
  8
0
 10
145.349
 20
405.929
 11
145.15
 21
406.028
  0
LINE
  8
0
 10
145.15
 20
406.028
 11
144.965
 21
406.151
  0
LINE
  8
0
 10
144.965
 20
406.151
 11
144.798
 21
406.298
  0
LINE
  8
0
 10
144.798
 20
406.298
 11
144.651
 21
406.465
  0
LINE
  8
0
 10
144.651
 20
406.465
 11
144.528
 21
406.65
  0
LINE
  8
0
 10
144.528
 20
406.65
 11
144.429
 21
406.849
  0
LINE
  8
0
 10
144.429
 20
406.849
 11
144.358
 21
407.06
  0
LINE
  8
0
 10
144.358
 20
407.06
 11
144.315
 21
407.278
  0
LINE
  8
0
 10
144.315
 20
407.278
 11
144.3
 21
407.5
  0
LINE
  8
0
 10
144.3
 20
407.5
 11
144.315
 21
407.722
  0
LINE
  8
0
 10
144.315
 20
407.722
 11
144.358
 21
407.94
  0
LINE
  8
0
 10
144.358
 20
407.94
 11
144.429
 21
408.151
  0
LINE
  8
0
 10
144.429
 20
408.151
 11
144.528
 21
408.35
  0
LINE
  8
0
 10
144.528
 20
408.35
 11
144.651
 21
408.535
  0
LINE
  8
0
 10
144.651
 20
408.535
 11
144.798
 21
408.702
  0
LINE
  8
0
 10
144.798
 20
408.702
 11
144.965
 21
408.849
  0
LINE
  8
0
 10
144.965
 20
408.849
 11
145.15
 21
408.972
  0
LINE
  8
0
 10
145.15
 20
408.972
 11
145.349
 21
409.071
  0
LINE
  8
0
 10
145.349
 20
409.071
 11
145.56
 21
409.142
  0
LINE
  8
0
 10
145.56
 20
409.142
 11
145.778
 21
409.185
  0
LINE
  8
0
 10
145.778
 20
409.185
 11
146
 21
409.2
  0
LINE
  8
0
 10
146
 20
409.2
 11
146.222
 21
409.185
  0
LINE
  8
0
 10
146.222
 20
409.185
 11
146.44
 21
409.142
  0
LINE
  8
0
 10
146.44
 20
409.142
 11
146.651
 21
409.071
  0
LINE
  8
0
 10
146.651
 20
409.071
 11
146.85
 21
408.972
  0
LINE
  8
0
 10
146.85
 20
408.972
 11
147.035
 21
408.849
  0
LINE
  8
0
 10
147.035
 20
408.849
 11
147.202
 21
408.702
  0
LINE
  8
0
 10
147.202
 20
408.702
 11
147.349
 21
408.535
  0
LINE
  8
0
 10
147.349
 20
408.535
 11
147.472
 21
408.35
  0
LINE
  8
0
 10
147.472
 20
408.35
 11
147.571
 21
408.151
  0
LINE
  8
0
 10
147.571
 20
408.151
 11
147.642
 21
407.94
  0
LINE
  8
0
 10
147.642
 20
407.94
 11
147.685
 21
407.722
  0
LINE
  8
0
 10
147.685
 20
407.722
 11
147.7
 21
407.5
  0
LINE
  8
0
 10
147.7
 20
407.5
 11
147.685
 21
407.278
  0
LINE
  8
0
 10
147.685
 20
407.278
 11
147.642
 21
407.06
  0
LINE
  8
0
 10
147.642
 20
407.06
 11
147.571
 21
406.849
  0
LINE
  8
0
 10
147.571
 20
406.849
 11
147.472
 21
406.65
  0
LINE
  8
0
 10
147.472
 20
406.65
 11
147.349
 21
406.465
  0
LINE
  8
0
 10
147.349
 20
406.465
 11
147.202
 21
406.298
  0
LINE
  8
0
 10
147.202
 20
406.298
 11
147.035
 21
406.151
  0
LINE
  8
0
 10
147.035
 20
406.151
 11
146.85
 21
406.028
  0
LINE
  8
0
 10
146.85
 20
406.028
 11
146.651
 21
405.929
  0
LINE
  8
0
 10
146.651
 20
405.929
 11
146.44
 21
405.858
  0
LINE
  8
0
 10
146.44
 20
405.858
 11
146.222
 21
405.815
  0
LINE
  8
0
 10
146.222
 20
405.815
 11
146
 21
405.8
  0
LINE
  8
0
 10
146
 20
405.8
 11
145.778
 21
405.815
  0
LINE
  8
0
 10
155.778
 20
405.815
 11
155.56
 21
405.858
  0
LINE
  8
0
 10
155.56
 20
405.858
 11
155.349
 21
405.929
  0
LINE
  8
0
 10
155.349
 20
405.929
 11
155.15
 21
406.028
  0
LINE
  8
0
 10
155.15
 20
406.028
 11
154.965
 21
406.151
  0
LINE
  8
0
 10
154.965
 20
406.151
 11
154.798
 21
406.298
  0
LINE
  8
0
 10
154.798
 20
406.298
 11
154.651
 21
406.465
  0
LINE
  8
0
 10
154.651
 20
406.465
 11
154.528
 21
406.65
  0
LINE
  8
0
 10
154.528
 20
406.65
 11
154.429
 21
406.849
  0
LINE
  8
0
 10
154.429
 20
406.849
 11
154.358
 21
407.06
  0
LINE
  8
0
 10
154.358
 20
407.06
 11
154.315
 21
407.278
  0
LINE
  8
0
 10
154.315
 20
407.278
 11
154.3
 21
407.5
  0
LINE
  8
0
 10
154.3
 20
407.5
 11
154.315
 21
407.722
  0
LINE
  8
0
 10
154.315
 20
407.722
 11
154.358
 21
407.94
  0
LINE
  8
0
 10
154.358
 20
407.94
 11
154.429
 21
408.151
  0
LINE
  8
0
 10
154.429
 20
408.151
 11
154.528
 21
408.35
  0
LINE
  8
0
 10
154.528
 20
408.35
 11
154.651
 21
408.535
  0
LINE
  8
0
 10
154.651
 20
408.535
 11
154.798
 21
408.702
  0
LINE
  8
0
 10
154.798
 20
408.702
 11
154.965
 21
408.849
  0
LINE
  8
0
 10
154.965
 20
408.849
 11
155.15
 21
408.972
  0
LINE
  8
0
 10
155.15
 20
408.972
 11
155.349
 21
409.071
  0
LINE
  8
0
 10
155.349
 20
409.071
 11
155.56
 21
409.142
  0
LINE
  8
0
 10
155.56
 20
409.142
 11
155.778
 21
409.185
  0
LINE
  8
0
 10
155.778
 20
409.185
 11
156
 21
409.2
  0
LINE
  8
0
 10
156
 20
409.2
 11
156.222
 21
409.185
  0
LINE
  8
0
 10
156.222
 20
409.185
 11
156.44
 21
409.142
  0
LINE
  8
0
 10
156.44
 20
409.142
 11
156.651
 21
409.071
  0
LINE
  8
0
 10
156.651
 20
409.071
 11
156.85
 21
408.972
  0
LINE
  8
0
 10
156.85
 20
408.972
 11
157.035
 21
408.849
  0
LINE
  8
0
 10
157.035
 20
408.849
 11
157.202
 21
408.702
  0
LINE
  8
0
 10
157.202
 20
408.702
 11
157.349
 21
408.535
  0
LINE
  8
0
 10
157.349
 20
408.535
 11
157.472
 21
408.35
  0
LINE
  8
0
 10
157.472
 20
408.35
 11
157.571
 21
408.151
  0
LINE
  8
0
 10
157.571
 20
408.151
 11
157.642
 21
407.94
  0
LINE
  8
0
 10
157.642
 20
407.94
 11
157.685
 21
407.722
  0
LINE
  8
0
 10
157.685
 20
407.722
 11
157.7
 21
407.5
  0
LINE
  8
0
 10
157.7
 20
407.5
 11
157.685
 21
407.278
  0
LINE
  8
0
 10
157.685
 20
407.278
 11
157.642
 21
407.06
  0
LINE
  8
0
 10
157.642
 20
407.06
 11
157.571
 21
406.849
  0
LINE
  8
0
 10
157.571
 20
406.849
 11
157.472
 21
406.65
  0
LINE
  8
0
 10
157.472
 20
406.65
 11
157.349
 21
406.465
  0
LINE
  8
0
 10
157.349
 20
406.465
 11
157.202
 21
406.298
  0
LINE
  8
0
 10
157.202
 20
406.298
 11
157.035
 21
406.151
  0
LINE
  8
0
 10
157.035
 20
406.151
 11
156.85
 21
406.028
  0
LINE
  8
0
 10
156.85
 20
406.028
 11
156.651
 21
405.929
  0
LINE
  8
0
 10
156.651
 20
405.929
 11
156.44
 21
405.858
  0
LINE
  8
0
 10
156.44
 20
405.858
 11
156.222
 21
405.815
  0
LINE
  8
0
 10
156.222
 20
405.815
 11
156
 21
405.8
  0
LINE
  8
0
 10
156
 20
405.8
 11
155.778
 21
405.815
  0
LINE
  8
0
 10
38.5
 20
374
 11
38.5
 21
391
  0
LINE
  8
0
 10
38.5
 20
391
 11
55.5
 21
391
  0
LINE
  8
0
 10
55.5
 20
391
 11
55.5
 21
374
  0
LINE
  8
0
 10
55.5
 20
374
 11
38.5
 21
374
  0
LINE
  8
0
 10
100.1
 20
349
 11
100.1
 21
366
  0
LINE
  8
0
 10
100.1
 20
366
 11
117.1
 21
366
  0
LINE
  8
0
 10
117.1
 20
366
 11
117.1
 21
349
  0
LINE
  8
0
 10
117.1
 20
349
 11
100.1
 21
349
  0
LINE
  8
0
 10
155.778
 20
355.815
 11
155.56
 21
355.858
  0
LINE
  8
0
 10
155.56
 20
355.858
 11
155.349
 21
355.929
  0
LINE
  8
0
 10
155.349
 20
355.929
 11
155.15
 21
356.028
  0
LINE
  8
0
 10
155.15
 20
356.028
 11
154.965
 21
356.151
  0
LINE
  8
0
 10
154.965
 20
356.151
 11
154.798
 21
356.298
  0
LINE
  8
0
 10
154.798
 20
356.298
 11
154.651
 21
356.465
  0
LINE
  8
0
 10
154.651
 20
356.465
 11
154.528
 21
356.65
  0
LINE
  8
0
 10
154.528
 20
356.65
 11
154.429
 21
356.849
  0
LINE
  8
0
 10
154.429
 20
356.849
 11
154.358
 21
357.06
  0
LINE
  8
0
 10
154.358
 20
357.06
 11
154.315
 21
357.278
  0
LINE
  8
0
 10
154.315
 20
357.278
 11
154.3
 21
357.5
  0
LINE
  8
0
 10
154.3
 20
357.5
 11
154.315
 21
357.722
  0
LINE
  8
0
 10
154.315
 20
357.722
 11
154.358
 21
357.94
  0
LINE
  8
0
 10
154.358
 20
357.94
 11
154.429
 21
358.151
  0
LINE
  8
0
 10
154.429
 20
358.151
 11
154.528
 21
358.35
  0
LINE
  8
0
 10
154.528
 20
358.35
 11
154.651
 21
358.535
  0
LINE
  8
0
 10
154.651
 20
358.535
 11
154.798
 21
358.702
  0
LINE
  8
0
 10
154.798
 20
358.702
 11
154.965
 21
358.849
  0
LINE
  8
0
 10
154.965
 20
358.849
 11
155.15
 21
358.972
  0
LINE
  8
0
 10
155.15
 20
358.972
 11
155.349
 21
359.071
  0
LINE
  8
0
 10
155.349
 20
359.071
 11
155.56
 21
359.142
  0
LINE
  8
0
 10
155.56
 20
359.142
 11
155.778
 21
359.185
  0
LINE
  8
0
 10
155.778
 20
359.185
 11
156
 21
359.2
  0
LINE
  8
0
 10
156
 20
359.2
 11
156.222
 21
359.185
  0
LINE
  8
0
 10
156.222
 20
359.185
 11
156.44
 21
359.142
  0
LINE
  8
0
 10
156.44
 20
359.142
 11
156.651
 21
359.071
  0
LINE
  8
0
 10
156.651
 20
359.071
 11
156.85
 21
358.972
  0
LINE
  8
0
 10
156.85
 20
358.972
 11
157.035
 21
358.849
  0
LINE
  8
0
 10
157.035
 20
358.849
 11
157.202
 21
358.702
  0
LINE
  8
0
 10
157.202
 20
358.702
 11
157.349
 21
358.535
  0
LINE
  8
0
 10
157.349
 20
358.535
 11
157.472
 21
358.35
  0
LINE
  8
0
 10
157.472
 20
358.35
 11
157.571
 21
358.151
  0
LINE
  8
0
 10
157.571
 20
358.151
 11
157.642
 21
357.94
  0
LINE
  8
0
 10
157.642
 20
357.94
 11
157.685
 21
357.722
  0
LINE
  8
0
 10
157.685
 20
357.722
 11
157.7
 21
357.5
  0
LINE
  8
0
 10
157.7
 20
357.5
 11
157.685
 21
357.278
  0
LINE
  8
0
 10
157.685
 20
357.278
 11
157.642
 21
357.06
  0
LINE
  8
0
 10
157.642
 20
357.06
 11
157.571
 21
356.849
  0
LINE
  8
0
 10
157.571
 20
356.849
 11
157.472
 21
356.65
  0
LINE
  8
0
 10
157.472
 20
356.65
 11
157.349
 21
356.465
  0
LINE
  8
0
 10
157.349
 20
356.465
 11
157.202
 21
356.298
  0
LINE
  8
0
 10
157.202
 20
356.298
 11
157.035
 21
356.151
  0
LINE
  8
0
 10
157.035
 20
356.151
 11
156.85
 21
356.028
  0
LINE
  8
0
 10
156.85
 20
356.028
 11
156.651
 21
355.929
  0
LINE
  8
0
 10
156.651
 20
355.929
 11
156.44
 21
355.858
  0
LINE
  8
0
 10
156.44
 20
355.858
 11
156.222
 21
355.815
  0
LINE
  8
0
 10
156.222
 20
355.815
 11
156
 21
355.8
  0
LINE
  8
0
 10
156
 20
355.8
 11
155.778
 21
355.815
  0
LINE
  8
0
 10
145.778
 20
355.815
 11
145.56
 21
355.858
  0
LINE
  8
0
 10
145.56
 20
355.858
 11
145.349
 21
355.929
  0
LINE
  8
0
 10
145.349
 20
355.929
 11
145.15
 21
356.028
  0
LINE
  8
0
 10
145.15
 20
356.028
 11
144.965
 21
356.151
  0
LINE
  8
0
 10
144.965
 20
356.151
 11
144.798
 21
356.298
  0
LINE
  8
0
 10
144.798
 20
356.298
 11
144.651
 21
356.465
  0
LINE
  8
0
 10
144.651
 20
356.465
 11
144.528
 21
356.65
  0
LINE
  8
0
 10
144.528
 20
356.65
 11
144.429
 21
356.849
  0
LINE
  8
0
 10
144.429
 20
356.849
 11
144.358
 21
357.06
  0
LINE
  8
0
 10
144.358
 20
357.06
 11
144.315
 21
357.278
  0
LINE
  8
0
 10
144.315
 20
357.278
 11
144.3
 21
357.5
  0
LINE
  8
0
 10
144.3
 20
357.5
 11
144.315
 21
357.722
  0
LINE
  8
0
 10
144.315
 20
357.722
 11
144.358
 21
357.94
  0
LINE
  8
0
 10
144.358
 20
357.94
 11
144.429
 21
358.151
  0
LINE
  8
0
 10
144.429
 20
358.151
 11
144.528
 21
358.35
  0
LINE
  8
0
 10
144.528
 20
358.35
 11
144.651
 21
358.535
  0
LINE
  8
0
 10
144.651
 20
358.535
 11
144.798
 21
358.702
  0
LINE
  8
0
 10
144.798
 20
358.702
 11
144.965
 21
358.849
  0
LINE
  8
0
 10
144.965
 20
358.849
 11
145.15
 21
358.972
  0
LINE
  8
0
 10
145.15
 20
358.972
 11
145.349
 21
359.071
  0
LINE
  8
0
 10
145.349
 20
359.071
 11
145.56
 21
359.142
  0
LINE
  8
0
 10
145.56
 20
359.142
 11
145.778
 21
359.185
  0
LINE
  8
0
 10
145.778
 20
359.185
 11
146
 21
359.2
  0
LINE
  8
0
 10
146
 20
359.2
 11
146.222
 21
359.185
  0
LINE
  8
0
 10
146.222
 20
359.185
 11
146.44
 21
359.142
  0
LINE
  8
0
 10
146.44
 20
359.142
 11
146.651
 21
359.071
  0
LINE
  8
0
 10
146.651
 20
359.071
 11
146.85
 21
358.972
  0
LINE
  8
0
 10
146.85
 20
358.972
 11
147.035
 21
358.849
  0
LINE
  8
0
 10
147.035
 20
358.849
 11
147.202
 21
358.702
  0
LINE
  8
0
 10
147.202
 20
358.702
 11
147.349
 21
358.535
  0
LINE
  8
0
 10
147.349
 20
358.535
 11
147.472
 21
358.35
  0
LINE
  8
0
 10
147.472
 20
358.35
 11
147.571
 21
358.151
  0
LINE
  8
0
 10
147.571
 20
358.151
 11
147.642
 21
357.94
  0
LINE
  8
0
 10
147.642
 20
357.94
 11
147.685
 21
357.722
  0
LINE
  8
0
 10
147.685
 20
357.722
 11
147.7
 21
357.5
  0
LINE
  8
0
 10
147.7
 20
357.5
 11
147.685
 21
357.278
  0
LINE
  8
0
 10
147.685
 20
357.278
 11
147.642
 21
357.06
  0
LINE
  8
0
 10
147.642
 20
357.06
 11
147.571
 21
356.849
  0
LINE
  8
0
 10
147.571
 20
356.849
 11
147.472
 21
356.65
  0
LINE
  8
0
 10
147.472
 20
356.65
 11
147.349
 21
356.465
  0
LINE
  8
0
 10
147.349
 20
356.465
 11
147.202
 21
356.298
  0
LINE
  8
0
 10
147.202
 20
356.298
 11
147.035
 21
356.151
  0
LINE
  8
0
 10
147.035
 20
356.151
 11
146.85
 21
356.028
  0
LINE
  8
0
 10
146.85
 20
356.028
 11
146.651
 21
355.929
  0
LINE
  8
0
 10
146.651
 20
355.929
 11
146.44
 21
355.858
  0
LINE
  8
0
 10
146.44
 20
355.858
 11
146.222
 21
355.815
  0
LINE
  8
0
 10
146.222
 20
355.815
 11
146
 21
355.8
  0
LINE
  8
0
 10
146
 20
355.8
 11
145.778
 21
355.815
  0
LINE
  8
0
 10
46.7781
 20
355.815
 11
46.56
 21
355.858
  0
LINE
  8
0
 10
46.56
 20
355.858
 11
46.3494
 21
355.929
  0
LINE
  8
0
 10
46.3494
 20
355.929
 11
46.15
 21
356.028
  0
LINE
  8
0
 10
46.15
 20
356.028
 11
45.9651
 21
356.151
  0
LINE
  8
0
 10
45.9651
 20
356.151
 11
45.7979
 21
356.298
  0
LINE
  8
0
 10
45.7979
 20
356.298
 11
45.6513
 21
356.465
  0
LINE
  8
0
 10
45.6513
 20
356.465
 11
45.5278
 21
356.65
  0
LINE
  8
0
 10
45.5278
 20
356.65
 11
45.4294
 21
356.849
  0
LINE
  8
0
 10
45.4294
 20
356.849
 11
45.3579
 21
357.06
  0
LINE
  8
0
 10
45.3579
 20
357.06
 11
45.3145
 21
357.278
  0
LINE
  8
0
 10
45.3145
 20
357.278
 11
45.3
 21
357.5
  0
LINE
  8
0
 10
45.3
 20
357.5
 11
45.3145
 21
357.722
  0
LINE
  8
0
 10
45.3145
 20
357.722
 11
45.3579
 21
357.94
  0
LINE
  8
0
 10
45.3579
 20
357.94
 11
45.4294
 21
358.151
  0
LINE
  8
0
 10
45.4294
 20
358.151
 11
45.5278
 21
358.35
  0
LINE
  8
0
 10
45.5278
 20
358.35
 11
45.6513
 21
358.535
  0
LINE
  8
0
 10
45.6513
 20
358.535
 11
45.7979
 21
358.702
  0
LINE
  8
0
 10
45.7979
 20
358.702
 11
45.9651
 21
358.849
  0
LINE
  8
0
 10
45.9651
 20
358.849
 11
46.15
 21
358.972
  0
LINE
  8
0
 10
46.15
 20
358.972
 11
46.3494
 21
359.071
  0
LINE
  8
0
 10
46.3494
 20
359.071
 11
46.56
 21
359.142
  0
LINE
  8
0
 10
46.56
 20
359.142
 11
46.7781
 21
359.185
  0
LINE
  8
0
 10
46.7781
 20
359.185
 11
47
 21
359.2
  0
LINE
  8
0
 10
47
 20
359.2
 11
47.2219
 21
359.185
  0
LINE
  8
0
 10
47.2219
 20
359.185
 11
47.44
 21
359.142
  0
LINE
  8
0
 10
47.44
 20
359.142
 11
47.6506
 21
359.071
  0
LINE
  8
0
 10
47.6506
 20
359.071
 11
47.85
 21
358.972
  0
LINE
  8
0
 10
47.85
 20
358.972
 11
48.0349
 21
358.849
  0
LINE
  8
0
 10
48.0349
 20
358.849
 11
48.2021
 21
358.702
  0
LINE
  8
0
 10
48.2021
 20
358.702
 11
48.3487
 21
358.535
  0
LINE
  8
0
 10
48.3487
 20
358.535
 11
48.4722
 21
358.35
  0
LINE
  8
0
 10
48.4722
 20
358.35
 11
48.5706
 21
358.151
  0
LINE
  8
0
 10
48.5706
 20
358.151
 11
48.6421
 21
357.94
  0
LINE
  8
0
 10
48.6421
 20
357.94
 11
48.6855
 21
357.722
  0
LINE
  8
0
 10
48.6855
 20
357.722
 11
48.7
 21
357.5
  0
LINE
  8
0
 10
48.7
 20
357.5
 11
48.6855
 21
357.278
  0
LINE
  8
0
 10
48.6855
 20
357.278
 11
48.6421
 21
357.06
  0
LINE
  8
0
 10
48.6421
 20
357.06
 11
48.5706
 21
356.849
  0
LINE
  8
0
 10
48.5706
 20
356.849
 11
48.4722
 21
356.65
  0
LINE
  8
0
 10
48.4722
 20
356.65
 11
48.3487
 21
356.465
  0
LINE
  8
0
 10
48.3487
 20
356.465
 11
48.2021
 21
356.298
  0
LINE
  8
0
 10
48.2021
 20
356.298
 11
48.0349
 21
356.151
  0
LINE
  8
0
 10
48.0349
 20
356.151
 11
47.85
 21
356.028
  0
LINE
  8
0
 10
47.85
 20
356.028
 11
47.6506
 21
355.929
  0
LINE
  8
0
 10
47.6506
 20
355.929
 11
47.44
 21
355.858
  0
LINE
  8
0
 10
47.44
 20
355.858
 11
47.2219
 21
355.815
  0
LINE
  8
0
 10
47.2219
 20
355.815
 11
47
 21
355.8
  0
LINE
  8
0
 10
47
 20
355.8
 11
46.7781
 21
355.815
  0
LINE
  8
0
 10
19.7781
 20
355.815
 11
19.56
 21
355.858
  0
LINE
  8
0
 10
19.56
 20
355.858
 11
19.3494
 21
355.929
  0
LINE
  8
0
 10
19.3494
 20
355.929
 11
19.15
 21
356.028
  0
LINE
  8
0
 10
19.15
 20
356.028
 11
18.9651
 21
356.151
  0
LINE
  8
0
 10
18.9651
 20
356.151
 11
18.7979
 21
356.298
  0
LINE
  8
0
 10
18.7979
 20
356.298
 11
18.6513
 21
356.465
  0
LINE
  8
0
 10
18.6513
 20
356.465
 11
18.5278
 21
356.65
  0
LINE
  8
0
 10
18.5278
 20
356.65
 11
18.4294
 21
356.849
  0
LINE
  8
0
 10
18.4294
 20
356.849
 11
18.3579
 21
357.06
  0
LINE
  8
0
 10
18.3579
 20
357.06
 11
18.3145
 21
357.278
  0
LINE
  8
0
 10
18.3145
 20
357.278
 11
18.3
 21
357.5
  0
LINE
  8
0
 10
18.3
 20
357.5
 11
18.3145
 21
357.722
  0
LINE
  8
0
 10
18.3145
 20
357.722
 11
18.3579
 21
357.94
  0
LINE
  8
0
 10
18.3579
 20
357.94
 11
18.4294
 21
358.151
  0
LINE
  8
0
 10
18.4294
 20
358.151
 11
18.5278
 21
358.35
  0
LINE
  8
0
 10
18.5278
 20
358.35
 11
18.6513
 21
358.535
  0
LINE
  8
0
 10
18.6513
 20
358.535
 11
18.7979
 21
358.702
  0
LINE
  8
0
 10
18.7979
 20
358.702
 11
18.9651
 21
358.849
  0
LINE
  8
0
 10
18.9651
 20
358.849
 11
19.15
 21
358.972
  0
LINE
  8
0
 10
19.15
 20
358.972
 11
19.3494
 21
359.071
  0
LINE
  8
0
 10
19.3494
 20
359.071
 11
19.56
 21
359.142
  0
LINE
  8
0
 10
19.56
 20
359.142
 11
19.7781
 21
359.185
  0
LINE
  8
0
 10
19.7781
 20
359.185
 11
20
 21
359.2
  0
LINE
  8
0
 10
20
 20
359.2
 11
20.2219
 21
359.185
  0
LINE
  8
0
 10
20.2219
 20
359.185
 11
20.44
 21
359.142
  0
LINE
  8
0
 10
20.44
 20
359.142
 11
20.6506
 21
359.071
  0
LINE
  8
0
 10
20.6506
 20
359.071
 11
20.85
 21
358.972
  0
LINE
  8
0
 10
20.85
 20
358.972
 11
21.0349
 21
358.849
  0
LINE
  8
0
 10
21.0349
 20
358.849
 11
21.2021
 21
358.702
  0
LINE
  8
0
 10
21.2021
 20
358.702
 11
21.3487
 21
358.535
  0
LINE
  8
0
 10
21.3487
 20
358.535
 11
21.4722
 21
358.35
  0
LINE
  8
0
 10
21.4722
 20
358.35
 11
21.5706
 21
358.151
  0
LINE
  8
0
 10
21.5706
 20
358.151
 11
21.6421
 21
357.94
  0
LINE
  8
0
 10
21.6421
 20
357.94
 11
21.6855
 21
357.722
  0
LINE
  8
0
 10
21.6855
 20
357.722
 11
21.7
 21
357.5
  0
LINE
  8
0
 10
21.7
 20
357.5
 11
21.6855
 21
357.278
  0
LINE
  8
0
 10
21.6855
 20
357.278
 11
21.6421
 21
357.06
  0
LINE
  8
0
 10
21.6421
 20
357.06
 11
21.5706
 21
356.849
  0
LINE
  8
0
 10
21.5706
 20
356.849
 11
21.4722
 21
356.65
  0
LINE
  8
0
 10
21.4722
 20
356.65
 11
21.3487
 21
356.465
  0
LINE
  8
0
 10
21.3487
 20
356.465
 11
21.2021
 21
356.298
  0
LINE
  8
0
 10
21.2021
 20
356.298
 11
21.0349
 21
356.151
  0
LINE
  8
0
 10
21.0349
 20
356.151
 11
20.85
 21
356.028
  0
LINE
  8
0
 10
20.85
 20
356.028
 11
20.6506
 21
355.929
  0
LINE
  8
0
 10
20.6506
 20
355.929
 11
20.44
 21
355.858
  0
LINE
  8
0
 10
20.44
 20
355.858
 11
20.2219
 21
355.815
  0
LINE
  8
0
 10
20.2219
 20
355.815
 11
20
 21
355.8
  0
LINE
  8
0
 10
20
 20
355.8
 11
19.7781
 21
355.815
  0
LINE
  8
0
 10
38.5
 20
324
 11
38.5
 21
341
  0
LINE
  8
0
 10
38.5
 20
341
 11
55.5
 21
341
  0
LINE
  8
0
 10
55.5
 20
341
 11
55.5
 21
324
  0
LINE
  8
0
 10
55.5
 20
324
 11
38.5
 21
324
  0
LINE
  8
0
 10
155.778
 20
305.815
 11
155.56
 21
305.858
  0
LINE
  8
0
 10
155.56
 20
305.858
 11
155.349
 21
305.929
  0
LINE
  8
0
 10
155.349
 20
305.929
 11
155.15
 21
306.028
  0
LINE
  8
0
 10
155.15
 20
306.028
 11
154.965
 21
306.151
  0
LINE
  8
0
 10
154.965
 20
306.151
 11
154.798
 21
306.298
  0
LINE
  8
0
 10
154.798
 20
306.298
 11
154.651
 21
306.465
  0
LINE
  8
0
 10
154.651
 20
306.465
 11
154.528
 21
306.65
  0
LINE
  8
0
 10
154.528
 20
306.65
 11
154.429
 21
306.849
  0
LINE
  8
0
 10
154.429
 20
306.849
 11
154.358
 21
307.06
  0
LINE
  8
0
 10
154.358
 20
307.06
 11
154.315
 21
307.278
  0
LINE
  8
0
 10
154.315
 20
307.278
 11
154.3
 21
307.5
  0
LINE
  8
0
 10
154.3
 20
307.5
 11
154.315
 21
307.722
  0
LINE
  8
0
 10
154.315
 20
307.722
 11
154.358
 21
307.94
  0
LINE
  8
0
 10
154.358
 20
307.94
 11
154.429
 21
308.151
  0
LINE
  8
0
 10
154.429
 20
308.151
 11
154.528
 21
308.35
  0
LINE
  8
0
 10
154.528
 20
308.35
 11
154.651
 21
308.535
  0
LINE
  8
0
 10
154.651
 20
308.535
 11
154.798
 21
308.702
  0
LINE
  8
0
 10
154.798
 20
308.702
 11
154.965
 21
308.849
  0
LINE
  8
0
 10
154.965
 20
308.849
 11
155.15
 21
308.972
  0
LINE
  8
0
 10
155.15
 20
308.972
 11
155.349
 21
309.071
  0
LINE
  8
0
 10
155.349
 20
309.071
 11
155.56
 21
309.142
  0
LINE
  8
0
 10
155.56
 20
309.142
 11
155.778
 21
309.185
  0
LINE
  8
0
 10
155.778
 20
309.185
 11
156
 21
309.2
  0
LINE
  8
0
 10
156
 20
309.2
 11
156.222
 21
309.185
  0
LINE
  8
0
 10
156.222
 20
309.185
 11
156.44
 21
309.142
  0
LINE
  8
0
 10
156.44
 20
309.142
 11
156.651
 21
309.071
  0
LINE
  8
0
 10
156.651
 20
309.071
 11
156.85
 21
308.972
  0
LINE
  8
0
 10
156.85
 20
308.972
 11
157.035
 21
308.849
  0
LINE
  8
0
 10
157.035
 20
308.849
 11
157.202
 21
308.702
  0
LINE
  8
0
 10
157.202
 20
308.702
 11
157.349
 21
308.535
  0
LINE
  8
0
 10
157.349
 20
308.535
 11
157.472
 21
308.35
  0
LINE
  8
0
 10
157.472
 20
308.35
 11
157.571
 21
308.151
  0
LINE
  8
0
 10
157.571
 20
308.151
 11
157.642
 21
307.94
  0
LINE
  8
0
 10
157.642
 20
307.94
 11
157.685
 21
307.722
  0
LINE
  8
0
 10
157.685
 20
307.722
 11
157.7
 21
307.5
  0
LINE
  8
0
 10
157.7
 20
307.5
 11
157.685
 21
307.278
  0
LINE
  8
0
 10
157.685
 20
307.278
 11
157.642
 21
307.06
  0
LINE
  8
0
 10
157.642
 20
307.06
 11
157.571
 21
306.849
  0
LINE
  8
0
 10
157.571
 20
306.849
 11
157.472
 21
306.65
  0
LINE
  8
0
 10
157.472
 20
306.65
 11
157.349
 21
306.465
  0
LINE
  8
0
 10
157.349
 20
306.465
 11
157.202
 21
306.298
  0
LINE
  8
0
 10
157.202
 20
306.298
 11
157.035
 21
306.151
  0
LINE
  8
0
 10
157.035
 20
306.151
 11
156.85
 21
306.028
  0
LINE
  8
0
 10
156.85
 20
306.028
 11
156.651
 21
305.929
  0
LINE
  8
0
 10
156.651
 20
305.929
 11
156.44
 21
305.858
  0
LINE
  8
0
 10
156.44
 20
305.858
 11
156.222
 21
305.815
  0
LINE
  8
0
 10
156.222
 20
305.815
 11
156
 21
305.8
  0
LINE
  8
0
 10
156
 20
305.8
 11
155.778
 21
305.815
  0
LINE
  8
0
 10
145.778
 20
305.815
 11
145.56
 21
305.858
  0
LINE
  8
0
 10
145.56
 20
305.858
 11
145.349
 21
305.929
  0
LINE
  8
0
 10
145.349
 20
305.929
 11
145.15
 21
306.028
  0
LINE
  8
0
 10
145.15
 20
306.028
 11
144.965
 21
306.151
  0
LINE
  8
0
 10
144.965
 20
306.151
 11
144.798
 21
306.298
  0
LINE
  8
0
 10
144.798
 20
306.298
 11
144.651
 21
306.465
  0
LINE
  8
0
 10
144.651
 20
306.465
 11
144.528
 21
306.65
  0
LINE
  8
0
 10
144.528
 20
306.65
 11
144.429
 21
306.849
  0
LINE
  8
0
 10
144.429
 20
306.849
 11
144.358
 21
307.06
  0
LINE
  8
0
 10
144.358
 20
307.06
 11
144.315
 21
307.278
  0
LINE
  8
0
 10
144.315
 20
307.278
 11
144.3
 21
307.5
  0
LINE
  8
0
 10
144.3
 20
307.5
 11
144.315
 21
307.722
  0
LINE
  8
0
 10
144.315
 20
307.722
 11
144.358
 21
307.94
  0
LINE
  8
0
 10
144.358
 20
307.94
 11
144.429
 21
308.151
  0
LINE
  8
0
 10
144.429
 20
308.151
 11
144.528
 21
308.35
  0
LINE
  8
0
 10
144.528
 20
308.35
 11
144.651
 21
308.535
  0
LINE
  8
0
 10
144.651
 20
308.535
 11
144.798
 21
308.702
  0
LINE
  8
0
 10
144.798
 20
308.702
 11
144.965
 21
308.849
  0
LINE
  8
0
 10
144.965
 20
308.849
 11
145.15
 21
308.972
  0
LINE
  8
0
 10
145.15
 20
308.972
 11
145.349
 21
309.071
  0
LINE
  8
0
 10
145.349
 20
309.071
 11
145.56
 21
309.142
  0
LINE
  8
0
 10
145.56
 20
309.142
 11
145.778
 21
309.185
  0
LINE
  8
0
 10
145.778
 20
309.185
 11
146
 21
309.2
  0
LINE
  8
0
 10
146
 20
309.2
 11
146.222
 21
309.185
  0
LINE
  8
0
 10
146.222
 20
309.185
 11
146.44
 21
309.142
  0
LINE
  8
0
 10
146.44
 20
309.142
 11
146.651
 21
309.071
  0
LINE
  8
0
 10
146.651
 20
309.071
 11
146.85
 21
308.972
  0
LINE
  8
0
 10
146.85
 20
308.972
 11
147.035
 21
308.849
  0
LINE
  8
0
 10
147.035
 20
308.849
 11
147.202
 21
308.702
  0
LINE
  8
0
 10
147.202
 20
308.702
 11
147.349
 21
308.535
  0
LINE
  8
0
 10
147.349
 20
308.535
 11
147.472
 21
308.35
  0
LINE
  8
0
 10
147.472
 20
308.35
 11
147.571
 21
308.151
  0
LINE
  8
0
 10
147.571
 20
308.151
 11
147.642
 21
307.94
  0
LINE
  8
0
 10
147.642
 20
307.94
 11
147.685
 21
307.722
  0
LINE
  8
0
 10
147.685
 20
307.722
 11
147.7
 21
307.5
  0
LINE
  8
0
 10
147.7
 20
307.5
 11
147.685
 21
307.278
  0
LINE
  8
0
 10
147.685
 20
307.278
 11
147.642
 21
307.06
  0
LINE
  8
0
 10
147.642
 20
307.06
 11
147.571
 21
306.849
  0
LINE
  8
0
 10
147.571
 20
306.849
 11
147.472
 21
306.65
  0
LINE
  8
0
 10
147.472
 20
306.65
 11
147.349
 21
306.465
  0
LINE
  8
0
 10
147.349
 20
306.465
 11
147.202
 21
306.298
  0
LINE
  8
0
 10
147.202
 20
306.298
 11
147.035
 21
306.151
  0
LINE
  8
0
 10
147.035
 20
306.151
 11
146.85
 21
306.028
  0
LINE
  8
0
 10
146.85
 20
306.028
 11
146.651
 21
305.929
  0
LINE
  8
0
 10
146.651
 20
305.929
 11
146.44
 21
305.858
  0
LINE
  8
0
 10
146.44
 20
305.858
 11
146.222
 21
305.815
  0
LINE
  8
0
 10
146.222
 20
305.815
 11
146
 21
305.8
  0
LINE
  8
0
 10
146
 20
305.8
 11
145.778
 21
305.815
  0
LINE
  8
0
 10
46.7781
 20
305.815
 11
46.56
 21
305.858
  0
LINE
  8
0
 10
46.56
 20
305.858
 11
46.3494
 21
305.929
  0
LINE
  8
0
 10
46.3494
 20
305.929
 11
46.15
 21
306.028
  0
LINE
  8
0
 10
46.15
 20
306.028
 11
45.9651
 21
306.151
  0
LINE
  8
0
 10
45.9651
 20
306.151
 11
45.7979
 21
306.298
  0
LINE
  8
0
 10
45.7979
 20
306.298
 11
45.6513
 21
306.465
  0
LINE
  8
0
 10
45.6513
 20
306.465
 11
45.5278
 21
306.65
  0
LINE
  8
0
 10
45.5278
 20
306.65
 11
45.4294
 21
306.849
  0
LINE
  8
0
 10
45.4294
 20
306.849
 11
45.3579
 21
307.06
  0
LINE
  8
0
 10
45.3579
 20
307.06
 11
45.3145
 21
307.278
  0
LINE
  8
0
 10
45.3145
 20
307.278
 11
45.3
 21
307.5
  0
LINE
  8
0
 10
45.3
 20
307.5
 11
45.3145
 21
307.722
  0
LINE
  8
0
 10
45.3145
 20
307.722
 11
45.3579
 21
307.94
  0
LINE
  8
0
 10
45.3579
 20
307.94
 11
45.4294
 21
308.151
  0
LINE
  8
0
 10
45.4294
 20
308.151
 11
45.5278
 21
308.35
  0
LINE
  8
0
 10
45.5278
 20
308.35
 11
45.6513
 21
308.535
  0
LINE
  8
0
 10
45.6513
 20
308.535
 11
45.7979
 21
308.702
  0
LINE
  8
0
 10
45.7979
 20
308.702
 11
45.9651
 21
308.849
  0
LINE
  8
0
 10
45.9651
 20
308.849
 11
46.15
 21
308.972
  0
LINE
  8
0
 10
46.15
 20
308.972
 11
46.3494
 21
309.071
  0
LINE
  8
0
 10
46.3494
 20
309.071
 11
46.56
 21
309.142
  0
LINE
  8
0
 10
46.56
 20
309.142
 11
46.7781
 21
309.185
  0
LINE
  8
0
 10
46.7781
 20
309.185
 11
47
 21
309.2
  0
LINE
  8
0
 10
47
 20
309.2
 11
47.2219
 21
309.185
  0
LINE
  8
0
 10
47.2219
 20
309.185
 11
47.44
 21
309.142
  0
LINE
  8
0
 10
47.44
 20
309.142
 11
47.6506
 21
309.071
  0
LINE
  8
0
 10
47.6506
 20
309.071
 11
47.85
 21
308.972
  0
LINE
  8
0
 10
47.85
 20
308.972
 11
48.0349
 21
308.849
  0
LINE
  8
0
 10
48.0349
 20
308.849
 11
48.2021
 21
308.702
  0
LINE
  8
0
 10
48.2021
 20
308.702
 11
48.3487
 21
308.535
  0
LINE
  8
0
 10
48.3487
 20
308.535
 11
48.4722
 21
308.35
  0
LINE
  8
0
 10
48.4722
 20
308.35
 11
48.5706
 21
308.151
  0
LINE
  8
0
 10
48.5706
 20
308.151
 11
48.6421
 21
307.94
  0
LINE
  8
0
 10
48.6421
 20
307.94
 11
48.6855
 21
307.722
  0
LINE
  8
0
 10
48.6855
 20
307.722
 11
48.7
 21
307.5
  0
LINE
  8
0
 10
48.7
 20
307.5
 11
48.6855
 21
307.278
  0
LINE
  8
0
 10
48.6855
 20
307.278
 11
48.6421
 21
307.06
  0
LINE
  8
0
 10
48.6421
 20
307.06
 11
48.5706
 21
306.849
  0
LINE
  8
0
 10
48.5706
 20
306.849
 11
48.4722
 21
306.65
  0
LINE
  8
0
 10
48.4722
 20
306.65
 11
48.3487
 21
306.465
  0
LINE
  8
0
 10
48.3487
 20
306.465
 11
48.2021
 21
306.298
  0
LINE
  8
0
 10
48.2021
 20
306.298
 11
48.0349
 21
306.151
  0
LINE
  8
0
 10
48.0349
 20
306.151
 11
47.85
 21
306.028
  0
LINE
  8
0
 10
47.85
 20
306.028
 11
47.6506
 21
305.929
  0
LINE
  8
0
 10
47.6506
 20
305.929
 11
47.44
 21
305.858
  0
LINE
  8
0
 10
47.44
 20
305.858
 11
47.2219
 21
305.815
  0
LINE
  8
0
 10
47.2219
 20
305.815
 11
47
 21
305.8
  0
LINE
  8
0
 10
47
 20
305.8
 11
46.7781
 21
305.815
  0
LINE
  8
0
 10
19.7781
 20
305.815
 11
19.56
 21
305.858
  0
LINE
  8
0
 10
19.56
 20
305.858
 11
19.3494
 21
305.929
  0
LINE
  8
0
 10
19.3494
 20
305.929
 11
19.15
 21
306.028
  0
LINE
  8
0
 10
19.15
 20
306.028
 11
18.9651
 21
306.151
  0
LINE
  8
0
 10
18.9651
 20
306.151
 11
18.7979
 21
306.298
  0
LINE
  8
0
 10
18.7979
 20
306.298
 11
18.6513
 21
306.465
  0
LINE
  8
0
 10
18.6513
 20
306.465
 11
18.5278
 21
306.65
  0
LINE
  8
0
 10
18.5278
 20
306.65
 11
18.4294
 21
306.849
  0
LINE
  8
0
 10
18.4294
 20
306.849
 11
18.3579
 21
307.06
  0
LINE
  8
0
 10
18.3579
 20
307.06
 11
18.3145
 21
307.278
  0
LINE
  8
0
 10
18.3145
 20
307.278
 11
18.3
 21
307.5
  0
LINE
  8
0
 10
18.3
 20
307.5
 11
18.3145
 21
307.722
  0
LINE
  8
0
 10
18.3145
 20
307.722
 11
18.3579
 21
307.94
  0
LINE
  8
0
 10
18.3579
 20
307.94
 11
18.4294
 21
308.151
  0
LINE
  8
0
 10
18.4294
 20
308.151
 11
18.5278
 21
308.35
  0
LINE
  8
0
 10
18.5278
 20
308.35
 11
18.6513
 21
308.535
  0
LINE
  8
0
 10
18.6513
 20
308.535
 11
18.7979
 21
308.702
  0
LINE
  8
0
 10
18.7979
 20
308.702
 11
18.9651
 21
308.849
  0
LINE
  8
0
 10
18.9651
 20
308.849
 11
19.15
 21
308.972
  0
LINE
  8
0
 10
19.15
 20
308.972
 11
19.3494
 21
309.071
  0
LINE
  8
0
 10
19.3494
 20
309.071
 11
19.56
 21
309.142
  0
LINE
  8
0
 10
19.56
 20
309.142
 11
19.7781
 21
309.185
  0
LINE
  8
0
 10
19.7781
 20
309.185
 11
20
 21
309.2
  0
LINE
  8
0
 10
20
 20
309.2
 11
20.2219
 21
309.185
  0
LINE
  8
0
 10
20.2219
 20
309.185
 11
20.44
 21
309.142
  0
LINE
  8
0
 10
20.44
 20
309.142
 11
20.6506
 21
309.071
  0
LINE
  8
0
 10
20.6506
 20
309.071
 11
20.85
 21
308.972
  0
LINE
  8
0
 10
20.85
 20
308.972
 11
21.0349
 21
308.849
  0
LINE
  8
0
 10
21.0349
 20
308.849
 11
21.2021
 21
308.702
  0
LINE
  8
0
 10
21.2021
 20
308.702
 11
21.3487
 21
308.535
  0
LINE
  8
0
 10
21.3487
 20
308.535
 11
21.4722
 21
308.35
  0
LINE
  8
0
 10
21.4722
 20
308.35
 11
21.5706
 21
308.151
  0
LINE
  8
0
 10
21.5706
 20
308.151
 11
21.6421
 21
307.94
  0
LINE
  8
0
 10
21.6421
 20
307.94
 11
21.6855
 21
307.722
  0
LINE
  8
0
 10
21.6855
 20
307.722
 11
21.7
 21
307.5
  0
LINE
  8
0
 10
21.7
 20
307.5
 11
21.6855
 21
307.278
  0
LINE
  8
0
 10
21.6855
 20
307.278
 11
21.6421
 21
307.06
  0
LINE
  8
0
 10
21.6421
 20
307.06
 11
21.5706
 21
306.849
  0
LINE
  8
0
 10
21.5706
 20
306.849
 11
21.4722
 21
306.65
  0
LINE
  8
0
 10
21.4722
 20
306.65
 11
21.3487
 21
306.465
  0
LINE
  8
0
 10
21.3487
 20
306.465
 11
21.2021
 21
306.298
  0
LINE
  8
0
 10
21.2021
 20
306.298
 11
21.0349
 21
306.151
  0
LINE
  8
0
 10
21.0349
 20
306.151
 11
20.85
 21
306.028
  0
LINE
  8
0
 10
20.85
 20
306.028
 11
20.6506
 21
305.929
  0
LINE
  8
0
 10
20.6506
 20
305.929
 11
20.44
 21
305.858
  0
LINE
  8
0
 10
20.44
 20
305.858
 11
20.2219
 21
305.815
  0
LINE
  8
0
 10
20.2219
 20
305.815
 11
20
 21
305.8
  0
LINE
  8
0
 10
20
 20
305.8
 11
19.7781
 21
305.815
  0
LINE
  8
0
 10
38.5
 20
274
 11
38.5
 21
291
  0
LINE
  8
0
 10
38.5
 20
291
 11
55.5
 21
291
  0
LINE
  8
0
 10
55.5
 20
291
 11
55.5
 21
274
  0
LINE
  8
0
 10
55.5
 20
274
 11
38.5
 21
274
  0
LINE
  8
0
 10
167.778
 20
280.815
 11
167.56
 21
280.858
  0
LINE
  8
0
 10
167.56
 20
280.858
 11
167.349
 21
280.929
  0
LINE
  8
0
 10
167.349
 20
280.929
 11
167.15
 21
281.028
  0
LINE
  8
0
 10
167.15
 20
281.028
 11
166.965
 21
281.151
  0
LINE
  8
0
 10
166.965
 20
281.151
 11
166.798
 21
281.298
  0
LINE
  8
0
 10
166.798
 20
281.298
 11
166.651
 21
281.465
  0
LINE
  8
0
 10
166.651
 20
281.465
 11
166.528
 21
281.65
  0
LINE
  8
0
 10
166.528
 20
281.65
 11
166.429
 21
281.849
  0
LINE
  8
0
 10
166.429
 20
281.849
 11
166.358
 21
282.06
  0
LINE
  8
0
 10
166.358
 20
282.06
 11
166.315
 21
282.278
  0
LINE
  8
0
 10
166.315
 20
282.278
 11
166.3
 21
282.5
  0
LINE
  8
0
 10
166.3
 20
282.5
 11
166.315
 21
282.722
  0
LINE
  8
0
 10
166.315
 20
282.722
 11
166.358
 21
282.94
  0
LINE
  8
0
 10
166.358
 20
282.94
 11
166.429
 21
283.151
  0
LINE
  8
0
 10
166.429
 20
283.151
 11
166.528
 21
283.35
  0
LINE
  8
0
 10
166.528
 20
283.35
 11
166.651
 21
283.535
  0
LINE
  8
0
 10
166.651
 20
283.535
 11
166.798
 21
283.702
  0
LINE
  8
0
 10
166.798
 20
283.702
 11
166.965
 21
283.849
  0
LINE
  8
0
 10
166.965
 20
283.849
 11
167.15
 21
283.972
  0
LINE
  8
0
 10
167.15
 20
283.972
 11
167.349
 21
284.071
  0
LINE
  8
0
 10
167.349
 20
284.071
 11
167.56
 21
284.142
  0
LINE
  8
0
 10
167.56
 20
284.142
 11
167.778
 21
284.185
  0
LINE
  8
0
 10
167.778
 20
284.185
 11
168
 21
284.2
  0
LINE
  8
0
 10
168
 20
284.2
 11
168.222
 21
284.185
  0
LINE
  8
0
 10
168.222
 20
284.185
 11
168.44
 21
284.142
  0
LINE
  8
0
 10
168.44
 20
284.142
 11
168.651
 21
284.071
  0
LINE
  8
0
 10
168.651
 20
284.071
 11
168.85
 21
283.972
  0
LINE
  8
0
 10
168.85
 20
283.972
 11
169.035
 21
283.849
  0
LINE
  8
0
 10
169.035
 20
283.849
 11
169.202
 21
283.702
  0
LINE
  8
0
 10
169.202
 20
283.702
 11
169.349
 21
283.535
  0
LINE
  8
0
 10
169.349
 20
283.535
 11
169.472
 21
283.35
  0
LINE
  8
0
 10
169.472
 20
283.35
 11
169.571
 21
283.151
  0
LINE
  8
0
 10
169.571
 20
283.151
 11
169.642
 21
282.94
  0
LINE
  8
0
 10
169.642
 20
282.94
 11
169.685
 21
282.722
  0
LINE
  8
0
 10
169.685
 20
282.722
 11
169.7
 21
282.5
  0
LINE
  8
0
 10
169.7
 20
282.5
 11
169.685
 21
282.278
  0
LINE
  8
0
 10
169.685
 20
282.278
 11
169.642
 21
282.06
  0
LINE
  8
0
 10
169.642
 20
282.06
 11
169.571
 21
281.849
  0
LINE
  8
0
 10
169.571
 20
281.849
 11
169.472
 21
281.65
  0
LINE
  8
0
 10
169.472
 20
281.65
 11
169.349
 21
281.465
  0
LINE
  8
0
 10
169.349
 20
281.465
 11
169.202
 21
281.298
  0
LINE
  8
0
 10
169.202
 20
281.298
 11
169.035
 21
281.151
  0
LINE
  8
0
 10
169.035
 20
281.151
 11
168.85
 21
281.028
  0
LINE
  8
0
 10
168.85
 20
281.028
 11
168.651
 21
280.929
  0
LINE
  8
0
 10
168.651
 20
280.929
 11
168.44
 21
280.858
  0
LINE
  8
0
 10
168.44
 20
280.858
 11
168.222
 21
280.815
  0
LINE
  8
0
 10
168.222
 20
280.815
 11
168
 21
280.8
  0
LINE
  8
0
 10
168
 20
280.8
 11
167.778
 21
280.815
  0
LINE
  8
0
 10
13.7781
 20
280.815
 11
13.56
 21
280.858
  0
LINE
  8
0
 10
13.56
 20
280.858
 11
13.3494
 21
280.929
  0
LINE
  8
0
 10
13.3494
 20
280.929
 11
13.15
 21
281.028
  0
LINE
  8
0
 10
13.15
 20
281.028
 11
12.9651
 21
281.151
  0
LINE
  8
0
 10
12.9651
 20
281.151
 11
12.7979
 21
281.298
  0
LINE
  8
0
 10
12.7979
 20
281.298
 11
12.6513
 21
281.465
  0
LINE
  8
0
 10
12.6513
 20
281.465
 11
12.5278
 21
281.65
  0
LINE
  8
0
 10
12.5278
 20
281.65
 11
12.4294
 21
281.849
  0
LINE
  8
0
 10
12.4294
 20
281.849
 11
12.3579
 21
282.06
  0
LINE
  8
0
 10
12.3579
 20
282.06
 11
12.3145
 21
282.278
  0
LINE
  8
0
 10
12.3145
 20
282.278
 11
12.3
 21
282.5
  0
LINE
  8
0
 10
12.3
 20
282.5
 11
12.3145
 21
282.722
  0
LINE
  8
0
 10
12.3145
 20
282.722
 11
12.3579
 21
282.94
  0
LINE
  8
0
 10
12.3579
 20
282.94
 11
12.4294
 21
283.151
  0
LINE
  8
0
 10
12.4294
 20
283.151
 11
12.5278
 21
283.35
  0
LINE
  8
0
 10
12.5278
 20
283.35
 11
12.6513
 21
283.535
  0
LINE
  8
0
 10
12.6513
 20
283.535
 11
12.7979
 21
283.702
  0
LINE
  8
0
 10
12.7979
 20
283.702
 11
12.9651
 21
283.849
  0
LINE
  8
0
 10
12.9651
 20
283.849
 11
13.15
 21
283.972
  0
LINE
  8
0
 10
13.15
 20
283.972
 11
13.3494
 21
284.071
  0
LINE
  8
0
 10
13.3494
 20
284.071
 11
13.56
 21
284.142
  0
LINE
  8
0
 10
13.56
 20
284.142
 11
13.7781
 21
284.185
  0
LINE
  8
0
 10
13.7781
 20
284.185
 11
14
 21
284.2
  0
LINE
  8
0
 10
14
 20
284.2
 11
14.2219
 21
284.185
  0
LINE
  8
0
 10
14.2219
 20
284.185
 11
14.44
 21
284.142
  0
LINE
  8
0
 10
14.44
 20
284.142
 11
14.6506
 21
284.071
  0
LINE
  8
0
 10
14.6506
 20
284.071
 11
14.85
 21
283.972
  0
LINE
  8
0
 10
14.85
 20
283.972
 11
15.0349
 21
283.849
  0
LINE
  8
0
 10
15.0349
 20
283.849
 11
15.2021
 21
283.702
  0
LINE
  8
0
 10
15.2021
 20
283.702
 11
15.3487
 21
283.535
  0
LINE
  8
0
 10
15.3487
 20
283.535
 11
15.4722
 21
283.35
  0
LINE
  8
0
 10
15.4722
 20
283.35
 11
15.5706
 21
283.151
  0
LINE
  8
0
 10
15.5706
 20
283.151
 11
15.6421
 21
282.94
  0
LINE
  8
0
 10
15.6421
 20
282.94
 11
15.6855
 21
282.722
  0
LINE
  8
0
 10
15.6855
 20
282.722
 11
15.7
 21
282.5
  0
LINE
  8
0
 10
15.7
 20
282.5
 11
15.6855
 21
282.278
  0
LINE
  8
0
 10
15.6855
 20
282.278
 11
15.6421
 21
282.06
  0
LINE
  8
0
 10
15.6421
 20
282.06
 11
15.5706
 21
281.849
  0
LINE
  8
0
 10
15.5706
 20
281.849
 11
15.4722
 21
281.65
  0
LINE
  8
0
 10
15.4722
 20
281.65
 11
15.3487
 21
281.465
  0
LINE
  8
0
 10
15.3487
 20
281.465
 11
15.2021
 21
281.298
  0
LINE
  8
0
 10
15.2021
 20
281.298
 11
15.0349
 21
281.151
  0
LINE
  8
0
 10
15.0349
 20
281.151
 11
14.85
 21
281.028
  0
LINE
  8
0
 10
14.85
 20
281.028
 11
14.6506
 21
280.929
  0
LINE
  8
0
 10
14.6506
 20
280.929
 11
14.44
 21
280.858
  0
LINE
  8
0
 10
14.44
 20
280.858
 11
14.2219
 21
280.815
  0
LINE
  8
0
 10
14.2219
 20
280.815
 11
14
 21
280.8
  0
LINE
  8
0
 10
14
 20
280.8
 11
13.7781
 21
280.815
  0
LINE
  8
0
 10
100.1
 20
249
 11
100.1
 21
266
  0
LINE
  8
0
 10
100.1
 20
266
 11
117.1
 21
266
  0
LINE
  8
0
 10
117.1
 20
266
 11
117.1
 21
249
  0
LINE
  8
0
 10
117.1
 20
249
 11
100.1
 21
249
  0
LINE
  8
0
 10
145.778
 20
255.815
 11
145.56
 21
255.858
  0
LINE
  8
0
 10
145.56
 20
255.858
 11
145.349
 21
255.929
  0
LINE
  8
0
 10
145.349
 20
255.929
 11
145.15
 21
256.028
  0
LINE
  8
0
 10
145.15
 20
256.028
 11
144.965
 21
256.151
  0
LINE
  8
0
 10
144.965
 20
256.151
 11
144.798
 21
256.298
  0
LINE
  8
0
 10
144.798
 20
256.298
 11
144.651
 21
256.465
  0
LINE
  8
0
 10
144.651
 20
256.465
 11
144.528
 21
256.65
  0
LINE
  8
0
 10
144.528
 20
256.65
 11
144.429
 21
256.849
  0
LINE
  8
0
 10
144.429
 20
256.849
 11
144.358
 21
257.06
  0
LINE
  8
0
 10
144.358
 20
257.06
 11
144.315
 21
257.278
  0
LINE
  8
0
 10
144.315
 20
257.278
 11
144.3
 21
257.5
  0
LINE
  8
0
 10
144.3
 20
257.5
 11
144.315
 21
257.722
  0
LINE
  8
0
 10
144.315
 20
257.722
 11
144.358
 21
257.94
  0
LINE
  8
0
 10
144.358
 20
257.94
 11
144.429
 21
258.151
  0
LINE
  8
0
 10
144.429
 20
258.151
 11
144.528
 21
258.35
  0
LINE
  8
0
 10
144.528
 20
258.35
 11
144.651
 21
258.535
  0
LINE
  8
0
 10
144.651
 20
258.535
 11
144.798
 21
258.702
  0
LINE
  8
0
 10
144.798
 20
258.702
 11
144.965
 21
258.849
  0
LINE
  8
0
 10
144.965
 20
258.849
 11
145.15
 21
258.972
  0
LINE
  8
0
 10
145.15
 20
258.972
 11
145.349
 21
259.071
  0
LINE
  8
0
 10
145.349
 20
259.071
 11
145.56
 21
259.142
  0
LINE
  8
0
 10
145.56
 20
259.142
 11
145.778
 21
259.185
  0
LINE
  8
0
 10
145.778
 20
259.185
 11
146
 21
259.2
  0
LINE
  8
0
 10
146
 20
259.2
 11
146.222
 21
259.185
  0
LINE
  8
0
 10
146.222
 20
259.185
 11
146.44
 21
259.142
  0
LINE
  8
0
 10
146.44
 20
259.142
 11
146.651
 21
259.071
  0
LINE
  8
0
 10
146.651
 20
259.071
 11
146.85
 21
258.972
  0
LINE
  8
0
 10
146.85
 20
258.972
 11
147.035
 21
258.849
  0
LINE
  8
0
 10
147.035
 20
258.849
 11
147.202
 21
258.702
  0
LINE
  8
0
 10
147.202
 20
258.702
 11
147.349
 21
258.535
  0
LINE
  8
0
 10
147.349
 20
258.535
 11
147.472
 21
258.35
  0
LINE
  8
0
 10
147.472
 20
258.35
 11
147.571
 21
258.151
  0
LINE
  8
0
 10
147.571
 20
258.151
 11
147.642
 21
257.94
  0
LINE
  8
0
 10
147.642
 20
257.94
 11
147.685
 21
257.722
  0
LINE
  8
0
 10
147.685
 20
257.722
 11
147.7
 21
257.5
  0
LINE
  8
0
 10
147.7
 20
257.5
 11
147.685
 21
257.278
  0
LINE
  8
0
 10
147.685
 20
257.278
 11
147.642
 21
257.06
  0
LINE
  8
0
 10
147.642
 20
257.06
 11
147.571
 21
256.849
  0
LINE
  8
0
 10
147.571
 20
256.849
 11
147.472
 21
256.65
  0
LINE
  8
0
 10
147.472
 20
256.65
 11
147.349
 21
256.465
  0
LINE
  8
0
 10
147.349
 20
256.465
 11
147.202
 21
256.298
  0
LINE
  8
0
 10
147.202
 20
256.298
 11
147.035
 21
256.151
  0
LINE
  8
0
 10
147.035
 20
256.151
 11
146.85
 21
256.028
  0
LINE
  8
0
 10
146.85
 20
256.028
 11
146.651
 21
255.929
  0
LINE
  8
0
 10
146.651
 20
255.929
 11
146.44
 21
255.858
  0
LINE
  8
0
 10
146.44
 20
255.858
 11
146.222
 21
255.815
  0
LINE
  8
0
 10
146.222
 20
255.815
 11
146
 21
255.8
  0
LINE
  8
0
 10
146
 20
255.8
 11
145.778
 21
255.815
  0
LINE
  8
0
 10
19.7781
 20
255.815
 11
19.56
 21
255.858
  0
LINE
  8
0
 10
19.56
 20
255.858
 11
19.3494
 21
255.929
  0
LINE
  8
0
 10
19.3494
 20
255.929
 11
19.15
 21
256.028
  0
LINE
  8
0
 10
19.15
 20
256.028
 11
18.9651
 21
256.151
  0
LINE
  8
0
 10
18.9651
 20
256.151
 11
18.7979
 21
256.298
  0
LINE
  8
0
 10
18.7979
 20
256.298
 11
18.6513
 21
256.465
  0
LINE
  8
0
 10
18.6513
 20
256.465
 11
18.5278
 21
256.65
  0
LINE
  8
0
 10
18.5278
 20
256.65
 11
18.4294
 21
256.849
  0
LINE
  8
0
 10
18.4294
 20
256.849
 11
18.3579
 21
257.06
  0
LINE
  8
0
 10
18.3579
 20
257.06
 11
18.3145
 21
257.278
  0
LINE
  8
0
 10
18.3145
 20
257.278
 11
18.3
 21
257.5
  0
LINE
  8
0
 10
18.3
 20
257.5
 11
18.3145
 21
257.722
  0
LINE
  8
0
 10
18.3145
 20
257.722
 11
18.3579
 21
257.94
  0
LINE
  8
0
 10
18.3579
 20
257.94
 11
18.4294
 21
258.151
  0
LINE
  8
0
 10
18.4294
 20
258.151
 11
18.5278
 21
258.35
  0
LINE
  8
0
 10
18.5278
 20
258.35
 11
18.6513
 21
258.535
  0
LINE
  8
0
 10
18.6513
 20
258.535
 11
18.7979
 21
258.702
  0
LINE
  8
0
 10
18.7979
 20
258.702
 11
18.9651
 21
258.849
  0
LINE
  8
0
 10
18.9651
 20
258.849
 11
19.15
 21
258.972
  0
LINE
  8
0
 10
19.15
 20
258.972
 11
19.3494
 21
259.071
  0
LINE
  8
0
 10
19.3494
 20
259.071
 11
19.56
 21
259.142
  0
LINE
  8
0
 10
19.56
 20
259.142
 11
19.7781
 21
259.185
  0
LINE
  8
0
 10
19.7781
 20
259.185
 11
20
 21
259.2
  0
LINE
  8
0
 10
20
 20
259.2
 11
20.2219
 21
259.185
  0
LINE
  8
0
 10
20.2219
 20
259.185
 11
20.44
 21
259.142
  0
LINE
  8
0
 10
20.44
 20
259.142
 11
20.6506
 21
259.071
  0
LINE
  8
0
 10
20.6506
 20
259.071
 11
20.85
 21
258.972
  0
LINE
  8
0
 10
20.85
 20
258.972
 11
21.0349
 21
258.849
  0
LINE
  8
0
 10
21.0349
 20
258.849
 11
21.2021
 21
258.702
  0
LINE
  8
0
 10
21.2021
 20
258.702
 11
21.3487
 21
258.535
  0
LINE
  8
0
 10
21.3487
 20
258.535
 11
21.4722
 21
258.35
  0
LINE
  8
0
 10
21.4722
 20
258.35
 11
21.5706
 21
258.151
  0
LINE
  8
0
 10
21.5706
 20
258.151
 11
21.6421
 21
257.94
  0
LINE
  8
0
 10
21.6421
 20
257.94
 11
21.6855
 21
257.722
  0
LINE
  8
0
 10
21.6855
 20
257.722
 11
21.7
 21
257.5
  0
LINE
  8
0
 10
21.7
 20
257.5
 11
21.6855
 21
257.278
  0
LINE
  8
0
 10
21.6855
 20
257.278
 11
21.6421
 21
257.06
  0
LINE
  8
0
 10
21.6421
 20
257.06
 11
21.5706
 21
256.849
  0
LINE
  8
0
 10
21.5706
 20
256.849
 11
21.4722
 21
256.65
  0
LINE
  8
0
 10
21.4722
 20
256.65
 11
21.3487
 21
256.465
  0
LINE
  8
0
 10
21.3487
 20
256.465
 11
21.2021
 21
256.298
  0
LINE
  8
0
 10
21.2021
 20
256.298
 11
21.0349
 21
256.151
  0
LINE
  8
0
 10
21.0349
 20
256.151
 11
20.85
 21
256.028
  0
LINE
  8
0
 10
20.85
 20
256.028
 11
20.6506
 21
255.929
  0
LINE
  8
0
 10
20.6506
 20
255.929
 11
20.44
 21
255.858
  0
LINE
  8
0
 10
20.44
 20
255.858
 11
20.2219
 21
255.815
  0
LINE
  8
0
 10
20.2219
 20
255.815
 11
20
 21
255.8
  0
LINE
  8
0
 10
20
 20
255.8
 11
19.7781
 21
255.815
  0
LINE
  8
0
 10
46.7781
 20
255.815
 11
46.56
 21
255.858
  0
LINE
  8
0
 10
46.56
 20
255.858
 11
46.3494
 21
255.929
  0
LINE
  8
0
 10
46.3494
 20
255.929
 11
46.15
 21
256.028
  0
LINE
  8
0
 10
46.15
 20
256.028
 11
45.9651
 21
256.151
  0
LINE
  8
0
 10
45.9651
 20
256.151
 11
45.7979
 21
256.298
  0
LINE
  8
0
 10
45.7979
 20
256.298
 11
45.6513
 21
256.465
  0
LINE
  8
0
 10
45.6513
 20
256.465
 11
45.5278
 21
256.65
  0
LINE
  8
0
 10
45.5278
 20
256.65
 11
45.4294
 21
256.849
  0
LINE
  8
0
 10
45.4294
 20
256.849
 11
45.3579
 21
257.06
  0
LINE
  8
0
 10
45.3579
 20
257.06
 11
45.3145
 21
257.278
  0
LINE
  8
0
 10
45.3145
 20
257.278
 11
45.3
 21
257.5
  0
LINE
  8
0
 10
45.3
 20
257.5
 11
45.3145
 21
257.722
  0
LINE
  8
0
 10
45.3145
 20
257.722
 11
45.3579
 21
257.94
  0
LINE
  8
0
 10
45.3579
 20
257.94
 11
45.4294
 21
258.151
  0
LINE
  8
0
 10
45.4294
 20
258.151
 11
45.5278
 21
258.35
  0
LINE
  8
0
 10
45.5278
 20
258.35
 11
45.6513
 21
258.535
  0
LINE
  8
0
 10
45.6513
 20
258.535
 11
45.7979
 21
258.702
  0
LINE
  8
0
 10
45.7979
 20
258.702
 11
45.9651
 21
258.849
  0
LINE
  8
0
 10
45.9651
 20
258.849
 11
46.15
 21
258.972
  0
LINE
  8
0
 10
46.15
 20
258.972
 11
46.3494
 21
259.071
  0
LINE
  8
0
 10
46.3494
 20
259.071
 11
46.56
 21
259.142
  0
LINE
  8
0
 10
46.56
 20
259.142
 11
46.7781
 21
259.185
  0
LINE
  8
0
 10
46.7781
 20
259.185
 11
47
 21
259.2
  0
LINE
  8
0
 10
47
 20
259.2
 11
47.2219
 21
259.185
  0
LINE
  8
0
 10
47.2219
 20
259.185
 11
47.44
 21
259.142
  0
LINE
  8
0
 10
47.44
 20
259.142
 11
47.6506
 21
259.071
  0
LINE
  8
0
 10
47.6506
 20
259.071
 11
47.85
 21
258.972
  0
LINE
  8
0
 10
47.85
 20
258.972
 11
48.0349
 21
258.849
  0
LINE
  8
0
 10
48.0349
 20
258.849
 11
48.2021
 21
258.702
  0
LINE
  8
0
 10
48.2021
 20
258.702
 11
48.3487
 21
258.535
  0
LINE
  8
0
 10
48.3487
 20
258.535
 11
48.4722
 21
258.35
  0
LINE
  8
0
 10
48.4722
 20
258.35
 11
48.5706
 21
258.151
  0
LINE
  8
0
 10
48.5706
 20
258.151
 11
48.6421
 21
257.94
  0
LINE
  8
0
 10
48.6421
 20
257.94
 11
48.6855
 21
257.722
  0
LINE
  8
0
 10
48.6855
 20
257.722
 11
48.7
 21
257.5
  0
LINE
  8
0
 10
48.7
 20
257.5
 11
48.6855
 21
257.278
  0
LINE
  8
0
 10
48.6855
 20
257.278
 11
48.6421
 21
257.06
  0
LINE
  8
0
 10
48.6421
 20
257.06
 11
48.5706
 21
256.849
  0
LINE
  8
0
 10
48.5706
 20
256.849
 11
48.4722
 21
256.65
  0
LINE
  8
0
 10
48.4722
 20
256.65
 11
48.3487
 21
256.465
  0
LINE
  8
0
 10
48.3487
 20
256.465
 11
48.2021
 21
256.298
  0
LINE
  8
0
 10
48.2021
 20
256.298
 11
48.0349
 21
256.151
  0
LINE
  8
0
 10
48.0349
 20
256.151
 11
47.85
 21
256.028
  0
LINE
  8
0
 10
47.85
 20
256.028
 11
47.6506
 21
255.929
  0
LINE
  8
0
 10
47.6506
 20
255.929
 11
47.44
 21
255.858
  0
LINE
  8
0
 10
47.44
 20
255.858
 11
47.2219
 21
255.815
  0
LINE
  8
0
 10
47.2219
 20
255.815
 11
47
 21
255.8
  0
LINE
  8
0
 10
47
 20
255.8
 11
46.7781
 21
255.815
  0
LINE
  8
0
 10
155.778
 20
255.815
 11
155.56
 21
255.858
  0
LINE
  8
0
 10
155.56
 20
255.858
 11
155.349
 21
255.929
  0
LINE
  8
0
 10
155.349
 20
255.929
 11
155.15
 21
256.028
  0
LINE
  8
0
 10
155.15
 20
256.028
 11
154.965
 21
256.151
  0
LINE
  8
0
 10
154.965
 20
256.151
 11
154.798
 21
256.298
  0
LINE
  8
0
 10
154.798
 20
256.298
 11
154.651
 21
256.465
  0
LINE
  8
0
 10
154.651
 20
256.465
 11
154.528
 21
256.65
  0
LINE
  8
0
 10
154.528
 20
256.65
 11
154.429
 21
256.849
  0
LINE
  8
0
 10
154.429
 20
256.849
 11
154.358
 21
257.06
  0
LINE
  8
0
 10
154.358
 20
257.06
 11
154.315
 21
257.278
  0
LINE
  8
0
 10
154.315
 20
257.278
 11
154.3
 21
257.5
  0
LINE
  8
0
 10
154.3
 20
257.5
 11
154.315
 21
257.722
  0
LINE
  8
0
 10
154.315
 20
257.722
 11
154.358
 21
257.94
  0
LINE
  8
0
 10
154.358
 20
257.94
 11
154.429
 21
258.151
  0
LINE
  8
0
 10
154.429
 20
258.151
 11
154.528
 21
258.35
  0
LINE
  8
0
 10
154.528
 20
258.35
 11
154.651
 21
258.535
  0
LINE
  8
0
 10
154.651
 20
258.535
 11
154.798
 21
258.702
  0
LINE
  8
0
 10
154.798
 20
258.702
 11
154.965
 21
258.849
  0
LINE
  8
0
 10
154.965
 20
258.849
 11
155.15
 21
258.972
  0
LINE
  8
0
 10
155.15
 20
258.972
 11
155.349
 21
259.071
  0
LINE
  8
0
 10
155.349
 20
259.071
 11
155.56
 21
259.142
  0
LINE
  8
0
 10
155.56
 20
259.142
 11
155.778
 21
259.185
  0
LINE
  8
0
 10
155.778
 20
259.185
 11
156
 21
259.2
  0
LINE
  8
0
 10
156
 20
259.2
 11
156.222
 21
259.185
  0
LINE
  8
0
 10
156.222
 20
259.185
 11
156.44
 21
259.142
  0
LINE
  8
0
 10
156.44
 20
259.142
 11
156.651
 21
259.071
  0
LINE
  8
0
 10
156.651
 20
259.071
 11
156.85
 21
258.972
  0
LINE
  8
0
 10
156.85
 20
258.972
 11
157.035
 21
258.849
  0
LINE
  8
0
 10
157.035
 20
258.849
 11
157.202
 21
258.702
  0
LINE
  8
0
 10
157.202
 20
258.702
 11
157.349
 21
258.535
  0
LINE
  8
0
 10
157.349
 20
258.535
 11
157.472
 21
258.35
  0
LINE
  8
0
 10
157.472
 20
258.35
 11
157.571
 21
258.151
  0
LINE
  8
0
 10
157.571
 20
258.151
 11
157.642
 21
257.94
  0
LINE
  8
0
 10
157.642
 20
257.94
 11
157.685
 21
257.722
  0
LINE
  8
0
 10
157.685
 20
257.722
 11
157.7
 21
257.5
  0
LINE
  8
0
 10
157.7
 20
257.5
 11
157.685
 21
257.278
  0
LINE
  8
0
 10
157.685
 20
257.278
 11
157.642
 21
257.06
  0
LINE
  8
0
 10
157.642
 20
257.06
 11
157.571
 21
256.849
  0
LINE
  8
0
 10
157.571
 20
256.849
 11
157.472
 21
256.65
  0
LINE
  8
0
 10
157.472
 20
256.65
 11
157.349
 21
256.465
  0
LINE
  8
0
 10
157.349
 20
256.465
 11
157.202
 21
256.298
  0
LINE
  8
0
 10
157.202
 20
256.298
 11
157.035
 21
256.151
  0
LINE
  8
0
 10
157.035
 20
256.151
 11
156.85
 21
256.028
  0
LINE
  8
0
 10
156.85
 20
256.028
 11
156.651
 21
255.929
  0
LINE
  8
0
 10
156.651
 20
255.929
 11
156.44
 21
255.858
  0
LINE
  8
0
 10
156.44
 20
255.858
 11
156.222
 21
255.815
  0
LINE
  8
0
 10
156.222
 20
255.815
 11
156
 21
255.8
  0
LINE
  8
0
 10
156
 20
255.8
 11
155.778
 21
255.815
  0
LINE
  8
0
 10
38.5
 20
224
 11
38.5
 21
241
  0
LINE
  8
0
 10
38.5
 20
241
 11
55.5
 21
241
  0
LINE
  8
0
 10
55.5
 20
241
 11
55.5
 21
224
  0
LINE
  8
0
 10
55.5
 20
224
 11
38.5
 21
224
  0
LINE
  8
0
 10
100.1
 20
199
 11
100.1
 21
216
  0
LINE
  8
0
 10
100.1
 20
216
 11
117.1
 21
216
  0
LINE
  8
0
 10
117.1
 20
216
 11
117.1
 21
199
  0
LINE
  8
0
 10
117.1
 20
199
 11
100.1
 21
199
  0
LINE
  8
0
 10
19.7781
 20
205.815
 11
19.56
 21
205.858
  0
LINE
  8
0
 10
19.56
 20
205.858
 11
19.3494
 21
205.929
  0
LINE
  8
0
 10
19.3494
 20
205.929
 11
19.15
 21
206.028
  0
LINE
  8
0
 10
19.15
 20
206.028
 11
18.9651
 21
206.151
  0
LINE
  8
0
 10
18.9651
 20
206.151
 11
18.7979
 21
206.298
  0
LINE
  8
0
 10
18.7979
 20
206.298
 11
18.6513
 21
206.465
  0
LINE
  8
0
 10
18.6513
 20
206.465
 11
18.5278
 21
206.65
  0
LINE
  8
0
 10
18.5278
 20
206.65
 11
18.4294
 21
206.849
  0
LINE
  8
0
 10
18.4294
 20
206.849
 11
18.3579
 21
207.06
  0
LINE
  8
0
 10
18.3579
 20
207.06
 11
18.3145
 21
207.278
  0
LINE
  8
0
 10
18.3145
 20
207.278
 11
18.3
 21
207.5
  0
LINE
  8
0
 10
18.3
 20
207.5
 11
18.3145
 21
207.722
  0
LINE
  8
0
 10
18.3145
 20
207.722
 11
18.3579
 21
207.94
  0
LINE
  8
0
 10
18.3579
 20
207.94
 11
18.4294
 21
208.151
  0
LINE
  8
0
 10
18.4294
 20
208.151
 11
18.5278
 21
208.35
  0
LINE
  8
0
 10
18.5278
 20
208.35
 11
18.6513
 21
208.535
  0
LINE
  8
0
 10
18.6513
 20
208.535
 11
18.7979
 21
208.702
  0
LINE
  8
0
 10
18.7979
 20
208.702
 11
18.9651
 21
208.849
  0
LINE
  8
0
 10
18.9651
 20
208.849
 11
19.15
 21
208.972
  0
LINE
  8
0
 10
19.15
 20
208.972
 11
19.3494
 21
209.071
  0
LINE
  8
0
 10
19.3494
 20
209.071
 11
19.56
 21
209.142
  0
LINE
  8
0
 10
19.56
 20
209.142
 11
19.7781
 21
209.185
  0
LINE
  8
0
 10
19.7781
 20
209.185
 11
20
 21
209.2
  0
LINE
  8
0
 10
20
 20
209.2
 11
20.2219
 21
209.185
  0
LINE
  8
0
 10
20.2219
 20
209.185
 11
20.44
 21
209.142
  0
LINE
  8
0
 10
20.44
 20
209.142
 11
20.6506
 21
209.071
  0
LINE
  8
0
 10
20.6506
 20
209.071
 11
20.85
 21
208.972
  0
LINE
  8
0
 10
20.85
 20
208.972
 11
21.0349
 21
208.849
  0
LINE
  8
0
 10
21.0349
 20
208.849
 11
21.2021
 21
208.702
  0
LINE
  8
0
 10
21.2021
 20
208.702
 11
21.3487
 21
208.535
  0
LINE
  8
0
 10
21.3487
 20
208.535
 11
21.4722
 21
208.35
  0
LINE
  8
0
 10
21.4722
 20
208.35
 11
21.5706
 21
208.151
  0
LINE
  8
0
 10
21.5706
 20
208.151
 11
21.6421
 21
207.94
  0
LINE
  8
0
 10
21.6421
 20
207.94
 11
21.6855
 21
207.722
  0
LINE
  8
0
 10
21.6855
 20
207.722
 11
21.7
 21
207.5
  0
LINE
  8
0
 10
21.7
 20
207.5
 11
21.6855
 21
207.278
  0
LINE
  8
0
 10
21.6855
 20
207.278
 11
21.6421
 21
207.06
  0
LINE
  8
0
 10
21.6421
 20
207.06
 11
21.5706
 21
206.849
  0
LINE
  8
0
 10
21.5706
 20
206.849
 11
21.4722
 21
206.65
  0
LINE
  8
0
 10
21.4722
 20
206.65
 11
21.3487
 21
206.465
  0
LINE
  8
0
 10
21.3487
 20
206.465
 11
21.2021
 21
206.298
  0
LINE
  8
0
 10
21.2021
 20
206.298
 11
21.0349
 21
206.151
  0
LINE
  8
0
 10
21.0349
 20
206.151
 11
20.85
 21
206.028
  0
LINE
  8
0
 10
20.85
 20
206.028
 11
20.6506
 21
205.929
  0
LINE
  8
0
 10
20.6506
 20
205.929
 11
20.44
 21
205.858
  0
LINE
  8
0
 10
20.44
 20
205.858
 11
20.2219
 21
205.815
  0
LINE
  8
0
 10
20.2219
 20
205.815
 11
20
 21
205.8
  0
LINE
  8
0
 10
20
 20
205.8
 11
19.7781
 21
205.815
  0
LINE
  8
0
 10
46.7781
 20
205.815
 11
46.56
 21
205.858
  0
LINE
  8
0
 10
46.56
 20
205.858
 11
46.3494
 21
205.929
  0
LINE
  8
0
 10
46.3494
 20
205.929
 11
46.15
 21
206.028
  0
LINE
  8
0
 10
46.15
 20
206.028
 11
45.9651
 21
206.151
  0
LINE
  8
0
 10
45.9651
 20
206.151
 11
45.7979
 21
206.298
  0
LINE
  8
0
 10
45.7979
 20
206.298
 11
45.6513
 21
206.465
  0
LINE
  8
0
 10
45.6513
 20
206.465
 11
45.5278
 21
206.65
  0
LINE
  8
0
 10
45.5278
 20
206.65
 11
45.4294
 21
206.849
  0
LINE
  8
0
 10
45.4294
 20
206.849
 11
45.3579
 21
207.06
  0
LINE
  8
0
 10
45.3579
 20
207.06
 11
45.3145
 21
207.278
  0
LINE
  8
0
 10
45.3145
 20
207.278
 11
45.3
 21
207.5
  0
LINE
  8
0
 10
45.3
 20
207.5
 11
45.3145
 21
207.722
  0
LINE
  8
0
 10
45.3145
 20
207.722
 11
45.3579
 21
207.94
  0
LINE
  8
0
 10
45.3579
 20
207.94
 11
45.4294
 21
208.151
  0
LINE
  8
0
 10
45.4294
 20
208.151
 11
45.5278
 21
208.35
  0
LINE
  8
0
 10
45.5278
 20
208.35
 11
45.6513
 21
208.535
  0
LINE
  8
0
 10
45.6513
 20
208.535
 11
45.7979
 21
208.702
  0
LINE
  8
0
 10
45.7979
 20
208.702
 11
45.9651
 21
208.849
  0
LINE
  8
0
 10
45.9651
 20
208.849
 11
46.15
 21
208.972
  0
LINE
  8
0
 10
46.15
 20
208.972
 11
46.3494
 21
209.071
  0
LINE
  8
0
 10
46.3494
 20
209.071
 11
46.56
 21
209.142
  0
LINE
  8
0
 10
46.56
 20
209.142
 11
46.7781
 21
209.185
  0
LINE
  8
0
 10
46.7781
 20
209.185
 11
47
 21
209.2
  0
LINE
  8
0
 10
47
 20
209.2
 11
47.2219
 21
209.185
  0
LINE
  8
0
 10
47.2219
 20
209.185
 11
47.44
 21
209.142
  0
LINE
  8
0
 10
47.44
 20
209.142
 11
47.6506
 21
209.071
  0
LINE
  8
0
 10
47.6506
 20
209.071
 11
47.85
 21
208.972
  0
LINE
  8
0
 10
47.85
 20
208.972
 11
48.0349
 21
208.849
  0
LINE
  8
0
 10
48.0349
 20
208.849
 11
48.2021
 21
208.702
  0
LINE
  8
0
 10
48.2021
 20
208.702
 11
48.3487
 21
208.535
  0
LINE
  8
0
 10
48.3487
 20
208.535
 11
48.4722
 21
208.35
  0
LINE
  8
0
 10
48.4722
 20
208.35
 11
48.5706
 21
208.151
  0
LINE
  8
0
 10
48.5706
 20
208.151
 11
48.6421
 21
207.94
  0
LINE
  8
0
 10
48.6421
 20
207.94
 11
48.6855
 21
207.722
  0
LINE
  8
0
 10
48.6855
 20
207.722
 11
48.7
 21
207.5
  0
LINE
  8
0
 10
48.7
 20
207.5
 11
48.6855
 21
207.278
  0
LINE
  8
0
 10
48.6855
 20
207.278
 11
48.6421
 21
207.06
  0
LINE
  8
0
 10
48.6421
 20
207.06
 11
48.5706
 21
206.849
  0
LINE
  8
0
 10
48.5706
 20
206.849
 11
48.4722
 21
206.65
  0
LINE
  8
0
 10
48.4722
 20
206.65
 11
48.3487
 21
206.465
  0
LINE
  8
0
 10
48.3487
 20
206.465
 11
48.2021
 21
206.298
  0
LINE
  8
0
 10
48.2021
 20
206.298
 11
48.0349
 21
206.151
  0
LINE
  8
0
 10
48.0349
 20
206.151
 11
47.85
 21
206.028
  0
LINE
  8
0
 10
47.85
 20
206.028
 11
47.6506
 21
205.929
  0
LINE
  8
0
 10
47.6506
 20
205.929
 11
47.44
 21
205.858
  0
LINE
  8
0
 10
47.44
 20
205.858
 11
47.2219
 21
205.815
  0
LINE
  8
0
 10
47.2219
 20
205.815
 11
47
 21
205.8
  0
LINE
  8
0
 10
47
 20
205.8
 11
46.7781
 21
205.815
  0
LINE
  8
0
 10
155.778
 20
205.815
 11
155.56
 21
205.858
  0
LINE
  8
0
 10
155.56
 20
205.858
 11
155.349
 21
205.929
  0
LINE
  8
0
 10
155.349
 20
205.929
 11
155.15
 21
206.028
  0
LINE
  8
0
 10
155.15
 20
206.028
 11
154.965
 21
206.151
  0
LINE
  8
0
 10
154.965
 20
206.151
 11
154.798
 21
206.298
  0
LINE
  8
0
 10
154.798
 20
206.298
 11
154.651
 21
206.465
  0
LINE
  8
0
 10
154.651
 20
206.465
 11
154.528
 21
206.65
  0
LINE
  8
0
 10
154.528
 20
206.65
 11
154.429
 21
206.849
  0
LINE
  8
0
 10
154.429
 20
206.849
 11
154.358
 21
207.06
  0
LINE
  8
0
 10
154.358
 20
207.06
 11
154.315
 21
207.278
  0
LINE
  8
0
 10
154.315
 20
207.278
 11
154.3
 21
207.5
  0
LINE
  8
0
 10
154.3
 20
207.5
 11
154.315
 21
207.722
  0
LINE
  8
0
 10
154.315
 20
207.722
 11
154.358
 21
207.94
  0
LINE
  8
0
 10
154.358
 20
207.94
 11
154.429
 21
208.151
  0
LINE
  8
0
 10
154.429
 20
208.151
 11
154.528
 21
208.35
  0
LINE
  8
0
 10
154.528
 20
208.35
 11
154.651
 21
208.535
  0
LINE
  8
0
 10
154.651
 20
208.535
 11
154.798
 21
208.702
  0
LINE
  8
0
 10
154.798
 20
208.702
 11
154.965
 21
208.849
  0
LINE
  8
0
 10
154.965
 20
208.849
 11
155.15
 21
208.972
  0
LINE
  8
0
 10
155.15
 20
208.972
 11
155.349
 21
209.071
  0
LINE
  8
0
 10
155.349
 20
209.071
 11
155.56
 21
209.142
  0
LINE
  8
0
 10
155.56
 20
209.142
 11
155.778
 21
209.185
  0
LINE
  8
0
 10
155.778
 20
209.185
 11
156
 21
209.2
  0
LINE
  8
0
 10
156
 20
209.2
 11
156.222
 21
209.185
  0
LINE
  8
0
 10
156.222
 20
209.185
 11
156.44
 21
209.142
  0
LINE
  8
0
 10
156.44
 20
209.142
 11
156.651
 21
209.071
  0
LINE
  8
0
 10
156.651
 20
209.071
 11
156.85
 21
208.972
  0
LINE
  8
0
 10
156.85
 20
208.972
 11
157.035
 21
208.849
  0
LINE
  8
0
 10
157.035
 20
208.849
 11
157.202
 21
208.702
  0
LINE
  8
0
 10
157.202
 20
208.702
 11
157.349
 21
208.535
  0
LINE
  8
0
 10
157.349
 20
208.535
 11
157.472
 21
208.35
  0
LINE
  8
0
 10
157.472
 20
208.35
 11
157.571
 21
208.151
  0
LINE
  8
0
 10
157.571
 20
208.151
 11
157.642
 21
207.94
  0
LINE
  8
0
 10
157.642
 20
207.94
 11
157.685
 21
207.722
  0
LINE
  8
0
 10
157.685
 20
207.722
 11
157.7
 21
207.5
  0
LINE
  8
0
 10
157.7
 20
207.5
 11
157.685
 21
207.278
  0
LINE
  8
0
 10
157.685
 20
207.278
 11
157.642
 21
207.06
  0
LINE
  8
0
 10
157.642
 20
207.06
 11
157.571
 21
206.849
  0
LINE
  8
0
 10
157.571
 20
206.849
 11
157.472
 21
206.65
  0
LINE
  8
0
 10
157.472
 20
206.65
 11
157.349
 21
206.465
  0
LINE
  8
0
 10
157.349
 20
206.465
 11
157.202
 21
206.298
  0
LINE
  8
0
 10
157.202
 20
206.298
 11
157.035
 21
206.151
  0
LINE
  8
0
 10
157.035
 20
206.151
 11
156.85
 21
206.028
  0
LINE
  8
0
 10
156.85
 20
206.028
 11
156.651
 21
205.929
  0
LINE
  8
0
 10
156.651
 20
205.929
 11
156.44
 21
205.858
  0
LINE
  8
0
 10
156.44
 20
205.858
 11
156.222
 21
205.815
  0
LINE
  8
0
 10
156.222
 20
205.815
 11
156
 21
205.8
  0
LINE
  8
0
 10
156
 20
205.8
 11
155.778
 21
205.815
  0
LINE
  8
0
 10
145.778
 20
205.815
 11
145.56
 21
205.858
  0
LINE
  8
0
 10
145.56
 20
205.858
 11
145.349
 21
205.929
  0
LINE
  8
0
 10
145.349
 20
205.929
 11
145.15
 21
206.028
  0
LINE
  8
0
 10
145.15
 20
206.028
 11
144.965
 21
206.151
  0
LINE
  8
0
 10
144.965
 20
206.151
 11
144.798
 21
206.298
  0
LINE
  8
0
 10
144.798
 20
206.298
 11
144.651
 21
206.465
  0
LINE
  8
0
 10
144.651
 20
206.465
 11
144.528
 21
206.65
  0
LINE
  8
0
 10
144.528
 20
206.65
 11
144.429
 21
206.849
  0
LINE
  8
0
 10
144.429
 20
206.849
 11
144.358
 21
207.06
  0
LINE
  8
0
 10
144.358
 20
207.06
 11
144.315
 21
207.278
  0
LINE
  8
0
 10
144.315
 20
207.278
 11
144.3
 21
207.5
  0
LINE
  8
0
 10
144.3
 20
207.5
 11
144.315
 21
207.722
  0
LINE
  8
0
 10
144.315
 20
207.722
 11
144.358
 21
207.94
  0
LINE
  8
0
 10
144.358
 20
207.94
 11
144.429
 21
208.151
  0
LINE
  8
0
 10
144.429
 20
208.151
 11
144.528
 21
208.35
  0
LINE
  8
0
 10
144.528
 20
208.35
 11
144.651
 21
208.535
  0
LINE
  8
0
 10
144.651
 20
208.535
 11
144.798
 21
208.702
  0
LINE
  8
0
 10
144.798
 20
208.702
 11
144.965
 21
208.849
  0
LINE
  8
0
 10
144.965
 20
208.849
 11
145.15
 21
208.972
  0
LINE
  8
0
 10
145.15
 20
208.972
 11
145.349
 21
209.071
  0
LINE
  8
0
 10
145.349
 20
209.071
 11
145.56
 21
209.142
  0
LINE
  8
0
 10
145.56
 20
209.142
 11
145.778
 21
209.185
  0
LINE
  8
0
 10
145.778
 20
209.185
 11
146
 21
209.2
  0
LINE
  8
0
 10
146
 20
209.2
 11
146.222
 21
209.185
  0
LINE
  8
0
 10
146.222
 20
209.185
 11
146.44
 21
209.142
  0
LINE
  8
0
 10
146.44
 20
209.142
 11
146.651
 21
209.071
  0
LINE
  8
0
 10
146.651
 20
209.071
 11
146.85
 21
208.972
  0
LINE
  8
0
 10
146.85
 20
208.972
 11
147.035
 21
208.849
  0
LINE
  8
0
 10
147.035
 20
208.849
 11
147.202
 21
208.702
  0
LINE
  8
0
 10
147.202
 20
208.702
 11
147.349
 21
208.535
  0
LINE
  8
0
 10
147.349
 20
208.535
 11
147.472
 21
208.35
  0
LINE
  8
0
 10
147.472
 20
208.35
 11
147.571
 21
208.151
  0
LINE
  8
0
 10
147.571
 20
208.151
 11
147.642
 21
207.94
  0
LINE
  8
0
 10
147.642
 20
207.94
 11
147.685
 21
207.722
  0
LINE
  8
0
 10
147.685
 20
207.722
 11
147.7
 21
207.5
  0
LINE
  8
0
 10
147.7
 20
207.5
 11
147.685
 21
207.278
  0
LINE
  8
0
 10
147.685
 20
207.278
 11
147.642
 21
207.06
  0
LINE
  8
0
 10
147.642
 20
207.06
 11
147.571
 21
206.849
  0
LINE
  8
0
 10
147.571
 20
206.849
 11
147.472
 21
206.65
  0
LINE
  8
0
 10
147.472
 20
206.65
 11
147.349
 21
206.465
  0
LINE
  8
0
 10
147.349
 20
206.465
 11
147.202
 21
206.298
  0
LINE
  8
0
 10
147.202
 20
206.298
 11
147.035
 21
206.151
  0
LINE
  8
0
 10
147.035
 20
206.151
 11
146.85
 21
206.028
  0
LINE
  8
0
 10
146.85
 20
206.028
 11
146.651
 21
205.929
  0
LINE
  8
0
 10
146.651
 20
205.929
 11
146.44
 21
205.858
  0
LINE
  8
0
 10
146.44
 20
205.858
 11
146.222
 21
205.815
  0
LINE
  8
0
 10
146.222
 20
205.815
 11
146
 21
205.8
  0
LINE
  8
0
 10
146
 20
205.8
 11
145.778
 21
205.815
  0
LINE
  8
0
 10
38.5
 20
174
 11
38.5
 21
191
  0
LINE
  8
0
 10
38.5
 20
191
 11
55.5
 21
191
  0
LINE
  8
0
 10
55.5
 20
191
 11
55.5
 21
174
  0
LINE
  8
0
 10
55.5
 20
174
 11
38.5
 21
174
  0
LINE
  8
0
 10
100.1
 20
149
 11
100.1
 21
166
  0
LINE
  8
0
 10
100.1
 20
166
 11
117.1
 21
166
  0
LINE
  8
0
 10
117.1
 20
166
 11
117.1
 21
149
  0
LINE
  8
0
 10
117.1
 20
149
 11
100.1
 21
149
  0
LINE
  8
0
 10
155.778
 20
155.815
 11
155.56
 21
155.858
  0
LINE
  8
0
 10
155.56
 20
155.858
 11
155.349
 21
155.929
  0
LINE
  8
0
 10
155.349
 20
155.929
 11
155.15
 21
156.028
  0
LINE
  8
0
 10
155.15
 20
156.028
 11
154.965
 21
156.151
  0
LINE
  8
0
 10
154.965
 20
156.151
 11
154.798
 21
156.298
  0
LINE
  8
0
 10
154.798
 20
156.298
 11
154.651
 21
156.465
  0
LINE
  8
0
 10
154.651
 20
156.465
 11
154.528
 21
156.65
  0
LINE
  8
0
 10
154.528
 20
156.65
 11
154.429
 21
156.849
  0
LINE
  8
0
 10
154.429
 20
156.849
 11
154.358
 21
157.06
  0
LINE
  8
0
 10
154.358
 20
157.06
 11
154.315
 21
157.278
  0
LINE
  8
0
 10
154.315
 20
157.278
 11
154.3
 21
157.5
  0
LINE
  8
0
 10
154.3
 20
157.5
 11
154.315
 21
157.722
  0
LINE
  8
0
 10
154.315
 20
157.722
 11
154.358
 21
157.94
  0
LINE
  8
0
 10
154.358
 20
157.94
 11
154.429
 21
158.151
  0
LINE
  8
0
 10
154.429
 20
158.151
 11
154.528
 21
158.35
  0
LINE
  8
0
 10
154.528
 20
158.35
 11
154.651
 21
158.535
  0
LINE
  8
0
 10
154.651
 20
158.535
 11
154.798
 21
158.702
  0
LINE
  8
0
 10
154.798
 20
158.702
 11
154.965
 21
158.849
  0
LINE
  8
0
 10
154.965
 20
158.849
 11
155.15
 21
158.972
  0
LINE
  8
0
 10
155.15
 20
158.972
 11
155.349
 21
159.071
  0
LINE
  8
0
 10
155.349
 20
159.071
 11
155.56
 21
159.142
  0
LINE
  8
0
 10
155.56
 20
159.142
 11
155.778
 21
159.185
  0
LINE
  8
0
 10
155.778
 20
159.185
 11
156
 21
159.2
  0
LINE
  8
0
 10
156
 20
159.2
 11
156.222
 21
159.185
  0
LINE
  8
0
 10
156.222
 20
159.185
 11
156.44
 21
159.142
  0
LINE
  8
0
 10
156.44
 20
159.142
 11
156.651
 21
159.071
  0
LINE
  8
0
 10
156.651
 20
159.071
 11
156.85
 21
158.972
  0
LINE
  8
0
 10
156.85
 20
158.972
 11
157.035
 21
158.849
  0
LINE
  8
0
 10
157.035
 20
158.849
 11
157.202
 21
158.702
  0
LINE
  8
0
 10
157.202
 20
158.702
 11
157.349
 21
158.535
  0
LINE
  8
0
 10
157.349
 20
158.535
 11
157.472
 21
158.35
  0
LINE
  8
0
 10
157.472
 20
158.35
 11
157.571
 21
158.151
  0
LINE
  8
0
 10
157.571
 20
158.151
 11
157.642
 21
157.94
  0
LINE
  8
0
 10
157.642
 20
157.94
 11
157.685
 21
157.722
  0
LINE
  8
0
 10
157.685
 20
157.722
 11
157.7
 21
157.5
  0
LINE
  8
0
 10
157.7
 20
157.5
 11
157.685
 21
157.278
  0
LINE
  8
0
 10
157.685
 20
157.278
 11
157.642
 21
157.06
  0
LINE
  8
0
 10
157.642
 20
157.06
 11
157.571
 21
156.849
  0
LINE
  8
0
 10
157.571
 20
156.849
 11
157.472
 21
156.65
  0
LINE
  8
0
 10
157.472
 20
156.65
 11
157.349
 21
156.465
  0
LINE
  8
0
 10
157.349
 20
156.465
 11
157.202
 21
156.298
  0
LINE
  8
0
 10
157.202
 20
156.298
 11
157.035
 21
156.151
  0
LINE
  8
0
 10
157.035
 20
156.151
 11
156.85
 21
156.028
  0
LINE
  8
0
 10
156.85
 20
156.028
 11
156.651
 21
155.929
  0
LINE
  8
0
 10
156.651
 20
155.929
 11
156.44
 21
155.858
  0
LINE
  8
0
 10
156.44
 20
155.858
 11
156.222
 21
155.815
  0
LINE
  8
0
 10
156.222
 20
155.815
 11
156
 21
155.8
  0
LINE
  8
0
 10
156
 20
155.8
 11
155.778
 21
155.815
  0
LINE
  8
0
 10
145.778
 20
155.815
 11
145.56
 21
155.858
  0
LINE
  8
0
 10
145.56
 20
155.858
 11
145.349
 21
155.929
  0
LINE
  8
0
 10
145.349
 20
155.929
 11
145.15
 21
156.028
  0
LINE
  8
0
 10
145.15
 20
156.028
 11
144.965
 21
156.151
  0
LINE
  8
0
 10
144.965
 20
156.151
 11
144.798
 21
156.298
  0
LINE
  8
0
 10
144.798
 20
156.298
 11
144.651
 21
156.465
  0
LINE
  8
0
 10
144.651
 20
156.465
 11
144.528
 21
156.65
  0
LINE
  8
0
 10
144.528
 20
156.65
 11
144.429
 21
156.849
  0
LINE
  8
0
 10
144.429
 20
156.849
 11
144.358
 21
157.06
  0
LINE
  8
0
 10
144.358
 20
157.06
 11
144.315
 21
157.278
  0
LINE
  8
0
 10
144.315
 20
157.278
 11
144.3
 21
157.5
  0
LINE
  8
0
 10
144.3
 20
157.5
 11
144.315
 21
157.722
  0
LINE
  8
0
 10
144.315
 20
157.722
 11
144.358
 21
157.94
  0
LINE
  8
0
 10
144.358
 20
157.94
 11
144.429
 21
158.151
  0
LINE
  8
0
 10
144.429
 20
158.151
 11
144.528
 21
158.35
  0
LINE
  8
0
 10
144.528
 20
158.35
 11
144.651
 21
158.535
  0
LINE
  8
0
 10
144.651
 20
158.535
 11
144.798
 21
158.702
  0
LINE
  8
0
 10
144.798
 20
158.702
 11
144.965
 21
158.849
  0
LINE
  8
0
 10
144.965
 20
158.849
 11
145.15
 21
158.972
  0
LINE
  8
0
 10
145.15
 20
158.972
 11
145.349
 21
159.071
  0
LINE
  8
0
 10
145.349
 20
159.071
 11
145.56
 21
159.142
  0
LINE
  8
0
 10
145.56
 20
159.142
 11
145.778
 21
159.185
  0
LINE
  8
0
 10
145.778
 20
159.185
 11
146
 21
159.2
  0
LINE
  8
0
 10
146
 20
159.2
 11
146.222
 21
159.185
  0
LINE
  8
0
 10
146.222
 20
159.185
 11
146.44
 21
159.142
  0
LINE
  8
0
 10
146.44
 20
159.142
 11
146.651
 21
159.071
  0
LINE
  8
0
 10
146.651
 20
159.071
 11
146.85
 21
158.972
  0
LINE
  8
0
 10
146.85
 20
158.972
 11
147.035
 21
158.849
  0
LINE
  8
0
 10
147.035
 20
158.849
 11
147.202
 21
158.702
  0
LINE
  8
0
 10
147.202
 20
158.702
 11
147.349
 21
158.535
  0
LINE
  8
0
 10
147.349
 20
158.535
 11
147.472
 21
158.35
  0
LINE
  8
0
 10
147.472
 20
158.35
 11
147.571
 21
158.151
  0
LINE
  8
0
 10
147.571
 20
158.151
 11
147.642
 21
157.94
  0
LINE
  8
0
 10
147.642
 20
157.94
 11
147.685
 21
157.722
  0
LINE
  8
0
 10
147.685
 20
157.722
 11
147.7
 21
157.5
  0
LINE
  8
0
 10
147.7
 20
157.5
 11
147.685
 21
157.278
  0
LINE
  8
0
 10
147.685
 20
157.278
 11
147.642
 21
157.06
  0
LINE
  8
0
 10
147.642
 20
157.06
 11
147.571
 21
156.849
  0
LINE
  8
0
 10
147.571
 20
156.849
 11
147.472
 21
156.65
  0
LINE
  8
0
 10
147.472
 20
156.65
 11
147.349
 21
156.465
  0
LINE
  8
0
 10
147.349
 20
156.465
 11
147.202
 21
156.298
  0
LINE
  8
0
 10
147.202
 20
156.298
 11
147.035
 21
156.151
  0
LINE
  8
0
 10
147.035
 20
156.151
 11
146.85
 21
156.028
  0
LINE
  8
0
 10
146.85
 20
156.028
 11
146.651
 21
155.929
  0
LINE
  8
0
 10
146.651
 20
155.929
 11
146.44
 21
155.858
  0
LINE
  8
0
 10
146.44
 20
155.858
 11
146.222
 21
155.815
  0
LINE
  8
0
 10
146.222
 20
155.815
 11
146
 21
155.8
  0
LINE
  8
0
 10
146
 20
155.8
 11
145.778
 21
155.815
  0
LINE
  8
0
 10
46.7781
 20
155.815
 11
46.56
 21
155.858
  0
LINE
  8
0
 10
46.56
 20
155.858
 11
46.3494
 21
155.929
  0
LINE
  8
0
 10
46.3494
 20
155.929
 11
46.15
 21
156.028
  0
LINE
  8
0
 10
46.15
 20
156.028
 11
45.9651
 21
156.151
  0
LINE
  8
0
 10
45.9651
 20
156.151
 11
45.7979
 21
156.298
  0
LINE
  8
0
 10
45.7979
 20
156.298
 11
45.6513
 21
156.465
  0
LINE
  8
0
 10
45.6513
 20
156.465
 11
45.5278
 21
156.65
  0
LINE
  8
0
 10
45.5278
 20
156.65
 11
45.4294
 21
156.849
  0
LINE
  8
0
 10
45.4294
 20
156.849
 11
45.3579
 21
157.06
  0
LINE
  8
0
 10
45.3579
 20
157.06
 11
45.3145
 21
157.278
  0
LINE
  8
0
 10
45.3145
 20
157.278
 11
45.3
 21
157.5
  0
LINE
  8
0
 10
45.3
 20
157.5
 11
45.3145
 21
157.722
  0
LINE
  8
0
 10
45.3145
 20
157.722
 11
45.3579
 21
157.94
  0
LINE
  8
0
 10
45.3579
 20
157.94
 11
45.4294
 21
158.151
  0
LINE
  8
0
 10
45.4294
 20
158.151
 11
45.5278
 21
158.35
  0
LINE
  8
0
 10
45.5278
 20
158.35
 11
45.6513
 21
158.535
  0
LINE
  8
0
 10
45.6513
 20
158.535
 11
45.7979
 21
158.702
  0
LINE
  8
0
 10
45.7979
 20
158.702
 11
45.9651
 21
158.849
  0
LINE
  8
0
 10
45.9651
 20
158.849
 11
46.15
 21
158.972
  0
LINE
  8
0
 10
46.15
 20
158.972
 11
46.3494
 21
159.071
  0
LINE
  8
0
 10
46.3494
 20
159.071
 11
46.56
 21
159.142
  0
LINE
  8
0
 10
46.56
 20
159.142
 11
46.7781
 21
159.185
  0
LINE
  8
0
 10
46.7781
 20
159.185
 11
47
 21
159.2
  0
LINE
  8
0
 10
47
 20
159.2
 11
47.2219
 21
159.185
  0
LINE
  8
0
 10
47.2219
 20
159.185
 11
47.44
 21
159.142
  0
LINE
  8
0
 10
47.44
 20
159.142
 11
47.6506
 21
159.071
  0
LINE
  8
0
 10
47.6506
 20
159.071
 11
47.85
 21
158.972
  0
LINE
  8
0
 10
47.85
 20
158.972
 11
48.0349
 21
158.849
  0
LINE
  8
0
 10
48.0349
 20
158.849
 11
48.2021
 21
158.702
  0
LINE
  8
0
 10
48.2021
 20
158.702
 11
48.3487
 21
158.535
  0
LINE
  8
0
 10
48.3487
 20
158.535
 11
48.4722
 21
158.35
  0
LINE
  8
0
 10
48.4722
 20
158.35
 11
48.5706
 21
158.151
  0
LINE
  8
0
 10
48.5706
 20
158.151
 11
48.6421
 21
157.94
  0
LINE
  8
0
 10
48.6421
 20
157.94
 11
48.6855
 21
157.722
  0
LINE
  8
0
 10
48.6855
 20
157.722
 11
48.7
 21
157.5
  0
LINE
  8
0
 10
48.7
 20
157.5
 11
48.6855
 21
157.278
  0
LINE
  8
0
 10
48.6855
 20
157.278
 11
48.6421
 21
157.06
  0
LINE
  8
0
 10
48.6421
 20
157.06
 11
48.5706
 21
156.849
  0
LINE
  8
0
 10
48.5706
 20
156.849
 11
48.4722
 21
156.65
  0
LINE
  8
0
 10
48.4722
 20
156.65
 11
48.3487
 21
156.465
  0
LINE
  8
0
 10
48.3487
 20
156.465
 11
48.2021
 21
156.298
  0
LINE
  8
0
 10
48.2021
 20
156.298
 11
48.0349
 21
156.151
  0
LINE
  8
0
 10
48.0349
 20
156.151
 11
47.85
 21
156.028
  0
LINE
  8
0
 10
47.85
 20
156.028
 11
47.6506
 21
155.929
  0
LINE
  8
0
 10
47.6506
 20
155.929
 11
47.44
 21
155.858
  0
LINE
  8
0
 10
47.44
 20
155.858
 11
47.2219
 21
155.815
  0
LINE
  8
0
 10
47.2219
 20
155.815
 11
47
 21
155.8
  0
LINE
  8
0
 10
47
 20
155.8
 11
46.7781
 21
155.815
  0
LINE
  8
0
 10
19.7781
 20
155.815
 11
19.56
 21
155.858
  0
LINE
  8
0
 10
19.56
 20
155.858
 11
19.3494
 21
155.929
  0
LINE
  8
0
 10
19.3494
 20
155.929
 11
19.15
 21
156.028
  0
LINE
  8
0
 10
19.15
 20
156.028
 11
18.9651
 21
156.151
  0
LINE
  8
0
 10
18.9651
 20
156.151
 11
18.7979
 21
156.298
  0
LINE
  8
0
 10
18.7979
 20
156.298
 11
18.6513
 21
156.465
  0
LINE
  8
0
 10
18.6513
 20
156.465
 11
18.5278
 21
156.65
  0
LINE
  8
0
 10
18.5278
 20
156.65
 11
18.4294
 21
156.849
  0
LINE
  8
0
 10
18.4294
 20
156.849
 11
18.3579
 21
157.06
  0
LINE
  8
0
 10
18.3579
 20
157.06
 11
18.3145
 21
157.278
  0
LINE
  8
0
 10
18.3145
 20
157.278
 11
18.3
 21
157.5
  0
LINE
  8
0
 10
18.3
 20
157.5
 11
18.3145
 21
157.722
  0
LINE
  8
0
 10
18.3145
 20
157.722
 11
18.3579
 21
157.94
  0
LINE
  8
0
 10
18.3579
 20
157.94
 11
18.4294
 21
158.151
  0
LINE
  8
0
 10
18.4294
 20
158.151
 11
18.5278
 21
158.35
  0
LINE
  8
0
 10
18.5278
 20
158.35
 11
18.6513
 21
158.535
  0
LINE
  8
0
 10
18.6513
 20
158.535
 11
18.7979
 21
158.702
  0
LINE
  8
0
 10
18.7979
 20
158.702
 11
18.9651
 21
158.849
  0
LINE
  8
0
 10
18.9651
 20
158.849
 11
19.15
 21
158.972
  0
LINE
  8
0
 10
19.15
 20
158.972
 11
19.3494
 21
159.071
  0
LINE
  8
0
 10
19.3494
 20
159.071
 11
19.56
 21
159.142
  0
LINE
  8
0
 10
19.56
 20
159.142
 11
19.7781
 21
159.185
  0
LINE
  8
0
 10
19.7781
 20
159.185
 11
20
 21
159.2
  0
LINE
  8
0
 10
20
 20
159.2
 11
20.2219
 21
159.185
  0
LINE
  8
0
 10
20.2219
 20
159.185
 11
20.44
 21
159.142
  0
LINE
  8
0
 10
20.44
 20
159.142
 11
20.6506
 21
159.071
  0
LINE
  8
0
 10
20.6506
 20
159.071
 11
20.85
 21
158.972
  0
LINE
  8
0
 10
20.85
 20
158.972
 11
21.0349
 21
158.849
  0
LINE
  8
0
 10
21.0349
 20
158.849
 11
21.2021
 21
158.702
  0
LINE
  8
0
 10
21.2021
 20
158.702
 11
21.3487
 21
158.535
  0
LINE
  8
0
 10
21.3487
 20
158.535
 11
21.4722
 21
158.35
  0
LINE
  8
0
 10
21.4722
 20
158.35
 11
21.5706
 21
158.151
  0
LINE
  8
0
 10
21.5706
 20
158.151
 11
21.6421
 21
157.94
  0
LINE
  8
0
 10
21.6421
 20
157.94
 11
21.6855
 21
157.722
  0
LINE
  8
0
 10
21.6855
 20
157.722
 11
21.7
 21
157.5
  0
LINE
  8
0
 10
21.7
 20
157.5
 11
21.6855
 21
157.278
  0
LINE
  8
0
 10
21.6855
 20
157.278
 11
21.6421
 21
157.06
  0
LINE
  8
0
 10
21.6421
 20
157.06
 11
21.5706
 21
156.849
  0
LINE
  8
0
 10
21.5706
 20
156.849
 11
21.4722
 21
156.65
  0
LINE
  8
0
 10
21.4722
 20
156.65
 11
21.3487
 21
156.465
  0
LINE
  8
0
 10
21.3487
 20
156.465
 11
21.2021
 21
156.298
  0
LINE
  8
0
 10
21.2021
 20
156.298
 11
21.0349
 21
156.151
  0
LINE
  8
0
 10
21.0349
 20
156.151
 11
20.85
 21
156.028
  0
LINE
  8
0
 10
20.85
 20
156.028
 11
20.6506
 21
155.929
  0
LINE
  8
0
 10
20.6506
 20
155.929
 11
20.44
 21
155.858
  0
LINE
  8
0
 10
20.44
 20
155.858
 11
20.2219
 21
155.815
  0
LINE
  8
0
 10
20.2219
 20
155.815
 11
20
 21
155.8
  0
LINE
  8
0
 10
20
 20
155.8
 11
19.7781
 21
155.815
  0
LINE
  8
0
 10
38.5
 20
124
 11
38.5
 21
141
  0
LINE
  8
0
 10
38.5
 20
141
 11
55.5
 21
141
  0
LINE
  8
0
 10
55.5
 20
141
 11
55.5
 21
124
  0
LINE
  8
0
 10
55.5
 20
124
 11
38.5
 21
124
  0
LINE
  8
0
 10
19.7781
 20
105.815
 11
19.56
 21
105.858
  0
LINE
  8
0
 10
19.56
 20
105.858
 11
19.3494
 21
105.929
  0
LINE
  8
0
 10
19.3494
 20
105.929
 11
19.15
 21
106.028
  0
LINE
  8
0
 10
19.15
 20
106.028
 11
18.9651
 21
106.151
  0
LINE
  8
0
 10
18.9651
 20
106.151
 11
18.7979
 21
106.298
  0
LINE
  8
0
 10
18.7979
 20
106.298
 11
18.6513
 21
106.465
  0
LINE
  8
0
 10
18.6513
 20
106.465
 11
18.5278
 21
106.65
  0
LINE
  8
0
 10
18.5278
 20
106.65
 11
18.4294
 21
106.849
  0
LINE
  8
0
 10
18.4294
 20
106.849
 11
18.3579
 21
107.06
  0
LINE
  8
0
 10
18.3579
 20
107.06
 11
18.3145
 21
107.278
  0
LINE
  8
0
 10
18.3145
 20
107.278
 11
18.3
 21
107.5
  0
LINE
  8
0
 10
18.3
 20
107.5
 11
18.3145
 21
107.722
  0
LINE
  8
0
 10
18.3145
 20
107.722
 11
18.3579
 21
107.94
  0
LINE
  8
0
 10
18.3579
 20
107.94
 11
18.4294
 21
108.151
  0
LINE
  8
0
 10
18.4294
 20
108.151
 11
18.5278
 21
108.35
  0
LINE
  8
0
 10
18.5278
 20
108.35
 11
18.6513
 21
108.535
  0
LINE
  8
0
 10
18.6513
 20
108.535
 11
18.7979
 21
108.702
  0
LINE
  8
0
 10
18.7979
 20
108.702
 11
18.9651
 21
108.849
  0
LINE
  8
0
 10
18.9651
 20
108.849
 11
19.15
 21
108.972
  0
LINE
  8
0
 10
19.15
 20
108.972
 11
19.3494
 21
109.071
  0
LINE
  8
0
 10
19.3494
 20
109.071
 11
19.56
 21
109.142
  0
LINE
  8
0
 10
19.56
 20
109.142
 11
19.7781
 21
109.185
  0
LINE
  8
0
 10
19.7781
 20
109.185
 11
20
 21
109.2
  0
LINE
  8
0
 10
20
 20
109.2
 11
20.2219
 21
109.185
  0
LINE
  8
0
 10
20.2219
 20
109.185
 11
20.44
 21
109.142
  0
LINE
  8
0
 10
20.44
 20
109.142
 11
20.6506
 21
109.071
  0
LINE
  8
0
 10
20.6506
 20
109.071
 11
20.85
 21
108.972
  0
LINE
  8
0
 10
20.85
 20
108.972
 11
21.0349
 21
108.849
  0
LINE
  8
0
 10
21.0349
 20
108.849
 11
21.2021
 21
108.702
  0
LINE
  8
0
 10
21.2021
 20
108.702
 11
21.3487
 21
108.535
  0
LINE
  8
0
 10
21.3487
 20
108.535
 11
21.4722
 21
108.35
  0
LINE
  8
0
 10
21.4722
 20
108.35
 11
21.5706
 21
108.151
  0
LINE
  8
0
 10
21.5706
 20
108.151
 11
21.6421
 21
107.94
  0
LINE
  8
0
 10
21.6421
 20
107.94
 11
21.6855
 21
107.722
  0
LINE
  8
0
 10
21.6855
 20
107.722
 11
21.7
 21
107.5
  0
LINE
  8
0
 10
21.7
 20
107.5
 11
21.6855
 21
107.278
  0
LINE
  8
0
 10
21.6855
 20
107.278
 11
21.6421
 21
107.06
  0
LINE
  8
0
 10
21.6421
 20
107.06
 11
21.5706
 21
106.849
  0
LINE
  8
0
 10
21.5706
 20
106.849
 11
21.4722
 21
106.65
  0
LINE
  8
0
 10
21.4722
 20
106.65
 11
21.3487
 21
106.465
  0
LINE
  8
0
 10
21.3487
 20
106.465
 11
21.2021
 21
106.298
  0
LINE
  8
0
 10
21.2021
 20
106.298
 11
21.0349
 21
106.151
  0
LINE
  8
0
 10
21.0349
 20
106.151
 11
20.85
 21
106.028
  0
LINE
  8
0
 10
20.85
 20
106.028
 11
20.6506
 21
105.929
  0
LINE
  8
0
 10
20.6506
 20
105.929
 11
20.44
 21
105.858
  0
LINE
  8
0
 10
20.44
 20
105.858
 11
20.2219
 21
105.815
  0
LINE
  8
0
 10
20.2219
 20
105.815
 11
20
 21
105.8
  0
LINE
  8
0
 10
20
 20
105.8
 11
19.7781
 21
105.815
  0
LINE
  8
0
 10
46.7781
 20
105.815
 11
46.56
 21
105.858
  0
LINE
  8
0
 10
46.56
 20
105.858
 11
46.3494
 21
105.929
  0
LINE
  8
0
 10
46.3494
 20
105.929
 11
46.15
 21
106.028
  0
LINE
  8
0
 10
46.15
 20
106.028
 11
45.9651
 21
106.151
  0
LINE
  8
0
 10
45.9651
 20
106.151
 11
45.7979
 21
106.298
  0
LINE
  8
0
 10
45.7979
 20
106.298
 11
45.6513
 21
106.465
  0
LINE
  8
0
 10
45.6513
 20
106.465
 11
45.5278
 21
106.65
  0
LINE
  8
0
 10
45.5278
 20
106.65
 11
45.4294
 21
106.849
  0
LINE
  8
0
 10
45.4294
 20
106.849
 11
45.3579
 21
107.06
  0
LINE
  8
0
 10
45.3579
 20
107.06
 11
45.3145
 21
107.278
  0
LINE
  8
0
 10
45.3145
 20
107.278
 11
45.3
 21
107.5
  0
LINE
  8
0
 10
45.3
 20
107.5
 11
45.3145
 21
107.722
  0
LINE
  8
0
 10
45.3145
 20
107.722
 11
45.3579
 21
107.94
  0
LINE
  8
0
 10
45.3579
 20
107.94
 11
45.4294
 21
108.151
  0
LINE
  8
0
 10
45.4294
 20
108.151
 11
45.5278
 21
108.35
  0
LINE
  8
0
 10
45.5278
 20
108.35
 11
45.6513
 21
108.535
  0
LINE
  8
0
 10
45.6513
 20
108.535
 11
45.7979
 21
108.702
  0
LINE
  8
0
 10
45.7979
 20
108.702
 11
45.9651
 21
108.849
  0
LINE
  8
0
 10
45.9651
 20
108.849
 11
46.15
 21
108.972
  0
LINE
  8
0
 10
46.15
 20
108.972
 11
46.3494
 21
109.071
  0
LINE
  8
0
 10
46.3494
 20
109.071
 11
46.56
 21
109.142
  0
LINE
  8
0
 10
46.56
 20
109.142
 11
46.7781
 21
109.185
  0
LINE
  8
0
 10
46.7781
 20
109.185
 11
47
 21
109.2
  0
LINE
  8
0
 10
47
 20
109.2
 11
47.2219
 21
109.185
  0
LINE
  8
0
 10
47.2219
 20
109.185
 11
47.44
 21
109.142
  0
LINE
  8
0
 10
47.44
 20
109.142
 11
47.6506
 21
109.071
  0
LINE
  8
0
 10
47.6506
 20
109.071
 11
47.85
 21
108.972
  0
LINE
  8
0
 10
47.85
 20
108.972
 11
48.0349
 21
108.849
  0
LINE
  8
0
 10
48.0349
 20
108.849
 11
48.2021
 21
108.702
  0
LINE
  8
0
 10
48.2021
 20
108.702
 11
48.3487
 21
108.535
  0
LINE
  8
0
 10
48.3487
 20
108.535
 11
48.4722
 21
108.35
  0
LINE
  8
0
 10
48.4722
 20
108.35
 11
48.5706
 21
108.151
  0
LINE
  8
0
 10
48.5706
 20
108.151
 11
48.6421
 21
107.94
  0
LINE
  8
0
 10
48.6421
 20
107.94
 11
48.6855
 21
107.722
  0
LINE
  8
0
 10
48.6855
 20
107.722
 11
48.7
 21
107.5
  0
LINE
  8
0
 10
48.7
 20
107.5
 11
48.6855
 21
107.278
  0
LINE
  8
0
 10
48.6855
 20
107.278
 11
48.6421
 21
107.06
  0
LINE
  8
0
 10
48.6421
 20
107.06
 11
48.5706
 21
106.849
  0
LINE
  8
0
 10
48.5706
 20
106.849
 11
48.4722
 21
106.65
  0
LINE
  8
0
 10
48.4722
 20
106.65
 11
48.3487
 21
106.465
  0
LINE
  8
0
 10
48.3487
 20
106.465
 11
48.2021
 21
106.298
  0
LINE
  8
0
 10
48.2021
 20
106.298
 11
48.0349
 21
106.151
  0
LINE
  8
0
 10
48.0349
 20
106.151
 11
47.85
 21
106.028
  0
LINE
  8
0
 10
47.85
 20
106.028
 11
47.6506
 21
105.929
  0
LINE
  8
0
 10
47.6506
 20
105.929
 11
47.44
 21
105.858
  0
LINE
  8
0
 10
47.44
 20
105.858
 11
47.2219
 21
105.815
  0
LINE
  8
0
 10
47.2219
 20
105.815
 11
47
 21
105.8
  0
LINE
  8
0
 10
47
 20
105.8
 11
46.7781
 21
105.815
  0
LINE
  8
0
 10
155.778
 20
105.815
 11
155.56
 21
105.858
  0
LINE
  8
0
 10
155.56
 20
105.858
 11
155.349
 21
105.929
  0
LINE
  8
0
 10
155.349
 20
105.929
 11
155.15
 21
106.028
  0
LINE
  8
0
 10
155.15
 20
106.028
 11
154.965
 21
106.151
  0
LINE
  8
0
 10
154.965
 20
106.151
 11
154.798
 21
106.298
  0
LINE
  8
0
 10
154.798
 20
106.298
 11
154.651
 21
106.465
  0
LINE
  8
0
 10
154.651
 20
106.465
 11
154.528
 21
106.65
  0
LINE
  8
0
 10
154.528
 20
106.65
 11
154.429
 21
106.849
  0
LINE
  8
0
 10
154.429
 20
106.849
 11
154.358
 21
107.06
  0
LINE
  8
0
 10
154.358
 20
107.06
 11
154.315
 21
107.278
  0
LINE
  8
0
 10
154.315
 20
107.278
 11
154.3
 21
107.5
  0
LINE
  8
0
 10
154.3
 20
107.5
 11
154.315
 21
107.722
  0
LINE
  8
0
 10
154.315
 20
107.722
 11
154.358
 21
107.94
  0
LINE
  8
0
 10
154.358
 20
107.94
 11
154.429
 21
108.151
  0
LINE
  8
0
 10
154.429
 20
108.151
 11
154.528
 21
108.35
  0
LINE
  8
0
 10
154.528
 20
108.35
 11
154.651
 21
108.535
  0
LINE
  8
0
 10
154.651
 20
108.535
 11
154.798
 21
108.702
  0
LINE
  8
0
 10
154.798
 20
108.702
 11
154.965
 21
108.849
  0
LINE
  8
0
 10
154.965
 20
108.849
 11
155.15
 21
108.972
  0
LINE
  8
0
 10
155.15
 20
108.972
 11
155.349
 21
109.071
  0
LINE
  8
0
 10
155.349
 20
109.071
 11
155.56
 21
109.142
  0
LINE
  8
0
 10
155.56
 20
109.142
 11
155.778
 21
109.185
  0
LINE
  8
0
 10
155.778
 20
109.185
 11
156
 21
109.2
  0
LINE
  8
0
 10
156
 20
109.2
 11
156.222
 21
109.185
  0
LINE
  8
0
 10
156.222
 20
109.185
 11
156.44
 21
109.142
  0
LINE
  8
0
 10
156.44
 20
109.142
 11
156.651
 21
109.071
  0
LINE
  8
0
 10
156.651
 20
109.071
 11
156.85
 21
108.972
  0
LINE
  8
0
 10
156.85
 20
108.972
 11
157.035
 21
108.849
  0
LINE
  8
0
 10
157.035
 20
108.849
 11
157.202
 21
108.702
  0
LINE
  8
0
 10
157.202
 20
108.702
 11
157.349
 21
108.535
  0
LINE
  8
0
 10
157.349
 20
108.535
 11
157.472
 21
108.35
  0
LINE
  8
0
 10
157.472
 20
108.35
 11
157.571
 21
108.151
  0
LINE
  8
0
 10
157.571
 20
108.151
 11
157.642
 21
107.94
  0
LINE
  8
0
 10
157.642
 20
107.94
 11
157.685
 21
107.722
  0
LINE
  8
0
 10
157.685
 20
107.722
 11
157.7
 21
107.5
  0
LINE
  8
0
 10
157.7
 20
107.5
 11
157.685
 21
107.278
  0
LINE
  8
0
 10
157.685
 20
107.278
 11
157.642
 21
107.06
  0
LINE
  8
0
 10
157.642
 20
107.06
 11
157.571
 21
106.849
  0
LINE
  8
0
 10
157.571
 20
106.849
 11
157.472
 21
106.65
  0
LINE
  8
0
 10
157.472
 20
106.65
 11
157.349
 21
106.465
  0
LINE
  8
0
 10
157.349
 20
106.465
 11
157.202
 21
106.298
  0
LINE
  8
0
 10
157.202
 20
106.298
 11
157.035
 21
106.151
  0
LINE
  8
0
 10
157.035
 20
106.151
 11
156.85
 21
106.028
  0
LINE
  8
0
 10
156.85
 20
106.028
 11
156.651
 21
105.929
  0
LINE
  8
0
 10
156.651
 20
105.929
 11
156.44
 21
105.858
  0
LINE
  8
0
 10
156.44
 20
105.858
 11
156.222
 21
105.815
  0
LINE
  8
0
 10
156.222
 20
105.815
 11
156
 21
105.8
  0
LINE
  8
0
 10
156
 20
105.8
 11
155.778
 21
105.815
  0
LINE
  8
0
 10
145.778
 20
105.815
 11
145.56
 21
105.858
  0
LINE
  8
0
 10
145.56
 20
105.858
 11
145.349
 21
105.929
  0
LINE
  8
0
 10
145.349
 20
105.929
 11
145.15
 21
106.028
  0
LINE
  8
0
 10
145.15
 20
106.028
 11
144.965
 21
106.151
  0
LINE
  8
0
 10
144.965
 20
106.151
 11
144.798
 21
106.298
  0
LINE
  8
0
 10
144.798
 20
106.298
 11
144.651
 21
106.465
  0
LINE
  8
0
 10
144.651
 20
106.465
 11
144.528
 21
106.65
  0
LINE
  8
0
 10
144.528
 20
106.65
 11
144.429
 21
106.849
  0
LINE
  8
0
 10
144.429
 20
106.849
 11
144.358
 21
107.06
  0
LINE
  8
0
 10
144.358
 20
107.06
 11
144.315
 21
107.278
  0
LINE
  8
0
 10
144.315
 20
107.278
 11
144.3
 21
107.5
  0
LINE
  8
0
 10
144.3
 20
107.5
 11
144.315
 21
107.722
  0
LINE
  8
0
 10
144.315
 20
107.722
 11
144.358
 21
107.94
  0
LINE
  8
0
 10
144.358
 20
107.94
 11
144.429
 21
108.151
  0
LINE
  8
0
 10
144.429
 20
108.151
 11
144.528
 21
108.35
  0
LINE
  8
0
 10
144.528
 20
108.35
 11
144.651
 21
108.535
  0
LINE
  8
0
 10
144.651
 20
108.535
 11
144.798
 21
108.702
  0
LINE
  8
0
 10
144.798
 20
108.702
 11
144.965
 21
108.849
  0
LINE
  8
0
 10
144.965
 20
108.849
 11
145.15
 21
108.972
  0
LINE
  8
0
 10
145.15
 20
108.972
 11
145.349
 21
109.071
  0
LINE
  8
0
 10
145.349
 20
109.071
 11
145.56
 21
109.142
  0
LINE
  8
0
 10
145.56
 20
109.142
 11
145.778
 21
109.185
  0
LINE
  8
0
 10
145.778
 20
109.185
 11
146
 21
109.2
  0
LINE
  8
0
 10
146
 20
109.2
 11
146.222
 21
109.185
  0
LINE
  8
0
 10
146.222
 20
109.185
 11
146.44
 21
109.142
  0
LINE
  8
0
 10
146.44
 20
109.142
 11
146.651
 21
109.071
  0
LINE
  8
0
 10
146.651
 20
109.071
 11
146.85
 21
108.972
  0
LINE
  8
0
 10
146.85
 20
108.972
 11
147.035
 21
108.849
  0
LINE
  8
0
 10
147.035
 20
108.849
 11
147.202
 21
108.702
  0
LINE
  8
0
 10
147.202
 20
108.702
 11
147.349
 21
108.535
  0
LINE
  8
0
 10
147.349
 20
108.535
 11
147.472
 21
108.35
  0
LINE
  8
0
 10
147.472
 20
108.35
 11
147.571
 21
108.151
  0
LINE
  8
0
 10
147.571
 20
108.151
 11
147.642
 21
107.94
  0
LINE
  8
0
 10
147.642
 20
107.94
 11
147.685
 21
107.722
  0
LINE
  8
0
 10
147.685
 20
107.722
 11
147.7
 21
107.5
  0
LINE
  8
0
 10
147.7
 20
107.5
 11
147.685
 21
107.278
  0
LINE
  8
0
 10
147.685
 20
107.278
 11
147.642
 21
107.06
  0
LINE
  8
0
 10
147.642
 20
107.06
 11
147.571
 21
106.849
  0
LINE
  8
0
 10
147.571
 20
106.849
 11
147.472
 21
106.65
  0
LINE
  8
0
 10
147.472
 20
106.65
 11
147.349
 21
106.465
  0
LINE
  8
0
 10
147.349
 20
106.465
 11
147.202
 21
106.298
  0
LINE
  8
0
 10
147.202
 20
106.298
 11
147.035
 21
106.151
  0
LINE
  8
0
 10
147.035
 20
106.151
 11
146.85
 21
106.028
  0
LINE
  8
0
 10
146.85
 20
106.028
 11
146.651
 21
105.929
  0
LINE
  8
0
 10
146.651
 20
105.929
 11
146.44
 21
105.858
  0
LINE
  8
0
 10
146.44
 20
105.858
 11
146.222
 21
105.815
  0
LINE
  8
0
 10
146.222
 20
105.815
 11
146
 21
105.8
  0
LINE
  8
0
 10
146
 20
105.8
 11
145.778
 21
105.815
  0
LINE
  8
0
 10
38.5
 20
74
 11
38.5
 21
91
  0
LINE
  8
0
 10
38.5
 20
91
 11
55.5
 21
91
  0
LINE
  8
0
 10
55.5
 20
91
 11
55.5
 21
74
  0
LINE
  8
0
 10
55.5
 20
74
 11
38.5
 21
74
  0
LINE
  8
0
 10
100.1
 20
49
 11
100.1
 21
66
  0
LINE
  8
0
 10
100.1
 20
66
 11
117.1
 21
66
  0
LINE
  8
0
 10
117.1
 20
66
 11
117.1
 21
49
  0
LINE
  8
0
 10
117.1
 20
49
 11
100.1
 21
49
  0
LINE
  8
0
 10
155.778
 20
55.8145
 11
155.56
 21
55.8579
  0
LINE
  8
0
 10
155.56
 20
55.8579
 11
155.349
 21
55.9294
  0
LINE
  8
0
 10
155.349
 20
55.9294
 11
155.15
 21
56.0278
  0
LINE
  8
0
 10
155.15
 20
56.0278
 11
154.965
 21
56.1513
  0
LINE
  8
0
 10
154.965
 20
56.1513
 11
154.798
 21
56.2979
  0
LINE
  8
0
 10
154.798
 20
56.2979
 11
154.651
 21
56.4651
  0
LINE
  8
0
 10
154.651
 20
56.4651
 11
154.528
 21
56.65
  0
LINE
  8
0
 10
154.528
 20
56.65
 11
154.429
 21
56.8494
  0
LINE
  8
0
 10
154.429
 20
56.8494
 11
154.358
 21
57.06
  0
LINE
  8
0
 10
154.358
 20
57.06
 11
154.315
 21
57.2781
  0
LINE
  8
0
 10
154.315
 20
57.2781
 11
154.3
 21
57.5
  0
LINE
  8
0
 10
154.3
 20
57.5
 11
154.315
 21
57.7219
  0
LINE
  8
0
 10
154.315
 20
57.7219
 11
154.358
 21
57.94
  0
LINE
  8
0
 10
154.358
 20
57.94
 11
154.429
 21
58.1506
  0
LINE
  8
0
 10
154.429
 20
58.1506
 11
154.528
 21
58.35
  0
LINE
  8
0
 10
154.528
 20
58.35
 11
154.651
 21
58.5349
  0
LINE
  8
0
 10
154.651
 20
58.5349
 11
154.798
 21
58.7021
  0
LINE
  8
0
 10
154.798
 20
58.7021
 11
154.965
 21
58.8487
  0
LINE
  8
0
 10
154.965
 20
58.8487
 11
155.15
 21
58.9722
  0
LINE
  8
0
 10
155.15
 20
58.9722
 11
155.349
 21
59.0706
  0
LINE
  8
0
 10
155.349
 20
59.0706
 11
155.56
 21
59.1421
  0
LINE
  8
0
 10
155.56
 20
59.1421
 11
155.778
 21
59.1855
  0
LINE
  8
0
 10
155.778
 20
59.1855
 11
156
 21
59.2
  0
LINE
  8
0
 10
156
 20
59.2
 11
156.222
 21
59.1855
  0
LINE
  8
0
 10
156.222
 20
59.1855
 11
156.44
 21
59.1421
  0
LINE
  8
0
 10
156.44
 20
59.1421
 11
156.651
 21
59.0706
  0
LINE
  8
0
 10
156.651
 20
59.0706
 11
156.85
 21
58.9722
  0
LINE
  8
0
 10
156.85
 20
58.9722
 11
157.035
 21
58.8487
  0
LINE
  8
0
 10
157.035
 20
58.8487
 11
157.202
 21
58.7021
  0
LINE
  8
0
 10
157.202
 20
58.7021
 11
157.349
 21
58.5349
  0
LINE
  8
0
 10
157.349
 20
58.5349
 11
157.472
 21
58.35
  0
LINE
  8
0
 10
157.472
 20
58.35
 11
157.571
 21
58.1506
  0
LINE
  8
0
 10
157.571
 20
58.1506
 11
157.642
 21
57.94
  0
LINE
  8
0
 10
157.642
 20
57.94
 11
157.685
 21
57.7219
  0
LINE
  8
0
 10
157.685
 20
57.7219
 11
157.7
 21
57.5
  0
LINE
  8
0
 10
157.7
 20
57.5
 11
157.685
 21
57.2781
  0
LINE
  8
0
 10
157.685
 20
57.2781
 11
157.642
 21
57.06
  0
LINE
  8
0
 10
157.642
 20
57.06
 11
157.571
 21
56.8494
  0
LINE
  8
0
 10
157.571
 20
56.8494
 11
157.472
 21
56.65
  0
LINE
  8
0
 10
157.472
 20
56.65
 11
157.349
 21
56.4651
  0
LINE
  8
0
 10
157.349
 20
56.4651
 11
157.202
 21
56.2979
  0
LINE
  8
0
 10
157.202
 20
56.2979
 11
157.035
 21
56.1513
  0
LINE
  8
0
 10
157.035
 20
56.1513
 11
156.85
 21
56.0278
  0
LINE
  8
0
 10
156.85
 20
56.0278
 11
156.651
 21
55.9294
  0
LINE
  8
0
 10
156.651
 20
55.9294
 11
156.44
 21
55.8579
  0
LINE
  8
0
 10
156.44
 20
55.8579
 11
156.222
 21
55.8145
  0
LINE
  8
0
 10
156.222
 20
55.8145
 11
156
 21
55.8
  0
LINE
  8
0
 10
156
 20
55.8
 11
155.778
 21
55.8145
  0
LINE
  8
0
 10
145.778
 20
55.8145
 11
145.56
 21
55.8579
  0
LINE
  8
0
 10
145.56
 20
55.8579
 11
145.349
 21
55.9294
  0
LINE
  8
0
 10
145.349
 20
55.9294
 11
145.15
 21
56.0278
  0
LINE
  8
0
 10
145.15
 20
56.0278
 11
144.965
 21
56.1513
  0
LINE
  8
0
 10
144.965
 20
56.1513
 11
144.798
 21
56.2979
  0
LINE
  8
0
 10
144.798
 20
56.2979
 11
144.651
 21
56.4651
  0
LINE
  8
0
 10
144.651
 20
56.4651
 11
144.528
 21
56.65
  0
LINE
  8
0
 10
144.528
 20
56.65
 11
144.429
 21
56.8494
  0
LINE
  8
0
 10
144.429
 20
56.8494
 11
144.358
 21
57.06
  0
LINE
  8
0
 10
144.358
 20
57.06
 11
144.315
 21
57.2781
  0
LINE
  8
0
 10
144.315
 20
57.2781
 11
144.3
 21
57.5
  0
LINE
  8
0
 10
144.3
 20
57.5
 11
144.315
 21
57.7219
  0
LINE
  8
0
 10
144.315
 20
57.7219
 11
144.358
 21
57.94
  0
LINE
  8
0
 10
144.358
 20
57.94
 11
144.429
 21
58.1506
  0
LINE
  8
0
 10
144.429
 20
58.1506
 11
144.528
 21
58.35
  0
LINE
  8
0
 10
144.528
 20
58.35
 11
144.651
 21
58.5349
  0
LINE
  8
0
 10
144.651
 20
58.5349
 11
144.798
 21
58.7021
  0
LINE
  8
0
 10
144.798
 20
58.7021
 11
144.965
 21
58.8487
  0
LINE
  8
0
 10
144.965
 20
58.8487
 11
145.15
 21
58.9722
  0
LINE
  8
0
 10
145.15
 20
58.9722
 11
145.349
 21
59.0706
  0
LINE
  8
0
 10
145.349
 20
59.0706
 11
145.56
 21
59.1421
  0
LINE
  8
0
 10
145.56
 20
59.1421
 11
145.778
 21
59.1855
  0
LINE
  8
0
 10
145.778
 20
59.1855
 11
146
 21
59.2
  0
LINE
  8
0
 10
146
 20
59.2
 11
146.222
 21
59.1855
  0
LINE
  8
0
 10
146.222
 20
59.1855
 11
146.44
 21
59.1421
  0
LINE
  8
0
 10
146.44
 20
59.1421
 11
146.651
 21
59.0706
  0
LINE
  8
0
 10
146.651
 20
59.0706
 11
146.85
 21
58.9722
  0
LINE
  8
0
 10
146.85
 20
58.9722
 11
147.035
 21
58.8487
  0
LINE
  8
0
 10
147.035
 20
58.8487
 11
147.202
 21
58.7021
  0
LINE
  8
0
 10
147.202
 20
58.7021
 11
147.349
 21
58.5349
  0
LINE
  8
0
 10
147.349
 20
58.5349
 11
147.472
 21
58.35
  0
LINE
  8
0
 10
147.472
 20
58.35
 11
147.571
 21
58.1506
  0
LINE
  8
0
 10
147.571
 20
58.1506
 11
147.642
 21
57.94
  0
LINE
  8
0
 10
147.642
 20
57.94
 11
147.685
 21
57.7219
  0
LINE
  8
0
 10
147.685
 20
57.7219
 11
147.7
 21
57.5
  0
LINE
  8
0
 10
147.7
 20
57.5
 11
147.685
 21
57.2781
  0
LINE
  8
0
 10
147.685
 20
57.2781
 11
147.642
 21
57.06
  0
LINE
  8
0
 10
147.642
 20
57.06
 11
147.571
 21
56.8494
  0
LINE
  8
0
 10
147.571
 20
56.8494
 11
147.472
 21
56.65
  0
LINE
  8
0
 10
147.472
 20
56.65
 11
147.349
 21
56.4651
  0
LINE
  8
0
 10
147.349
 20
56.4651
 11
147.202
 21
56.2979
  0
LINE
  8
0
 10
147.202
 20
56.2979
 11
147.035
 21
56.1513
  0
LINE
  8
0
 10
147.035
 20
56.1513
 11
146.85
 21
56.0278
  0
LINE
  8
0
 10
146.85
 20
56.0278
 11
146.651
 21
55.9294
  0
LINE
  8
0
 10
146.651
 20
55.9294
 11
146.44
 21
55.8579
  0
LINE
  8
0
 10
146.44
 20
55.8579
 11
146.222
 21
55.8145
  0
LINE
  8
0
 10
146.222
 20
55.8145
 11
146
 21
55.8
  0
LINE
  8
0
 10
146
 20
55.8
 11
145.778
 21
55.8145
  0
LINE
  8
0
 10
19.7781
 20
55.8145
 11
19.56
 21
55.8579
  0
LINE
  8
0
 10
19.56
 20
55.8579
 11
19.3494
 21
55.9294
  0
LINE
  8
0
 10
19.3494
 20
55.9294
 11
19.15
 21
56.0278
  0
LINE
  8
0
 10
19.15
 20
56.0278
 11
18.9651
 21
56.1513
  0
LINE
  8
0
 10
18.9651
 20
56.1513
 11
18.7979
 21
56.2979
  0
LINE
  8
0
 10
18.7979
 20
56.2979
 11
18.6513
 21
56.4651
  0
LINE
  8
0
 10
18.6513
 20
56.4651
 11
18.5278
 21
56.65
  0
LINE
  8
0
 10
18.5278
 20
56.65
 11
18.4294
 21
56.8494
  0
LINE
  8
0
 10
18.4294
 20
56.8494
 11
18.3579
 21
57.06
  0
LINE
  8
0
 10
18.3579
 20
57.06
 11
18.3145
 21
57.2781
  0
LINE
  8
0
 10
18.3145
 20
57.2781
 11
18.3
 21
57.5
  0
LINE
  8
0
 10
18.3
 20
57.5
 11
18.3145
 21
57.7219
  0
LINE
  8
0
 10
18.3145
 20
57.7219
 11
18.3579
 21
57.94
  0
LINE
  8
0
 10
18.3579
 20
57.94
 11
18.4294
 21
58.1506
  0
LINE
  8
0
 10
18.4294
 20
58.1506
 11
18.5278
 21
58.35
  0
LINE
  8
0
 10
18.5278
 20
58.35
 11
18.6513
 21
58.5349
  0
LINE
  8
0
 10
18.6513
 20
58.5349
 11
18.7979
 21
58.7021
  0
LINE
  8
0
 10
18.7979
 20
58.7021
 11
18.9651
 21
58.8487
  0
LINE
  8
0
 10
18.9651
 20
58.8487
 11
19.15
 21
58.9722
  0
LINE
  8
0
 10
19.15
 20
58.9722
 11
19.3494
 21
59.0706
  0
LINE
  8
0
 10
19.3494
 20
59.0706
 11
19.56
 21
59.1421
  0
LINE
  8
0
 10
19.56
 20
59.1421
 11
19.7781
 21
59.1855
  0
LINE
  8
0
 10
19.7781
 20
59.1855
 11
20
 21
59.2
  0
LINE
  8
0
 10
20
 20
59.2
 11
20.2219
 21
59.1855
  0
LINE
  8
0
 10
20.2219
 20
59.1855
 11
20.44
 21
59.1421
  0
LINE
  8
0
 10
20.44
 20
59.1421
 11
20.6506
 21
59.0706
  0
LINE
  8
0
 10
20.6506
 20
59.0706
 11
20.85
 21
58.9722
  0
LINE
  8
0
 10
20.85
 20
58.9722
 11
21.0349
 21
58.8487
  0
LINE
  8
0
 10
21.0349
 20
58.8487
 11
21.2021
 21
58.7021
  0
LINE
  8
0
 10
21.2021
 20
58.7021
 11
21.3487
 21
58.5349
  0
LINE
  8
0
 10
21.3487
 20
58.5349
 11
21.4722
 21
58.35
  0
LINE
  8
0
 10
21.4722
 20
58.35
 11
21.5706
 21
58.1506
  0
LINE
  8
0
 10
21.5706
 20
58.1506
 11
21.6421
 21
57.94
  0
LINE
  8
0
 10
21.6421
 20
57.94
 11
21.6855
 21
57.7219
  0
LINE
  8
0
 10
21.6855
 20
57.7219
 11
21.7
 21
57.5
  0
LINE
  8
0
 10
21.7
 20
57.5
 11
21.6855
 21
57.2781
  0
LINE
  8
0
 10
21.6855
 20
57.2781
 11
21.6421
 21
57.06
  0
LINE
  8
0
 10
21.6421
 20
57.06
 11
21.5706
 21
56.8494
  0
LINE
  8
0
 10
21.5706
 20
56.8494
 11
21.4722
 21
56.65
  0
LINE
  8
0
 10
21.4722
 20
56.65
 11
21.3487
 21
56.4651
  0
LINE
  8
0
 10
21.3487
 20
56.4651
 11
21.2021
 21
56.2979
  0
LINE
  8
0
 10
21.2021
 20
56.2979
 11
21.0349
 21
56.1513
  0
LINE
  8
0
 10
21.0349
 20
56.1513
 11
20.85
 21
56.0278
  0
LINE
  8
0
 10
20.85
 20
56.0278
 11
20.6506
 21
55.9294
  0
LINE
  8
0
 10
20.6506
 20
55.9294
 11
20.44
 21
55.8579
  0
LINE
  8
0
 10
20.44
 20
55.8579
 11
20.2219
 21
55.8145
  0
LINE
  8
0
 10
20.2219
 20
55.8145
 11
20
 21
55.8
  0
LINE
  8
0
 10
20
 20
55.8
 11
19.7781
 21
55.8145
  0
LINE
  8
0
 10
46.7781
 20
55.8145
 11
46.56
 21
55.8579
  0
LINE
  8
0
 10
46.56
 20
55.8579
 11
46.3494
 21
55.9294
  0
LINE
  8
0
 10
46.3494
 20
55.9294
 11
46.15
 21
56.0278
  0
LINE
  8
0
 10
46.15
 20
56.0278
 11
45.9651
 21
56.1513
  0
LINE
  8
0
 10
45.9651
 20
56.1513
 11
45.7979
 21
56.2979
  0
LINE
  8
0
 10
45.7979
 20
56.2979
 11
45.6513
 21
56.4651
  0
LINE
  8
0
 10
45.6513
 20
56.4651
 11
45.5278
 21
56.65
  0
LINE
  8
0
 10
45.5278
 20
56.65
 11
45.4294
 21
56.8494
  0
LINE
  8
0
 10
45.4294
 20
56.8494
 11
45.3579
 21
57.06
  0
LINE
  8
0
 10
45.3579
 20
57.06
 11
45.3145
 21
57.2781
  0
LINE
  8
0
 10
45.3145
 20
57.2781
 11
45.3
 21
57.5
  0
LINE
  8
0
 10
45.3
 20
57.5
 11
45.3145
 21
57.7219
  0
LINE
  8
0
 10
45.3145
 20
57.7219
 11
45.3579
 21
57.94
  0
LINE
  8
0
 10
45.3579
 20
57.94
 11
45.4294
 21
58.1506
  0
LINE
  8
0
 10
45.4294
 20
58.1506
 11
45.5278
 21
58.35
  0
LINE
  8
0
 10
45.5278
 20
58.35
 11
45.6513
 21
58.5349
  0
LINE
  8
0
 10
45.6513
 20
58.5349
 11
45.7979
 21
58.7021
  0
LINE
  8
0
 10
45.7979
 20
58.7021
 11
45.9651
 21
58.8487
  0
LINE
  8
0
 10
45.9651
 20
58.8487
 11
46.15
 21
58.9722
  0
LINE
  8
0
 10
46.15
 20
58.9722
 11
46.3494
 21
59.0706
  0
LINE
  8
0
 10
46.3494
 20
59.0706
 11
46.56
 21
59.1421
  0
LINE
  8
0
 10
46.56
 20
59.1421
 11
46.7781
 21
59.1855
  0
LINE
  8
0
 10
46.7781
 20
59.1855
 11
47
 21
59.2
  0
LINE
  8
0
 10
47
 20
59.2
 11
47.2219
 21
59.1855
  0
LINE
  8
0
 10
47.2219
 20
59.1855
 11
47.44
 21
59.1421
  0
LINE
  8
0
 10
47.44
 20
59.1421
 11
47.6506
 21
59.0706
  0
LINE
  8
0
 10
47.6506
 20
59.0706
 11
47.85
 21
58.9722
  0
LINE
  8
0
 10
47.85
 20
58.9722
 11
48.0349
 21
58.8487
  0
LINE
  8
0
 10
48.0349
 20
58.8487
 11
48.2021
 21
58.7021
  0
LINE
  8
0
 10
48.2021
 20
58.7021
 11
48.3487
 21
58.5349
  0
LINE
  8
0
 10
48.3487
 20
58.5349
 11
48.4722
 21
58.35
  0
LINE
  8
0
 10
48.4722
 20
58.35
 11
48.5706
 21
58.1506
  0
LINE
  8
0
 10
48.5706
 20
58.1506
 11
48.6421
 21
57.94
  0
LINE
  8
0
 10
48.6421
 20
57.94
 11
48.6855
 21
57.7219
  0
LINE
  8
0
 10
48.6855
 20
57.7219
 11
48.7
 21
57.5
  0
LINE
  8
0
 10
48.7
 20
57.5
 11
48.6855
 21
57.2781
  0
LINE
  8
0
 10
48.6855
 20
57.2781
 11
48.6421
 21
57.06
  0
LINE
  8
0
 10
48.6421
 20
57.06
 11
48.5706
 21
56.8494
  0
LINE
  8
0
 10
48.5706
 20
56.8494
 11
48.4722
 21
56.65
  0
LINE
  8
0
 10
48.4722
 20
56.65
 11
48.3487
 21
56.4651
  0
LINE
  8
0
 10
48.3487
 20
56.4651
 11
48.2021
 21
56.2979
  0
LINE
  8
0
 10
48.2021
 20
56.2979
 11
48.0349
 21
56.1513
  0
LINE
  8
0
 10
48.0349
 20
56.1513
 11
47.85
 21
56.0278
  0
LINE
  8
0
 10
47.85
 20
56.0278
 11
47.6506
 21
55.9294
  0
LINE
  8
0
 10
47.6506
 20
55.9294
 11
47.44
 21
55.8579
  0
LINE
  8
0
 10
47.44
 20
55.8579
 11
47.2219
 21
55.8145
  0
LINE
  8
0
 10
47.2219
 20
55.8145
 11
47
 21
55.8
  0
LINE
  8
0
 10
47
 20
55.8
 11
46.7781
 21
55.8145
  0
LINE
  8
0
 10
38.5
 20
24
 11
38.5
 21
41
  0
LINE
  8
0
 10
38.5
 20
41
 11
55.5
 21
41
  0
LINE
  8
0
 10
55.5
 20
41
 11
55.5
 21
24
  0
LINE
  8
0
 10
55.5
 20
24
 11
38.5
 21
24
  0
LINE
  8
0
 10
13.7781
 20
23.3145
 11
13.56
 21
23.3579
  0
LINE
  8
0
 10
13.56
 20
23.3579
 11
13.3494
 21
23.4294
  0
LINE
  8
0
 10
13.3494
 20
23.4294
 11
13.15
 21
23.5278
  0
LINE
  8
0
 10
13.15
 20
23.5278
 11
12.9651
 21
23.6513
  0
LINE
  8
0
 10
12.9651
 20
23.6513
 11
12.7979
 21
23.7979
  0
LINE
  8
0
 10
12.7979
 20
23.7979
 11
12.6513
 21
23.9651
  0
LINE
  8
0
 10
12.6513
 20
23.9651
 11
12.5278
 21
24.15
  0
LINE
  8
0
 10
12.5278
 20
24.15
 11
12.4294
 21
24.3494
  0
LINE
  8
0
 10
12.4294
 20
24.3494
 11
12.3579
 21
24.56
  0
LINE
  8
0
 10
12.3579
 20
24.56
 11
12.3145
 21
24.7781
  0
LINE
  8
0
 10
12.3145
 20
24.7781
 11
12.3
 21
25
  0
LINE
  8
0
 10
12.3
 20
25
 11
12.3145
 21
25.2219
  0
LINE
  8
0
 10
12.3145
 20
25.2219
 11
12.3579
 21
25.44
  0
LINE
  8
0
 10
12.3579
 20
25.44
 11
12.4294
 21
25.6506
  0
LINE
  8
0
 10
12.4294
 20
25.6506
 11
12.5278
 21
25.85
  0
LINE
  8
0
 10
12.5278
 20
25.85
 11
12.6513
 21
26.0349
  0
LINE
  8
0
 10
12.6513
 20
26.0349
 11
12.7979
 21
26.2021
  0
LINE
  8
0
 10
12.7979
 20
26.2021
 11
12.9651
 21
26.3487
  0
LINE
  8
0
 10
12.9651
 20
26.3487
 11
13.15
 21
26.4722
  0
LINE
  8
0
 10
13.15
 20
26.4722
 11
13.3494
 21
26.5706
  0
LINE
  8
0
 10
13.3494
 20
26.5706
 11
13.56
 21
26.6421
  0
LINE
  8
0
 10
13.56
 20
26.6421
 11
13.7781
 21
26.6855
  0
LINE
  8
0
 10
13.7781
 20
26.6855
 11
14
 21
26.7
  0
LINE
  8
0
 10
14
 20
26.7
 11
14.2219
 21
26.6855
  0
LINE
  8
0
 10
14.2219
 20
26.6855
 11
14.44
 21
26.6421
  0
LINE
  8
0
 10
14.44
 20
26.6421
 11
14.6506
 21
26.5706
  0
LINE
  8
0
 10
14.6506
 20
26.5706
 11
14.85
 21
26.4722
  0
LINE
  8
0
 10
14.85
 20
26.4722
 11
15.0349
 21
26.3487
  0
LINE
  8
0
 10
15.0349
 20
26.3487
 11
15.2021
 21
26.2021
  0
LINE
  8
0
 10
15.2021
 20
26.2021
 11
15.3487
 21
26.0349
  0
LINE
  8
0
 10
15.3487
 20
26.0349
 11
15.4722
 21
25.85
  0
LINE
  8
0
 10
15.4722
 20
25.85
 11
15.5706
 21
25.6506
  0
LINE
  8
0
 10
15.5706
 20
25.6506
 11
15.6421
 21
25.44
  0
LINE
  8
0
 10
15.6421
 20
25.44
 11
15.6855
 21
25.2219
  0
LINE
  8
0
 10
15.6855
 20
25.2219
 11
15.7
 21
25
  0
LINE
  8
0
 10
15.7
 20
25
 11
15.6855
 21
24.7781
  0
LINE
  8
0
 10
15.6855
 20
24.7781
 11
15.6421
 21
24.56
  0
LINE
  8
0
 10
15.6421
 20
24.56
 11
15.5706
 21
24.3494
  0
LINE
  8
0
 10
15.5706
 20
24.3494
 11
15.4722
 21
24.15
  0
LINE
  8
0
 10
15.4722
 20
24.15
 11
15.3487
 21
23.9651
  0
LINE
  8
0
 10
15.3487
 20
23.9651
 11
15.2021
 21
23.7979
  0
LINE
  8
0
 10
15.2021
 20
23.7979
 11
15.0349
 21
23.6513
  0
LINE
  8
0
 10
15.0349
 20
23.6513
 11
14.85
 21
23.5278
  0
LINE
  8
0
 10
14.85
 20
23.5278
 11
14.6506
 21
23.4294
  0
LINE
  8
0
 10
14.6506
 20
23.4294
 11
14.44
 21
23.3579
  0
LINE
  8
0
 10
14.44
 20
23.3579
 11
14.2219
 21
23.3145
  0
LINE
  8
0
 10
14.2219
 20
23.3145
 11
14
 21
23.3
  0
LINE
  8
0
 10
14
 20
23.3
 11
13.7781
 21
23.3145
  0
LINE
  8
0
 10
167.778
 20
23.3145
 11
167.56
 21
23.3579
  0
LINE
  8
0
 10
167.56
 20
23.3579
 11
167.349
 21
23.4294
  0
LINE
  8
0
 10
167.349
 20
23.4294
 11
167.15
 21
23.5278
  0
LINE
  8
0
 10
167.15
 20
23.5278
 11
166.965
 21
23.6513
  0
LINE
  8
0
 10
166.965
 20
23.6513
 11
166.798
 21
23.7979
  0
LINE
  8
0
 10
166.798
 20
23.7979
 11
166.651
 21
23.9651
  0
LINE
  8
0
 10
166.651
 20
23.9651
 11
166.528
 21
24.15
  0
LINE
  8
0
 10
166.528
 20
24.15
 11
166.429
 21
24.3494
  0
LINE
  8
0
 10
166.429
 20
24.3494
 11
166.358
 21
24.56
  0
LINE
  8
0
 10
166.358
 20
24.56
 11
166.315
 21
24.7781
  0
LINE
  8
0
 10
166.315
 20
24.7781
 11
166.3
 21
25
  0
LINE
  8
0
 10
166.3
 20
25
 11
166.315
 21
25.2219
  0
LINE
  8
0
 10
166.315
 20
25.2219
 11
166.358
 21
25.44
  0
LINE
  8
0
 10
166.358
 20
25.44
 11
166.429
 21
25.6506
  0
LINE
  8
0
 10
166.429
 20
25.6506
 11
166.528
 21
25.85
  0
LINE
  8
0
 10
166.528
 20
25.85
 11
166.651
 21
26.0349
  0
LINE
  8
0
 10
166.651
 20
26.0349
 11
166.798
 21
26.2021
  0
LINE
  8
0
 10
166.798
 20
26.2021
 11
166.965
 21
26.3487
  0
LINE
  8
0
 10
166.965
 20
26.3487
 11
167.15
 21
26.4722
  0
LINE
  8
0
 10
167.15
 20
26.4722
 11
167.349
 21
26.5706
  0
LINE
  8
0
 10
167.349
 20
26.5706
 11
167.56
 21
26.6421
  0
LINE
  8
0
 10
167.56
 20
26.6421
 11
167.778
 21
26.6855
  0
LINE
  8
0
 10
167.778
 20
26.6855
 11
168
 21
26.7
  0
LINE
  8
0
 10
168
 20
26.7
 11
168.222
 21
26.6855
  0
LINE
  8
0
 10
168.222
 20
26.6855
 11
168.44
 21
26.6421
  0
LINE
  8
0
 10
168.44
 20
26.6421
 11
168.651
 21
26.5706
  0
LINE
  8
0
 10
168.651
 20
26.5706
 11
168.85
 21
26.4722
  0
LINE
  8
0
 10
168.85
 20
26.4722
 11
169.035
 21
26.3487
  0
LINE
  8
0
 10
169.035
 20
26.3487
 11
169.202
 21
26.2021
  0
LINE
  8
0
 10
169.202
 20
26.2021
 11
169.349
 21
26.0349
  0
LINE
  8
0
 10
169.349
 20
26.0349
 11
169.472
 21
25.85
  0
LINE
  8
0
 10
169.472
 20
25.85
 11
169.571
 21
25.6506
  0
LINE
  8
0
 10
169.571
 20
25.6506
 11
169.642
 21
25.44
  0
LINE
  8
0
 10
169.642
 20
25.44
 11
169.685
 21
25.2219
  0
LINE
  8
0
 10
169.685
 20
25.2219
 11
169.7
 21
25
  0
LINE
  8
0
 10
169.7
 20
25
 11
169.685
 21
24.7781
  0
LINE
  8
0
 10
169.685
 20
24.7781
 11
169.642
 21
24.56
  0
LINE
  8
0
 10
169.642
 20
24.56
 11
169.571
 21
24.3494
  0
LINE
  8
0
 10
169.571
 20
24.3494
 11
169.472
 21
24.15
  0
LINE
  8
0
 10
169.472
 20
24.15
 11
169.349
 21
23.9651
  0
LINE
  8
0
 10
169.349
 20
23.9651
 11
169.202
 21
23.7979
  0
LINE
  8
0
 10
169.202
 20
23.7979
 11
169.035
 21
23.6513
  0
LINE
  8
0
 10
169.035
 20
23.6513
 11
168.85
 21
23.5278
  0
LINE
  8
0
 10
168.85
 20
23.5278
 11
168.651
 21
23.4294
  0
LINE
  8
0
 10
168.651
 20
23.4294
 11
168.44
 21
23.3579
  0
LINE
  8
0
 10
168.44
 20
23.3579
 11
168.222
 21
23.3145
  0
LINE
  8
0
 10
168.222
 20
23.3145
 11
168
 21
23.3
  0
LINE
  8
0
 10
168
 20
23.3
 11
167.778
 21
23.3145
  0
LINE
  8
0
 10
46.7781
 20
5.81453
 11
46.56
 21
5.85793
  0
LINE
  8
0
 10
46.56
 20
5.85793
 11
46.3494
 21
5.9294
  0
LINE
  8
0
 10
46.3494
 20
5.9294
 11
46.15
 21
6.02776
  0
LINE
  8
0
 10
46.15
 20
6.02776
 11
45.9651
 21
6.15129
  0
LINE
  8
0
 10
45.9651
 20
6.15129
 11
45.7979
 21
6.29791
  0
LINE
  8
0
 10
45.7979
 20
6.29791
 11
45.6513
 21
6.4651
  0
LINE
  8
0
 10
45.6513
 20
6.4651
 11
45.5278
 21
6.64999
  0
LINE
  8
0
 10
45.5278
 20
6.64999
 11
45.4294
 21
6.84943
  0
LINE
  8
0
 10
45.4294
 20
6.84943
 11
45.3579
 21
7.06
  0
LINE
  8
0
 10
45.3579
 20
7.06
 11
45.3145
 21
7.27809
  0
LINE
  8
0
 10
45.3145
 20
7.27809
 11
45.3
 21
7.5
  0
LINE
  8
0
 10
45.3
 20
7.5
 11
45.3145
 21
7.72189
  0
LINE
  8
0
 10
45.3145
 20
7.72189
 11
45.3579
 21
7.93999
  0
LINE
  8
0
 10
45.3579
 20
7.93999
 11
45.4294
 21
8.15056
  0
LINE
  8
0
 10
45.4294
 20
8.15056
 11
45.5278
 21
8.34999
  0
LINE
  8
0
 10
45.5278
 20
8.34999
 11
45.6513
 21
8.53488
  0
LINE
  8
0
 10
45.6513
 20
8.53488
 11
45.7979
 21
8.70207
  0
LINE
  8
0
 10
45.7979
 20
8.70207
 11
45.9651
 21
8.84869
  0
LINE
  8
0
 10
45.9651
 20
8.84869
 11
46.15
 21
8.97223
  0
LINE
  8
0
 10
46.15
 20
8.97223
 11
46.3494
 21
9.07059
  0
LINE
  8
0
 10
46.3494
 20
9.07059
 11
46.56
 21
9.14206
  0
LINE
  8
0
 10
46.56
 20
9.14206
 11
46.7781
 21
9.18546
  0
LINE
  8
0
 10
46.7781
 20
9.18546
 11
47
 21
9.2
  0
LINE
  8
0
 10
47
 20
9.2
 11
47.2219
 21
9.18546
  0
LINE
  8
0
 10
47.2219
 20
9.18546
 11
47.44
 21
9.14206
  0
LINE
  8
0
 10
47.44
 20
9.14206
 11
47.6506
 21
9.07059
  0
LINE
  8
0
 10
47.6506
 20
9.07059
 11
47.85
 21
8.97223
  0
LINE
  8
0
 10
47.85
 20
8.97223
 11
48.0349
 21
8.84869
  0
LINE
  8
0
 10
48.0349
 20
8.84869
 11
48.2021
 21
8.70207
  0
LINE
  8
0
 10
48.2021
 20
8.70207
 11
48.3487
 21
8.53488
  0
LINE
  8
0
 10
48.3487
 20
8.53488
 11
48.4722
 21
8.34999
  0
LINE
  8
0
 10
48.4722
 20
8.34999
 11
48.5706
 21
8.15056
  0
LINE
  8
0
 10
48.5706
 20
8.15056
 11
48.6421
 21
7.93999
  0
LINE
  8
0
 10
48.6421
 20
7.93999
 11
48.6855
 21
7.72189
  0
LINE
  8
0
 10
48.6855
 20
7.72189
 11
48.7
 21
7.5
  0
LINE
  8
0
 10
48.7
 20
7.5
 11
48.6855
 21
7.27809
  0
LINE
  8
0
 10
48.6855
 20
7.27809
 11
48.6421
 21
7.06
  0
LINE
  8
0
 10
48.6421
 20
7.06
 11
48.5706
 21
6.84943
  0
LINE
  8
0
 10
48.5706
 20
6.84943
 11
48.4722
 21
6.64999
  0
LINE
  8
0
 10
48.4722
 20
6.64999
 11
48.3487
 21
6.4651
  0
LINE
  8
0
 10
48.3487
 20
6.4651
 11
48.2021
 21
6.29791
  0
LINE
  8
0
 10
48.2021
 20
6.29791
 11
48.0349
 21
6.15129
  0
LINE
  8
0
 10
48.0349
 20
6.15129
 11
47.85
 21
6.02776
  0
LINE
  8
0
 10
47.85
 20
6.02776
 11
47.6506
 21
5.9294
  0
LINE
  8
0
 10
47.6506
 20
5.9294
 11
47.44
 21
5.85793
  0
LINE
  8
0
 10
47.44
 20
5.85793
 11
47.2219
 21
5.81453
  0
LINE
  8
0
 10
47.2219
 20
5.81453
 11
47
 21
5.79999
  0
LINE
  8
0
 10
47
 20
5.79999
 11
46.7781
 21
5.81453
  0
LINE
  8
0
 10
155.778
 20
5.81453
 11
155.56
 21
5.85793
  0
LINE
  8
0
 10
155.56
 20
5.85793
 11
155.349
 21
5.9294
  0
LINE
  8
0
 10
155.349
 20
5.9294
 11
155.15
 21
6.02776
  0
LINE
  8
0
 10
155.15
 20
6.02776
 11
154.965
 21
6.15129
  0
LINE
  8
0
 10
154.965
 20
6.15129
 11
154.798
 21
6.29791
  0
LINE
  8
0
 10
154.798
 20
6.29791
 11
154.651
 21
6.4651
  0
LINE
  8
0
 10
154.651
 20
6.4651
 11
154.528
 21
6.64999
  0
LINE
  8
0
 10
154.528
 20
6.64999
 11
154.429
 21
6.84943
  0
LINE
  8
0
 10
154.429
 20
6.84943
 11
154.358
 21
7.06
  0
LINE
  8
0
 10
154.358
 20
7.06
 11
154.315
 21
7.27809
  0
LINE
  8
0
 10
154.315
 20
7.27809
 11
154.3
 21
7.5
  0
LINE
  8
0
 10
154.3
 20
7.5
 11
154.315
 21
7.72189
  0
LINE
  8
0
 10
154.315
 20
7.72189
 11
154.358
 21
7.93999
  0
LINE
  8
0
 10
154.358
 20
7.93999
 11
154.429
 21
8.15056
  0
LINE
  8
0
 10
154.429
 20
8.15056
 11
154.528
 21
8.34999
  0
LINE
  8
0
 10
154.528
 20
8.34999
 11
154.651
 21
8.53488
  0
LINE
  8
0
 10
154.651
 20
8.53488
 11
154.798
 21
8.70207
  0
LINE
  8
0
 10
154.798
 20
8.70207
 11
154.965
 21
8.84869
  0
LINE
  8
0
 10
154.965
 20
8.84869
 11
155.15
 21
8.97223
  0
LINE
  8
0
 10
155.15
 20
8.97223
 11
155.349
 21
9.07059
  0
LINE
  8
0
 10
155.349
 20
9.07059
 11
155.56
 21
9.14206
  0
LINE
  8
0
 10
155.56
 20
9.14206
 11
155.778
 21
9.18546
  0
LINE
  8
0
 10
155.778
 20
9.18546
 11
156
 21
9.2
  0
LINE
  8
0
 10
156
 20
9.2
 11
156.222
 21
9.18546
  0
LINE
  8
0
 10
156.222
 20
9.18546
 11
156.44
 21
9.14206
  0
LINE
  8
0
 10
156.44
 20
9.14206
 11
156.651
 21
9.07059
  0
LINE
  8
0
 10
156.651
 20
9.07059
 11
156.85
 21
8.97223
  0
LINE
  8
0
 10
156.85
 20
8.97223
 11
157.035
 21
8.84869
  0
LINE
  8
0
 10
157.035
 20
8.84869
 11
157.202
 21
8.70207
  0
LINE
  8
0
 10
157.202
 20
8.70207
 11
157.349
 21
8.53488
  0
LINE
  8
0
 10
157.349
 20
8.53488
 11
157.472
 21
8.34999
  0
LINE
  8
0
 10
157.472
 20
8.34999
 11
157.571
 21
8.15056
  0
LINE
  8
0
 10
157.571
 20
8.15056
 11
157.642
 21
7.93999
  0
LINE
  8
0
 10
157.642
 20
7.93999
 11
157.685
 21
7.72189
  0
LINE
  8
0
 10
157.685
 20
7.72189
 11
157.7
 21
7.5
  0
LINE
  8
0
 10
157.7
 20
7.5
 11
157.685
 21
7.27809
  0
LINE
  8
0
 10
157.685
 20
7.27809
 11
157.642
 21
7.06
  0
LINE
  8
0
 10
157.642
 20
7.06
 11
157.571
 21
6.84943
  0
LINE
  8
0
 10
157.571
 20
6.84943
 11
157.472
 21
6.64999
  0
LINE
  8
0
 10
157.472
 20
6.64999
 11
157.349
 21
6.4651
  0
LINE
  8
0
 10
157.349
 20
6.4651
 11
157.202
 21
6.29791
  0
LINE
  8
0
 10
157.202
 20
6.29791
 11
157.035
 21
6.15129
  0
LINE
  8
0
 10
157.035
 20
6.15129
 11
156.85
 21
6.02776
  0
LINE
  8
0
 10
156.85
 20
6.02776
 11
156.651
 21
5.9294
  0
LINE
  8
0
 10
156.651
 20
5.9294
 11
156.44
 21
5.85793
  0
LINE
  8
0
 10
156.44
 20
5.85793
 11
156.222
 21
5.81453
  0
LINE
  8
0
 10
156.222
 20
5.81453
 11
156
 21
5.79999
  0
LINE
  8
0
 10
156
 20
5.79999
 11
155.778
 21
5.81453
  0
LINE
  8
0
 10
145.778
 20
5.81453
 11
145.56
 21
5.85793
  0
LINE
  8
0
 10
145.56
 20
5.85793
 11
145.349
 21
5.9294
  0
LINE
  8
0
 10
145.349
 20
5.9294
 11
145.15
 21
6.02776
  0
LINE
  8
0
 10
145.15
 20
6.02776
 11
144.965
 21
6.15129
  0
LINE
  8
0
 10
144.965
 20
6.15129
 11
144.798
 21
6.29791
  0
LINE
  8
0
 10
144.798
 20
6.29791
 11
144.651
 21
6.4651
  0
LINE
  8
0
 10
144.651
 20
6.4651
 11
144.528
 21
6.64999
  0
LINE
  8
0
 10
144.528
 20
6.64999
 11
144.429
 21
6.84943
  0
LINE
  8
0
 10
144.429
 20
6.84943
 11
144.358
 21
7.06
  0
LINE
  8
0
 10
144.358
 20
7.06
 11
144.315
 21
7.27809
  0
LINE
  8
0
 10
144.315
 20
7.27809
 11
144.3
 21
7.5
  0
LINE
  8
0
 10
144.3
 20
7.5
 11
144.315
 21
7.72189
  0
LINE
  8
0
 10
144.315
 20
7.72189
 11
144.358
 21
7.93999
  0
LINE
  8
0
 10
144.358
 20
7.93999
 11
144.429
 21
8.15056
  0
LINE
  8
0
 10
144.429
 20
8.15056
 11
144.528
 21
8.34999
  0
LINE
  8
0
 10
144.528
 20
8.34999
 11
144.651
 21
8.53488
  0
LINE
  8
0
 10
144.651
 20
8.53488
 11
144.798
 21
8.70207
  0
LINE
  8
0
 10
144.798
 20
8.70207
 11
144.965
 21
8.84869
  0
LINE
  8
0
 10
144.965
 20
8.84869
 11
145.15
 21
8.97223
  0
LINE
  8
0
 10
145.15
 20
8.97223
 11
145.349
 21
9.07059
  0
LINE
  8
0
 10
145.349
 20
9.07059
 11
145.56
 21
9.14206
  0
LINE
  8
0
 10
145.56
 20
9.14206
 11
145.778
 21
9.18546
  0
LINE
  8
0
 10
145.778
 20
9.18546
 11
146
 21
9.2
  0
LINE
  8
0
 10
146
 20
9.2
 11
146.222
 21
9.18546
  0
LINE
  8
0
 10
146.222
 20
9.18546
 11
146.44
 21
9.14206
  0
LINE
  8
0
 10
146.44
 20
9.14206
 11
146.651
 21
9.07059
  0
LINE
  8
0
 10
146.651
 20
9.07059
 11
146.85
 21
8.97223
  0
LINE
  8
0
 10
146.85
 20
8.97223
 11
147.035
 21
8.84869
  0
LINE
  8
0
 10
147.035
 20
8.84869
 11
147.202
 21
8.70207
  0
LINE
  8
0
 10
147.202
 20
8.70207
 11
147.349
 21
8.53488
  0
LINE
  8
0
 10
147.349
 20
8.53488
 11
147.472
 21
8.34999
  0
LINE
  8
0
 10
147.472
 20
8.34999
 11
147.571
 21
8.15056
  0
LINE
  8
0
 10
147.571
 20
8.15056
 11
147.642
 21
7.93999
  0
LINE
  8
0
 10
147.642
 20
7.93999
 11
147.685
 21
7.72189
  0
LINE
  8
0
 10
147.685
 20
7.72189
 11
147.7
 21
7.5
  0
LINE
  8
0
 10
147.7
 20
7.5
 11
147.685
 21
7.27809
  0
LINE
  8
0
 10
147.685
 20
7.27809
 11
147.642
 21
7.06
  0
LINE
  8
0
 10
147.642
 20
7.06
 11
147.571
 21
6.84943
  0
LINE
  8
0
 10
147.571
 20
6.84943
 11
147.472
 21
6.64999
  0
LINE
  8
0
 10
147.472
 20
6.64999
 11
147.349
 21
6.4651
  0
LINE
  8
0
 10
147.349
 20
6.4651
 11
147.202
 21
6.29791
  0
LINE
  8
0
 10
147.202
 20
6.29791
 11
147.035
 21
6.15129
  0
LINE
  8
0
 10
147.035
 20
6.15129
 11
146.85
 21
6.02776
  0
LINE
  8
0
 10
146.85
 20
6.02776
 11
146.651
 21
5.9294
  0
LINE
  8
0
 10
146.651
 20
5.9294
 11
146.44
 21
5.85793
  0
LINE
  8
0
 10
146.44
 20
5.85793
 11
146.222
 21
5.81453
  0
LINE
  8
0
 10
146.222
 20
5.81453
 11
146
 21
5.79999
  0
LINE
  8
0
 10
146
 20
5.79999
 11
145.778
 21
5.81453
  0
LINE
  8
0
 10
19.7781
 20
5.81453
 11
19.56
 21
5.85793
  0
LINE
  8
0
 10
19.56
 20
5.85793
 11
19.3494
 21
5.9294
  0
LINE
  8
0
 10
19.3494
 20
5.9294
 11
19.15
 21
6.02776
  0
LINE
  8
0
 10
19.15
 20
6.02776
 11
18.9651
 21
6.15129
  0
LINE
  8
0
 10
18.9651
 20
6.15129
 11
18.7979
 21
6.29791
  0
LINE
  8
0
 10
18.7979
 20
6.29791
 11
18.6513
 21
6.4651
  0
LINE
  8
0
 10
18.6513
 20
6.4651
 11
18.5278
 21
6.64999
  0
LINE
  8
0
 10
18.5278
 20
6.64999
 11
18.4294
 21
6.84943
  0
LINE
  8
0
 10
18.4294
 20
6.84943
 11
18.3579
 21
7.06
  0
LINE
  8
0
 10
18.3579
 20
7.06
 11
18.3145
 21
7.27809
  0
LINE
  8
0
 10
18.3145
 20
7.27809
 11
18.3
 21
7.5
  0
LINE
  8
0
 10
18.3
 20
7.5
 11
18.3145
 21
7.72189
  0
LINE
  8
0
 10
18.3145
 20
7.72189
 11
18.3579
 21
7.93999
  0
LINE
  8
0
 10
18.3579
 20
7.93999
 11
18.4294
 21
8.15056
  0
LINE
  8
0
 10
18.4294
 20
8.15056
 11
18.5278
 21
8.34999
  0
LINE
  8
0
 10
18.5278
 20
8.34999
 11
18.6513
 21
8.53488
  0
LINE
  8
0
 10
18.6513
 20
8.53488
 11
18.7979
 21
8.70207
  0
LINE
  8
0
 10
18.7979
 20
8.70207
 11
18.9651
 21
8.84869
  0
LINE
  8
0
 10
18.9651
 20
8.84869
 11
19.15
 21
8.97223
  0
LINE
  8
0
 10
19.15
 20
8.97223
 11
19.3494
 21
9.07059
  0
LINE
  8
0
 10
19.3494
 20
9.07059
 11
19.56
 21
9.14206
  0
LINE
  8
0
 10
19.56
 20
9.14206
 11
19.7781
 21
9.18546
  0
LINE
  8
0
 10
19.7781
 20
9.18546
 11
20
 21
9.2
  0
LINE
  8
0
 10
20
 20
9.2
 11
20.2219
 21
9.18546
  0
LINE
  8
0
 10
20.2219
 20
9.18546
 11
20.44
 21
9.14206
  0
LINE
  8
0
 10
20.44
 20
9.14206
 11
20.6506
 21
9.07059
  0
LINE
  8
0
 10
20.6506
 20
9.07059
 11
20.85
 21
8.97223
  0
LINE
  8
0
 10
20.85
 20
8.97223
 11
21.0349
 21
8.84869
  0
LINE
  8
0
 10
21.0349
 20
8.84869
 11
21.2021
 21
8.70207
  0
LINE
  8
0
 10
21.2021
 20
8.70207
 11
21.3487
 21
8.53488
  0
LINE
  8
0
 10
21.3487
 20
8.53488
 11
21.4722
 21
8.34999
  0
LINE
  8
0
 10
21.4722
 20
8.34999
 11
21.5706
 21
8.15056
  0
LINE
  8
0
 10
21.5706
 20
8.15056
 11
21.6421
 21
7.93999
  0
LINE
  8
0
 10
21.6421
 20
7.93999
 11
21.6855
 21
7.72189
  0
LINE
  8
0
 10
21.6855
 20
7.72189
 11
21.7
 21
7.5
  0
LINE
  8
0
 10
21.7
 20
7.5
 11
21.6855
 21
7.27809
  0
LINE
  8
0
 10
21.6855
 20
7.27809
 11
21.6421
 21
7.06
  0
LINE
  8
0
 10
21.6421
 20
7.06
 11
21.5706
 21
6.84943
  0
LINE
  8
0
 10
21.5706
 20
6.84943
 11
21.4722
 21
6.64999
  0
LINE
  8
0
 10
21.4722
 20
6.64999
 11
21.3487
 21
6.4651
  0
LINE
  8
0
 10
21.3487
 20
6.4651
 11
21.2021
 21
6.29791
  0
LINE
  8
0
 10
21.2021
 20
6.29791
 11
21.0349
 21
6.15129
  0
LINE
  8
0
 10
21.0349
 20
6.15129
 11
20.85
 21
6.02776
  0
LINE
  8
0
 10
20.85
 20
6.02776
 11
20.6506
 21
5.9294
  0
LINE
  8
0
 10
20.6506
 20
5.9294
 11
20.44
 21
5.85793
  0
LINE
  8
0
 10
20.44
 20
5.85793
 11
20.2219
 21
5.81453
  0
LINE
  8
0
 10
20.2219
 20
5.81453
 11
20
 21
5.79999
  0
LINE
  8
0
 10
20
 20
5.79999
 11
19.7781
 21
5.81453
  0
ENDSEC
  0
SECTION
  2
OBJECTS
  0
DICTIONARY
  0
ENDSEC
  0
EOF
