solid OpenSCAD_Model
  facet normal -1 0 0
    outer loop
      vertex 0 -19.5 20.5668
      vertex 0 -22.5 20.5668
      vertex 0 -19.5 26.5668
    endloop
  endfacet
  facet normal -1 0 0
    outer loop
      vertex 0 19.5 26.5668
      vertex 0 22.5 20.5668
      vertex 0 19.5 20.5668
    endloop
  endfacet
  facet normal -1 0 0
    outer loop
      vertex 0 22.5 20.5668
      vertex 0 19.5 26.5668
      vertex 0 22.5 30.5668
    endloop
  endfacet
  facet normal -1 0 0
    outer loop
      vertex 0 -19.5 26.5668
      vertex 0 22.5 30.5668
      vertex 0 19.5 26.5668
    endloop
  endfacet
  facet normal -1 0 0
    outer loop
      vertex 0 -19.5 26.5668
      vertex 0 -22.5 30.5668
      vertex 0 22.5 30.5668
    endloop
  endfacet
  facet normal -1 0 0
    outer loop
      vertex 0 -22.5 30.5668
      vertex 0 -19.5 26.5668
      vertex 0 -22.5 20.5668
    endloop
  endfacet
  facet normal 1 0 0
    outer loop
      vertex 140 22.5 30.5668
      vertex 140 19.5 26.5668
      vertex 140 22.5 20.5668
    endloop
  endfacet
  facet normal 1 0 0
    outer loop
      vertex 140 22.5 30.5668
      vertex 140 -19.5 26.5668
      vertex 140 19.5 26.5668
    endloop
  endfacet
  facet normal 1 -0 0
    outer loop
      vertex 140 -22.5 30.5668
      vertex 140 -19.5 26.5668
      vertex 140 22.5 30.5668
    endloop
  endfacet
  facet normal 1 0 0
    outer loop
      vertex 140 -22.5 20.5668
      vertex 140 -19.5 26.5668
      vertex 140 -22.5 30.5668
    endloop
  endfacet
  facet normal 1 0 0
    outer loop
      vertex 140 -19.5 26.5668
      vertex 140 -22.5 20.5668
      vertex 140 -19.5 20.5668
    endloop
  endfacet
  facet normal 1 0 0
    outer loop
      vertex 140 22.5 20.5668
      vertex 140 19.5 26.5668
      vertex 140 19.5 20.5668
    endloop
  endfacet
  facet normal 0 0 -1
    outer loop
      vertex 0 -22.5 20.5668
      vertex 140 -19.5 20.5668
      vertex 140 -22.5 20.5668
    endloop
  endfacet
  facet normal -0 0 -1
    outer loop
      vertex 140 -19.5 20.5668
      vertex 0 -22.5 20.5668
      vertex 0 -19.5 20.5668
    endloop
  endfacet
  facet normal 0 -1 0
    outer loop
      vertex 0 -22.5 20.5668
      vertex 124.959 -22.5 30.5668
      vertex 0 -22.5 30.5668
    endloop
  endfacet
  facet normal -0 -1 0
    outer loop
      vertex 126.15 -22.5 28.0391
      vertex 124.959 -22.5 30.5668
      vertex 125.965 -22.5 27.9155
    endloop
  endfacet
  facet normal 0 -1 0
    outer loop
      vertex 124.959 -22.5 30.5668
      vertex 127 -22.5 28.2668
      vertex 129.041 -22.5 30.5668
    endloop
  endfacet
  facet normal 0 -1 0
    outer loop
      vertex 127.222 -22.5 28.2523
      vertex 129.041 -22.5 30.5668
      vertex 127 -22.5 28.2668
    endloop
  endfacet
  facet normal -0 -1 0
    outer loop
      vertex 127 -22.5 28.2668
      vertex 124.959 -22.5 30.5668
      vertex 126.778 -22.5 28.2523
    endloop
  endfacet
  facet normal -0 -1 0
    outer loop
      vertex 126.778 -22.5 28.2523
      vertex 124.959 -22.5 30.5668
      vertex 126.56 -22.5 28.2089
    endloop
  endfacet
  facet normal -0 -1 0
    outer loop
      vertex 126.56 -22.5 28.2089
      vertex 124.959 -22.5 30.5668
      vertex 126.349 -22.5 28.1374
    endloop
  endfacet
  facet normal -0 -1 0
    outer loop
      vertex 126.349 -22.5 28.1374
      vertex 124.959 -22.5 30.5668
      vertex 126.15 -22.5 28.0391
    endloop
  endfacet
  facet normal 0 -1 0
    outer loop
      vertex 124.959 -22.5 30.5668
      vertex 125.798 -22.5 27.7689
      vertex 125.965 -22.5 27.9155
    endloop
  endfacet
  facet normal 0 -1 0
    outer loop
      vertex 124.959 -22.5 30.5668
      vertex 125.651 -22.5 27.6017
      vertex 125.798 -22.5 27.7689
    endloop
  endfacet
  facet normal 0 -1 0
    outer loop
      vertex 124.959 -22.5 30.5668
      vertex 125.528 -22.5 27.4168
      vertex 125.651 -22.5 27.6017
    endloop
  endfacet
  facet normal 0 -1 0
    outer loop
      vertex 124.959 -22.5 30.5668
      vertex 125.429 -22.5 27.2174
      vertex 125.528 -22.5 27.4168
    endloop
  endfacet
  facet normal 0 -1 0
    outer loop
      vertex 124.959 -22.5 30.5668
      vertex 125.358 -22.5 27.0068
      vertex 125.429 -22.5 27.2174
    endloop
  endfacet
  facet normal 0 -1 0
    outer loop
      vertex 124.959 -22.5 30.5668
      vertex 125.315 -22.5 26.7887
      vertex 125.358 -22.5 27.0068
    endloop
  endfacet
  facet normal 0 -1 0
    outer loop
      vertex 124.959 -22.5 30.5668
      vertex 125.3 -22.5 26.5668
      vertex 125.315 -22.5 26.7887
    endloop
  endfacet
  facet normal 0 -1 -0
    outer loop
      vertex 124.959 -22.5 30.5668
      vertex 0 -22.5 20.5668
      vertex 125.3 -22.5 26.5668
    endloop
  endfacet
  facet normal 0 -1 -0
    outer loop
      vertex 125.3 -22.5 26.5668
      vertex 0 -22.5 20.5668
      vertex 125.315 -22.5 26.345
    endloop
  endfacet
  facet normal 0 -1 -0
    outer loop
      vertex 125.315 -22.5 26.345
      vertex 0 -22.5 20.5668
      vertex 125.358 -22.5 26.1269
    endloop
  endfacet
  facet normal 0 -1 -0
    outer loop
      vertex 125.358 -22.5 26.1269
      vertex 0 -22.5 20.5668
      vertex 125.429 -22.5 25.9163
    endloop
  endfacet
  facet normal 0 -1 -0
    outer loop
      vertex 125.429 -22.5 25.9163
      vertex 0 -22.5 20.5668
      vertex 125.528 -22.5 25.7168
    endloop
  endfacet
  facet normal 0 -1 -0
    outer loop
      vertex 125.528 -22.5 25.7168
      vertex 0 -22.5 20.5668
      vertex 125.651 -22.5 25.532
    endloop
  endfacet
  facet normal 0 -1 -0
    outer loop
      vertex 125.651 -22.5 25.532
      vertex 0 -22.5 20.5668
      vertex 125.798 -22.5 25.3648
    endloop
  endfacet
  facet normal 0 -1 -0
    outer loop
      vertex 125.798 -22.5 25.3648
      vertex 0 -22.5 20.5668
      vertex 125.965 -22.5 25.2181
    endloop
  endfacet
  facet normal 0 -1 -0
    outer loop
      vertex 125.965 -22.5 25.2181
      vertex 0 -22.5 20.5668
      vertex 126.15 -22.5 25.0946
    endloop
  endfacet
  facet normal 0 -1 -0
    outer loop
      vertex 126.15 -22.5 25.0946
      vertex 0 -22.5 20.5668
      vertex 126.349 -22.5 24.9963
    endloop
  endfacet
  facet normal 0 -1 -0
    outer loop
      vertex 126.349 -22.5 24.9963
      vertex 0 -22.5 20.5668
      vertex 126.56 -22.5 24.9248
    endloop
  endfacet
  facet normal 0 -1 0
    outer loop
      vertex 140 -22.5 20.5668
      vertex 126.56 -22.5 24.9248
      vertex 0 -22.5 20.5668
    endloop
  endfacet
  facet normal 0 -1 0
    outer loop
      vertex 126.56 -22.5 24.9248
      vertex 140 -22.5 20.5668
      vertex 126.778 -22.5 24.8814
    endloop
  endfacet
  facet normal 0 -1 0
    outer loop
      vertex 126.413 -22.5 31.0283
      vertex 127.587 -22.5 31.0283
      vertex 127 -22.5 31.0668
    endloop
  endfacet
  facet normal 0 -1 0
    outer loop
      vertex 125.835 -22.5 30.9135
      vertex 127.587 -22.5 31.0283
      vertex 126.413 -22.5 31.0283
    endloop
  endfacet
  facet normal 0 -1 0
    outer loop
      vertex 125.835 -22.5 30.9135
      vertex 128.165 -22.5 30.9135
      vertex 127.587 -22.5 31.0283
    endloop
  endfacet
  facet normal 0 -1 0
    outer loop
      vertex 124.959 -22.5 30.5668
      vertex 125.835 -22.5 30.9135
      vertex 125.278 -22.5 30.7243
    endloop
  endfacet
  facet normal 0 -1 -0
    outer loop
      vertex 125.835 -22.5 30.9135
      vertex 124.959 -22.5 30.5668
      vertex 128.165 -22.5 30.9135
    endloop
  endfacet
  facet normal 0 -1 0
    outer loop
      vertex 129.041 -22.5 30.5668
      vertex 128.165 -22.5 30.9135
      vertex 124.959 -22.5 30.5668
    endloop
  endfacet
  facet normal 0 -1 0
    outer loop
      vertex 128.165 -22.5 30.9135
      vertex 129.041 -22.5 30.5668
      vertex 128.722 -22.5 30.7243
    endloop
  endfacet
  facet normal 0 -1 0
    outer loop
      vertex 127.44 -22.5 28.2089
      vertex 129.041 -22.5 30.5668
      vertex 127.222 -22.5 28.2523
    endloop
  endfacet
  facet normal 0 -1 0
    outer loop
      vertex 127.651 -22.5 28.1374
      vertex 129.041 -22.5 30.5668
      vertex 127.44 -22.5 28.2089
    endloop
  endfacet
  facet normal 0 -1 0
    outer loop
      vertex 127.85 -22.5 28.0391
      vertex 129.041 -22.5 30.5668
      vertex 127.651 -22.5 28.1374
    endloop
  endfacet
  facet normal 0 -1 0
    outer loop
      vertex 128.035 -22.5 27.9155
      vertex 129.041 -22.5 30.5668
      vertex 127.85 -22.5 28.0391
    endloop
  endfacet
  facet normal 0 -1 0
    outer loop
      vertex 128.202 -22.5 27.7689
      vertex 129.041 -22.5 30.5668
      vertex 128.035 -22.5 27.9155
    endloop
  endfacet
  facet normal 0 -1 0
    outer loop
      vertex 128.349 -22.5 27.6017
      vertex 129.041 -22.5 30.5668
      vertex 128.202 -22.5 27.7689
    endloop
  endfacet
  facet normal 0 -1 0
    outer loop
      vertex 128.472 -22.5 27.4168
      vertex 129.041 -22.5 30.5668
      vertex 128.349 -22.5 27.6017
    endloop
  endfacet
  facet normal 0 -1 0
    outer loop
      vertex 128.571 -22.5 27.2174
      vertex 129.041 -22.5 30.5668
      vertex 128.472 -22.5 27.4168
    endloop
  endfacet
  facet normal 0 -1 0
    outer loop
      vertex 128.642 -22.5 27.0068
      vertex 129.041 -22.5 30.5668
      vertex 128.571 -22.5 27.2174
    endloop
  endfacet
  facet normal 0 -1 -0
    outer loop
      vertex 129.041 -22.5 30.5668
      vertex 128.642 -22.5 27.0068
      vertex 140 -22.5 30.5668
    endloop
  endfacet
  facet normal 0 -1 0
    outer loop
      vertex 128.685 -22.5 26.7887
      vertex 140 -22.5 30.5668
      vertex 128.642 -22.5 27.0068
    endloop
  endfacet
  facet normal 0 -1 0
    outer loop
      vertex 128.7 -22.5 26.5668
      vertex 140 -22.5 30.5668
      vertex 128.685 -22.5 26.7887
    endloop
  endfacet
  facet normal 0 -1 0
    outer loop
      vertex 128.685 -22.5 26.345
      vertex 140 -22.5 30.5668
      vertex 128.7 -22.5 26.5668
    endloop
  endfacet
  facet normal 0 -1 0
    outer loop
      vertex 140 -22.5 20.5668
      vertex 128.685 -22.5 26.345
      vertex 128.642 -22.5 26.1269
    endloop
  endfacet
  facet normal 0 -1 0
    outer loop
      vertex 140 -22.5 20.5668
      vertex 128.642 -22.5 26.1269
      vertex 128.571 -22.5 25.9163
    endloop
  endfacet
  facet normal 0 -1 0
    outer loop
      vertex 140 -22.5 20.5668
      vertex 128.571 -22.5 25.9163
      vertex 128.472 -22.5 25.7168
    endloop
  endfacet
  facet normal 0 -1 0
    outer loop
      vertex 140 -22.5 20.5668
      vertex 128.472 -22.5 25.7168
      vertex 128.349 -22.5 25.532
    endloop
  endfacet
  facet normal 0 -1 0
    outer loop
      vertex 140 -22.5 20.5668
      vertex 128.349 -22.5 25.532
      vertex 128.202 -22.5 25.3648
    endloop
  endfacet
  facet normal 0 -1 0
    outer loop
      vertex 140 -22.5 20.5668
      vertex 128.202 -22.5 25.3648
      vertex 128.035 -22.5 25.2181
    endloop
  endfacet
  facet normal 0 -1 0
    outer loop
      vertex 140 -22.5 20.5668
      vertex 128.035 -22.5 25.2181
      vertex 127.85 -22.5 25.0946
    endloop
  endfacet
  facet normal 0 -1 0
    outer loop
      vertex 140 -22.5 20.5668
      vertex 127.85 -22.5 25.0946
      vertex 127.651 -22.5 24.9963
    endloop
  endfacet
  facet normal 0 -1 0
    outer loop
      vertex 128.685 -22.5 26.345
      vertex 140 -22.5 20.5668
      vertex 140 -22.5 30.5668
    endloop
  endfacet
  facet normal 0 -1 0
    outer loop
      vertex 127.44 -22.5 24.9248
      vertex 140 -22.5 20.5668
      vertex 127.651 -22.5 24.9963
    endloop
  endfacet
  facet normal 0 -1 0
    outer loop
      vertex 127.222 -22.5 24.8814
      vertex 140 -22.5 20.5668
      vertex 127.44 -22.5 24.9248
    endloop
  endfacet
  facet normal 0 -1 0
    outer loop
      vertex 127 -22.5 24.8668
      vertex 140 -22.5 20.5668
      vertex 127.222 -22.5 24.8814
    endloop
  endfacet
  facet normal 0 -1 0
    outer loop
      vertex 126.778 -22.5 24.8814
      vertex 140 -22.5 20.5668
      vertex 127 -22.5 24.8668
    endloop
  endfacet
  facet normal 0 1 0
    outer loop
      vertex 140 -19.5 26.5668
      vertex 131.462 -19.5 25.9795
      vertex 131.5 -19.5 26.5668
    endloop
  endfacet
  facet normal 0 1 0
    outer loop
      vertex 140 -19.5 26.5668
      vertex 131.347 -19.5 25.4022
      vertex 131.462 -19.5 25.9795
    endloop
  endfacet
  facet normal 0 1 -0
    outer loop
      vertex 140 -19.5 20.5668
      vertex 131.347 -19.5 25.4022
      vertex 140 -19.5 26.5668
    endloop
  endfacet
  facet normal 0 1 0
    outer loop
      vertex 131.347 -19.5 25.4022
      vertex 140 -19.5 20.5668
      vertex 131.157 -19.5 24.8448
    endloop
  endfacet
  facet normal 0 1 0
    outer loop
      vertex 131.157 -19.5 24.8448
      vertex 140 -19.5 20.5668
      vertex 130.897 -19.5 24.3168
    endloop
  endfacet
  facet normal 0 1 0
    outer loop
      vertex 130.897 -19.5 24.3168
      vertex 140 -19.5 20.5668
      vertex 130.57 -19.5 23.8274
    endloop
  endfacet
  facet normal 0 1 0
    outer loop
      vertex 130.57 -19.5 23.8274
      vertex 140 -19.5 20.5668
      vertex 130.182 -19.5 23.3849
    endloop
  endfacet
  facet normal 0 1 0
    outer loop
      vertex 130.182 -19.5 23.3849
      vertex 140 -19.5 20.5668
      vertex 129.739 -19.5 22.9968
    endloop
  endfacet
  facet normal 0 1 0
    outer loop
      vertex 129.739 -19.5 22.9968
      vertex 140 -19.5 20.5668
      vertex 129.25 -19.5 22.6697
    endloop
  endfacet
  facet normal 0 1 0
    outer loop
      vertex 127.587 -19.5 22.1053
      vertex 140 -19.5 20.5668
      vertex 127 -19.5 22.0668
    endloop
  endfacet
  facet normal 0 1 0
    outer loop
      vertex 128.165 -19.5 22.2202
      vertex 140 -19.5 20.5668
      vertex 127.587 -19.5 22.1053
    endloop
  endfacet
  facet normal 0 1 0
    outer loop
      vertex 128.722 -19.5 22.4094
      vertex 140 -19.5 20.5668
      vertex 128.165 -19.5 22.2202
    endloop
  endfacet
  facet normal 0 1 0
    outer loop
      vertex 129.25 -19.5 22.6697
      vertex 140 -19.5 20.5668
      vertex 128.722 -19.5 22.4094
    endloop
  endfacet
  facet normal 0 1 0
    outer loop
      vertex 0 -19.5 20.5668
      vertex 122.5 -19.5 26.5668
      vertex 122.538 -19.5 25.9795
    endloop
  endfacet
  facet normal 0 1 0
    outer loop
      vertex 0 -19.5 20.5668
      vertex 122.538 -19.5 25.9795
      vertex 122.653 -19.5 25.4022
    endloop
  endfacet
  facet normal 0 1 0
    outer loop
      vertex 0 -19.5 20.5668
      vertex 122.653 -19.5 25.4022
      vertex 122.843 -19.5 24.8448
    endloop
  endfacet
  facet normal 0 1 0
    outer loop
      vertex 0 -19.5 20.5668
      vertex 122.843 -19.5 24.8448
      vertex 123.103 -19.5 24.3168
    endloop
  endfacet
  facet normal 0 1 0
    outer loop
      vertex 0 -19.5 20.5668
      vertex 123.103 -19.5 24.3168
      vertex 123.43 -19.5 23.8274
    endloop
  endfacet
  facet normal 0 1 0
    outer loop
      vertex 0 -19.5 20.5668
      vertex 123.43 -19.5 23.8274
      vertex 123.818 -19.5 23.3849
    endloop
  endfacet
  facet normal 0 1 0
    outer loop
      vertex 0 -19.5 20.5668
      vertex 123.818 -19.5 23.3849
      vertex 124.261 -19.5 22.9968
    endloop
  endfacet
  facet normal 0 1 0
    outer loop
      vertex 0 -19.5 20.5668
      vertex 124.261 -19.5 22.9968
      vertex 124.75 -19.5 22.6697
    endloop
  endfacet
  facet normal 0 1 0
    outer loop
      vertex 0 -19.5 20.5668
      vertex 124.75 -19.5 22.6697
      vertex 125.278 -19.5 22.4094
    endloop
  endfacet
  facet normal 0 1 0
    outer loop
      vertex 0 -19.5 20.5668
      vertex 125.278 -19.5 22.4094
      vertex 125.835 -19.5 22.2202
    endloop
  endfacet
  facet normal 0 1 0
    outer loop
      vertex 0 -19.5 20.5668
      vertex 125.835 -19.5 22.2202
      vertex 126.413 -19.5 22.1053
    endloop
  endfacet
  facet normal 0 1 0
    outer loop
      vertex 140 -19.5 20.5668
      vertex 126.413 -19.5 22.1053
      vertex 127 -19.5 22.0668
    endloop
  endfacet
  facet normal 0 1 0
    outer loop
      vertex 126.413 -19.5 22.1053
      vertex 140 -19.5 20.5668
      vertex 0 -19.5 20.5668
    endloop
  endfacet
  facet normal 0 1 0
    outer loop
      vertex 122.5 -19.5 26.5668
      vertex 0 -19.5 20.5668
      vertex 0 -19.5 26.5668
    endloop
  endfacet
  facet normal 0 1 0
    outer loop
      vertex 128.642 22.5 27.0068
      vertex 129.041 22.5 30.5668
      vertex 140 22.5 30.5668
    endloop
  endfacet
  facet normal -0 1 0
    outer loop
      vertex 127.651 22.5 28.1374
      vertex 129.041 22.5 30.5668
      vertex 127.85 22.5 28.0391
    endloop
  endfacet
  facet normal 0 1 0
    outer loop
      vertex 124.959 22.5 30.5668
      vertex 127 22.5 28.2668
      vertex 126.778 22.5 28.2523
    endloop
  endfacet
  facet normal 0 1 0
    outer loop
      vertex 129.041 22.5 30.5668
      vertex 127 22.5 28.2668
      vertex 124.959 22.5 30.5668
    endloop
  endfacet
  facet normal -0 1 0
    outer loop
      vertex 127 22.5 28.2668
      vertex 129.041 22.5 30.5668
      vertex 127.222 22.5 28.2523
    endloop
  endfacet
  facet normal -0 1 0
    outer loop
      vertex 127.222 22.5 28.2523
      vertex 129.041 22.5 30.5668
      vertex 127.44 22.5 28.2089
    endloop
  endfacet
  facet normal -0 1 0
    outer loop
      vertex 127.44 22.5 28.2089
      vertex 129.041 22.5 30.5668
      vertex 127.651 22.5 28.1374
    endloop
  endfacet
  facet normal 0 1 0
    outer loop
      vertex 129.041 22.5 30.5668
      vertex 128.035 22.5 27.9155
      vertex 127.85 22.5 28.0391
    endloop
  endfacet
  facet normal 0 1 0
    outer loop
      vertex 129.041 22.5 30.5668
      vertex 128.202 22.5 27.7689
      vertex 128.035 22.5 27.9155
    endloop
  endfacet
  facet normal 0 1 0
    outer loop
      vertex 129.041 22.5 30.5668
      vertex 128.349 22.5 27.6017
      vertex 128.202 22.5 27.7689
    endloop
  endfacet
  facet normal 0 1 0
    outer loop
      vertex 129.041 22.5 30.5668
      vertex 128.472 22.5 27.4168
      vertex 128.349 22.5 27.6017
    endloop
  endfacet
  facet normal 0 1 0
    outer loop
      vertex 129.041 22.5 30.5668
      vertex 128.571 22.5 27.2174
      vertex 128.472 22.5 27.4168
    endloop
  endfacet
  facet normal 0 1 0
    outer loop
      vertex 129.041 22.5 30.5668
      vertex 128.642 22.5 27.0068
      vertex 128.571 22.5 27.2174
    endloop
  endfacet
  facet normal 0 1 0
    outer loop
      vertex 140 22.5 30.5668
      vertex 128.685 22.5 26.7887
      vertex 128.642 22.5 27.0068
    endloop
  endfacet
  facet normal 0 1 0
    outer loop
      vertex 140 22.5 30.5668
      vertex 128.7 22.5 26.5668
      vertex 128.685 22.5 26.7887
    endloop
  endfacet
  facet normal 0 1 0
    outer loop
      vertex 140 22.5 30.5668
      vertex 128.685 22.5 26.345
      vertex 128.7 22.5 26.5668
    endloop
  endfacet
  facet normal 0 1 -0
    outer loop
      vertex 140 22.5 20.5668
      vertex 128.685 22.5 26.345
      vertex 140 22.5 30.5668
    endloop
  endfacet
  facet normal 0 1 0
    outer loop
      vertex 128.685 22.5 26.345
      vertex 140 22.5 20.5668
      vertex 128.642 22.5 26.1269
    endloop
  endfacet
  facet normal 0 1 0
    outer loop
      vertex 128.642 22.5 26.1269
      vertex 140 22.5 20.5668
      vertex 128.571 22.5 25.9163
    endloop
  endfacet
  facet normal 0 1 0
    outer loop
      vertex 128.571 22.5 25.9163
      vertex 140 22.5 20.5668
      vertex 128.472 22.5 25.7168
    endloop
  endfacet
  facet normal 0 1 0
    outer loop
      vertex 128.472 22.5 25.7168
      vertex 140 22.5 20.5668
      vertex 128.349 22.5 25.532
    endloop
  endfacet
  facet normal 0 1 0
    outer loop
      vertex 128.349 22.5 25.532
      vertex 140 22.5 20.5668
      vertex 128.202 22.5 25.3648
    endloop
  endfacet
  facet normal 0 1 0
    outer loop
      vertex 128.202 22.5 25.3648
      vertex 140 22.5 20.5668
      vertex 128.035 22.5 25.2181
    endloop
  endfacet
  facet normal 0 1 0
    outer loop
      vertex 128.035 22.5 25.2181
      vertex 140 22.5 20.5668
      vertex 127.85 22.5 25.0946
    endloop
  endfacet
  facet normal 0 1 0
    outer loop
      vertex 127.222 22.5 24.8814
      vertex 140 22.5 20.5668
      vertex 127 22.5 24.8668
    endloop
  endfacet
  facet normal 0 1 0
    outer loop
      vertex 127.44 22.5 24.9248
      vertex 140 22.5 20.5668
      vertex 127.222 22.5 24.8814
    endloop
  endfacet
  facet normal 0 1 0
    outer loop
      vertex 127.651 22.5 24.9963
      vertex 140 22.5 20.5668
      vertex 127.44 22.5 24.9248
    endloop
  endfacet
  facet normal 0 1 0
    outer loop
      vertex 127.85 22.5 25.0946
      vertex 140 22.5 20.5668
      vertex 127.651 22.5 24.9963
    endloop
  endfacet
  facet normal 0 1 0
    outer loop
      vertex 127.587 22.5 31.0283
      vertex 126.413 22.5 31.0283
      vertex 127 22.5 31.0668
    endloop
  endfacet
  facet normal 0 1 0
    outer loop
      vertex 128.165 22.5 30.9135
      vertex 126.413 22.5 31.0283
      vertex 127.587 22.5 31.0283
    endloop
  endfacet
  facet normal 0 1 0
    outer loop
      vertex 128.165 22.5 30.9135
      vertex 125.835 22.5 30.9135
      vertex 126.413 22.5 31.0283
    endloop
  endfacet
  facet normal 0 1 0
    outer loop
      vertex 129.041 22.5 30.5668
      vertex 128.165 22.5 30.9135
      vertex 128.722 22.5 30.7243
    endloop
  endfacet
  facet normal 0 1 0
    outer loop
      vertex 128.165 22.5 30.9135
      vertex 129.041 22.5 30.5668
      vertex 125.835 22.5 30.9135
    endloop
  endfacet
  facet normal 0 1 0
    outer loop
      vertex 124.959 22.5 30.5668
      vertex 125.835 22.5 30.9135
      vertex 129.041 22.5 30.5668
    endloop
  endfacet
  facet normal 0 1 0
    outer loop
      vertex 125.835 22.5 30.9135
      vertex 124.959 22.5 30.5668
      vertex 125.278 22.5 30.7243
    endloop
  endfacet
  facet normal 0 1 -0
    outer loop
      vertex 126.56 22.5 28.2089
      vertex 124.959 22.5 30.5668
      vertex 126.778 22.5 28.2523
    endloop
  endfacet
  facet normal 0 1 -0
    outer loop
      vertex 126.349 22.5 28.1374
      vertex 124.959 22.5 30.5668
      vertex 126.56 22.5 28.2089
    endloop
  endfacet
  facet normal 0 1 -0
    outer loop
      vertex 126.15 22.5 28.0391
      vertex 124.959 22.5 30.5668
      vertex 126.349 22.5 28.1374
    endloop
  endfacet
  facet normal 0 1 -0
    outer loop
      vertex 125.965 22.5 27.9155
      vertex 124.959 22.5 30.5668
      vertex 126.15 22.5 28.0391
    endloop
  endfacet
  facet normal 0 1 -0
    outer loop
      vertex 125.798 22.5 27.7689
      vertex 124.959 22.5 30.5668
      vertex 125.965 22.5 27.9155
    endloop
  endfacet
  facet normal 0 1 -0
    outer loop
      vertex 125.651 22.5 27.6017
      vertex 124.959 22.5 30.5668
      vertex 125.798 22.5 27.7689
    endloop
  endfacet
  facet normal 0 1 -0
    outer loop
      vertex 125.528 22.5 27.4168
      vertex 124.959 22.5 30.5668
      vertex 125.651 22.5 27.6017
    endloop
  endfacet
  facet normal 0 1 -0
    outer loop
      vertex 125.429 22.5 27.2174
      vertex 124.959 22.5 30.5668
      vertex 125.528 22.5 27.4168
    endloop
  endfacet
  facet normal 0 1 -0
    outer loop
      vertex 125.358 22.5 27.0068
      vertex 124.959 22.5 30.5668
      vertex 125.429 22.5 27.2174
    endloop
  endfacet
  facet normal 0 1 -0
    outer loop
      vertex 125.315 22.5 26.7887
      vertex 124.959 22.5 30.5668
      vertex 125.358 22.5 27.0068
    endloop
  endfacet
  facet normal 0 1 -0
    outer loop
      vertex 125.3 22.5 26.5668
      vertex 124.959 22.5 30.5668
      vertex 125.315 22.5 26.7887
    endloop
  endfacet
  facet normal 0 1 0
    outer loop
      vertex 0 22.5 20.5668
      vertex 124.959 22.5 30.5668
      vertex 125.3 22.5 26.5668
    endloop
  endfacet
  facet normal 0 1 0
    outer loop
      vertex 0 22.5 20.5668
      vertex 125.3 22.5 26.5668
      vertex 125.315 22.5 26.345
    endloop
  endfacet
  facet normal 0 1 0
    outer loop
      vertex 0 22.5 20.5668
      vertex 125.315 22.5 26.345
      vertex 125.358 22.5 26.1269
    endloop
  endfacet
  facet normal 0 1 0
    outer loop
      vertex 0 22.5 20.5668
      vertex 125.358 22.5 26.1269
      vertex 125.429 22.5 25.9163
    endloop
  endfacet
  facet normal 0 1 0
    outer loop
      vertex 0 22.5 20.5668
      vertex 125.429 22.5 25.9163
      vertex 125.528 22.5 25.7168
    endloop
  endfacet
  facet normal 0 1 0
    outer loop
      vertex 0 22.5 20.5668
      vertex 125.528 22.5 25.7168
      vertex 125.651 22.5 25.532
    endloop
  endfacet
  facet normal 0 1 0
    outer loop
      vertex 0 22.5 20.5668
      vertex 125.651 22.5 25.532
      vertex 125.798 22.5 25.3648
    endloop
  endfacet
  facet normal 0 1 0
    outer loop
      vertex 0 22.5 20.5668
      vertex 125.798 22.5 25.3648
      vertex 125.965 22.5 25.2181
    endloop
  endfacet
  facet normal 0 1 0
    outer loop
      vertex 0 22.5 20.5668
      vertex 125.965 22.5 25.2181
      vertex 126.15 22.5 25.0946
    endloop
  endfacet
  facet normal 0 1 0
    outer loop
      vertex 0 22.5 20.5668
      vertex 126.15 22.5 25.0946
      vertex 126.349 22.5 24.9963
    endloop
  endfacet
  facet normal 0 1 0
    outer loop
      vertex 0 22.5 20.5668
      vertex 126.349 22.5 24.9963
      vertex 126.56 22.5 24.9248
    endloop
  endfacet
  facet normal 0 1 0
    outer loop
      vertex 140 22.5 20.5668
      vertex 126.56 22.5 24.9248
      vertex 126.778 22.5 24.8814
    endloop
  endfacet
  facet normal 0 1 0
    outer loop
      vertex 140 22.5 20.5668
      vertex 126.778 22.5 24.8814
      vertex 127 22.5 24.8668
    endloop
  endfacet
  facet normal 0 1 0
    outer loop
      vertex 126.56 22.5 24.9248
      vertex 140 22.5 20.5668
      vertex 0 22.5 20.5668
    endloop
  endfacet
  facet normal 0 1 0
    outer loop
      vertex 124.959 22.5 30.5668
      vertex 0 22.5 20.5668
      vertex 0 22.5 30.5668
    endloop
  endfacet
  facet normal 0 0 -1
    outer loop
      vertex 0 19.5 20.5668
      vertex 140 22.5 20.5668
      vertex 140 19.5 20.5668
    endloop
  endfacet
  facet normal -0 0 -1
    outer loop
      vertex 140 22.5 20.5668
      vertex 0 19.5 20.5668
      vertex 0 22.5 20.5668
    endloop
  endfacet
  facet normal 0 -1 0
    outer loop
      vertex 0 19.5 20.5668
      vertex 122.5 19.5 26.5668
      vertex 0 19.5 26.5668
    endloop
  endfacet
  facet normal 0 -1 -0
    outer loop
      vertex 122.5 19.5 26.5668
      vertex 0 19.5 20.5668
      vertex 122.538 19.5 25.9795
    endloop
  endfacet
  facet normal 0 -1 -0
    outer loop
      vertex 122.538 19.5 25.9795
      vertex 0 19.5 20.5668
      vertex 122.653 19.5 25.4022
    endloop
  endfacet
  facet normal 0 -1 -0
    outer loop
      vertex 122.653 19.5 25.4022
      vertex 0 19.5 20.5668
      vertex 122.843 19.5 24.8448
    endloop
  endfacet
  facet normal 0 -1 -0
    outer loop
      vertex 122.843 19.5 24.8448
      vertex 0 19.5 20.5668
      vertex 123.103 19.5 24.3168
    endloop
  endfacet
  facet normal 0 -1 -0
    outer loop
      vertex 123.103 19.5 24.3168
      vertex 0 19.5 20.5668
      vertex 123.43 19.5 23.8274
    endloop
  endfacet
  facet normal 0 -1 -0
    outer loop
      vertex 123.43 19.5 23.8274
      vertex 0 19.5 20.5668
      vertex 123.818 19.5 23.3849
    endloop
  endfacet
  facet normal 0 -1 -0
    outer loop
      vertex 123.818 19.5 23.3849
      vertex 0 19.5 20.5668
      vertex 124.261 19.5 22.9968
    endloop
  endfacet
  facet normal 0 -1 -0
    outer loop
      vertex 124.261 19.5 22.9968
      vertex 0 19.5 20.5668
      vertex 124.75 19.5 22.6697
    endloop
  endfacet
  facet normal 0 -1 -0
    outer loop
      vertex 124.75 19.5 22.6697
      vertex 0 19.5 20.5668
      vertex 125.278 19.5 22.4094
    endloop
  endfacet
  facet normal 0 -1 -0
    outer loop
      vertex 125.278 19.5 22.4094
      vertex 0 19.5 20.5668
      vertex 125.835 19.5 22.2202
    endloop
  endfacet
  facet normal 0 -1 -0
    outer loop
      vertex 125.835 19.5 22.2202
      vertex 0 19.5 20.5668
      vertex 126.413 19.5 22.1053
    endloop
  endfacet
  facet normal 0 -1 0
    outer loop
      vertex 140 19.5 20.5668
      vertex 126.413 19.5 22.1053
      vertex 0 19.5 20.5668
    endloop
  endfacet
  facet normal 0 -1 0
    outer loop
      vertex 131.462 19.5 25.9795
      vertex 140 19.5 26.5668
      vertex 131.5 19.5 26.5668
    endloop
  endfacet
  facet normal 0 -1 0
    outer loop
      vertex 131.347 19.5 25.4022
      vertex 140 19.5 26.5668
      vertex 131.462 19.5 25.9795
    endloop
  endfacet
  facet normal 0 -1 0
    outer loop
      vertex 140 19.5 20.5668
      vertex 131.347 19.5 25.4022
      vertex 131.157 19.5 24.8448
    endloop
  endfacet
  facet normal 0 -1 0
    outer loop
      vertex 140 19.5 20.5668
      vertex 131.157 19.5 24.8448
      vertex 130.897 19.5 24.3168
    endloop
  endfacet
  facet normal 0 -1 0
    outer loop
      vertex 140 19.5 20.5668
      vertex 130.897 19.5 24.3168
      vertex 130.57 19.5 23.8274
    endloop
  endfacet
  facet normal 0 -1 0
    outer loop
      vertex 140 19.5 20.5668
      vertex 130.57 19.5 23.8274
      vertex 130.182 19.5 23.3849
    endloop
  endfacet
  facet normal 0 -1 0
    outer loop
      vertex 140 19.5 20.5668
      vertex 130.182 19.5 23.3849
      vertex 129.739 19.5 22.9968
    endloop
  endfacet
  facet normal 0 -1 0
    outer loop
      vertex 140 19.5 20.5668
      vertex 129.739 19.5 22.9968
      vertex 129.25 19.5 22.6697
    endloop
  endfacet
  facet normal 0 -1 0
    outer loop
      vertex 140 19.5 20.5668
      vertex 129.25 19.5 22.6697
      vertex 128.722 19.5 22.4094
    endloop
  endfacet
  facet normal 0 -1 0
    outer loop
      vertex 131.347 19.5 25.4022
      vertex 140 19.5 20.5668
      vertex 140 19.5 26.5668
    endloop
  endfacet
  facet normal 0 -1 0
    outer loop
      vertex 128.165 19.5 22.2202
      vertex 140 19.5 20.5668
      vertex 128.722 19.5 22.4094
    endloop
  endfacet
  facet normal 0 -1 0
    outer loop
      vertex 127.587 19.5 22.1053
      vertex 140 19.5 20.5668
      vertex 128.165 19.5 22.2202
    endloop
  endfacet
  facet normal 0 -1 0
    outer loop
      vertex 127 19.5 22.0668
      vertex 140 19.5 20.5668
      vertex 127.587 19.5 22.1053
    endloop
  endfacet
  facet normal 0 -1 0
    outer loop
      vertex 126.413 19.5 22.1053
      vertex 140 19.5 20.5668
      vertex 127 19.5 22.0668
    endloop
  endfacet
  facet normal -0 0 1
    outer loop
      vertex 129.041 22.5 30.5668
      vertex 140 -22.5 30.5668
      vertex 140 22.5 30.5668
    endloop
  endfacet
  facet normal 0 0 1
    outer loop
      vertex 140 -22.5 30.5668
      vertex 129.041 22.5 30.5668
      vertex 129.041 -22.5 30.5668
    endloop
  endfacet
  facet normal -0 0 1
    outer loop
      vertex 0 22.5 30.5668
      vertex 124.959 -22.5 30.5668
      vertex 124.959 22.5 30.5668
    endloop
  endfacet
  facet normal 0 0 1
    outer loop
      vertex 124.959 -22.5 30.5668
      vertex 0 22.5 30.5668
      vertex 0 -22.5 30.5668
    endloop
  endfacet
  facet normal 0 0 -1
    outer loop
      vertex 122.5 -19.5 26.5668
      vertex 37 0 26.5668
      vertex 122.5 19.5 26.5668
    endloop
  endfacet
  facet normal 0 0 -1
    outer loop
      vertex 122.5 -19.5 26.5668
      vertex 36.9829 -0.261052 26.5668
      vertex 37 0 26.5668
    endloop
  endfacet
  facet normal 0 0 -1
    outer loop
      vertex 122.5 -19.5 26.5668
      vertex 36.9319 -0.517637 26.5668
      vertex 36.9829 -0.261052 26.5668
    endloop
  endfacet
  facet normal 0 0 -1
    outer loop
      vertex 122.5 -19.5 26.5668
      vertex 36.8478 -0.765367 26.5668
      vertex 36.9319 -0.517637 26.5668
    endloop
  endfacet
  facet normal 0 0 -1
    outer loop
      vertex 122.5 -19.5 26.5668
      vertex 36.732 -1 26.5668
      vertex 36.8478 -0.765367 26.5668
    endloop
  endfacet
  facet normal 0 0 -1
    outer loop
      vertex 122.5 -19.5 26.5668
      vertex 36.5867 -1.21752 26.5668
      vertex 36.732 -1 26.5668
    endloop
  endfacet
  facet normal 0 0 -1
    outer loop
      vertex 122.5 -19.5 26.5668
      vertex 36.4142 -1.41421 26.5668
      vertex 36.5867 -1.21752 26.5668
    endloop
  endfacet
  facet normal 0 0 -1
    outer loop
      vertex 122.5 -19.5 26.5668
      vertex 36.2175 -1.58671 26.5668
      vertex 36.4142 -1.41421 26.5668
    endloop
  endfacet
  facet normal 0 0 -1
    outer loop
      vertex 122.5 -19.5 26.5668
      vertex 36 -1.73205 26.5668
      vertex 36.2175 -1.58671 26.5668
    endloop
  endfacet
  facet normal 0 0 -1
    outer loop
      vertex 122.5 -19.5 26.5668
      vertex 35.7654 -1.84776 26.5668
      vertex 36 -1.73205 26.5668
    endloop
  endfacet
  facet normal 0 0 -1
    outer loop
      vertex 122.5 -19.5 26.5668
      vertex 35.5176 -1.93185 26.5668
      vertex 35.7654 -1.84776 26.5668
    endloop
  endfacet
  facet normal 0 0 -1
    outer loop
      vertex 0 -19.5 26.5668
      vertex 35.5176 -1.93185 26.5668
      vertex 122.5 -19.5 26.5668
    endloop
  endfacet
  facet normal 0 0 -1
    outer loop
      vertex 35.5176 -1.93185 26.5668
      vertex 0 -19.5 26.5668
      vertex 35.2611 -1.98289 26.5668
    endloop
  endfacet
  facet normal 0 0 -1
    outer loop
      vertex 35.2611 -1.98289 26.5668
      vertex 0 -19.5 26.5668
      vertex 35 -2 26.5668
    endloop
  endfacet
  facet normal -0 0 -1
    outer loop
      vertex 35 -2 26.5668
      vertex 0 -19.5 26.5668
      vertex 34.7389 -1.98289 26.5668
    endloop
  endfacet
  facet normal -0 0 -1
    outer loop
      vertex 33.0171 -0.261052 26.5668
      vertex 0 -19.5 26.5668
      vertex 33 0 26.5668
    endloop
  endfacet
  facet normal -0 0 -1
    outer loop
      vertex 33.0681 -0.517637 26.5668
      vertex 0 -19.5 26.5668
      vertex 33.0171 -0.261052 26.5668
    endloop
  endfacet
  facet normal -0 0 -1
    outer loop
      vertex 33.1522 -0.765367 26.5668
      vertex 0 -19.5 26.5668
      vertex 33.0681 -0.517637 26.5668
    endloop
  endfacet
  facet normal -0 0 -1
    outer loop
      vertex 33.2679 -1 26.5668
      vertex 0 -19.5 26.5668
      vertex 33.1522 -0.765367 26.5668
    endloop
  endfacet
  facet normal -0 0 -1
    outer loop
      vertex 33.4133 -1.21752 26.5668
      vertex 0 -19.5 26.5668
      vertex 33.2679 -1 26.5668
    endloop
  endfacet
  facet normal -0 0 -1
    outer loop
      vertex 33.5858 -1.41421 26.5668
      vertex 0 -19.5 26.5668
      vertex 33.4133 -1.21752 26.5668
    endloop
  endfacet
  facet normal -0 0 -1
    outer loop
      vertex 33.7825 -1.58671 26.5668
      vertex 0 -19.5 26.5668
      vertex 33.5858 -1.41421 26.5668
    endloop
  endfacet
  facet normal -0 0 -1
    outer loop
      vertex 34 -1.73205 26.5668
      vertex 0 -19.5 26.5668
      vertex 33.7825 -1.58671 26.5668
    endloop
  endfacet
  facet normal -0 0 -1
    outer loop
      vertex 34.2346 -1.84776 26.5668
      vertex 0 -19.5 26.5668
      vertex 34 -1.73205 26.5668
    endloop
  endfacet
  facet normal -0 0 -1
    outer loop
      vertex 34.4824 -1.93185 26.5668
      vertex 0 -19.5 26.5668
      vertex 34.2346 -1.84776 26.5668
    endloop
  endfacet
  facet normal -0 0 -1
    outer loop
      vertex 34.7389 -1.98289 26.5668
      vertex 0 -19.5 26.5668
      vertex 34.4824 -1.93185 26.5668
    endloop
  endfacet
  facet normal 0 0 -1
    outer loop
      vertex 36.9829 0.261052 26.5668
      vertex 122.5 19.5 26.5668
      vertex 37 0 26.5668
    endloop
  endfacet
  facet normal 0 0 -1
    outer loop
      vertex 36.9319 0.517637 26.5668
      vertex 122.5 19.5 26.5668
      vertex 36.9829 0.261052 26.5668
    endloop
  endfacet
  facet normal 0 0 -1
    outer loop
      vertex 36.8478 0.765367 26.5668
      vertex 122.5 19.5 26.5668
      vertex 36.9319 0.517637 26.5668
    endloop
  endfacet
  facet normal 0 0 -1
    outer loop
      vertex 36.732 1 26.5668
      vertex 122.5 19.5 26.5668
      vertex 36.8478 0.765367 26.5668
    endloop
  endfacet
  facet normal 0 0 -1
    outer loop
      vertex 36.5867 1.21752 26.5668
      vertex 122.5 19.5 26.5668
      vertex 36.732 1 26.5668
    endloop
  endfacet
  facet normal 0 0 -1
    outer loop
      vertex 36.4142 1.41421 26.5668
      vertex 122.5 19.5 26.5668
      vertex 36.5867 1.21752 26.5668
    endloop
  endfacet
  facet normal 0 0 -1
    outer loop
      vertex 36.2175 1.58671 26.5668
      vertex 122.5 19.5 26.5668
      vertex 36.4142 1.41421 26.5668
    endloop
  endfacet
  facet normal 0 0 -1
    outer loop
      vertex 36 1.73205 26.5668
      vertex 122.5 19.5 26.5668
      vertex 36.2175 1.58671 26.5668
    endloop
  endfacet
  facet normal 0 0 -1
    outer loop
      vertex 35.7654 1.84776 26.5668
      vertex 122.5 19.5 26.5668
      vertex 36 1.73205 26.5668
    endloop
  endfacet
  facet normal 0 0 -1
    outer loop
      vertex 35.5176 1.93185 26.5668
      vertex 122.5 19.5 26.5668
      vertex 35.7654 1.84776 26.5668
    endloop
  endfacet
  facet normal 0 0 -1
    outer loop
      vertex 0 19.5 26.5668
      vertex 35.5176 1.93185 26.5668
      vertex 35.2611 1.98289 26.5668
    endloop
  endfacet
  facet normal 0 0 -1
    outer loop
      vertex 0 19.5 26.5668
      vertex 35.2611 1.98289 26.5668
      vertex 35 2 26.5668
    endloop
  endfacet
  facet normal 0 0 -1
    outer loop
      vertex 0 19.5 26.5668
      vertex 35 2 26.5668
      vertex 34.7389 1.98289 26.5668
    endloop
  endfacet
  facet normal 0 0 -1
    outer loop
      vertex 0 19.5 26.5668
      vertex 34.7389 1.98289 26.5668
      vertex 34.4824 1.93185 26.5668
    endloop
  endfacet
  facet normal 0 0 -1
    outer loop
      vertex 0 19.5 26.5668
      vertex 33 0 26.5668
      vertex 0 -19.5 26.5668
    endloop
  endfacet
  facet normal 0 0 -1
    outer loop
      vertex 33 0 26.5668
      vertex 0 19.5 26.5668
      vertex 33.0171 0.261052 26.5668
    endloop
  endfacet
  facet normal 0 0 -1
    outer loop
      vertex 33.0171 0.261052 26.5668
      vertex 0 19.5 26.5668
      vertex 33.0681 0.517637 26.5668
    endloop
  endfacet
  facet normal 0 0 -1
    outer loop
      vertex 33.0681 0.517637 26.5668
      vertex 0 19.5 26.5668
      vertex 33.1522 0.765367 26.5668
    endloop
  endfacet
  facet normal 0 0 -1
    outer loop
      vertex 33.1522 0.765367 26.5668
      vertex 0 19.5 26.5668
      vertex 33.2679 1 26.5668
    endloop
  endfacet
  facet normal 0 0 -1
    outer loop
      vertex 33.2679 1 26.5668
      vertex 0 19.5 26.5668
      vertex 33.4133 1.21752 26.5668
    endloop
  endfacet
  facet normal 0 0 -1
    outer loop
      vertex 33.4133 1.21752 26.5668
      vertex 0 19.5 26.5668
      vertex 33.5858 1.41421 26.5668
    endloop
  endfacet
  facet normal 0 0 -1
    outer loop
      vertex 33.5858 1.41421 26.5668
      vertex 0 19.5 26.5668
      vertex 33.7825 1.58671 26.5668
    endloop
  endfacet
  facet normal 0 0 -1
    outer loop
      vertex 35.5176 1.93185 26.5668
      vertex 0 19.5 26.5668
      vertex 122.5 19.5 26.5668
    endloop
  endfacet
  facet normal 0 0 -1
    outer loop
      vertex 34.2346 1.84776 26.5668
      vertex 0 19.5 26.5668
      vertex 34.4824 1.93185 26.5668
    endloop
  endfacet
  facet normal 0 0 -1
    outer loop
      vertex 34 1.73205 26.5668
      vertex 0 19.5 26.5668
      vertex 34.2346 1.84776 26.5668
    endloop
  endfacet
  facet normal 0 0 -1
    outer loop
      vertex 33.7825 1.58671 26.5668
      vertex 0 19.5 26.5668
      vertex 34 1.73205 26.5668
    endloop
  endfacet
  facet normal 0 0 -1
    outer loop
      vertex 131.5 -19.5 26.5668
      vertex 140 19.5 26.5668
      vertex 140 -19.5 26.5668
    endloop
  endfacet
  facet normal -0 0 -1
    outer loop
      vertex 140 19.5 26.5668
      vertex 131.5 -19.5 26.5668
      vertex 131.5 19.5 26.5668
    endloop
  endfacet
  facet normal 0.997913 0 -0.0645679
    outer loop
      vertex 131.5 -19.5 26.5668
      vertex 131.462 19.5 25.9795
      vertex 131.5 19.5 26.5668
    endloop
  endfacet
  facet normal 0.997913 0 -0.0645679
    outer loop
      vertex 131.462 19.5 25.9795
      vertex 131.5 -19.5 26.5668
      vertex 131.462 -19.5 25.9795
    endloop
  endfacet
  facet normal -0.0654471 0 -0.997856
    outer loop
      vertex 126.413 -19.5 22.1053
      vertex 127 19.5 22.0668
      vertex 127 -19.5 22.0668
    endloop
  endfacet
  facet normal -0.0654471 0 -0.997856
    outer loop
      vertex 127 19.5 22.0668
      vertex 126.413 -19.5 22.1053
      vertex 126.413 19.5 22.1053
    endloop
  endfacet
  facet normal 0.658961 0 -0.752177
    outer loop
      vertex 129.739 -19.5 22.9968
      vertex 130.182 19.5 23.3849
      vertex 130.182 -19.5 23.3849
    endloop
  endfacet
  facet normal 0.658961 0 -0.752177
    outer loop
      vertex 130.182 19.5 23.3849
      vertex 129.739 -19.5 22.9968
      vertex 129.739 19.5 22.9968
    endloop
  endfacet
  facet normal -0.751892 0 -0.659286
    outer loop
      vertex 123.818 -19.5 23.3849
      vertex 123.43 19.5 23.8274
      vertex 123.818 19.5 23.3849
    endloop
  endfacet
  facet normal -0.751892 -0 -0.659286
    outer loop
      vertex 123.43 19.5 23.8274
      vertex 123.818 -19.5 23.3849
      vertex 123.43 -19.5 23.8274
    endloop
  endfacet
  facet normal -0.442178 0 -0.896927
    outer loop
      vertex 124.75 -19.5 22.6697
      vertex 125.278 19.5 22.4094
      vertex 125.278 -19.5 22.4094
    endloop
  endfacet
  facet normal -0.442178 0 -0.896927
    outer loop
      vertex 125.278 19.5 22.4094
      vertex 124.75 -19.5 22.6697
      vertex 124.75 19.5 22.6697
    endloop
  endfacet
  facet normal 0.897129 0 -0.441768
    outer loop
      vertex 131.157 -19.5 24.8448
      vertex 130.897 19.5 24.3168
      vertex 131.157 19.5 24.8448
    endloop
  endfacet
  facet normal 0.897129 0 -0.441768
    outer loop
      vertex 130.897 19.5 24.3168
      vertex 131.157 -19.5 24.8448
      vertex 130.897 -19.5 24.3168
    endloop
  endfacet
  facet normal 0.321628 0 -0.946866
    outer loop
      vertex 128.165 -19.5 22.2202
      vertex 128.722 19.5 22.4094
      vertex 128.722 -19.5 22.4094
    endloop
  endfacet
  facet normal 0.321628 0 -0.946866
    outer loop
      vertex 128.722 19.5 22.4094
      vertex 128.165 -19.5 22.2202
      vertex 128.165 19.5 22.2202
    endloop
  endfacet
  facet normal 0.194974 0 -0.980808
    outer loop
      vertex 127.587 -19.5 22.1053
      vertex 128.165 19.5 22.2202
      vertex 128.165 -19.5 22.2202
    endloop
  endfacet
  facet normal 0.194974 0 -0.980808
    outer loop
      vertex 128.165 19.5 22.2202
      vertex 127.587 -19.5 22.1053
      vertex 127.587 19.5 22.1053
    endloop
  endfacet
  facet normal 0.555994 0 -0.831186
    outer loop
      vertex 129.25 -19.5 22.6697
      vertex 129.739 19.5 22.9968
      vertex 129.739 -19.5 22.9968
    endloop
  endfacet
  facet normal 0.555994 0 -0.831186
    outer loop
      vertex 129.739 19.5 22.9968
      vertex 129.25 -19.5 22.6697
      vertex 129.25 19.5 22.6697
    endloop
  endfacet
  facet normal -0.897129 0 -0.441768
    outer loop
      vertex 123.103 -19.5 24.3168
      vertex 122.843 19.5 24.8448
      vertex 123.103 19.5 24.3168
    endloop
  endfacet
  facet normal -0.897129 -0 -0.441768
    outer loop
      vertex 122.843 19.5 24.8448
      vertex 123.103 -19.5 24.3168
      vertex 122.843 -19.5 24.8448
    endloop
  endfacet
  facet normal -0.831475 0 -0.555562
    outer loop
      vertex 123.43 -19.5 23.8274
      vertex 123.103 19.5 24.3168
      vertex 123.43 19.5 23.8274
    endloop
  endfacet
  facet normal -0.831475 -0 -0.555562
    outer loop
      vertex 123.103 19.5 24.3168
      vertex 123.43 -19.5 23.8274
      vertex 123.103 -19.5 24.3168
    endloop
  endfacet
  facet normal -0.980731 0 -0.195365
    outer loop
      vertex 122.653 -19.5 25.4022
      vertex 122.538 19.5 25.9795
      vertex 122.653 19.5 25.4022
    endloop
  endfacet
  facet normal -0.980731 -0 -0.195365
    outer loop
      vertex 122.538 19.5 25.9795
      vertex 122.653 -19.5 25.4022
      vertex 122.538 -19.5 25.9795
    endloop
  endfacet
  facet normal -0.658961 0 -0.752177
    outer loop
      vertex 123.818 -19.5 23.3849
      vertex 124.261 19.5 22.9968
      vertex 124.261 -19.5 22.9968
    endloop
  endfacet
  facet normal -0.658961 0 -0.752177
    outer loop
      vertex 124.261 19.5 22.9968
      vertex 123.818 -19.5 23.3849
      vertex 123.818 19.5 23.3849
    endloop
  endfacet
  facet normal -0.194974 0 -0.980808
    outer loop
      vertex 125.835 -19.5 22.2202
      vertex 126.413 19.5 22.1053
      vertex 126.413 -19.5 22.1053
    endloop
  endfacet
  facet normal -0.194974 0 -0.980808
    outer loop
      vertex 126.413 19.5 22.1053
      vertex 125.835 -19.5 22.2202
      vertex 125.835 19.5 22.2202
    endloop
  endfacet
  facet normal -0.194811 0 0.980841
    outer loop
      vertex 125.835 22.5 30.9135
      vertex 126.413 -22.5 31.0283
      vertex 126.413 22.5 31.0283
    endloop
  endfacet
  facet normal -0.194811 0 0.980841
    outer loop
      vertex 126.413 -22.5 31.0283
      vertex 125.835 22.5 30.9135
      vertex 125.835 -22.5 30.9135
    endloop
  endfacet
  facet normal 0.194811 0 0.980841
    outer loop
      vertex 127.587 22.5 31.0283
      vertex 128.165 -22.5 30.9135
      vertex 128.165 22.5 30.9135
    endloop
  endfacet
  facet normal 0.194811 0 0.980841
    outer loop
      vertex 128.165 -22.5 30.9135
      vertex 127.587 22.5 31.0283
      vertex 127.587 -22.5 31.0283
    endloop
  endfacet
  facet normal 0.946522 0 -0.322639
    outer loop
      vertex 131.347 -19.5 25.4022
      vertex 131.157 19.5 24.8448
      vertex 131.347 19.5 25.4022
    endloop
  endfacet
  facet normal 0.946522 0 -0.322639
    outer loop
      vertex 131.157 19.5 24.8448
      vertex 131.347 -19.5 25.4022
      vertex 131.157 -19.5 24.8448
    endloop
  endfacet
  facet normal 0.980731 0 -0.195365
    outer loop
      vertex 131.462 -19.5 25.9795
      vertex 131.347 19.5 25.4022
      vertex 131.462 19.5 25.9795
    endloop
  endfacet
  facet normal 0.980731 0 -0.195365
    outer loop
      vertex 131.347 19.5 25.4022
      vertex 131.462 -19.5 25.9795
      vertex 131.347 -19.5 25.4022
    endloop
  endfacet
  facet normal 0.751892 0 -0.659286
    outer loop
      vertex 130.57 -19.5 23.8274
      vertex 130.182 19.5 23.3849
      vertex 130.57 19.5 23.8274
    endloop
  endfacet
  facet normal 0.751892 0 -0.659286
    outer loop
      vertex 130.182 19.5 23.3849
      vertex 130.57 -19.5 23.8274
      vertex 130.182 -19.5 23.3849
    endloop
  endfacet
  facet normal 0.831475 0 -0.555562
    outer loop
      vertex 130.897 -19.5 24.3168
      vertex 130.57 19.5 23.8274
      vertex 130.897 19.5 24.3168
    endloop
  endfacet
  facet normal 0.831475 0 -0.555562
    outer loop
      vertex 130.57 19.5 23.8274
      vertex 130.897 -19.5 24.3168
      vertex 130.57 -19.5 23.8274
    endloop
  endfacet
  facet normal 0.0654471 0 -0.997856
    outer loop
      vertex 127 -19.5 22.0668
      vertex 127.587 19.5 22.1053
      vertex 127.587 -19.5 22.1053
    endloop
  endfacet
  facet normal 0.0654471 0 -0.997856
    outer loop
      vertex 127.587 19.5 22.1053
      vertex 127 -19.5 22.0668
      vertex 127 19.5 22.0668
    endloop
  endfacet
  facet normal -0.946522 0 -0.322639
    outer loop
      vertex 122.843 -19.5 24.8448
      vertex 122.653 19.5 25.4022
      vertex 122.843 19.5 24.8448
    endloop
  endfacet
  facet normal -0.946522 -0 -0.322639
    outer loop
      vertex 122.653 19.5 25.4022
      vertex 122.843 -19.5 24.8448
      vertex 122.653 -19.5 25.4022
    endloop
  endfacet
  facet normal -0.321628 0 -0.946866
    outer loop
      vertex 125.278 -19.5 22.4094
      vertex 125.835 19.5 22.2202
      vertex 125.835 -19.5 22.2202
    endloop
  endfacet
  facet normal -0.321628 0 -0.946866
    outer loop
      vertex 125.835 19.5 22.2202
      vertex 125.278 -19.5 22.4094
      vertex 125.278 19.5 22.4094
    endloop
  endfacet
  facet normal 0.442711 0 0.896665
    outer loop
      vertex 128.722 22.5 30.7243
      vertex 129.041 -22.5 30.5668
      vertex 129.041 22.5 30.5668
    endloop
  endfacet
  facet normal 0.442711 0 0.896665
    outer loop
      vertex 129.041 -22.5 30.5668
      vertex 128.722 22.5 30.7243
      vertex 128.722 -22.5 30.7243
    endloop
  endfacet
  facet normal 0.321628 0 0.946866
    outer loop
      vertex 128.165 22.5 30.9135
      vertex 128.722 -22.5 30.7243
      vertex 128.722 22.5 30.7243
    endloop
  endfacet
  facet normal 0.321628 0 0.946866
    outer loop
      vertex 128.722 -22.5 30.7243
      vertex 128.165 22.5 30.9135
      vertex 128.165 -22.5 30.9135
    endloop
  endfacet
  facet normal 0.442178 0 -0.896927
    outer loop
      vertex 128.722 -19.5 22.4094
      vertex 129.25 19.5 22.6697
      vertex 129.25 -19.5 22.6697
    endloop
  endfacet
  facet normal 0.442178 0 -0.896927
    outer loop
      vertex 129.25 19.5 22.6697
      vertex 128.722 -19.5 22.4094
      vertex 128.722 19.5 22.4094
    endloop
  endfacet
  facet normal -0.997913 0 -0.0645679
    outer loop
      vertex 122.538 -19.5 25.9795
      vertex 122.5 19.5 26.5668
      vertex 122.538 19.5 25.9795
    endloop
  endfacet
  facet normal -0.997913 -0 -0.0645679
    outer loop
      vertex 122.5 19.5 26.5668
      vertex 122.538 -19.5 25.9795
      vertex 122.5 -19.5 26.5668
    endloop
  endfacet
  facet normal -0.555994 0 -0.831186
    outer loop
      vertex 124.261 -19.5 22.9968
      vertex 124.75 19.5 22.6697
      vertex 124.75 -19.5 22.6697
    endloop
  endfacet
  facet normal -0.555994 0 -0.831186
    outer loop
      vertex 124.75 19.5 22.6697
      vertex 124.261 -19.5 22.9968
      vertex 124.261 19.5 22.9968
    endloop
  endfacet
  facet normal 0.0654471 0 0.997856
    outer loop
      vertex 127 22.5 31.0668
      vertex 127.587 -22.5 31.0283
      vertex 127.587 22.5 31.0283
    endloop
  endfacet
  facet normal 0.0654471 0 0.997856
    outer loop
      vertex 127.587 -22.5 31.0283
      vertex 127 22.5 31.0668
      vertex 127 -22.5 31.0668
    endloop
  endfacet
  facet normal -0.321628 0 0.946866
    outer loop
      vertex 125.278 22.5 30.7243
      vertex 125.835 -22.5 30.9135
      vertex 125.835 22.5 30.9135
    endloop
  endfacet
  facet normal -0.321628 0 0.946866
    outer loop
      vertex 125.835 -22.5 30.9135
      vertex 125.278 22.5 30.7243
      vertex 125.278 -22.5 30.7243
    endloop
  endfacet
  facet normal -0.0654471 0 0.997856
    outer loop
      vertex 126.413 22.5 31.0283
      vertex 127 -22.5 31.0668
      vertex 127 22.5 31.0668
    endloop
  endfacet
  facet normal -0.0654471 0 0.997856
    outer loop
      vertex 127 -22.5 31.0668
      vertex 126.413 22.5 31.0283
      vertex 126.413 -22.5 31.0283
    endloop
  endfacet
  facet normal -0.442711 0 0.896665
    outer loop
      vertex 124.959 22.5 30.5668
      vertex 125.278 -22.5 30.7243
      vertex 125.278 22.5 30.7243
    endloop
  endfacet
  facet normal -0.442711 0 0.896665
    outer loop
      vertex 125.278 -22.5 30.7243
      vertex 124.959 22.5 30.5668
      vertex 124.959 -22.5 30.5668
    endloop
  endfacet
  facet normal -0.980813 0.194951 0
    outer loop
      vertex 33.0171 0.261052 21.7
      vertex 33.0681 0.517637 26.5668
      vertex 33.0681 0.517637 21.7
    endloop
  endfacet
  facet normal -0.980813 0.194951 0
    outer loop
      vertex 33.0681 0.517637 26.5668
      vertex 33.0171 0.261052 21.7
      vertex 33.0171 0.261052 26.5668
    endloop
  endfacet
  facet normal 0.831544 0.555459 0
    outer loop
      vertex 36.732 1 26.5668
      vertex 36.5867 1.21752 21.7
      vertex 36.5867 1.21752 26.5668
    endloop
  endfacet
  facet normal 0.831544 0.555459 0
    outer loop
      vertex 36.5867 1.21752 21.7
      vertex 36.732 1 26.5668
      vertex 36.732 1 21.7
    endloop
  endfacet
  facet normal 0.321348 0.946961 -0
    outer loop
      vertex 35.7654 1.84776 21.7
      vertex 35.5176 1.93185 26.5668
      vertex 35.7654 1.84776 26.5668
    endloop
  endfacet
  facet normal 0.321348 0.946961 0
    outer loop
      vertex 35.5176 1.93185 26.5668
      vertex 35.7654 1.84776 21.7
      vertex 35.5176 1.93185 21.7
    endloop
  endfacet
  facet normal -0.442344 0.896845 0
    outer loop
      vertex 34.2346 1.84776 21.7
      vertex 34 1.73205 26.5668
      vertex 34.2346 1.84776 26.5668
    endloop
  endfacet
  facet normal -0.442344 0.896845 0
    outer loop
      vertex 34 1.73205 26.5668
      vertex 34.2346 1.84776 21.7
      vertex 34 1.73205 21.7
    endloop
  endfacet
  facet normal -0.946922 0.321463 0
    outer loop
      vertex 33.0681 0.517637 21.7
      vertex 33.1522 0.765367 26.5668
      vertex 33.1522 0.765367 21.7
    endloop
  endfacet
  facet normal -0.946922 0.321463 0
    outer loop
      vertex 33.1522 0.765367 26.5668
      vertex 33.0681 0.517637 21.7
      vertex 33.0681 0.517637 26.5668
    endloop
  endfacet
  facet normal 0.980813 -0.194951 0
    outer loop
      vertex 36.9319 -0.517637 26.5668
      vertex 36.9829 -0.261052 21.7
      vertex 36.9829 -0.261052 26.5668
    endloop
  endfacet
  facet normal 0.980813 -0.194951 0
    outer loop
      vertex 36.9829 -0.261052 21.7
      vertex 36.9319 -0.517637 26.5668
      vertex 36.9319 -0.517637 21.7
    endloop
  endfacet
  facet normal 0.980813 0.194951 0
    outer loop
      vertex 36.9829 0.261052 26.5668
      vertex 36.9319 0.517637 21.7
      vertex 36.9319 0.517637 26.5668
    endloop
  endfacet
  facet normal 0.980813 0.194951 0
    outer loop
      vertex 36.9319 0.517637 21.7
      vertex 36.9829 0.261052 26.5668
      vertex 36.9829 0.261052 21.7
    endloop
  endfacet
  facet normal -0.0653902 0.99786 0
    outer loop
      vertex 35 2 21.7
      vertex 34.7389 1.98289 26.5668
      vertex 35 2 26.5668
    endloop
  endfacet
  facet normal -0.0653902 0.99786 0
    outer loop
      vertex 34.7389 1.98289 26.5668
      vertex 35 2 21.7
      vertex 34.7389 1.98289 21.7
    endloop
  endfacet
  facet normal 0.5556 0.83145 -0
    outer loop
      vertex 36.2175 1.58671 21.7
      vertex 36 1.73205 26.5668
      vertex 36.2175 1.58671 26.5668
    endloop
  endfacet
  facet normal 0.5556 0.83145 0
    outer loop
      vertex 36 1.73205 26.5668
      vertex 36.2175 1.58671 21.7
      vertex 36 1.73205 21.7
    endloop
  endfacet
  facet normal 0 0 -1
    outer loop
      vertex 36.9829 -0.261052 21.7
      vertex 36.9829 0.261052 21.7
      vertex 37 0 21.7
    endloop
  endfacet
  facet normal 0 0 -1
    outer loop
      vertex 36.9319 -0.517637 21.7
      vertex 36.9829 0.261052 21.7
      vertex 36.9829 -0.261052 21.7
    endloop
  endfacet
  facet normal 0 0 -1
    outer loop
      vertex 36.9319 -0.517637 21.7
      vertex 36.9319 0.517637 21.7
      vertex 36.9829 0.261052 21.7
    endloop
  endfacet
  facet normal 0 0 -1
    outer loop
      vertex 36.8478 -0.765367 21.7
      vertex 36.9319 0.517637 21.7
      vertex 36.9319 -0.517637 21.7
    endloop
  endfacet
  facet normal 0 0 -1
    outer loop
      vertex 36.8478 -0.765367 21.7
      vertex 36.8478 0.765367 21.7
      vertex 36.9319 0.517637 21.7
    endloop
  endfacet
  facet normal 0 0 -1
    outer loop
      vertex 36.732 -1 21.7
      vertex 36.8478 0.765367 21.7
      vertex 36.8478 -0.765367 21.7
    endloop
  endfacet
  facet normal 0 0 -1
    outer loop
      vertex 36.732 -1 21.7
      vertex 36.732 1 21.7
      vertex 36.8478 0.765367 21.7
    endloop
  endfacet
  facet normal 0 0 -1
    outer loop
      vertex 36.5867 -1.21752 21.7
      vertex 36.732 1 21.7
      vertex 36.732 -1 21.7
    endloop
  endfacet
  facet normal 0 0 -1
    outer loop
      vertex 36.5867 -1.21752 21.7
      vertex 36.5867 1.21752 21.7
      vertex 36.732 1 21.7
    endloop
  endfacet
  facet normal 0 0 -1
    outer loop
      vertex 36.4142 -1.41421 21.7
      vertex 36.5867 1.21752 21.7
      vertex 36.5867 -1.21752 21.7
    endloop
  endfacet
  facet normal 0 0 -1
    outer loop
      vertex 36.4142 -1.41421 21.7
      vertex 36.4142 1.41421 21.7
      vertex 36.5867 1.21752 21.7
    endloop
  endfacet
  facet normal 0 0 -1
    outer loop
      vertex 36.2175 -1.58671 21.7
      vertex 36.4142 1.41421 21.7
      vertex 36.4142 -1.41421 21.7
    endloop
  endfacet
  facet normal 0 0 -1
    outer loop
      vertex 36.2175 -1.58671 21.7
      vertex 36.2175 1.58671 21.7
      vertex 36.4142 1.41421 21.7
    endloop
  endfacet
  facet normal 0 0 -1
    outer loop
      vertex 36 -1.73205 21.7
      vertex 36.2175 1.58671 21.7
      vertex 36.2175 -1.58671 21.7
    endloop
  endfacet
  facet normal 0 0 -1
    outer loop
      vertex 36 -1.73205 21.7
      vertex 36 1.73205 21.7
      vertex 36.2175 1.58671 21.7
    endloop
  endfacet
  facet normal 0 0 -1
    outer loop
      vertex 35.7654 -1.84776 21.7
      vertex 36 1.73205 21.7
      vertex 36 -1.73205 21.7
    endloop
  endfacet
  facet normal 0 0 -1
    outer loop
      vertex 35.7654 -1.84776 21.7
      vertex 35.7654 1.84776 21.7
      vertex 36 1.73205 21.7
    endloop
  endfacet
  facet normal 0 0 -1
    outer loop
      vertex 35.5176 -1.93185 21.7
      vertex 35.7654 1.84776 21.7
      vertex 35.7654 -1.84776 21.7
    endloop
  endfacet
  facet normal 0 0 -1
    outer loop
      vertex 35.5176 -1.93185 21.7
      vertex 35.5176 1.93185 21.7
      vertex 35.7654 1.84776 21.7
    endloop
  endfacet
  facet normal 0 0 -1
    outer loop
      vertex 35.2611 -1.98289 21.7
      vertex 35.5176 1.93185 21.7
      vertex 35.5176 -1.93185 21.7
    endloop
  endfacet
  facet normal 0 0 -1
    outer loop
      vertex 35.2611 -1.98289 21.7
      vertex 35.2611 1.98289 21.7
      vertex 35.5176 1.93185 21.7
    endloop
  endfacet
  facet normal 0 0 -1
    outer loop
      vertex 35 -2 21.7
      vertex 35.2611 1.98289 21.7
      vertex 35.2611 -1.98289 21.7
    endloop
  endfacet
  facet normal 0 0 -1
    outer loop
      vertex 35 -2 21.7
      vertex 35 2 21.7
      vertex 35.2611 1.98289 21.7
    endloop
  endfacet
  facet normal 0 0 -1
    outer loop
      vertex 34.7389 -1.98289 21.7
      vertex 35 2 21.7
      vertex 35 -2 21.7
    endloop
  endfacet
  facet normal 0 0 -1
    outer loop
      vertex 34.7389 -1.98289 21.7
      vertex 34.7389 1.98289 21.7
      vertex 35 2 21.7
    endloop
  endfacet
  facet normal 0 0 -1
    outer loop
      vertex 34.4824 -1.93185 21.7
      vertex 34.7389 1.98289 21.7
      vertex 34.7389 -1.98289 21.7
    endloop
  endfacet
  facet normal 0 0 -1
    outer loop
      vertex 34.4824 -1.93185 21.7
      vertex 34.4824 1.93185 21.7
      vertex 34.7389 1.98289 21.7
    endloop
  endfacet
  facet normal 0 0 -1
    outer loop
      vertex 34.2346 -1.84776 21.7
      vertex 34.4824 1.93185 21.7
      vertex 34.4824 -1.93185 21.7
    endloop
  endfacet
  facet normal 0 0 -1
    outer loop
      vertex 34.2346 -1.84776 21.7
      vertex 34.2346 1.84776 21.7
      vertex 34.4824 1.93185 21.7
    endloop
  endfacet
  facet normal 0 0 -1
    outer loop
      vertex 34 -1.73205 21.7
      vertex 34.2346 1.84776 21.7
      vertex 34.2346 -1.84776 21.7
    endloop
  endfacet
  facet normal 0 0 -1
    outer loop
      vertex 34 -1.73205 21.7
      vertex 34 1.73205 21.7
      vertex 34.2346 1.84776 21.7
    endloop
  endfacet
  facet normal 0 0 -1
    outer loop
      vertex 33.7825 -1.58671 21.7
      vertex 34 1.73205 21.7
      vertex 34 -1.73205 21.7
    endloop
  endfacet
  facet normal 0 0 -1
    outer loop
      vertex 33.7825 -1.58671 21.7
      vertex 33.7825 1.58671 21.7
      vertex 34 1.73205 21.7
    endloop
  endfacet
  facet normal 0 0 -1
    outer loop
      vertex 33.5858 -1.41421 21.7
      vertex 33.7825 1.58671 21.7
      vertex 33.7825 -1.58671 21.7
    endloop
  endfacet
  facet normal 0 0 -1
    outer loop
      vertex 33.5858 -1.41421 21.7
      vertex 33.5858 1.41421 21.7
      vertex 33.7825 1.58671 21.7
    endloop
  endfacet
  facet normal 0 0 -1
    outer loop
      vertex 33.4133 -1.21752 21.7
      vertex 33.5858 1.41421 21.7
      vertex 33.5858 -1.41421 21.7
    endloop
  endfacet
  facet normal 0 0 -1
    outer loop
      vertex 33.4133 -1.21752 21.7
      vertex 33.4133 1.21752 21.7
      vertex 33.5858 1.41421 21.7
    endloop
  endfacet
  facet normal 0 0 -1
    outer loop
      vertex 33.2679 -1 21.7
      vertex 33.4133 1.21752 21.7
      vertex 33.4133 -1.21752 21.7
    endloop
  endfacet
  facet normal 0 0 -1
    outer loop
      vertex 33.2679 -1 21.7
      vertex 33.2679 1 21.7
      vertex 33.4133 1.21752 21.7
    endloop
  endfacet
  facet normal 0 0 -1
    outer loop
      vertex 33.1522 -0.765367 21.7
      vertex 33.2679 1 21.7
      vertex 33.2679 -1 21.7
    endloop
  endfacet
  facet normal 0 0 -1
    outer loop
      vertex 33.1522 -0.765367 21.7
      vertex 33.1522 0.765367 21.7
      vertex 33.2679 1 21.7
    endloop
  endfacet
  facet normal 0 0 -1
    outer loop
      vertex 33.0681 -0.517637 21.7
      vertex 33.1522 0.765367 21.7
      vertex 33.1522 -0.765367 21.7
    endloop
  endfacet
  facet normal 0 0 -1
    outer loop
      vertex 33.0681 -0.517637 21.7
      vertex 33.0681 0.517637 21.7
      vertex 33.1522 0.765367 21.7
    endloop
  endfacet
  facet normal 0 0 -1
    outer loop
      vertex 33.0171 -0.261052 21.7
      vertex 33.0681 0.517637 21.7
      vertex 33.0681 -0.517637 21.7
    endloop
  endfacet
  facet normal 0 0 -1
    outer loop
      vertex 33.0171 -0.261052 21.7
      vertex 33.0171 0.261052 21.7
      vertex 33.0681 0.517637 21.7
    endloop
  endfacet
  facet normal 0 -0 -1
    outer loop
      vertex 33.0171 0.261052 21.7
      vertex 33.0171 -0.261052 21.7
      vertex 33 0 21.7
    endloop
  endfacet
  facet normal -0.997861 0.0653641 0
    outer loop
      vertex 33 0 21.7
      vertex 33.0171 0.261052 26.5668
      vertex 33.0171 0.261052 21.7
    endloop
  endfacet
  facet normal -0.997861 0.0653641 0
    outer loop
      vertex 33.0171 0.261052 26.5668
      vertex 33 0 21.7
      vertex 33 0 26.5668
    endloop
  endfacet
  facet normal -0.831368 0.555723 0
    outer loop
      vertex 33.2679 1 21.7
      vertex 33.4133 1.21752 26.5668
      vertex 33.4133 1.21752 21.7
    endloop
  endfacet
  facet normal -0.831368 0.555723 0
    outer loop
      vertex 33.4133 1.21752 26.5668
      vertex 33.2679 1 21.7
      vertex 33.2679 1 26.5668
    endloop
  endfacet
  facet normal -0.5556 0.83145 0
    outer loop
      vertex 34 1.73205 21.7
      vertex 33.7825 1.58671 26.5668
      vertex 34 1.73205 26.5668
    endloop
  endfacet
  facet normal -0.5556 0.83145 0
    outer loop
      vertex 33.7825 1.58671 26.5668
      vertex 34 1.73205 21.7
      vertex 33.7825 1.58671 21.7
    endloop
  endfacet
  facet normal -0.19516 0.980771 0
    outer loop
      vertex 34.7389 1.98289 21.7
      vertex 34.4824 1.93185 26.5668
      vertex 34.7389 1.98289 26.5668
    endloop
  endfacet
  facet normal -0.19516 0.980771 0
    outer loop
      vertex 34.4824 1.93185 26.5668
      vertex 34.7389 1.98289 21.7
      vertex 34.4824 1.93185 21.7
    endloop
  endfacet
  facet normal 0.997861 0.0653641 0
    outer loop
      vertex 37 0 26.5668
      vertex 36.9829 0.261052 21.7
      vertex 36.9829 0.261052 26.5668
    endloop
  endfacet
  facet normal 0.997861 0.0653641 0
    outer loop
      vertex 36.9829 0.261052 21.7
      vertex 37 0 26.5668
      vertex 37 0 21.7
    endloop
  endfacet
  facet normal 0.946922 -0.321463 0
    outer loop
      vertex 36.8478 -0.765367 26.5668
      vertex 36.9319 -0.517637 21.7
      vertex 36.9319 -0.517637 26.5668
    endloop
  endfacet
  facet normal 0.946922 -0.321463 0
    outer loop
      vertex 36.9319 -0.517637 21.7
      vertex 36.8478 -0.765367 26.5668
      vertex 36.8478 -0.765367 21.7
    endloop
  endfacet
  facet normal -0.5556 -0.83145 0
    outer loop
      vertex 33.7825 -1.58671 21.7
      vertex 34 -1.73205 26.5668
      vertex 33.7825 -1.58671 26.5668
    endloop
  endfacet
  facet normal -0.5556 -0.83145 -0
    outer loop
      vertex 34 -1.73205 26.5668
      vertex 33.7825 -1.58671 21.7
      vertex 34 -1.73205 21.7
    endloop
  endfacet
  facet normal -0.831368 -0.555723 0
    outer loop
      vertex 33.4133 -1.21752 21.7
      vertex 33.2679 -1 26.5668
      vertex 33.2679 -1 21.7
    endloop
  endfacet
  facet normal -0.831368 -0.555723 0
    outer loop
      vertex 33.2679 -1 26.5668
      vertex 33.4133 -1.21752 21.7
      vertex 33.4133 -1.21752 26.5668
    endloop
  endfacet
  facet normal 0.5556 -0.83145 0
    outer loop
      vertex 36 -1.73205 21.7
      vertex 36.2175 -1.58671 26.5668
      vertex 36 -1.73205 26.5668
    endloop
  endfacet
  facet normal 0.5556 -0.83145 0
    outer loop
      vertex 36.2175 -1.58671 26.5668
      vertex 36 -1.73205 21.7
      vertex 36.2175 -1.58671 21.7
    endloop
  endfacet
  facet normal 0.659343 0.751842 -0
    outer loop
      vertex 36.4142 1.41421 21.7
      vertex 36.2175 1.58671 26.5668
      vertex 36.4142 1.41421 26.5668
    endloop
  endfacet
  facet normal 0.659343 0.751842 0
    outer loop
      vertex 36.2175 1.58671 26.5668
      vertex 36.4142 1.41421 21.7
      vertex 36.2175 1.58671 21.7
    endloop
  endfacet
  facet normal 0.19516 0.980771 -0
    outer loop
      vertex 35.5176 1.93185 21.7
      vertex 35.2611 1.98289 26.5668
      vertex 35.5176 1.93185 26.5668
    endloop
  endfacet
  facet normal 0.19516 0.980771 0
    outer loop
      vertex 35.2611 1.98289 26.5668
      vertex 35.5176 1.93185 21.7
      vertex 35.2611 1.98289 21.7
    endloop
  endfacet
  facet normal 0.0653902 0.99786 -0
    outer loop
      vertex 35.2611 1.98289 21.7
      vertex 35 2 26.5668
      vertex 35.2611 1.98289 26.5668
    endloop
  endfacet
  facet normal 0.0653902 0.99786 0
    outer loop
      vertex 35 2 26.5668
      vertex 35.2611 1.98289 21.7
      vertex 35 2 21.7
    endloop
  endfacet
  facet normal 0.442344 0.896845 -0
    outer loop
      vertex 36 1.73205 21.7
      vertex 35.7654 1.84776 26.5668
      vertex 36 1.73205 26.5668
    endloop
  endfacet
  facet normal 0.442344 0.896845 0
    outer loop
      vertex 35.7654 1.84776 26.5668
      vertex 36 1.73205 21.7
      vertex 35.7654 1.84776 21.7
    endloop
  endfacet
  facet normal -0.997861 -0.0653641 0
    outer loop
      vertex 33.0171 -0.261052 21.7
      vertex 33 0 26.5668
      vertex 33 0 21.7
    endloop
  endfacet
  facet normal -0.997861 -0.0653641 0
    outer loop
      vertex 33 0 26.5668
      vertex 33.0171 -0.261052 21.7
      vertex 33.0171 -0.261052 26.5668
    endloop
  endfacet
  facet normal -0.896885 0.442264 0
    outer loop
      vertex 33.1522 0.765367 21.7
      vertex 33.2679 1 26.5668
      vertex 33.2679 1 21.7
    endloop
  endfacet
  facet normal -0.896885 0.442264 0
    outer loop
      vertex 33.2679 1 26.5668
      vertex 33.1522 0.765367 21.7
      vertex 33.1522 0.765367 26.5668
    endloop
  endfacet
  facet normal -0.321348 0.946961 0
    outer loop
      vertex 34.4824 1.93185 21.7
      vertex 34.2346 1.84776 26.5668
      vertex 34.4824 1.93185 26.5668
    endloop
  endfacet
  facet normal -0.321348 0.946961 0
    outer loop
      vertex 34.2346 1.84776 26.5668
      vertex 34.4824 1.93185 21.7
      vertex 34.2346 1.84776 21.7
    endloop
  endfacet
  facet normal -0.659343 0.751842 0
    outer loop
      vertex 33.7825 1.58671 21.7
      vertex 33.5858 1.41421 26.5668
      vertex 33.7825 1.58671 26.5668
    endloop
  endfacet
  facet normal -0.659343 0.751842 0
    outer loop
      vertex 33.5858 1.41421 26.5668
      vertex 33.7825 1.58671 21.7
      vertex 33.5858 1.41421 21.7
    endloop
  endfacet
  facet normal -0.751826 0.659362 0
    outer loop
      vertex 33.4133 1.21752 21.7
      vertex 33.5858 1.41421 26.5668
      vertex 33.5858 1.41421 21.7
    endloop
  endfacet
  facet normal -0.751826 0.659362 0
    outer loop
      vertex 33.5858 1.41421 26.5668
      vertex 33.4133 1.21752 21.7
      vertex 33.4133 1.21752 26.5668
    endloop
  endfacet
  facet normal 0.997861 -0.0653641 0
    outer loop
      vertex 36.9829 -0.261052 26.5668
      vertex 37 0 21.7
      vertex 37 0 26.5668
    endloop
  endfacet
  facet normal 0.997861 -0.0653641 0
    outer loop
      vertex 37 0 21.7
      vertex 36.9829 -0.261052 26.5668
      vertex 36.9829 -0.261052 21.7
    endloop
  endfacet
  facet normal 0.831544 -0.555459 0
    outer loop
      vertex 36.5867 -1.21752 26.5668
      vertex 36.732 -1 21.7
      vertex 36.732 -1 26.5668
    endloop
  endfacet
  facet normal 0.831544 -0.555459 0
    outer loop
      vertex 36.732 -1 21.7
      vertex 36.5867 -1.21752 26.5668
      vertex 36.5867 -1.21752 21.7
    endloop
  endfacet
  facet normal -0.980813 -0.194951 0
    outer loop
      vertex 33.0681 -0.517637 21.7
      vertex 33.0171 -0.261052 26.5668
      vertex 33.0171 -0.261052 21.7
    endloop
  endfacet
  facet normal -0.980813 -0.194951 0
    outer loop
      vertex 33.0171 -0.261052 26.5668
      vertex 33.0681 -0.517637 21.7
      vertex 33.0681 -0.517637 26.5668
    endloop
  endfacet
  facet normal -0.751826 -0.659362 0
    outer loop
      vertex 33.5858 -1.41421 21.7
      vertex 33.4133 -1.21752 26.5668
      vertex 33.4133 -1.21752 21.7
    endloop
  endfacet
  facet normal -0.751826 -0.659362 0
    outer loop
      vertex 33.4133 -1.21752 26.5668
      vertex 33.5858 -1.41421 21.7
      vertex 33.5858 -1.41421 26.5668
    endloop
  endfacet
  facet normal 0.19516 -0.980771 0
    outer loop
      vertex 35.2611 -1.98289 21.7
      vertex 35.5176 -1.93185 26.5668
      vertex 35.2611 -1.98289 26.5668
    endloop
  endfacet
  facet normal 0.19516 -0.980771 0
    outer loop
      vertex 35.5176 -1.93185 26.5668
      vertex 35.2611 -1.98289 21.7
      vertex 35.5176 -1.93185 21.7
    endloop
  endfacet
  facet normal 0.659343 -0.751842 0
    outer loop
      vertex 36.2175 -1.58671 21.7
      vertex 36.4142 -1.41421 26.5668
      vertex 36.2175 -1.58671 26.5668
    endloop
  endfacet
  facet normal 0.659343 -0.751842 0
    outer loop
      vertex 36.4142 -1.41421 26.5668
      vertex 36.2175 -1.58671 21.7
      vertex 36.4142 -1.41421 21.7
    endloop
  endfacet
  facet normal 0.896734 0.442571 0
    outer loop
      vertex 36.8478 0.765367 26.5668
      vertex 36.732 1 21.7
      vertex 36.732 1 26.5668
    endloop
  endfacet
  facet normal 0.896734 0.442571 0
    outer loop
      vertex 36.732 1 21.7
      vertex 36.8478 0.765367 26.5668
      vertex 36.8478 0.765367 21.7
    endloop
  endfacet
  facet normal 0.946922 0.321463 0
    outer loop
      vertex 36.9319 0.517637 26.5668
      vertex 36.8478 0.765367 21.7
      vertex 36.8478 0.765367 26.5668
    endloop
  endfacet
  facet normal 0.946922 0.321463 0
    outer loop
      vertex 36.8478 0.765367 21.7
      vertex 36.9319 0.517637 26.5668
      vertex 36.9319 0.517637 21.7
    endloop
  endfacet
  facet normal 0.751826 0.659362 0
    outer loop
      vertex 36.5867 1.21752 26.5668
      vertex 36.4142 1.41421 21.7
      vertex 36.4142 1.41421 26.5668
    endloop
  endfacet
  facet normal 0.751826 0.659362 0
    outer loop
      vertex 36.4142 1.41421 21.7
      vertex 36.5867 1.21752 26.5668
      vertex 36.5867 1.21752 21.7
    endloop
  endfacet
  facet normal 0.896734 -0.442571 0
    outer loop
      vertex 36.732 -1 26.5668
      vertex 36.8478 -0.765367 21.7
      vertex 36.8478 -0.765367 26.5668
    endloop
  endfacet
  facet normal 0.896734 -0.442571 0
    outer loop
      vertex 36.8478 -0.765367 21.7
      vertex 36.732 -1 26.5668
      vertex 36.732 -1 21.7
    endloop
  endfacet
  facet normal 0.0653902 -0.99786 0
    outer loop
      vertex 35 -2 21.7
      vertex 35.2611 -1.98289 26.5668
      vertex 35 -2 26.5668
    endloop
  endfacet
  facet normal 0.0653902 -0.99786 0
    outer loop
      vertex 35.2611 -1.98289 26.5668
      vertex 35 -2 21.7
      vertex 35.2611 -1.98289 21.7
    endloop
  endfacet
  facet normal -0.896885 -0.442264 0
    outer loop
      vertex 33.2679 -1 21.7
      vertex 33.1522 -0.765367 26.5668
      vertex 33.1522 -0.765367 21.7
    endloop
  endfacet
  facet normal -0.896885 -0.442264 0
    outer loop
      vertex 33.1522 -0.765367 26.5668
      vertex 33.2679 -1 21.7
      vertex 33.2679 -1 26.5668
    endloop
  endfacet
  facet normal -0.946922 -0.321463 0
    outer loop
      vertex 33.1522 -0.765367 21.7
      vertex 33.0681 -0.517637 26.5668
      vertex 33.0681 -0.517637 21.7
    endloop
  endfacet
  facet normal -0.946922 -0.321463 0
    outer loop
      vertex 33.0681 -0.517637 26.5668
      vertex 33.1522 -0.765367 21.7
      vertex 33.1522 -0.765367 26.5668
    endloop
  endfacet
  facet normal -0.659343 -0.751842 0
    outer loop
      vertex 33.5858 -1.41421 21.7
      vertex 33.7825 -1.58671 26.5668
      vertex 33.5858 -1.41421 26.5668
    endloop
  endfacet
  facet normal -0.659343 -0.751842 -0
    outer loop
      vertex 33.7825 -1.58671 26.5668
      vertex 33.5858 -1.41421 21.7
      vertex 33.7825 -1.58671 21.7
    endloop
  endfacet
  facet normal 0.442344 -0.896845 0
    outer loop
      vertex 35.7654 -1.84776 21.7
      vertex 36 -1.73205 26.5668
      vertex 35.7654 -1.84776 26.5668
    endloop
  endfacet
  facet normal 0.442344 -0.896845 0
    outer loop
      vertex 36 -1.73205 26.5668
      vertex 35.7654 -1.84776 21.7
      vertex 36 -1.73205 21.7
    endloop
  endfacet
  facet normal 0.321348 -0.946961 0
    outer loop
      vertex 35.5176 -1.93185 21.7
      vertex 35.7654 -1.84776 26.5668
      vertex 35.5176 -1.93185 26.5668
    endloop
  endfacet
  facet normal 0.321348 -0.946961 0
    outer loop
      vertex 35.7654 -1.84776 26.5668
      vertex 35.5176 -1.93185 21.7
      vertex 35.7654 -1.84776 21.7
    endloop
  endfacet
  facet normal 0.751826 -0.659362 0
    outer loop
      vertex 36.4142 -1.41421 26.5668
      vertex 36.5867 -1.21752 21.7
      vertex 36.5867 -1.21752 26.5668
    endloop
  endfacet
  facet normal 0.751826 -0.659362 0
    outer loop
      vertex 36.5867 -1.21752 21.7
      vertex 36.4142 -1.41421 26.5668
      vertex 36.4142 -1.41421 21.7
    endloop
  endfacet
  facet normal -0.19516 -0.980771 0
    outer loop
      vertex 34.4824 -1.93185 21.7
      vertex 34.7389 -1.98289 26.5668
      vertex 34.4824 -1.93185 26.5668
    endloop
  endfacet
  facet normal -0.19516 -0.980771 -0
    outer loop
      vertex 34.7389 -1.98289 26.5668
      vertex 34.4824 -1.93185 21.7
      vertex 34.7389 -1.98289 21.7
    endloop
  endfacet
  facet normal -0.321348 -0.946961 0
    outer loop
      vertex 34.2346 -1.84776 21.7
      vertex 34.4824 -1.93185 26.5668
      vertex 34.2346 -1.84776 26.5668
    endloop
  endfacet
  facet normal -0.321348 -0.946961 -0
    outer loop
      vertex 34.4824 -1.93185 26.5668
      vertex 34.2346 -1.84776 21.7
      vertex 34.4824 -1.93185 21.7
    endloop
  endfacet
  facet normal -0.0653902 -0.99786 0
    outer loop
      vertex 34.7389 -1.98289 21.7
      vertex 35 -2 26.5668
      vertex 34.7389 -1.98289 26.5668
    endloop
  endfacet
  facet normal -0.0653902 -0.99786 -0
    outer loop
      vertex 35 -2 26.5668
      vertex 34.7389 -1.98289 21.7
      vertex 35 -2 21.7
    endloop
  endfacet
  facet normal -0.442344 -0.896845 0
    outer loop
      vertex 34 -1.73205 21.7
      vertex 34.2346 -1.84776 26.5668
      vertex 34 -1.73205 26.5668
    endloop
  endfacet
  facet normal -0.442344 -0.896845 -0
    outer loop
      vertex 34.2346 -1.84776 26.5668
      vertex 34 -1.73205 21.7
      vertex 34.2346 -1.84776 21.7
    endloop
  endfacet
  facet normal 0.947598 -0 0.319466
    outer loop
      vertex 125.358 -22.5 26.1269
      vertex 125.429 22.5 25.9163
      vertex 125.358 22.5 26.1269
    endloop
  endfacet
  facet normal 0.947598 0 0.319466
    outer loop
      vertex 125.429 22.5 25.9163
      vertex 125.358 -22.5 26.1269
      vertex 125.429 -22.5 25.9163
    endloop
  endfacet
  facet normal -0.832466 0 0.554076
    outer loop
      vertex 128.349 -22.5 25.532
      vertex 128.472 22.5 25.7168
      vertex 128.349 22.5 25.532
    endloop
  endfacet
  facet normal -0.832466 0 0.554076
    outer loop
      vertex 128.472 22.5 25.7168
      vertex 128.349 -22.5 25.532
      vertex 128.472 -22.5 25.7168
    endloop
  endfacet
  facet normal -0.195251 0 0.980753
    outer loop
      vertex 127.222 22.5 24.8814
      vertex 127.44 -22.5 24.9248
      vertex 127.44 22.5 24.9248
    endloop
  endfacet
  facet normal -0.195251 0 0.980753
    outer loop
      vertex 127.44 -22.5 24.9248
      vertex 127.222 22.5 24.8814
      vertex 127.222 -22.5 24.8814
    endloop
  endfacet
  facet normal -0.320937 0 0.947101
    outer loop
      vertex 127.44 22.5 24.9248
      vertex 127.651 -22.5 24.9963
      vertex 127.651 22.5 24.9963
    endloop
  endfacet
  facet normal -0.320937 0 0.947101
    outer loop
      vertex 127.651 -22.5 24.9963
      vertex 127.44 22.5 24.9248
      vertex 127.44 -22.5 24.9248
    endloop
  endfacet
  facet normal 0.320937 0 0.947101
    outer loop
      vertex 126.349 22.5 24.9963
      vertex 126.56 -22.5 24.9248
      vertex 126.56 22.5 24.9248
    endloop
  endfacet
  facet normal 0.320937 0 0.947101
    outer loop
      vertex 126.56 -22.5 24.9248
      vertex 126.349 22.5 24.9963
      vertex 126.349 -22.5 24.9963
    endloop
  endfacet
  facet normal 0.89577 -0 0.444518
    outer loop
      vertex 125.429 -22.5 25.9163
      vertex 125.528 22.5 25.7168
      vertex 125.429 22.5 25.9163
    endloop
  endfacet
  facet normal 0.89577 0 0.444518
    outer loop
      vertex 125.528 22.5 25.7168
      vertex 125.429 -22.5 25.9163
      vertex 125.528 -22.5 25.7168
    endloop
  endfacet
  facet normal -0.997723 0 -0.0674441
    outer loop
      vertex 128.7 -22.5 26.5668
      vertex 128.685 22.5 26.7887
      vertex 128.7 22.5 26.5668
    endloop
  endfacet
  facet normal -0.997723 -0 -0.0674441
    outer loop
      vertex 128.685 22.5 26.7887
      vertex 128.7 -22.5 26.5668
      vertex 128.685 -22.5 26.7887
    endloop
  endfacet
  facet normal -0.442883 0 -0.896579
    outer loop
      vertex 127.651 -22.5 28.1374
      vertex 127.85 22.5 28.0391
      vertex 127.85 -22.5 28.0391
    endloop
  endfacet
  facet normal -0.442883 0 -0.896579
    outer loop
      vertex 127.85 22.5 28.0391
      vertex 127.651 -22.5 28.1374
      vertex 127.651 22.5 28.1374
    endloop
  endfacet
  facet normal -0.981113 0 0.193434
    outer loop
      vertex 128.642 -22.5 26.1269
      vertex 128.685 22.5 26.345
      vertex 128.642 22.5 26.1269
    endloop
  endfacet
  facet normal -0.981113 0 0.193434
    outer loop
      vertex 128.685 22.5 26.345
      vertex 128.642 -22.5 26.1269
      vertex 128.685 -22.5 26.345
    endloop
  endfacet
  facet normal -0.065624 0 0.997844
    outer loop
      vertex 127 22.5 24.8668
      vertex 127.222 -22.5 24.8814
      vertex 127.222 22.5 24.8814
    endloop
  endfacet
  facet normal -0.065624 0 0.997844
    outer loop
      vertex 127.222 -22.5 24.8814
      vertex 127 22.5 24.8668
      vertex 127 -22.5 24.8668
    endloop
  endfacet
  facet normal -0.442883 0 0.896579
    outer loop
      vertex 127.651 22.5 24.9963
      vertex 127.85 -22.5 25.0946
      vertex 127.85 22.5 25.0946
    endloop
  endfacet
  facet normal -0.442883 0 0.896579
    outer loop
      vertex 127.85 -22.5 25.0946
      vertex 127.651 22.5 24.9963
      vertex 127.651 -22.5 24.9963
    endloop
  endfacet
  facet normal 0.751016 -0 0.660284
    outer loop
      vertex 125.651 -22.5 25.532
      vertex 125.798 22.5 25.3648
      vertex 125.651 22.5 25.532
    endloop
  endfacet
  facet normal 0.751016 0 0.660284
    outer loop
      vertex 125.798 22.5 25.3648
      vertex 125.651 -22.5 25.532
      vertex 125.798 -22.5 25.3648
    endloop
  endfacet
  facet normal 0.659968 0 0.751293
    outer loop
      vertex 125.798 22.5 25.3648
      vertex 125.965 -22.5 25.2181
      vertex 125.965 22.5 25.2181
    endloop
  endfacet
  facet normal 0.659968 0 0.751293
    outer loop
      vertex 125.965 -22.5 25.2181
      vertex 125.798 22.5 25.3648
      vertex 125.798 -22.5 25.3648
    endloop
  endfacet
  facet normal -0.997721 0 0.0674744
    outer loop
      vertex 128.685 -22.5 26.345
      vertex 128.7 22.5 26.5668
      vertex 128.685 22.5 26.345
    endloop
  endfacet
  facet normal -0.997721 0 0.0674744
    outer loop
      vertex 128.7 22.5 26.5668
      vertex 128.685 -22.5 26.345
      vertex 128.7 -22.5 26.5668
    endloop
  endfacet
  facet normal -0.55553 0 -0.831497
    outer loop
      vertex 127.85 -22.5 28.0391
      vertex 128.035 22.5 27.9155
      vertex 128.035 -22.5 27.9155
    endloop
  endfacet
  facet normal -0.55553 0 -0.831497
    outer loop
      vertex 128.035 22.5 27.9155
      vertex 127.85 -22.5 28.0391
      vertex 127.85 22.5 28.0391
    endloop
  endfacet
  facet normal -0.947598 0 -0.319466
    outer loop
      vertex 128.642 -22.5 27.0068
      vertex 128.571 22.5 27.2174
      vertex 128.642 22.5 27.0068
    endloop
  endfacet
  facet normal -0.947598 -0 -0.319466
    outer loop
      vertex 128.571 22.5 27.2174
      vertex 128.642 -22.5 27.0068
      vertex 128.571 -22.5 27.2174
    endloop
  endfacet
  facet normal -0.320937 0 -0.947101
    outer loop
      vertex 127.44 -22.5 28.2089
      vertex 127.651 22.5 28.1374
      vertex 127.651 -22.5 28.1374
    endloop
  endfacet
  facet normal -0.320937 0 -0.947101
    outer loop
      vertex 127.651 22.5 28.1374
      vertex 127.44 -22.5 28.2089
      vertex 127.44 22.5 28.2089
    endloop
  endfacet
  facet normal -0.659968 0 0.751293
    outer loop
      vertex 128.035 22.5 25.2181
      vertex 128.202 -22.5 25.3648
      vertex 128.202 22.5 25.3648
    endloop
  endfacet
  facet normal -0.659968 0 0.751293
    outer loop
      vertex 128.202 -22.5 25.3648
      vertex 128.035 22.5 25.2181
      vertex 128.035 -22.5 25.2181
    endloop
  endfacet
  facet normal -0.751016 0 0.660284
    outer loop
      vertex 128.202 -22.5 25.3648
      vertex 128.349 22.5 25.532
      vertex 128.202 22.5 25.3648
    endloop
  endfacet
  facet normal -0.751016 0 0.660284
    outer loop
      vertex 128.349 22.5 25.532
      vertex 128.202 -22.5 25.3648
      vertex 128.349 -22.5 25.532
    endloop
  endfacet
  facet normal 0.997721 -0 0.0674744
    outer loop
      vertex 125.3 -22.5 26.5668
      vertex 125.315 22.5 26.345
      vertex 125.3 22.5 26.5668
    endloop
  endfacet
  facet normal 0.997721 0 0.0674744
    outer loop
      vertex 125.315 22.5 26.345
      vertex 125.3 -22.5 26.5668
      vertex 125.315 -22.5 26.345
    endloop
  endfacet
  facet normal 0.065624 0 0.997844
    outer loop
      vertex 126.778 22.5 24.8814
      vertex 127 -22.5 24.8668
      vertex 127 22.5 24.8668
    endloop
  endfacet
  facet normal 0.065624 0 0.997844
    outer loop
      vertex 127 -22.5 24.8668
      vertex 126.778 22.5 24.8814
      vertex 126.778 -22.5 24.8814
    endloop
  endfacet
  facet normal 0.195251 0 0.980753
    outer loop
      vertex 126.56 22.5 24.9248
      vertex 126.778 -22.5 24.8814
      vertex 126.778 22.5 24.8814
    endloop
  endfacet
  facet normal 0.195251 0 0.980753
    outer loop
      vertex 126.778 -22.5 24.8814
      vertex 126.56 22.5 24.9248
      vertex 126.56 -22.5 24.9248
    endloop
  endfacet
  facet normal 0.442883 0 0.896579
    outer loop
      vertex 126.15 22.5 25.0946
      vertex 126.349 -22.5 24.9963
      vertex 126.349 22.5 24.9963
    endloop
  endfacet
  facet normal 0.442883 0 0.896579
    outer loop
      vertex 126.349 -22.5 24.9963
      vertex 126.15 22.5 25.0946
      vertex 126.15 -22.5 25.0946
    endloop
  endfacet
  facet normal 0.555219 0 0.831704
    outer loop
      vertex 125.965 22.5 25.2181
      vertex 126.15 -22.5 25.0946
      vertex 126.15 22.5 25.0946
    endloop
  endfacet
  facet normal 0.555219 0 0.831704
    outer loop
      vertex 126.15 -22.5 25.0946
      vertex 125.965 22.5 25.2181
      vertex 125.965 -22.5 25.2181
    endloop
  endfacet
  facet normal -0.981113 0 -0.193434
    outer loop
      vertex 128.685 -22.5 26.7887
      vertex 128.642 22.5 27.0068
      vertex 128.685 22.5 26.7887
    endloop
  endfacet
  facet normal -0.981113 -0 -0.193434
    outer loop
      vertex 128.642 22.5 27.0068
      vertex 128.685 -22.5 26.7887
      vertex 128.642 -22.5 27.0068
    endloop
  endfacet
  facet normal -0.832604 0 -0.553869
    outer loop
      vertex 128.472 -22.5 27.4168
      vertex 128.349 22.5 27.6017
      vertex 128.472 22.5 27.4168
    endloop
  endfacet
  facet normal -0.832604 -0 -0.553869
    outer loop
      vertex 128.349 22.5 27.6017
      vertex 128.472 -22.5 27.4168
      vertex 128.349 -22.5 27.6017
    endloop
  endfacet
  facet normal -0.895681 0 -0.444696
    outer loop
      vertex 128.571 -22.5 27.2174
      vertex 128.472 22.5 27.4168
      vertex 128.571 22.5 27.2174
    endloop
  endfacet
  facet normal -0.895681 -0 -0.444696
    outer loop
      vertex 128.472 22.5 27.4168
      vertex 128.571 -22.5 27.2174
      vertex 128.472 -22.5 27.4168
    endloop
  endfacet
  facet normal -0.195251 0 -0.980753
    outer loop
      vertex 127.222 -22.5 28.2523
      vertex 127.44 22.5 28.2089
      vertex 127.44 -22.5 28.2089
    endloop
  endfacet
  facet normal -0.195251 0 -0.980753
    outer loop
      vertex 127.44 22.5 28.2089
      vertex 127.222 -22.5 28.2523
      vertex 127.222 22.5 28.2523
    endloop
  endfacet
  facet normal -0.89577 0 0.444518
    outer loop
      vertex 128.472 -22.5 25.7168
      vertex 128.571 22.5 25.9163
      vertex 128.472 22.5 25.7168
    endloop
  endfacet
  facet normal -0.89577 0 0.444518
    outer loop
      vertex 128.571 22.5 25.9163
      vertex 128.472 -22.5 25.7168
      vertex 128.571 -22.5 25.9163
    endloop
  endfacet
  facet normal -0.947598 0 0.319466
    outer loop
      vertex 128.571 -22.5 25.9163
      vertex 128.642 22.5 26.1269
      vertex 128.571 22.5 25.9163
    endloop
  endfacet
  facet normal -0.947598 0 0.319466
    outer loop
      vertex 128.642 22.5 26.1269
      vertex 128.571 -22.5 25.9163
      vertex 128.642 -22.5 26.1269
    endloop
  endfacet
  facet normal -0.555219 0 0.831704
    outer loop
      vertex 127.85 22.5 25.0946
      vertex 128.035 -22.5 25.2181
      vertex 128.035 22.5 25.2181
    endloop
  endfacet
  facet normal -0.555219 0 0.831704
    outer loop
      vertex 128.035 -22.5 25.2181
      vertex 127.85 22.5 25.0946
      vertex 127.85 -22.5 25.0946
    endloop
  endfacet
  facet normal 0.981113 -0 0.193434
    outer loop
      vertex 125.315 -22.5 26.345
      vertex 125.358 22.5 26.1269
      vertex 125.315 22.5 26.345
    endloop
  endfacet
  facet normal 0.981113 0 0.193434
    outer loop
      vertex 125.358 22.5 26.1269
      vertex 125.315 -22.5 26.345
      vertex 125.358 -22.5 26.1269
    endloop
  endfacet
  facet normal 0.832466 -0 0.554076
    outer loop
      vertex 125.528 -22.5 25.7168
      vertex 125.651 22.5 25.532
      vertex 125.528 22.5 25.7168
    endloop
  endfacet
  facet normal 0.832466 0 0.554076
    outer loop
      vertex 125.651 22.5 25.532
      vertex 125.528 -22.5 25.7168
      vertex 125.651 -22.5 25.532
    endloop
  endfacet
  facet normal 0.320937 0 -0.947101
    outer loop
      vertex 126.349 -22.5 28.1374
      vertex 126.56 22.5 28.2089
      vertex 126.56 -22.5 28.2089
    endloop
  endfacet
  facet normal 0.320937 0 -0.947101
    outer loop
      vertex 126.56 22.5 28.2089
      vertex 126.349 -22.5 28.1374
      vertex 126.349 22.5 28.1374
    endloop
  endfacet
  facet normal 0.0651764 0 -0.997874
    outer loop
      vertex 126.778 -22.5 28.2523
      vertex 127 22.5 28.2668
      vertex 127 -22.5 28.2668
    endloop
  endfacet
  facet normal 0.0651764 0 -0.997874
    outer loop
      vertex 127 22.5 28.2668
      vertex 126.778 -22.5 28.2523
      vertex 126.778 22.5 28.2523
    endloop
  endfacet
  facet normal 0.997723 0 -0.0674441
    outer loop
      vertex 125.315 -22.5 26.7887
      vertex 125.3 22.5 26.5668
      vertex 125.315 22.5 26.7887
    endloop
  endfacet
  facet normal 0.997723 0 -0.0674441
    outer loop
      vertex 125.3 22.5 26.5668
      vertex 125.315 -22.5 26.7887
      vertex 125.3 -22.5 26.5668
    endloop
  endfacet
  facet normal 0.947598 0 -0.319466
    outer loop
      vertex 125.429 -22.5 27.2174
      vertex 125.358 22.5 27.0068
      vertex 125.429 22.5 27.2174
    endloop
  endfacet
  facet normal 0.947598 0 -0.319466
    outer loop
      vertex 125.358 22.5 27.0068
      vertex 125.429 -22.5 27.2174
      vertex 125.358 -22.5 27.0068
    endloop
  endfacet
  facet normal 0.751016 0 -0.660284
    outer loop
      vertex 125.798 -22.5 27.7689
      vertex 125.651 22.5 27.6017
      vertex 125.798 22.5 27.7689
    endloop
  endfacet
  facet normal 0.751016 0 -0.660284
    outer loop
      vertex 125.651 22.5 27.6017
      vertex 125.798 -22.5 27.7689
      vertex 125.651 -22.5 27.6017
    endloop
  endfacet
  facet normal -0.659714 0 -0.751516
    outer loop
      vertex 128.035 -22.5 27.9155
      vertex 128.202 22.5 27.7689
      vertex 128.202 -22.5 27.7689
    endloop
  endfacet
  facet normal -0.659714 0 -0.751516
    outer loop
      vertex 128.202 22.5 27.7689
      vertex 128.035 -22.5 27.9155
      vertex 128.035 22.5 27.9155
    endloop
  endfacet
  facet normal 0.55553 0 -0.831497
    outer loop
      vertex 125.965 -22.5 27.9155
      vertex 126.15 22.5 28.0391
      vertex 126.15 -22.5 28.0391
    endloop
  endfacet
  facet normal 0.55553 0 -0.831497
    outer loop
      vertex 126.15 22.5 28.0391
      vertex 125.965 -22.5 27.9155
      vertex 125.965 22.5 27.9155
    endloop
  endfacet
  facet normal -0.0651764 0 -0.997874
    outer loop
      vertex 127 -22.5 28.2668
      vertex 127.222 22.5 28.2523
      vertex 127.222 -22.5 28.2523
    endloop
  endfacet
  facet normal -0.0651764 0 -0.997874
    outer loop
      vertex 127.222 22.5 28.2523
      vertex 127 -22.5 28.2668
      vertex 127 22.5 28.2668
    endloop
  endfacet
  facet normal 0.195251 0 -0.980753
    outer loop
      vertex 126.56 -22.5 28.2089
      vertex 126.778 22.5 28.2523
      vertex 126.778 -22.5 28.2523
    endloop
  endfacet
  facet normal 0.195251 0 -0.980753
    outer loop
      vertex 126.778 22.5 28.2523
      vertex 126.56 -22.5 28.2089
      vertex 126.56 22.5 28.2089
    endloop
  endfacet
  facet normal 0.981113 0 -0.193434
    outer loop
      vertex 125.358 -22.5 27.0068
      vertex 125.315 22.5 26.7887
      vertex 125.358 22.5 27.0068
    endloop
  endfacet
  facet normal 0.981113 0 -0.193434
    outer loop
      vertex 125.315 22.5 26.7887
      vertex 125.358 -22.5 27.0068
      vertex 125.315 -22.5 26.7887
    endloop
  endfacet
  facet normal 0.659714 0 -0.751516
    outer loop
      vertex 125.798 -22.5 27.7689
      vertex 125.965 22.5 27.9155
      vertex 125.965 -22.5 27.9155
    endloop
  endfacet
  facet normal 0.659714 0 -0.751516
    outer loop
      vertex 125.965 22.5 27.9155
      vertex 125.798 -22.5 27.7689
      vertex 125.798 22.5 27.7689
    endloop
  endfacet
  facet normal 0.895681 0 -0.444696
    outer loop
      vertex 125.528 -22.5 27.4168
      vertex 125.429 22.5 27.2174
      vertex 125.528 22.5 27.4168
    endloop
  endfacet
  facet normal 0.895681 0 -0.444696
    outer loop
      vertex 125.429 22.5 27.2174
      vertex 125.528 -22.5 27.4168
      vertex 125.429 -22.5 27.2174
    endloop
  endfacet
  facet normal -0.751016 0 -0.660284
    outer loop
      vertex 128.349 -22.5 27.6017
      vertex 128.202 22.5 27.7689
      vertex 128.349 22.5 27.6017
    endloop
  endfacet
  facet normal -0.751016 -0 -0.660284
    outer loop
      vertex 128.202 22.5 27.7689
      vertex 128.349 -22.5 27.6017
      vertex 128.202 -22.5 27.7689
    endloop
  endfacet
  facet normal 0.442883 0 -0.896579
    outer loop
      vertex 126.15 -22.5 28.0391
      vertex 126.349 22.5 28.1374
      vertex 126.349 -22.5 28.1374
    endloop
  endfacet
  facet normal 0.442883 0 -0.896579
    outer loop
      vertex 126.349 22.5 28.1374
      vertex 126.15 -22.5 28.0391
      vertex 126.15 22.5 28.0391
    endloop
  endfacet
  facet normal 0.832604 0 -0.553869
    outer loop
      vertex 125.651 -22.5 27.6017
      vertex 125.528 22.5 27.4168
      vertex 125.651 22.5 27.6017
    endloop
  endfacet
  facet normal 0.832604 0 -0.553869
    outer loop
      vertex 125.528 22.5 27.4168
      vertex 125.651 -22.5 27.6017
      vertex 125.528 -22.5 27.4168
    endloop
  endfacet
endsolid OpenSCAD_Model
